<?xml version="1.0" encoding="utf-8"?>
<!-- Generator: Adobe Illustrator 26.3.1, SVG Export Plug-In . SVG Version: 6.00 Build 0)  -->
<svg version="1.1" id="Слой_1" xmlns="http://www.w3.org/2000/svg" xmlns:xlink="http://www.w3.org/1999/xlink" x="0px" y="0px"
	 viewBox="0 0 17 13" style="enable-background:new 0 0 17 13;" xml:space="preserve">
<path d="M17,1.9C17,1.9,17,1.9,17,1.9C16.9,0.8,16,0,14.9,0H2.1C1,0,0.1,0.8,0,1.9c0,0,0,0,0,0C0,1.9,0,2,0,2v9c0,1.1,0.9,2,2.1,2
	h12.8c1.2,0,2.1-0.9,2.1-2L17,1.9C17,2,17,1.9,17,1.9z M2.1,1h12.8c0.5,0,0.9,0.3,1,0.8L8.5,6.7L1.1,1.8C1.2,1.3,1.6,1,2.1,1z
	 M14.9,12H2.1C1.5,12,1,11.6,1,11V2.9l7.2,4.7c0.1,0.1,0.2,0.1,0.3,0.1s0.2,0,0.3-0.1L16,2.9V11C16,11.6,15.5,12,14.9,12z"/>
</svg>
