<svg width="36" height="41" viewBox="0 0 36 41" fill="none" xmlns="http://www.w3.org/2000/svg">
<path d="M17.9998 28.9645C23.9821 28.9645 28.8317 24.0791 28.8317 18.0526C28.8317 12.0261 23.9821 7.14062 17.9998 7.14062C12.0176 7.14062 7.16797 12.0261 7.16797 18.0526C7.16797 24.0791 12.0176 28.9645 17.9998 28.9645Z" fill="white"/>
<path d="M30.7279 5.31098C27.3282 1.88616 22.808 0 18 0C13.192 0 8.67178 1.88616 5.27209 5.31098C1.87232 8.73597 0 13.2895 0 18.1331C0 26.678 5.92996 34.0551 14.168 35.8529L18 41L21.8321 35.8528C30.07 34.055 36 26.678 36 18.1331C36 13.2895 34.1277 8.73597 30.7279 5.31098ZM18 4.73386C25.2902 4.73386 31.2212 10.7088 31.2212 18.0528C31.2212 25.3969 25.2902 31.3718 18 31.3718C10.7098 31.3718 4.77876 25.3969 4.77876 18.0528C4.77876 10.7088 10.7098 4.73386 18 4.73386Z" fill="black"/>
</svg>
