<?xml version="1.0" encoding="utf-8"?>
<!-- Generator: Adobe Illustrator 26.3.1, SVG Export Plug-In . SVG Version: 6.00 Build 0)  -->
<svg version="1.1" id="Слой_1" xmlns="http://www.w3.org/2000/svg" xmlns:xlink="http://www.w3.org/1999/xlink" x="0px" y="0px"
	 viewBox="0 0 9 9" style="enable-background:new 0 0 9 9;" xml:space="preserve">
<path d="M9,4.7C9,4.6,9,4.4,9,4.3c0-0.1-0.1-0.1-0.1-0.2l-4-4C4.7,0,4.3,0,4.1,0.1S4,0.7,4.1,0.9L7.3,4H0.5C0.2,4,0,4.2,0,4.5
	S0.2,5,0.5,5h6.8L4.1,8.1C4,8.3,4,8.7,4.1,8.9C4.2,9,4.4,9,4.5,9s0.3,0,0.4-0.1l4-4C8.9,4.8,8.9,4.8,9,4.7z"/>
</svg>
