<?xml version="1.0" encoding="utf-8"?>
<!-- Generator: Adobe Illustrator 26.3.1, SVG Export Plug-In . SVG Version: 6.00 Build 0)  -->
<svg version="1.1" id="Слой_1" xmlns="http://www.w3.org/2000/svg" xmlns:xlink="http://www.w3.org/1999/xlink" x="0px" y="0px"
	 viewBox="0 0 22 22" style="enable-background:new 0 0 22 22;" xml:space="preserve">
<style type="text/css">
	.st0{fill:#FF6B00;}
</style>
<g>
	<path class="st0" d="M16,0H6C2.7,0,0,2.7,0,6v10c0,3.3,2.7,6,6,6h10c3.3,0,6-2.7,6-6V6C22,2.7,19.3,0,16,0z M11,3
		c2.3,0,4.2,1.8,4.2,4.1c0,2.2-1.9,4-4.2,4c-2.3,0-4.2-1.8-4.2-4.1C6.8,4.8,8.7,3,11,3z M15.7,12.7c-0.5,0.5-1.1,0.9-1.8,1.1
		c-0.7,0.2-1.4,0.4-2.1,0.4c0.1,0.1,0.2,0.2,0.2,0.2c1,0.9,1.9,1.8,2.9,2.8c0.3,0.3,0.4,0.7,0.2,1.1C15,18.8,14.5,19,14.1,19
		c-0.3,0-0.5-0.1-0.7-0.3c-0.7-0.7-1.5-1.4-2.2-2.1c-0.2-0.2-0.3-0.2-0.5,0C10,17.3,9.3,18,8.5,18.7c-0.3,0.3-0.7,0.4-1.1,0.2
		c-0.4-0.2-0.7-0.6-0.7-1c0-0.3,0.2-0.5,0.4-0.7c0.9-0.9,1.9-1.8,2.8-2.7c0.1-0.1,0.1-0.1,0.2-0.2c-1.3-0.1-2.5-0.4-3.5-1.2
		c-0.1-0.1-0.3-0.2-0.4-0.3c-0.4-0.4-0.5-0.9-0.1-1.3c0.3-0.4,0.8-0.5,1.3-0.3c0.1,0,0.2,0.1,0.3,0.2c1.9,1.2,4.4,1.3,6.3,0.1
		c0.2-0.1,0.4-0.2,0.6-0.3c0.4-0.1,0.9,0,1.1,0.4C16.1,11.9,16.1,12.4,15.7,12.7z"/>
	<path class="st0" d="M11,9C11,9,11,9,11,9c1.1,0,2.1-0.9,2.1-2c0,0,0,0,0,0v0c0-1.1-0.9-2-2-2c0,0,0,0,0,0c-1.1,0-2.1,0.9-2.1,2
		c0,0,0,0,0,0C8.9,8.2,9.9,9,11,9z"/>
</g>
</svg>
