<svg width="36" height="36" viewBox="0 0 36 36" fill="none" xmlns="http://www.w3.org/2000/svg">
<rect width="36" height="36" rx="3" fill="#FF6B00"/>
<path d="M22.0783 21.8808C21.166 22.2148 20.1663 22.3829 19.1785 22.4934C19.3272 22.6472 19.398 22.7224 19.4913 22.8109C20.8331 24.0827 22.1822 25.3513 23.5206 26.6276C23.9761 27.0633 24.0717 27.6019 23.8203 28.1085C23.5454 28.6614 22.9316 29.0253 22.3285 28.9866C21.9473 28.9612 21.6499 28.782 21.3844 28.531C20.3717 27.5688 19.3401 26.6243 18.3476 25.6443C18.0584 25.359 17.9192 25.4132 17.6642 25.6609C16.6457 26.6508 15.6106 27.6251 14.5673 28.5951C14.1 29.0297 13.5428 29.1082 13 28.8605C12.424 28.5951 12.0557 28.041 12.0853 27.4825C12.1041 27.1042 12.3012 26.8167 12.5763 26.5579C13.9052 25.3059 15.2294 24.0507 16.5548 22.7976C16.6422 22.7136 16.7248 22.6251 16.8522 22.4957C15.0453 22.3187 13.4154 21.8985 12.0204 20.8688C11.8468 20.7405 11.6675 20.6167 11.5105 20.474C10.8991 19.921 10.8378 19.2862 11.3217 18.6336C11.7347 18.074 12.4287 17.9247 13.1498 18.2466C13.2891 18.3074 13.4213 18.3859 13.55 18.4689C16.15 20.1543 19.7226 20.2008 22.3321 18.5452C22.5917 18.3571 22.8679 18.2045 23.1877 18.1271C23.8109 17.9767 24.3916 18.1924 24.7256 18.7067C25.108 19.2928 25.1033 19.8679 24.6323 20.3225C23.9112 21.0226 23.0425 21.528 22.0783 21.8808ZM12.103 12.5553C12.1219 9.47406 14.768 6.99226 18.0242 7.00002C21.2864 7.00778 23.9053 9.52712 23.89 12.6404C23.8723 15.6818 21.2108 18.1459 17.9534 18.1359C14.729 18.1249 12.0853 15.6033 12.103 12.5553ZM15.1098 12.5471C15.1098 12.5635 15.1099 12.5799 15.1102 12.5962C15.1121 14.0884 16.4045 15.2966 17.997 15.2948C18.0033 15.2948 18.0096 15.2948 18.016 15.2948C19.6057 15.2894 20.8898 14.0773 20.8841 12.5876C20.8841 12.5794 20.884 12.5712 20.8839 12.5631V12.5619C20.893 11.0691 19.609 9.85208 18.016 9.8435C18.0109 9.8435 18.0057 9.84344 18.0006 9.84344C16.4056 9.84202 15.1113 11.0525 15.1098 12.5471Z" fill="white"/>
</svg>
