<?xml version="1.0" encoding="utf-8"?>
<!-- Generator: Adobe Illustrator 26.3.1, SVG Export Plug-In . SVG Version: 6.00 Build 0)  -->
<svg version="1.1" id="Слой_1" xmlns="http://www.w3.org/2000/svg" xmlns:xlink="http://www.w3.org/1999/xlink" x="0px" y="0px"
	 viewBox="0 0 13 13" style="enable-background:new 0 0 13 13;" xml:space="preserve">
<g>
	<path d="M1.2,12.2c-0.1,0-0.3,0-0.4-0.1c-0.2-0.2-0.2-0.5,0-0.7L11.4,0.9c0.2-0.2,0.5-0.2,0.7,0s0.2,0.5,0,0.7L1.6,12.1
		C1.5,12.2,1.4,12.2,1.2,12.2z"/>
</g>
<g>
	<path d="M2.4,4.8C1.1,4.8,0,3.7,0,2.4S1.1,0,2.4,0s2.4,1.1,2.4,2.4S3.7,4.8,2.4,4.8z M2.4,1C1.6,1,1,1.6,1,2.4s0.6,1.4,1.4,1.4
		s1.4-0.6,1.4-1.4S3.1,1,2.4,1z"/>
</g>
<g>
	<path d="M10.6,13c-1.3,0-2.4-1.1-2.4-2.4s1.1-2.4,2.4-2.4S13,9.3,13,10.6S11.9,13,10.6,13z M10.6,9.2c-0.8,0-1.4,0.6-1.4,1.4
		S9.9,12,10.6,12s1.4-0.6,1.4-1.4S11.4,9.2,10.6,9.2z"/>
</g>
</svg>
