<?xml version="1.0" encoding="utf-8"?>
<!-- Generator: Adobe Illustrator 26.3.1, SVG Export Plug-In . SVG Version: 6.00 Build 0)  -->
<svg version="1.1" id="Слой_1" xmlns="http://www.w3.org/2000/svg" xmlns:xlink="http://www.w3.org/1999/xlink" x="0px" y="0px"
	 viewBox="0 0 15 22" style="enable-background:new 0 0 15 22;" xml:space="preserve">
<style type="text/css">
	.st0{fill:#B8B8B8;}
</style>
<g>
	<path class="st0" d="M11.8,0.5h-9c-1.3,0-2.3,1-2.3,2.3v16.4c0,1.3,1,2.3,2.3,2.3h9c1.3,0,2.3-1,2.3-2.3V2.8
		C14.1,1.5,13.1,0.5,11.8,0.5z M13.1,19.2c0,0.7-0.6,1.3-1.3,1.3h-9c-0.7,0-1.3-0.6-1.3-1.3V2.8c0-0.7,0.6-1.3,1.3-1.3h9
		c0.7,0,1.3,0.6,1.3,1.3V19.2z"/>
	<path class="st0" d="M7.3,16.9L7.3,16.9c-0.3,0-0.5,0.2-0.5,0.5s0.2,0.5,0.5,0.5s0.5-0.2,0.5-0.5S7.6,16.9,7.3,16.9z"/>
</g>
</svg>
