<?xml version="1.0" encoding="utf-8"?>
<!-- Generator: Adobe Illustrator 26.3.1, SVG Export Plug-In . SVG Version: 6.00 Build 0)  -->
<svg version="1.1" id="Слой_1" xmlns="http://www.w3.org/2000/svg" xmlns:xlink="http://www.w3.org/1999/xlink" x="0px" y="0px"
	 viewBox="0 0 58 58" style="enable-background:new 0 0 58 58;" xml:space="preserve">
<style type="text/css">
	.st0{clip-path:url(#SVGID_00000095296586154373511990000016320155347217829564_);fill:#FFCC24;}
	.st1{clip-path:url(#SVGID_00000095296586154373511990000016320155347217829564_);fill:#FFCC25;}
	.st2{clip-path:url(#SVGID_00000095296586154373511990000016320155347217829564_);fill:#FFCC26;}
	.st3{clip-path:url(#SVGID_00000095296586154373511990000016320155347217829564_);fill:#FFCD27;}
	.st4{clip-path:url(#SVGID_00000095296586154373511990000016320155347217829564_);fill:#FFCD28;}
	.st5{clip-path:url(#SVGID_00000095296586154373511990000016320155347217829564_);fill:#FFCD29;}
	.st6{clip-path:url(#SVGID_00000095296586154373511990000016320155347217829564_);fill:#FFCD2A;}
	.st7{clip-path:url(#SVGID_00000095296586154373511990000016320155347217829564_);fill:#FFCE2B;}
	.st8{clip-path:url(#SVGID_00000095296586154373511990000016320155347217829564_);fill:#FFCE2C;}
	.st9{clip-path:url(#SVGID_00000095296586154373511990000016320155347217829564_);fill:#FFCE2D;}
	.st10{clip-path:url(#SVGID_00000095296586154373511990000016320155347217829564_);fill:#FFCE2E;}
	.st11{clip-path:url(#SVGID_00000095296586154373511990000016320155347217829564_);fill:#FFCF2F;}
	.st12{clip-path:url(#SVGID_00000095296586154373511990000016320155347217829564_);fill:#FFCF30;}
	.st13{clip-path:url(#SVGID_00000095296586154373511990000016320155347217829564_);fill:#FFCF31;}
	.st14{clip-path:url(#SVGID_00000095296586154373511990000016320155347217829564_);fill:#FFCF32;}
	.st15{clip-path:url(#SVGID_00000095296586154373511990000016320155347217829564_);fill:#FFCF33;}
	.st16{clip-path:url(#SVGID_00000095296586154373511990000016320155347217829564_);fill:#FFD034;}
	.st17{clip-path:url(#SVGID_00000095296586154373511990000016320155347217829564_);fill:#FFD035;}
	.st18{clip-path:url(#SVGID_00000095296586154373511990000016320155347217829564_);fill:#FFD036;}
	.st19{clip-path:url(#SVGID_00000095296586154373511990000016320155347217829564_);fill:#FFD037;}
	.st20{clip-path:url(#SVGID_00000095296586154373511990000016320155347217829564_);fill:#FFD138;}
	.st21{clip-path:url(#SVGID_00000095296586154373511990000016320155347217829564_);fill:#FFD139;}
	.st22{clip-path:url(#SVGID_00000095296586154373511990000016320155347217829564_);fill:#FFD13A;}
	.st23{clip-path:url(#SVGID_00000095296586154373511990000016320155347217829564_);fill:#FFD13B;}
	.st24{clip-path:url(#SVGID_00000095296586154373511990000016320155347217829564_);fill:#FFD23C;}
	.st25{clip-path:url(#SVGID_00000095296586154373511990000016320155347217829564_);fill:#FFD23D;}
	.st26{clip-path:url(#SVGID_00000095296586154373511990000016320155347217829564_);fill:#FFD23E;}
	.st27{clip-path:url(#SVGID_00000095296586154373511990000016320155347217829564_);fill:#FFD23F;}
	.st28{clip-path:url(#SVGID_00000095296586154373511990000016320155347217829564_);fill:#FFD240;}
	.st29{clip-path:url(#SVGID_00000095296586154373511990000016320155347217829564_);fill:#FFD341;}
	.st30{clip-path:url(#SVGID_00000095296586154373511990000016320155347217829564_);fill:#FFD342;}
	.st31{clip-path:url(#SVGID_00000095296586154373511990000016320155347217829564_);fill:#FFD343;}
	.st32{clip-path:url(#SVGID_00000095296586154373511990000016320155347217829564_);fill:#FFD344;}
	.st33{clip-path:url(#SVGID_00000095296586154373511990000016320155347217829564_);fill:#FFD445;}
	.st34{clip-path:url(#SVGID_00000095296586154373511990000016320155347217829564_);fill:#FFD446;}
	.st35{clip-path:url(#SVGID_00000095296586154373511990000016320155347217829564_);fill:#FFD447;}
	.st36{clip-path:url(#SVGID_00000095296586154373511990000016320155347217829564_);fill:#FFD448;}
	.st37{clip-path:url(#SVGID_00000095296586154373511990000016320155347217829564_);fill:#FFD549;}
	.st38{clip-path:url(#SVGID_00000095296586154373511990000016320155347217829564_);fill:#FFD54A;}
	.st39{clip-path:url(#SVGID_00000095296586154373511990000016320155347217829564_);fill:#FFD54B;}
	.st40{clip-path:url(#SVGID_00000095296586154373511990000016320155347217829564_);fill:#FFD54C;}
	.st41{clip-path:url(#SVGID_00000095296586154373511990000016320155347217829564_);fill:#FFD54D;}
	.st42{clip-path:url(#SVGID_00000095296586154373511990000016320155347217829564_);fill:#FFD64E;}
	.st43{clip-path:url(#SVGID_00000095296586154373511990000016320155347217829564_);fill:#FFD64F;}
	.st44{clip-path:url(#SVGID_00000095296586154373511990000016320155347217829564_);fill:#FFD650;}
	.st45{clip-path:url(#SVGID_00000095296586154373511990000016320155347217829564_);fill:#FFD651;}
	.st46{clip-path:url(#SVGID_00000095296586154373511990000016320155347217829564_);fill:#FFD752;}
	.st47{clip-path:url(#SVGID_00000095296586154373511990000016320155347217829564_);fill:#FFD753;}
	.st48{clip-path:url(#SVGID_00000095296586154373511990000016320155347217829564_);fill:#FFD754;}
	.st49{clip-path:url(#SVGID_00000095296586154373511990000016320155347217829564_);fill:#FFD755;}
	.st50{clip-path:url(#SVGID_00000095296586154373511990000016320155347217829564_);fill:#FFD856;}
	.st51{clip-path:url(#SVGID_00000095296586154373511990000016320155347217829564_);fill:#FFD857;}
	.st52{clip-path:url(#SVGID_00000095296586154373511990000016320155347217829564_);fill:#FFD858;}
	.st53{clip-path:url(#SVGID_00000095296586154373511990000016320155347217829564_);fill:#FFD859;}
	.st54{clip-path:url(#SVGID_00000095296586154373511990000016320155347217829564_);fill:#FFD85A;}
	.st55{clip-path:url(#SVGID_00000095296586154373511990000016320155347217829564_);fill:#FFD95B;}
	.st56{clip-path:url(#SVGID_00000095296586154373511990000016320155347217829564_);fill:#FFD95C;}
	.st57{clip-path:url(#SVGID_00000095296586154373511990000016320155347217829564_);fill:#FFD95D;}
	.st58{clip-path:url(#SVGID_00000095296586154373511990000016320155347217829564_);fill:#FFD95E;}
	.st59{clip-path:url(#SVGID_00000095296586154373511990000016320155347217829564_);fill:#FFDA60;}
	.st60{clip-path:url(#SVGID_00000095296586154373511990000016320155347217829564_);fill:#FFDA61;}
	.st61{clip-path:url(#SVGID_00000095296586154373511990000016320155347217829564_);fill:#FFDA62;}
	.st62{clip-path:url(#SVGID_00000095296586154373511990000016320155347217829564_);fill:#FFDA63;}
	.st63{clip-path:url(#SVGID_00000095296586154373511990000016320155347217829564_);fill:#FFDB64;}
	.st64{clip-path:url(#SVGID_00000095296586154373511990000016320155347217829564_);fill:#FFDB65;}
	.st65{clip-path:url(#SVGID_00000095296586154373511990000016320155347217829564_);fill:#FFDB66;}
	.st66{clip-path:url(#SVGID_00000095296586154373511990000016320155347217829564_);fill:#FFDB67;}
	.st67{clip-path:url(#SVGID_00000095296586154373511990000016320155347217829564_);fill:#FFDB68;}
	.st68{clip-path:url(#SVGID_00000095296586154373511990000016320155347217829564_);fill:#FFDC69;}
	.st69{clip-path:url(#SVGID_00000095296586154373511990000016320155347217829564_);fill:#FFDC6A;}
	.st70{clip-path:url(#SVGID_00000095296586154373511990000016320155347217829564_);fill:#FFDC6B;}
	.st71{clip-path:url(#SVGID_00000095296586154373511990000016320155347217829564_);fill:#FFDC6C;}
	.st72{fill:#FFFFFF;}
</style>
<g>
	<g>
		<defs>
			<circle id="SVGID_1_" cx="29" cy="29" r="29"/>
		</defs>
		<clipPath id="SVGID_00000062190810629458360870000008503389856112941739_">
			<use xlink:href="#SVGID_1_"  style="overflow:visible;"/>
		</clipPath>
		<polygon style="clip-path:url(#SVGID_00000062190810629458360870000008503389856112941739_);fill:#FFCC24;" points="0,5.9 
			0.7,5.4 34.1,58 0,58 		"/>
		<polygon style="clip-path:url(#SVGID_00000062190810629458360870000008503389856112941739_);fill:#FFCC24;" points="0.7,5.4 
			1.3,5 34.9,58 34.1,58 		"/>
		<polygon style="clip-path:url(#SVGID_00000062190810629458360870000008503389856112941739_);fill:#FFCC25;" points="1.3,5 
			1.9,4.7 35.7,58 34.9,58 		"/>
		<polygon style="clip-path:url(#SVGID_00000062190810629458360870000008503389856112941739_);fill:#FFCC26;" points="1.9,4.7 
			2.5,4.3 36.6,58 35.7,58 		"/>
		<polygon style="clip-path:url(#SVGID_00000062190810629458360870000008503389856112941739_);fill:#FFCD27;" points="2.5,4.3 
			3.1,3.9 37.4,58 36.6,58 		"/>
		<polygon style="clip-path:url(#SVGID_00000062190810629458360870000008503389856112941739_);fill:#FFCD28;" points="3.1,3.9 
			3.7,3.5 38.3,58 37.4,58 		"/>
		<polygon style="clip-path:url(#SVGID_00000062190810629458360870000008503389856112941739_);fill:#FFCD29;" points="3.7,3.5 
			4.3,3.1 39.1,58 38.3,58 		"/>
		<polygon style="clip-path:url(#SVGID_00000062190810629458360870000008503389856112941739_);fill:#FFCD2A;" points="4.3,3.1 
			4.9,2.7 40,58 39.1,58 		"/>
		<polygon style="clip-path:url(#SVGID_00000062190810629458360870000008503389856112941739_);fill:#FFCE2B;" points="4.9,2.7 
			5.5,2.4 40.8,58 40,58 		"/>
		<polygon style="clip-path:url(#SVGID_00000062190810629458360870000008503389856112941739_);fill:#FFCE2C;" points="5.5,2.4 
			6.1,2 41.7,58 40.8,58 		"/>
		<polygon style="clip-path:url(#SVGID_00000062190810629458360870000008503389856112941739_);fill:#FFCE2D;" points="6.1,2 
			6.8,1.6 42.5,58 41.7,58 		"/>
		<polygon style="clip-path:url(#SVGID_00000062190810629458360870000008503389856112941739_);fill:#FFCE2E;" points="6.8,1.6 
			7.4,1.2 43.4,58 42.5,58 		"/>
		<polygon style="clip-path:url(#SVGID_00000062190810629458360870000008503389856112941739_);fill:#FFCF2F;" points="7.4,1.2 
			8,0.8 44.2,58 43.4,58 		"/>
		<polygon style="clip-path:url(#SVGID_00000062190810629458360870000008503389856112941739_);fill:#FFCF30;" points="8,0.8 
			8.6,0.4 45.1,58 44.2,58 		"/>
		<polygon style="clip-path:url(#SVGID_00000062190810629458360870000008503389856112941739_);fill:#FFCF31;" points="8.6,0.4 
			9.2,0.1 45.9,58 45.1,58 		"/>
		<polygon style="clip-path:url(#SVGID_00000062190810629458360870000008503389856112941739_);fill:#FFCF32;" points="9.2,0.1 
			9.2,0 10,0 46.8,58 45.9,58 		"/>
		<polygon style="clip-path:url(#SVGID_00000062190810629458360870000008503389856112941739_);fill:#FFCF33;" points="10.8,0 
			47.6,58 46.8,58 10,0 		"/>
		<polygon style="clip-path:url(#SVGID_00000062190810629458360870000008503389856112941739_);fill:#FFD034;" points="11.7,0 
			48.5,58 47.6,58 10.8,0 		"/>
		<polygon style="clip-path:url(#SVGID_00000062190810629458360870000008503389856112941739_);fill:#FFD035;" points="12.5,0 
			49.1,57.7 48.8,58 48.5,58 11.7,0 		"/>
		<polygon style="clip-path:url(#SVGID_00000062190810629458360870000008503389856112941739_);fill:#FFD036;" points="13.4,0 
			49.8,57.4 49.1,57.7 12.5,0 		"/>
		<polygon style="clip-path:url(#SVGID_00000062190810629458360870000008503389856112941739_);fill:#FFD037;" points="14.2,0 
			50.4,57 49.8,57.4 13.4,0 		"/>
		<polygon style="clip-path:url(#SVGID_00000062190810629458360870000008503389856112941739_);fill:#FFD138;" points="15.1,0 
			51,56.6 50.4,57 14.2,0 		"/>
		<polygon style="clip-path:url(#SVGID_00000062190810629458360870000008503389856112941739_);fill:#FFD139;" points="15.9,0 
			51.6,56.2 51,56.6 15.1,0 		"/>
		<polygon style="clip-path:url(#SVGID_00000062190810629458360870000008503389856112941739_);fill:#FFD13A;" points="16.8,0 
			52.2,55.8 51.6,56.2 15.9,0 		"/>
		<polygon style="clip-path:url(#SVGID_00000062190810629458360870000008503389856112941739_);fill:#FFD13B;" points="17.6,0 
			52.8,55.4 52.2,55.8 16.8,0 		"/>
		<polygon style="clip-path:url(#SVGID_00000062190810629458360870000008503389856112941739_);fill:#FFD23C;" points="18.5,0 
			53.4,55.1 52.8,55.4 17.6,0 		"/>
		<polygon style="clip-path:url(#SVGID_00000062190810629458360870000008503389856112941739_);fill:#FFD23D;" points="19.3,0 
			54,54.7 53.4,55.1 18.5,0 		"/>
		<polygon style="clip-path:url(#SVGID_00000062190810629458360870000008503389856112941739_);fill:#FFD23E;" points="20.2,0 
			54.6,54.3 54,54.7 19.3,0 		"/>
		<polygon style="clip-path:url(#SVGID_00000062190810629458360870000008503389856112941739_);fill:#FFD23F;" points="21,0 
			55.2,53.9 54.6,54.3 20.2,0 		"/>
		<polygon style="clip-path:url(#SVGID_00000062190810629458360870000008503389856112941739_);fill:#FFD240;" points="21.9,0 
			55.8,53.5 55.2,53.9 21,0 		"/>
		<polygon style="clip-path:url(#SVGID_00000062190810629458360870000008503389856112941739_);fill:#FFD341;" points="22.7,0 
			56.4,53.1 55.8,53.5 21.9,0 		"/>
		<polygon style="clip-path:url(#SVGID_00000062190810629458360870000008503389856112941739_);fill:#FFD342;" points="23.5,0 
			57,52.8 56.4,53.1 22.7,0 		"/>
		<polygon style="clip-path:url(#SVGID_00000062190810629458360870000008503389856112941739_);fill:#FFD343;" points="24.4,0 
			57.6,52.4 57,52.8 23.5,0 		"/>
		<polygon style="clip-path:url(#SVGID_00000062190810629458360870000008503389856112941739_);fill:#FFD344;" points="25.2,0 
			58,51.7 58,52.1 57.6,52.4 24.4,0 		"/>
		<polygon style="clip-path:url(#SVGID_00000062190810629458360870000008503389856112941739_);fill:#FFD445;" points="26.1,0 
			58,50.3 58,51.7 25.2,0 		"/>
		<polygon style="clip-path:url(#SVGID_00000062190810629458360870000008503389856112941739_);fill:#FFD446;" points="26.9,0 58,49 
			58,50.3 26.1,0 		"/>
		<polygon style="clip-path:url(#SVGID_00000062190810629458360870000008503389856112941739_);fill:#FFD447;" points="27.8,0 
			58,47.6 58,49 26.9,0 		"/>
		<polygon style="clip-path:url(#SVGID_00000062190810629458360870000008503389856112941739_);fill:#FFD448;" points="28.6,0 
			58,46.3 58,47.6 27.8,0 		"/>
		<polygon style="clip-path:url(#SVGID_00000062190810629458360870000008503389856112941739_);fill:#FFD549;" points="29.5,0 58,45 
			58,46.3 28.6,0 		"/>
		<polygon style="clip-path:url(#SVGID_00000062190810629458360870000008503389856112941739_);fill:#FFD54A;" points="30.3,0 
			58,43.6 58,45 29.5,0 		"/>
		<polygon style="clip-path:url(#SVGID_00000062190810629458360870000008503389856112941739_);fill:#FFD54B;" points="31.2,0 
			58,42.3 58,43.6 30.3,0 		"/>
		<polygon style="clip-path:url(#SVGID_00000062190810629458360870000008503389856112941739_);fill:#FFD54C;" points="32,0 58,41 
			58,42.3 31.2,0 		"/>
		<polygon style="clip-path:url(#SVGID_00000062190810629458360870000008503389856112941739_);fill:#FFD54D;" points="32.9,0 
			58,39.6 58,41 32,0 		"/>
		<polygon style="clip-path:url(#SVGID_00000062190810629458360870000008503389856112941739_);fill:#FFD64E;" points="33.7,0 
			58,38.3 58,39.6 32.9,0 		"/>
		<polygon style="clip-path:url(#SVGID_00000062190810629458360870000008503389856112941739_);fill:#FFD64F;" points="34.6,0 
			58,36.9 58,38.3 33.7,0 		"/>
		<polygon style="clip-path:url(#SVGID_00000062190810629458360870000008503389856112941739_);fill:#FFD650;" points="35.4,0 
			58,35.6 58,36.9 34.6,0 		"/>
		<polygon style="clip-path:url(#SVGID_00000062190810629458360870000008503389856112941739_);fill:#FFD651;" points="36.3,0 
			58,34.3 58,35.6 35.4,0 		"/>
		<polygon style="clip-path:url(#SVGID_00000062190810629458360870000008503389856112941739_);fill:#FFD752;" points="37.1,0 
			58,32.9 58,34.3 36.3,0 		"/>
		<polygon style="clip-path:url(#SVGID_00000062190810629458360870000008503389856112941739_);fill:#FFD753;" points="38,0 58,31.6 
			58,32.9 37.1,0 		"/>
		<polygon style="clip-path:url(#SVGID_00000062190810629458360870000008503389856112941739_);fill:#FFD754;" points="38.8,0 
			58,30.3 58,31.6 38,0 		"/>
		<polygon style="clip-path:url(#SVGID_00000062190810629458360870000008503389856112941739_);fill:#FFD755;" points="39.7,0 
			58,28.9 58,30.3 38.8,0 		"/>
		<polygon style="clip-path:url(#SVGID_00000062190810629458360870000008503389856112941739_);fill:#FFD856;" points="40.5,0 
			58,27.6 58,28.9 39.7,0 		"/>
		<polygon style="clip-path:url(#SVGID_00000062190810629458360870000008503389856112941739_);fill:#FFD857;" points="41.4,0 
			58,26.3 58,27.6 40.5,0 		"/>
		<polygon style="clip-path:url(#SVGID_00000062190810629458360870000008503389856112941739_);fill:#FFD858;" points="42.2,0 
			58,24.9 58,26.3 41.4,0 		"/>
		<polygon style="clip-path:url(#SVGID_00000062190810629458360870000008503389856112941739_);fill:#FFD859;" points="43,0 58,23.6 
			58,24.9 42.2,0 		"/>
		<polygon style="clip-path:url(#SVGID_00000062190810629458360870000008503389856112941739_);fill:#FFD85A;" points="43.9,0 
			58,22.2 58,23.6 43,0 		"/>
		<polygon style="clip-path:url(#SVGID_00000062190810629458360870000008503389856112941739_);fill:#FFD95B;" points="44.7,0 
			58,20.9 58,22.2 43.9,0 		"/>
		<polygon style="clip-path:url(#SVGID_00000062190810629458360870000008503389856112941739_);fill:#FFD95C;" points="45.6,0 
			58,19.6 58,20.9 44.7,0 		"/>
		<polygon style="clip-path:url(#SVGID_00000062190810629458360870000008503389856112941739_);fill:#FFD95D;" points="46.4,0 
			58,18.2 58,19.6 45.6,0 		"/>
		<polygon style="clip-path:url(#SVGID_00000062190810629458360870000008503389856112941739_);fill:#FFD95E;" points="47.3,0 
			58,16.9 58,18.2 46.4,0 		"/>
		<polygon style="clip-path:url(#SVGID_00000062190810629458360870000008503389856112941739_);fill:#FFDA60;" points="48.1,0 
			58,15.6 58,16.9 47.3,0 		"/>
		<polygon style="clip-path:url(#SVGID_00000062190810629458360870000008503389856112941739_);fill:#FFDA61;" points="49,0 58,14.2 
			58,15.6 48.1,0 		"/>
		<polygon style="clip-path:url(#SVGID_00000062190810629458360870000008503389856112941739_);fill:#FFDA62;" points="49.8,0 
			58,12.9 58,14.2 49,0 		"/>
		<polygon style="clip-path:url(#SVGID_00000062190810629458360870000008503389856112941739_);fill:#FFDA63;" points="50.7,0 
			58,11.6 58,12.9 49.8,0 		"/>
		<polygon style="clip-path:url(#SVGID_00000062190810629458360870000008503389856112941739_);fill:#FFDB64;" points="51.5,0 
			58,10.2 58,11.6 50.7,0 		"/>
		<polygon style="clip-path:url(#SVGID_00000062190810629458360870000008503389856112941739_);fill:#FFDB65;" points="52.4,0 
			58,8.9 58,10.2 51.5,0 		"/>
		<polygon style="clip-path:url(#SVGID_00000062190810629458360870000008503389856112941739_);fill:#FFDB66;" points="53.2,0 
			58,7.5 58,8.9 52.4,0 		"/>
		<polygon style="clip-path:url(#SVGID_00000062190810629458360870000008503389856112941739_);fill:#FFDB67;" points="54.1,0 
			58,6.2 58,7.5 53.2,0 		"/>
		<polygon style="clip-path:url(#SVGID_00000062190810629458360870000008503389856112941739_);fill:#FFDB68;" points="54.9,0 
			58,4.9 58,6.2 54.1,0 		"/>
		<polygon style="clip-path:url(#SVGID_00000062190810629458360870000008503389856112941739_);fill:#FFDC69;" points="55.8,0 
			58,3.5 58,4.9 54.9,0 		"/>
		<polygon style="clip-path:url(#SVGID_00000062190810629458360870000008503389856112941739_);fill:#FFDC6A;" points="56.6,0 
			58,2.2 58,3.5 55.8,0 		"/>
		<polygon style="clip-path:url(#SVGID_00000062190810629458360870000008503389856112941739_);fill:#FFDC6B;" points="57.5,0 
			58,0.9 58,2.2 56.6,0 		"/>
		<polygon style="clip-path:url(#SVGID_00000062190810629458360870000008503389856112941739_);fill:#FFDC6C;" points="58,0.9 
			57.5,0 58,0 		"/>
	</g>
</g>
<g>
	<path class="st72" d="M22,17l18,11.5L22,40V17z"/>
	<path d="M22,40.8c-0.1,0-0.2,0-0.4-0.1c-0.2-0.1-0.4-0.4-0.4-0.7V17c0-0.3,0.1-0.5,0.4-0.7c0.2-0.1,0.5-0.1,0.8,0l18,11.5
		c0.2,0.1,0.3,0.4,0.3,0.6s-0.1,0.5-0.3,0.6l-18,11.5C22.3,40.7,22.1,40.8,22,40.8z M22.8,18.4v20.3l15.9-10.1L22.8,18.4z"/>
</g>
</svg>
