<?xml version="1.0" encoding="utf-8"?>
<!-- Generator: Adobe Illustrator 26.3.1, SVG Export Plug-In . SVG Version: 6.00 Build 0)  -->
<svg version="1.1" id="Слой_1" xmlns="http://www.w3.org/2000/svg" xmlns:xlink="http://www.w3.org/1999/xlink" x="0px" y="0px"
	 viewBox="0 0 15.7 19" style="enable-background:new 0 0 15.7 19;" xml:space="preserve">
<g>
	<path d="M13.4,2.3C11.9,0.8,10,0,7.9,0C5.8,0,3.8,0.8,2.3,2.3S0,5.8,0,7.9c0,5.9,7.3,10.8,7.6,11.1C7.7,19,7.8,19,7.9,19
		s0.2,0,0.3-0.1c0.3-0.2,7.6-5.1,7.6-11.1C15.7,5.8,14.9,3.8,13.4,2.3z M7.9,17.9c-1.3-1-6.9-5.2-6.9-10C1,6,1.7,4.3,3,3s3-2,4.9-2
		s3.6,0.7,4.9,2c1.3,1.3,2,3,2,4.9C14.7,12.6,9.2,16.9,7.9,17.9z"/>
	<path d="M7.9,4.9c-1.6,0-3,1.3-3,3s1.3,3,3,3s3-1.3,3-3S9.5,4.9,7.9,4.9z M7.9,9.8c-1.1,0-2-0.9-2-2s0.9-2,2-2s2,0.9,2,2
		S8.9,9.8,7.9,9.8z"/>
</g>
</svg>
