<?xml version="1.0" encoding="utf-8"?>
<!-- Generator: Adobe Illustrator 26.3.1, SVG Export Plug-In . SVG Version: 6.00 Build 0)  -->
<svg version="1.1" id="Слой_1" xmlns="http://www.w3.org/2000/svg" xmlns:xlink="http://www.w3.org/1999/xlink" x="0px" y="0px"
	 viewBox="0 0 17.5 17.5" style="enable-background:new 0 0 17.5 17.5;" xml:space="preserve">
<path d="M17.3,16.2l-3.4-3.4c1.1-1.4,1.8-3.1,1.8-5c0-4.3-3.5-7.9-7.9-7.9S0,3.5,0,7.9s3.5,7.9,7.9,7.9c1.9,0,3.6-0.7,5-1.8l3.4,3.4
	c0.1,0.1,0.3,0.2,0.5,0.2s0.4-0.1,0.5-0.2C17.6,17,17.6,16.5,17.3,16.2z M1.5,7.9c0-3.5,2.9-6.4,6.4-6.4s6.4,2.9,6.4,6.4
	c0,1.7-0.7,3.3-1.9,4.5c0,0,0,0,0,0s0,0,0,0c-1.2,1.1-2.7,1.9-4.5,1.9C4.4,14.2,1.5,11.4,1.5,7.9z"/>
</svg>
