<?xml version="1.0" encoding="utf-8"?>
<!-- Generator: Adobe Illustrator 26.3.1, SVG Export Plug-In . SVG Version: 6.00 Build 0)  -->
<svg version="1.1" id="Слой_1" xmlns="http://www.w3.org/2000/svg" xmlns:xlink="http://www.w3.org/1999/xlink" x="0px" y="0px"
	 viewBox="0 0 54 54" style="enable-background:new 0 0 54 54;" xml:space="preserve">
<g>
	<path d="M51,0H3C1.3,0,0,1.3,0,3v48c0,1.7,1.3,3,3,3h48c1.7,0,3-1.3,3-3V3C54,1.3,52.7,0,51,0z M52.5,51c0,0.8-0.7,1.5-1.5,1.5H3
		c-0.8,0-1.5-0.7-1.5-1.5V3c0-0.8,0.7-1.5,1.5-1.5h48c0.8,0,1.5,0.7,1.5,1.5V51z"/>
	<path d="M37,26.2H18.8l8.7-8.7c0.3-0.3,0.3-0.8,0-1.1s-0.8-0.3-1.1,0l-10,10c-0.1,0.1-0.1,0.2-0.2,0.2c-0.1,0.2-0.1,0.4,0,0.6
		c0,0.1,0.1,0.2,0.2,0.2l10,10c0.1,0.1,0.3,0.2,0.5,0.2s0.4-0.1,0.5-0.2c0.3-0.3,0.3-0.8,0-1.1l-8.7-8.7H37c0.4,0,0.8-0.3,0.8-0.8
		S37.4,26.2,37,26.2z"/>
</g>
</svg>
