<?xml version="1.0" encoding="utf-8"?>
<!-- Generator: Adobe Illustrator 26.3.1, SVG Export Plug-In . SVG Version: 6.00 Build 0)  -->
<svg version="1.1" id="Слой_1" xmlns="http://www.w3.org/2000/svg" xmlns:xlink="http://www.w3.org/1999/xlink" x="0px" y="0px"
	 viewBox="0 0 22 22" style="enable-background:new 0 0 22 22;" xml:space="preserve">
<style type="text/css">
	.st0{fill:#00A3FF;}
</style>
<g>
	<path class="st0" d="M16,0H6C2.7,0,0,2.7,0,6v10c0,3.3,2.7,6,6,6h10c3.3,0,6-2.7,6-6V6C22,2.7,19.3,0,16,0z M14,16.7
		c0,0.3-0.3,0.4-0.5,0.2l-2.8-2.3c-0.2-0.1-0.4-0.1-0.6,0l-1.5,1.4c-0.2,0.2-0.4,0.1-0.5-0.2l-1.1-4l-2.8-1.2
		c-0.3-0.1-0.3-0.6,0-0.7l11.3-5C15.8,4.9,16,5.2,16,5.5L14,16.7z"/>
	<path class="st0" d="M13.3,7.5l-5.4,3.8c-0.2,0.1-0.3,0.4-0.2,0.7l0.6,2.4c0,0.2,0.3,0.1,0.3,0l0.2-1.3c0-0.2,0.1-0.5,0.3-0.6
		l4.5-4.8C13.5,7.6,13.4,7.4,13.3,7.5z"/>
</g>
</svg>
