<?xml version="1.0" encoding="utf-8"?>
<!-- Generator: Adobe Illustrator 26.3.1, SVG Export Plug-In . SVG Version: 6.00 Build 0)  -->
<svg version="1.1" id="Слой_1" xmlns="http://www.w3.org/2000/svg" xmlns:xlink="http://www.w3.org/1999/xlink" x="0px" y="0px"
	 viewBox="0 0 36 36" style="enable-background:new 0 0 36 36;" xml:space="preserve">
<style type="text/css">
	.st0{fill:#44BCFF;}
</style>
<path class="st0" d="M30,0H6C2.7,0,0,2.7,0,6v24c0,3.3,2.7,6,6,6h24c3.3,0,6-2.7,6-6V6C36,2.7,33.3,0,30,0z M27.1,13.3
	c0,10.9-10.5,15.6-19.1,10.9c2.4,0.1,4.7-0.6,6.7-1.9C6.1,18.5,9.9,10,9.9,10c1,1.4,2.3,2.5,3.8,3.2s3.2,1.1,4.8,1.1v-0.9
	c0-0.9,0.2-1.7,0.7-2.4c0.5-0.7,1.2-1.3,2-1.6C22.1,9,23,8.9,23.8,9.1c0.8,0.2,1.6,0.7,2.2,1.3c1.1-0.3,2.1-0.8,3-1.4
	c-0.3,1.3-1,2.5-2,3.5C27.1,12.7,27.1,13,27.1,13.3z"/>
</svg>
