<svg width="36" height="36" viewBox="0 0 36 36" fill="none" xmlns="http://www.w3.org/2000/svg">
<rect width="36" height="36" rx="3" fill="#8932E0"/>
<path fill-rule="evenodd" clip-rule="evenodd" d="M22.5517 20.5155C22.8529 20.7586 22.9236 21.1181 22.7149 21.4978V21.5044C22.4924 21.8819 22.2075 22.2217 21.8715 22.5104C21.5957 22.7523 21.2439 22.8979 20.8724 22.9243C20.7553 22.9243 20.6391 22.9073 20.5112 22.8697V22.8632C20.0753 22.7396 19.3489 22.442 18.1518 21.8125C17.1045 21.253 16.1354 20.5665 15.268 19.7698L15.2395 19.746L15.215 19.7185L15.1762 19.6909L15.1517 19.6567C14.3294 18.8218 13.6221 17.8878 13.0474 16.878C12.6012 16.1591 12.236 15.3956 11.9564 14.6019L11.9387 14.5913C11.8891 14.4376 11.8748 14.2766 11.8959 14.1156C11.9313 13.8455 12.0659 13.565 12.3142 13.2877C12.6129 12.9616 12.9632 12.6833 13.3521 12.4631H13.3664C13.5339 12.3674 13.7302 12.3301 13.9227 12.3573L13.9214 12.3559C14.1011 12.3889 14.263 12.4823 14.3784 12.6195C14.9063 13.2013 15.3737 13.8318 15.7741 14.5019C16.0359 14.9507 15.8659 15.4055 15.6217 15.5973L15.1116 15.9942C14.8498 16.186 14.8851 16.5626 14.8851 16.5626C14.8851 16.5626 15.6401 19.3308 18.4701 20.0293L18.481 20.0227C18.481 20.0227 18.8606 20.0568 19.0694 19.8104L19.4768 19.3144C19.6679 19.0679 20.1392 18.9208 20.603 19.1639C21.2958 19.5534 21.9482 20.0059 22.5517 20.5155ZM22.6969 12.6523L22.6865 12.6427C21.619 11.6565 20.2659 11.1539 18.7052 11.1539C18.419 11.1539 18.187 11.3781 18.187 11.6546C18.187 11.9311 18.419 12.1552 18.7052 12.1552C20.0157 12.1552 21.1047 12.569 21.9649 13.3615C22.4078 13.7954 22.7525 14.3091 22.9789 14.8712C23.206 15.4354 23.3094 16.037 23.2828 16.6396C23.2707 16.9158 23.4926 17.1493 23.7786 17.161C24.0645 17.1728 24.3062 16.9583 24.3183 16.6821C24.3509 15.9407 24.2237 15.2011 23.9447 14.5082C23.6657 13.8153 23.2411 13.1839 22.6969 12.6523ZM18.67 13.8016H18.6869C19.6325 13.866 20.3206 14.1705 20.803 14.6704C21.2969 15.1852 21.5527 15.8246 21.5337 16.6158C21.5271 16.8921 21.7537 17.1214 22.0398 17.1278C22.326 17.1343 22.5633 16.9154 22.5699 16.6389C22.5948 15.6002 22.2489 14.7044 21.5626 13.9891L21.5617 13.9882C20.8605 13.2612 19.8984 12.8766 18.7394 12.8015L18.7221 12.8003H18.67C18.3838 12.8003 18.1518 13.0245 18.1518 13.301C18.1518 13.5774 18.3838 13.8016 18.67 13.8016ZM18.5958 15.4767C19.0298 15.4987 19.3063 15.6244 19.4802 15.7941C19.6549 15.9645 19.7855 16.2373 19.8093 16.665C19.8248 16.9412 20.0689 17.153 20.3547 17.138C20.6404 17.1233 20.8597 16.8874 20.8443 16.6113C20.8108 16.0105 20.6162 15.4794 20.2167 15.0896C19.8163 14.699 19.2696 14.5083 18.6504 14.4768C18.3645 14.4623 18.1206 14.6743 18.1056 14.9504C18.0906 15.2265 18.3101 15.4621 18.5958 15.4767ZM27.3721 22.0894C26.8767 23.9757 25.3251 25.4323 23.3593 25.8568L23.0079 25.9327C20.9363 26.3801 18.8166 26.5464 16.7092 26.4318L13.9594 28.8086C13.7483 28.9912 13.451 29.0483 13.1837 28.9576C12.9164 28.867 12.7212 28.643 12.6745 28.373L12.2197 25.7484C10.4553 25.2188 9.08737 23.8389 8.62781 22.0894C7.79073 18.9026 7.79073 15.5643 8.62781 12.3775C9.1233 10.4912 10.6749 9.03459 12.6407 8.61005L12.992 8.53415C16.2899 7.82195 19.71 7.82195 23.0079 8.53415L23.3593 8.61005C25.3252 9.03459 26.8767 10.4912 27.3721 12.3775C28.2093 15.5643 28.2093 18.9026 27.3721 22.0894ZM25.8654 12.7469C25.514 11.4095 24.414 10.3767 23.0201 10.0757L22.6688 9.99985C19.5942 9.33593 16.4058 9.33593 13.3311 9.99985L12.9798 10.0757C11.586 10.3767 10.486 11.4095 10.1346 12.7469C9.36121 15.6913 9.36121 18.7756 10.1346 21.72C10.486 23.0574 11.586 24.0902 12.9798 24.3911L13.0726 24.4112C13.3814 24.4778 13.6174 24.7186 13.6697 25.02L13.9747 26.7802L15.9152 25.1028C16.0719 24.9674 16.2787 24.899 16.4884 24.9134C18.5545 25.0547 20.6365 24.9059 22.6688 24.467L23.0201 24.3911C24.414 24.0902 25.514 23.0574 25.8654 21.72C26.6387 18.7756 26.6387 15.6913 25.8654 12.7469Z" fill="white"/>
</svg>
