<svg width="45" height="42" viewBox="0 0 45 42" fill="none" xmlns="http://www.w3.org/2000/svg">
<path d="M44.7955 23.1373L38.0455 16.3522C37.9091 16.2165 37.7727 16.1486 37.5682 16.1486H30.75C29.5909 16.1486 28.7045 17.0307 28.7045 18.1842V29.7189H19.9773V25.1729C19.9773 23.748 18.8182 22.5945 17.3864 22.5945H15.1364V19.3376C15.1364 17.9128 13.9773 16.7593 12.5455 16.7593H12.4091V14.9952C12.4091 14.3166 12.8182 13.706 13.4318 13.4346L33.8182 3.93538C34.0909 4.20678 34.4318 4.47819 34.8409 4.54604C34.7045 6.17448 34.1591 7.19225 33.6136 8.07431C33.1364 8.88853 32.6591 9.70275 32.8636 10.7205C33.0682 11.8061 33.9545 12.6882 35.0455 12.8918C35.1818 12.8918 35.3182 12.9596 35.5227 12.9596C36.2045 12.9596 36.8182 12.7561 37.2955 12.2811C37.9091 11.7383 38.25 10.9919 38.25 10.2456C38.25 9.83845 37.9773 9.56704 37.5682 9.56704C37.1591 9.56704 36.8864 9.83845 36.8864 10.2456C36.8864 10.6527 36.6818 10.9919 36.4091 11.2633C36.0682 11.5347 35.7273 11.6704 35.25 11.5347C34.7045 11.4669 34.2273 10.9919 34.1591 10.4491C34.0909 9.97415 34.2955 9.49919 34.7727 8.68498C35.3182 7.73506 36.0682 6.44588 36.1364 4.47819C37.0909 4.20678 37.7727 3.32472 37.7727 2.30695C37.7727 1.01777 36.75 0 35.4545 0C34.1591 0 33.1364 1.01777 33.1364 2.30695V2.6462L12.75 12.1454C11.6591 12.6204 10.9773 13.7738 10.9773 14.9273V16.7593H10.9091C9.47727 16.7593 8.31818 17.9128 8.31818 19.3376V22.5945H6.06818C4.63636 22.5945 3.47727 23.748 3.47727 25.1729V29.7868H2.04545C0.886364 29.7868 0 30.6688 0 31.8223V35.2149C0 36.3683 0.886364 37.2504 2.04545 37.2504H4.09091V37.8611C4.09091 40.168 6 42 8.25 42C10.5682 42 12.4091 40.1002 12.4091 37.8611C12.4091 37.6575 12.4091 37.3861 12.3409 37.1826H17.6591C17.5909 37.3861 17.5909 37.5897 17.5909 37.8611C17.5909 40.168 19.5 42 21.75 42C24.0682 42 25.9091 40.1002 25.9091 37.8611C25.9091 37.6575 25.9091 37.3861 25.8409 37.1826H32.7273C32.6591 37.3861 32.6591 37.5897 32.6591 37.8611C32.6591 40.168 34.5682 42 36.8182 42C39.0682 42 40.9773 40.1002 40.9773 37.8611C40.9773 37.6575 40.9773 37.3861 40.9091 37.1826H42.9545C44.1136 37.1826 45 36.3005 45 35.147V23.6123C45 23.4087 44.9318 23.273 44.7955 23.1373ZM35.5227 1.49273C36.0682 1.49273 36.4773 1.89984 36.4773 2.44265C36.4773 2.98546 36.0682 3.39257 35.5227 3.39257C34.9773 3.39257 34.5682 2.98546 34.5682 2.44265C34.5682 1.96769 35.0455 1.49273 35.5227 1.49273ZM9.68182 19.4055C9.68182 18.727 10.2273 18.1842 10.9091 18.1842H12.6136C13.2955 18.1842 13.8409 18.727 13.8409 19.4055V22.6624H9.75V19.4055H9.68182ZM4.84091 25.1729C4.84091 24.4943 5.38636 23.9515 6.06818 23.9515H17.3864C18.0682 23.9515 18.6136 24.4943 18.6136 25.1729V29.7868H4.84091V25.1729ZM8.25 40.7108C6.68182 40.7108 5.45455 39.4216 5.45455 37.9289C5.45455 37.5218 5.52273 37.1826 5.65909 36.8433C6.06818 35.8255 7.09091 35.147 8.25 35.147C9.81818 35.147 11.0455 36.4362 11.0455 37.9289C11.0455 39.4216 9.81818 40.7108 8.25 40.7108ZM21.8182 40.7108C20.25 40.7108 19.0227 39.4216 19.0227 37.9289C19.0227 36.4362 20.3182 35.147 21.8182 35.147C22.9773 35.147 24 35.8255 24.4091 36.8433C24.5455 37.1826 24.6136 37.5218 24.6136 37.9289C24.6136 39.4216 23.3182 40.7108 21.8182 40.7108ZM21.8182 33.7221C20.25 33.7221 18.8864 34.6042 18.1364 35.8934H11.8636C11.1818 34.6042 9.75 33.7221 8.18182 33.7221C6.61364 33.7221 5.25 34.6042 4.5 35.8934H2.04545C1.63636 35.8934 1.36364 35.622 1.36364 35.2149V31.8223C1.36364 31.4152 1.63636 31.1438 2.04545 31.1438H28.7727V35.8934H25.5682C24.75 34.6042 23.3864 33.7221 21.8182 33.7221ZM36.8182 40.7108C35.25 40.7108 34.0227 39.4216 34.0227 37.9289C34.0227 37.5218 34.0909 37.1826 34.2273 36.8433C34.6364 35.8255 35.6591 35.147 36.8182 35.147C37.9773 35.147 39 35.8255 39.4091 36.8433C39.5455 37.1826 39.6136 37.5218 39.6136 37.9289C39.6818 39.4216 38.3864 40.7108 36.8182 40.7108ZM43.6364 35.2149C43.6364 35.622 43.3636 35.8934 42.9545 35.8934H40.5C39.8182 34.6042 38.3864 33.7221 36.8182 33.7221C35.25 33.7221 33.8864 34.6042 33.1364 35.8934H30V18.252C30 17.8449 30.2727 17.5735 30.6818 17.5735H37.2273L43.6364 23.8837V35.2149Z" fill="black"/>
<path d="M36.2734 19.2021H32.4553C32.0462 19.2021 31.7734 19.4736 31.7734 19.8807V27.2086C31.7734 27.6157 32.0462 27.8871 32.4553 27.8871H41.3189C41.728 27.8871 42.0007 27.6157 42.0007 27.2086V24.8338C42.0007 24.6303 41.9325 24.4946 41.7962 24.3589L36.8189 19.4057C36.6143 19.3379 36.478 19.2021 36.2734 19.2021ZM40.5689 26.5301H33.0689V20.5592H35.9325L40.5007 25.1052V26.5301H40.5689ZM37.8416 29.787H35.7962C35.3871 29.787 35.1143 30.0584 35.1143 30.4655C35.1143 30.8726 35.3871 31.144 35.7962 31.144H37.8416C38.2507 31.144 38.5234 30.8726 38.5234 30.4655C38.5234 30.0584 38.2507 29.787 37.8416 29.787Z" fill="black"/>
</svg>
