<svg width="36" height="36" viewBox="0 0 36 36" fill="none" xmlns="http://www.w3.org/2000/svg">
<rect width="36" height="36" rx="3" fill="#FF0000"/>
<path d="M23.2616 11H12.7384C10.6737 11 9 12.8396 9 15.1089V20.8909C9 23.1604 10.6737 25 12.7384 25H23.2616C25.3263 25 27 23.1604 27 20.8909V15.1089C27 12.8396 25.3263 11 23.2616 11ZM20.7334 18.2813L15.8113 20.8614C15.6801 20.9304 15.5287 20.8252 15.5287 20.6656V15.3436C15.5287 15.1819 15.6841 15.0767 15.8155 15.15L20.7376 17.8916C20.884 17.973 20.8814 18.2038 20.7334 18.2813Z" fill="white"/>
</svg>
