<svg width="36" height="36" viewBox="0 0 36 36" fill="none" xmlns="http://www.w3.org/2000/svg">
<rect width="36" height="36" rx="3" fill="#00A3FF"/>
<path d="M27.2239 8.04288L7.36525 16.4228C6.87525 16.6295 6.87939 17.3885 7.3709 17.5899L12.2098 19.5655L14.0826 26.154C14.2026 26.5761 14.6742 26.7321 14.9874 26.4519L17.6846 24.0467C17.9674 23.7948 18.37 23.7822 18.6656 24.0168L23.5304 27.8803C23.8653 28.1466 24.3398 27.9458 24.424 27.5031L27.9876 8.75182C28.0793 8.26821 27.6449 7.86488 27.2239 8.04288ZM23.4366 12.4281L15.6319 20.3637C15.3576 20.6431 15.1807 21.0167 15.1305 21.4226L14.8647 23.5777C14.8294 23.8655 14.4599 23.894 14.3873 23.6155L13.3648 19.6856C13.2477 19.2373 13.4184 18.7585 13.7809 18.5139L23.2377 12.1427C23.4078 12.0286 23.5825 12.2799 23.4366 12.4281Z" fill="white"/>
</svg>
