<svg width="36" height="36" viewBox="0 0 36 36" fill="none" xmlns="http://www.w3.org/2000/svg">
<rect width="36" height="36" rx="3" fill="#44BCFF"/>
<path d="M29 9.00953C28.0859 9.64948 27.0738 10.1389 26.0027 10.4591C25.4278 9.80299 24.6638 9.33799 23.814 9.12694C22.9642 8.91589 22.0695 8.96897 21.2511 9.27902C20.4326 9.58907 19.7299 10.1411 19.2378 10.8605C18.7458 11.5799 18.4883 12.4319 18.5 13.3013V14.2487C16.8225 14.2919 15.1603 13.9226 13.6614 13.1738C12.1625 12.425 10.8735 11.3199 9.90909 9.95694C9.90909 9.95694 6.09091 18.4836 14.6818 22.2732C12.716 23.5977 10.3741 24.2618 8 24.1681C16.5909 28.9051 27.0909 24.1681 27.0909 13.2729C27.09 13.009 27.0645 12.7457 27.0145 12.4865C27.9888 11.5329 28.6762 10.329 29 9.00953Z" fill="white"/>
</svg>
