<svg width="36" height="36" viewBox="0 0 36 36" fill="none" xmlns="http://www.w3.org/2000/svg">
<rect width="36" height="36" rx="3" fill="#1CCE79"/>
<path d="M24.026 21.8009C23.6277 22.4236 22.9967 23.184 22.2072 23.3736C20.8152 23.7083 18.6771 23.3818 16.0073 20.9099C13.6963 18.7705 13.0852 16.9885 13.2296 15.5752C13.3114 14.7735 13.985 14.0499 14.5525 13.5736C14.9395 13.2489 15.5319 13.3829 15.7369 13.8425L16.5925 15.7622C16.705 16.0146 16.6691 16.3078 16.499 16.5261L16.0647 17.0833C15.8816 17.3184 15.8571 17.6403 16.0062 17.898C16.523 18.7907 18.5469 20.5756 19.509 20.9618C19.7866 21.0732 20.1048 21.0051 20.3146 20.7931L20.812 20.2905C21.0067 20.0936 21.2946 20.0185 21.562 20.0945L23.5958 20.6737C24.083 20.8126 24.2975 21.3764 24.026 21.8009ZM28.9948 18.7482C28.8167 24.4146 24.0515 28.9157 18.3368 28.8292C16.7174 28.8045 15.1873 28.4157 13.825 27.7426L8.5227 28.9888C8.23182 29.0571 7.96785 28.8028 8.0281 28.5125L9.14283 23.145C8.41684 21.7347 8.00518 20.1384 8.00005 18.4473C7.98301 12.895 12.3954 8.27625 17.9866 8.01214C24.1317 7.72194 29.1859 12.674 28.9948 18.7482ZM26.7217 18.415C26.7217 16.2367 25.8665 14.1888 24.3136 12.6486C22.7607 11.1083 20.6962 10.2601 18.5002 10.2601C16.3237 10.2601 14.2255 11.122 12.6865 12.6486C11.1336 14.1889 10.2785 16.2368 10.2785 18.4151C10.2785 19.7198 10.5791 20.9653 11.1721 22.1172L11.5358 22.8238L10.8515 26.1188L14.1025 25.3548L14.8409 25.7197C15.983 26.284 17.2143 26.5702 18.5001 26.5702C20.6961 26.5702 22.7607 25.722 24.3136 24.1816C25.8527 22.6553 26.7217 20.5739 26.7217 18.415Z" fill="white"/>
</svg>
