<svg width="70" height="70" viewBox="0 0 70 70" fill="none" xmlns="http://www.w3.org/2000/svg">
<circle cx="35" cy="35" r="35" fill="#EFEFEF"/>
<circle cx="43" cy="25" r="15" fill="#FFCC24"/>
<path d="M33.6493 32.4321C33.6493 31.6296 34.2554 30.9767 35.0001 30.9767C35.7449 30.9767 36.351 31.6296 36.351 32.4321V37.5683C36.351 38.3709 35.7449 39.0229 35.0001 39.0229C34.2554 39.0229 33.6493 38.3709 33.6493 37.5683V32.4321ZM43.5155 14.8191L53.341 55.9062C53.434 56.2958 53.6648 56.6185 53.9903 56.8157C54.2875 56.9946 54.6363 57.0448 54.9651 56.9595C55.7007 56.7673 56.1457 55.9697 55.9564 55.1823L46.1325 14.0934C46.0395 13.7047 45.8087 13.3829 45.4832 13.1864C45.2807 13.0635 45.0532 13 44.8257 13C44.7194 13 44.6131 13.0142 44.5068 13.0418C43.7729 13.2332 43.3278 14.0308 43.5155 14.8191ZM35.0001 56.9997C35.7449 56.9997 36.351 56.3476 36.351 55.5451L36.336 50.1714C36.2605 49.5027 35.6843 48.9543 35.0001 48.9543C34.2554 48.9543 33.6493 49.6063 33.6493 50.4089L33.6642 55.7825C33.7406 56.4496 34.3168 56.9997 35.0001 56.9997ZM15.0335 56.9595C15.3631 57.0431 15.7102 56.9946 16.0099 56.8141C16.3362 56.6185 16.567 56.2958 16.66 55.9062L26.4839 14.8182C26.6716 14.0308 26.2274 13.2332 25.4934 13.041C25.388 13.0142 25.2817 13 25.1754 13C24.9462 13 24.7204 13.0635 24.5162 13.1864C24.1907 13.3829 23.9607 13.7056 23.8677 14.0934L14.043 55.1823C13.8553 55.9697 14.2995 56.7673 15.0335 56.9595ZM35.0001 13.0008C34.2554 13.0008 33.6493 13.6537 33.6493 14.4563L33.6642 19.8299C33.7406 20.497 34.3168 21.0471 35.0001 21.0471C35.7449 21.0471 36.351 20.3942 36.351 19.5916L36.336 14.218C36.2605 13.5509 35.6843 13.0008 35.0001 13.0008Z" fill="black"/>
</svg>
