<svg width="15" height="14" viewBox="0 0 15 14" fill="none" xmlns="http://www.w3.org/2000/svg">
<path d="M7.49831 1.30615C7.65778 1.65478 7.88316 2.15723 8.14982 2.76553C9.09785 4.92856 9.09785 4.92856 9.24596 5.07215C9.51345 5.33511 9.51345 5.33511 12.0784 5.56249C12.8336 5.62945 13.3307 5.67649 13.6579 5.70944C13.3798 5.95405 12.9907 6.29127 12.5242 6.68836C12.1491 7.00763 10.9193 8.05495 10.8414 8.12753L10.7762 8.18844L10.3531 8.58376L10.4853 9.14753L10.9709 11.2179C11.151 11.9855 11.2617 12.4759 11.3298 12.7883C10.994 12.5963 10.4905 12.3057 9.86684 11.942C7.81548 10.7459 7.78985 10.7459 7.47613 10.7459L7.29402 10.746L7.12442 10.8095C7.06452 10.8319 7.00258 10.8551 6.61835 11.0787L4.79859 12.139C4.32895 12.4127 3.939 12.6373 3.66885 12.7919C3.73683 12.4797 3.84771 11.9886 4.02849 11.2179L4.51409 9.14753L4.64622 8.58413L4.22359 8.18884L4.14314 8.11359C4.04702 8.02383 2.6222 6.81188 2.46011 6.67403C2.00089 6.28343 1.61734 5.95131 1.34222 5.70947C1.69063 5.67504 2.18686 5.63154 2.82404 5.57569C4.26631 5.44925 5.03949 5.37856 5.12205 5.36558C5.75415 5.26625 5.75415 5.26625 6.83324 2.80176C7.10916 2.17163 7.33917 1.65654 7.49831 1.30615ZM7.46662 0C7.39324 0 7.32327 0.0104923 7.26171 0.032937C7.08111 0.0987977 6.9453 0.195337 6.85921 0.319107C6.81371 0.384447 6.38991 1.32113 5.91721 2.40065C5.06451 4.34809 5.05711 4.36351 4.96681 4.3777C4.91681 4.38556 3.91321 4.47637 2.73671 4.57951C0.456711 4.77938 0.473511 4.77687 0.264412 4.94903C0.0623091 5.11535 -0.0492936 5.4717 0.0211104 5.72551C0.0393065 5.79088 0.0968093 5.90228 0.14901 5.97307C0.201111 6.04386 0.949608 6.70206 1.81221 7.43576C2.67491 8.16943 3.41661 8.80336 3.46061 8.84445L3.54051 8.91918L3.05491 10.9895C2.73771 12.3418 2.56841 13.1193 2.56681 13.2312C2.56241 13.5343 2.72221 13.7856 3.00511 13.9204C3.11605 13.9733 3.23944 13.9999 3.36065 13.9999C3.46526 13.9999 3.56826 13.9801 3.66031 13.9401C3.73351 13.9083 4.47231 13.4866 5.30211 13.003C6.13181 12.5195 6.95061 12.0424 7.12151 11.9429C7.29251 11.8434 7.45161 11.7548 7.47511 11.746C7.47536 11.7459 7.47571 11.7459 7.47613 11.7459C7.51637 11.7459 8.29742 12.1845 9.36311 12.8059C10.3779 13.3977 11.2676 13.908 11.3401 13.9399C11.4315 13.9801 11.5343 14 11.6389 14C11.7599 14 11.8832 13.9733 11.9942 13.9204C12.2771 13.7856 12.437 13.5343 12.4326 13.2312C12.4309 13.1193 12.2617 12.3418 11.9445 10.9895L11.4589 8.91918L11.5241 8.85827C11.56 8.82481 12.3017 8.19099 13.1724 7.44984C14.0431 6.70868 14.7982 6.04426 14.8504 5.97333C14.9699 5.81081 15.0155 5.64824 14.9954 5.45685C14.9649 5.16652 14.765 4.90705 14.4946 4.80674C14.413 4.77647 13.6656 4.69931 12.1667 4.5664C10.9524 4.45875 9.95351 4.36542 9.94701 4.35903C9.94041 4.35263 9.54381 3.45493 9.06571 2.3641C8.58751 1.27324 8.15931 0.335157 8.11401 0.279388C7.9761 0.109514 7.70366 0 7.46662 0Z" fill="#FDBE40"/>
</svg>
