<svg width="15" height="14" viewBox="0 0 15 14" fill="none" xmlns="http://www.w3.org/2000/svg">
<path fill-rule="evenodd" clip-rule="evenodd" d="M7.26171 0.0329375C7.08111 0.0987888 6.94531 0.195338 6.85921 0.319102C6.81371 0.384439 6.38991 1.32112 5.91721 2.40064C5.06451 4.34808 5.05711 4.3635 4.96681 4.37769C4.91681 4.38555 3.91321 4.47636 2.73671 4.5795C0.456709 4.77937 0.473509 4.77686 0.26441 4.94902C0.0623112 5.11534 -0.0492916 5.47169 0.0211086 5.7255C0.0393085 5.79087 0.0968112 5.90227 0.149008 5.97306C0.201109 6.04385 0.94961 6.70205 1.81221 7.43575C2.67491 8.16942 3.41661 8.80335 3.46061 8.84444L3.54051 8.91917L3.05491 10.9895C2.73771 12.3418 2.56841 13.1193 2.56681 13.2312C2.56241 13.5343 2.72221 13.7856 3.00511 13.9204C3.21181 14.0189 3.46161 14.0264 3.66031 13.9401C3.73351 13.9083 4.47231 13.4866 5.30211 13.003C6.13181 12.5195 6.95061 12.0424 7.12151 11.9429C7.29251 11.8434 7.45161 11.7548 7.47511 11.746C7.50011 11.7367 8.28631 12.178 9.36311 12.8059C10.3779 13.3977 11.2676 13.908 11.3401 13.9399C11.5372 14.0265 11.7873 14.0191 11.9942 13.9204C12.2771 13.7856 12.437 13.5343 12.4326 13.2312C12.4309 13.1193 12.2617 12.3418 11.9445 10.9895L11.4589 8.91917L11.5241 8.85826C11.56 8.8248 12.3017 8.19098 13.1724 7.44983C14.0431 6.70867 14.7982 6.04425 14.8504 5.97332C14.9699 5.8108 15.0155 5.64823 14.9954 5.45684C14.9649 5.16651 14.765 4.90704 14.4946 4.80673C14.413 4.77646 13.6656 4.6993 12.1667 4.56639C10.9524 4.45874 9.95351 4.36541 9.94701 4.35902C9.94041 4.35262 9.54381 3.45492 9.06571 2.36409C8.58751 1.27323 8.15931 0.335151 8.11401 0.27938C7.93341 0.056925 7.52211 -0.0620128 7.26171 0.0329375Z" fill="#FDBE40"/>
</svg>
