<?xml version="1.0" encoding="utf-8"?>
<!-- Generator: Adobe Illustrator 26.3.1, SVG Export Plug-In . SVG Version: 6.00 Build 0)  -->
<svg version="1.1" id="Слой_1" xmlns="http://www.w3.org/2000/svg" xmlns:xlink="http://www.w3.org/1999/xlink" x="0px" y="0px"
	 viewBox="0 0 17 17" style="enable-background:new 0 0 17 17;" xml:space="preserve">
<g>
	<path d="M8.5,17C3.8,17,0,13.2,0,8.5C0,3.8,3.8,0,8.5,0C13.2,0,17,3.8,17,8.5C17,13.2,13.2,17,8.5,17z M8.5,1C4.4,1,1,4.4,1,8.5
		S4.4,16,8.5,16S16,12.6,16,8.5S12.6,1,8.5,1z"/>
</g>
<g>
	<path d="M11.7,10.6c-0.1,0-0.2,0-0.2-0.1L8.3,8.9C8.1,8.9,8,8.7,8,8.5V3.7c0-0.3,0.2-0.5,0.5-0.5S9,3.4,9,3.7v4.5l2.9,1.5
		c0.2,0.1,0.3,0.4,0.2,0.7C12.1,10.5,11.9,10.6,11.7,10.6z"/>
</g>
</svg>
