<?xml version="1.0" encoding="utf-8"?>
<!-- Generator: Adobe Illustrator 26.3.1, SVG Export Plug-In . SVG Version: 6.00 Build 0)  -->
<svg version="1.1" id="Слой_1" xmlns="http://www.w3.org/2000/svg" xmlns:xlink="http://www.w3.org/1999/xlink" x="0px" y="0px"
	 viewBox="0 0 22 22" style="enable-background:new 0 0 22 22;" xml:space="preserve">
<style type="text/css">
	.st0{fill:#8932E0;}
</style>
<g>
	<path class="st0" d="M14.5,5.5l-0.2-0.1C12.1,5,9.9,5,7.7,5.4L7.5,5.5c-1,0.2-1.7,1-2,1.9C5,9.5,5,11.7,5.5,13.8c0.2,1,1,1.7,2,1.9
		h0.1c0.2,0,0.4,0.2,0.4,0.4l0.2,1.3l1.4-1.2c0.1-0.1,0.3-0.1,0.4-0.1c1.4,0.1,2.9,0,4.3-0.3l0.2-0.1c1-0.2,1.7-1,2-1.9
		c0.5-2.1,0.5-4.3,0-6.4C16.3,6.4,15.5,5.7,14.5,5.5z M11.5,8.6c0.4,0,0.8,0.2,1.1,0.4c0.3,0.3,0.4,0.7,0.4,1.1
		c0,0.2-0.1,0.4-0.3,0.4s-0.4-0.1-0.4-0.3c0-0.3-0.1-0.5-0.2-0.6c-0.1-0.1-0.3-0.2-0.6-0.2c-0.2,0-0.4-0.2-0.3-0.4
		S11.3,8.6,11.5,8.6z M11.1,7.8c0-0.2,0.2-0.4,0.4-0.4l0,0l0,0c0.8,0.1,1.5,0.3,2,0.8l0,0c0.5,0.5,0.7,1.2,0.7,1.9
		c0,0.2-0.2,0.4-0.4,0.3c-0.2,0-0.4-0.2-0.4-0.4c0-0.6-0.2-1-0.5-1.4S12.1,8,11.4,8l0,0C11.3,8.1,11.1,8,11.1,7.8z M14.3,13.6
		L14.3,13.6c-0.2,0.3-0.4,0.5-0.6,0.7c-0.2,0.2-0.4,0.3-0.7,0.3c-0.1,0-0.2,0-0.3,0l0,0c-0.3-0.1-0.8-0.3-1.7-0.8
		c-0.7-0.4-1.4-0.9-2-1.5l0,0l0,0l0,0l0,0c-0.6-0.6-1.1-1.3-1.5-2C7.2,9.8,7,9.3,6.8,8.7l0,0c0-0.1,0-0.2,0-0.3c0-0.2,0-0.4,0.2-0.6
		s0.5-0.4,0.7-0.6l0,0C7.9,7.1,8,7.1,8.1,7.1l0,0c0.1,0,0.2,0.1,0.3,0.2c0.4,0.4,0.7,0.9,1,1.3C9.6,9,9.5,9.3,9.3,9.4L9,9.7
		c-0.2,0.1-0.2,0.4-0.2,0.4s0.5,2,2.5,2.5l0,0c0,0,0.3,0,0.4-0.2L12,12c0.1-0.2,0.5-0.3,0.8-0.1c0.5,0.3,0.9,0.6,1.4,1
		C14.4,13.1,14.4,13.4,14.3,13.6z M15,10.5c-0.2,0-0.4-0.2-0.3-0.4c0-0.4-0.1-0.9-0.2-1.3c-0.2-0.4-0.4-0.8-0.7-1.1
		C13.2,7.3,12.4,7,11.5,7c-0.2,0-0.4-0.2-0.4-0.4s0.2-0.4,0.4-0.4c1.1,0,2,0.4,2.8,1.1l0,0c0.4,0.4,0.7,0.8,0.9,1.3s0.3,1,0.3,1.6
		C15.4,10.4,15.2,10.6,15,10.5z"/>
	<path class="st0" d="M16,0H6C2.7,0,0,2.7,0,6v10c0,3.3,2.7,6,6,6h10c3.3,0,6-2.7,6-6V6C22,2.7,19.3,0,16,0z M17.6,14.1
		c-0.3,1.3-1.4,2.4-2.8,2.7l-0.2,0.1c-1.5,0.3-2.9,0.4-4.4,0.4L8.3,19c-0.3,0-0.5,0-0.7,0c-0.2-0.1-0.3-0.2-0.4-0.4L7,16.7
		c-1.2-0.4-2.2-1.4-2.5-2.6c-0.6-2.3-0.6-4.7,0-6.9c0.3-1.3,1.4-2.4,2.8-2.7l0.2-0.1c2.3-0.5,4.7-0.5,7,0l0.2,0.1
		c1.4,0.3,2.5,1.3,2.8,2.7C18.1,9.4,18.1,11.8,17.6,14.1z"/>
</g>
</svg>
