<?xml version="1.0" encoding="utf-8"?>
<!-- Generator: Adobe Illustrator 26.3.1, SVG Export Plug-In . SVG Version: 6.00 Build 0)  -->
<svg version="1.1" id="Слой_1" xmlns="http://www.w3.org/2000/svg" xmlns:xlink="http://www.w3.org/1999/xlink" x="0px" y="0px"
	 viewBox="0 0 22 22" style="enable-background:new 0 0 22 22;" xml:space="preserve">
<style type="text/css">
	.st0{fill:#0077FF;}
</style>
<path class="st0" d="M16,0H6C2.7,0,0,2.7,0,6v10c0,3.3,2.7,6,6,6h10c3.3,0,6-2.7,6-6V6C22,2.7,19.3,0,16,0z M15.5,16
	c-0.5-1.7-1.9-3-3.6-3.2V16h-0.3C6.8,16,4.1,12.6,4,7h2.4c0.1,4.1,1.8,5.9,3.2,6.2V7h2.3v3.6c1.4-0.2,2.8-1.8,3.3-3.6h2.3
	c-0.4,2.2-2,3.8-3.1,4.5c1.1,0.5,2.9,2,3.6,4.5H15.5z"/>
</svg>
