<?xml version="1.0" encoding="utf-8"?>
<!-- Generator: Adobe Illustrator 26.3.1, SVG Export Plug-In . SVG Version: 6.00 Build 0)  -->
<svg version="1.1" id="Слой_1" xmlns="http://www.w3.org/2000/svg" xmlns:xlink="http://www.w3.org/1999/xlink" x="0px" y="0px"
	 viewBox="0 0 22 22" style="enable-background:new 0 0 22 22;" xml:space="preserve">
<style type="text/css">
	.st0{fill:#1CCE79;}
</style>
<g>
	<path class="st0" d="M16,0H6C2.7,0,0,2.7,0,6v10c0,3.3,2.7,6,6,6h10c3.3,0,6-2.7,6-6V6C22,2.7,19.3,0,16,0z M10.9,16.9
		c-0.9,0-1.8-0.2-2.6-0.6l-3,0.7C5.1,17,5,16.9,5,16.7l0.6-3.1C5.2,12.8,5,11.9,5,11c0-3.2,2.5-5.8,5.7-6c3.5-0.2,6.4,2.7,6.3,6.1
		C16.9,14.4,14.2,17,10.9,16.9z"/>
	<path class="st0" d="M11,6.3c-1.2,0-2.4,0.5-3.3,1.4c-0.9,0.8-1.4,2-1.4,3.3c0,0.7,0.2,1.5,0.5,2.1L7,13.5l-0.4,1.9L8.5,15l0.4,0.2
		c0.7,0.3,1.4,0.5,2.1,0.5c1.3,0,2.4-0.5,3.3-1.4c0.9-0.9,1.4-2.1,1.4-3.3s-0.5-2.4-1.4-3.3S12.3,6.3,11,6.3z M14.2,12.9
		c-0.2,0.4-0.6,0.8-1,0.9c-0.8,0.2-2,0-3.5-1.4c-1.3-1.2-1.7-2.2-1.6-3c0-0.5,0.4-0.9,0.8-1.1C9,8,9.3,8.1,9.4,8.3l0.5,1.1
		c0.1,0.1,0,0.3-0.1,0.4l-0.2,0.3c-0.1,0.1-0.1,0.3,0,0.5c0.3,0.5,1.5,1.5,2,1.8c0.2,0.1,0.3,0,0.5-0.1l0.3-0.3
		c0.1-0.1,0.3-0.2,0.4-0.1l1.2,0.3C14.2,12.3,14.3,12.6,14.2,12.9z"/>
</g>
</svg>
