<?xml version="1.0" encoding="utf-8"?>
<!-- Generator: Adobe Illustrator 26.3.1, SVG Export Plug-In . SVG Version: 6.00 Build 0)  -->
<svg version="1.1" id="Слой_1" xmlns="http://www.w3.org/2000/svg" xmlns:xlink="http://www.w3.org/1999/xlink" x="0px" y="0px"
	 viewBox="0 0 22 22" style="enable-background:new 0 0 22 22;" xml:space="preserve">
<style type="text/css">
	.st0{fill:#FF0000;}
</style>
<g>
	<path class="st0" d="M9.3,9C9.2,8.9,9.1,9,9.1,9.1v3.8c0,0.1,0.1,0.2,0.2,0.1l3.8-1.8c0.1-0.1,0.1-0.2,0-0.3L9.3,9z"/>
	<path class="st0" d="M16,0H6C2.7,0,0,2.7,0,6v10c0,3.3,2.7,6,6,6h10c3.3,0,6-2.7,6-6V6C22,2.7,19.3,0,16,0z M18,13.1
		c0,1.6-1.3,2.9-2.9,2.9H6.9C5.3,16,4,14.7,4,13.1V8.9C4,7.3,5.3,6,6.9,6h8.2C16.7,6,18,7.3,18,8.9V13.1z"/>
</g>
</svg>
