<svg width="127" height="84" viewBox="0 0 127 84" fill="none" xmlns="http://www.w3.org/2000/svg">
<path d="M86.6399 80.1164L86.6436 80.1182C90.1402 81.7572 93.873 82.5752 97.8305 82.5752C102.755 82.5752 107.332 81.4146 111.544 79.0908L111.549 79.0876C115.747 76.7354 119.141 73.5796 121.716 69.626L121.718 69.6225C124.312 65.6044 125.605 61.1097 125.605 56.1652C125.605 51.2584 124.54 46.8699 122.383 43.028C120.266 39.1621 117.304 36.1255 113.508 33.9343C109.729 31.698 105.368 30.5952 100.455 30.5952C98.2449 30.5952 95.8928 30.9635 93.4046 31.6847C92.5858 31.9221 91.7947 32.2057 91.0316 32.5356L91.8697 18.7352H119.565H120.565V17.7352V4.40019V3.40019H119.565H78.3005H77.3563L77.3021 4.34285L74.9921 44.5578L74.947 45.3429L75.6993 45.5719L87.7743 49.2469L88.3346 49.4174L88.7574 49.0122C89.4997 48.3008 90.6659 47.5121 92.3074 46.6571L92.3146 46.6534L92.3218 46.6495C93.8094 45.8437 95.8 45.4052 98.3555 45.4052C100.356 45.4052 102.157 45.8869 103.781 46.8422L103.788 46.8464C105.461 47.8113 106.77 49.106 107.731 50.7397L107.735 50.7459L107.738 50.7521C108.725 52.3743 109.22 54.1709 109.22 56.1652C109.22 58.1595 108.725 59.9561 107.738 61.5783L107.735 61.5844L107.731 61.5907C106.77 63.2244 105.461 64.5191 103.788 65.484L103.781 65.4883C102.157 66.4435 100.356 66.9252 98.3555 66.9252C96.8614 66.9252 95.3934 66.6091 93.9441 65.9669C92.5301 65.2902 91.2737 64.3568 90.1718 63.159C89.1327 61.9921 88.4017 60.6 87.9845 58.9632L87.7346 57.983L86.7574 58.2441L73.0024 61.9191L72.0219 62.181L72.2983 63.1575C73.3863 67.0017 75.1864 70.3881 77.7008 73.3033C80.2063 76.2084 83.1883 78.4815 86.6399 80.1164ZM15.3561 5.46956L15.8435 6.34269L15.3561 5.46957C10.9943 7.9049 7.58825 11.3109 5.15292 15.6727C2.71197 20.0446 1.50854 25.1178 1.50854 30.8602V53.5402C1.50854 59.2826 2.71197 64.3558 5.15292 68.7277C7.58825 73.0895 10.9943 76.4955 15.3561 78.9308C19.7279 81.3718 24.8011 82.5752 30.5435 82.5752C36.286 82.5752 41.3592 81.3718 45.731 78.9308C50.0928 76.4955 53.4988 73.0895 55.9342 68.7277C58.3751 64.3558 59.5785 59.2826 59.5785 53.5402V30.8602C59.5785 25.1178 58.3751 20.0446 55.9342 15.6727C53.4988 11.3109 50.0928 7.9049 45.731 5.46957C41.3592 3.02862 36.286 1.8252 30.5435 1.8252C24.8011 1.8252 19.7279 3.02862 15.3561 5.46956ZM36.8628 65.3825C34.9971 66.4762 32.8988 67.0302 30.5435 67.0302C28.1883 67.0302 26.09 66.4762 24.2243 65.3825C22.3418 64.279 20.8547 62.7919 19.7512 60.9095C18.6575 59.0437 18.1035 56.9455 18.1035 54.5902V29.7052C18.1035 27.3499 18.6575 25.2516 19.7512 23.3859C20.8547 21.5035 22.3418 20.0164 24.2243 18.9129C26.09 17.8192 28.1883 17.2652 30.5435 17.2652C32.8988 17.2652 34.9971 17.8192 36.8628 18.9129C38.7453 20.0164 40.2324 21.5035 41.3358 23.3859C42.4296 25.2516 42.9835 27.3499 42.9835 29.7052V54.5902C42.9835 56.9455 42.4296 59.0437 41.3358 60.9095C40.2324 62.7919 38.7453 64.279 36.8628 65.3825Z" stroke="#FFCC24" stroke-width="2"/>
</svg>
