<?xml version="1.0" encoding="utf-8"?>
<!-- Generator: Adobe Illustrator 26.3.1, SVG Export Plug-In . SVG Version: 6.00 Build 0)  -->
<svg version="1.1" id="Слой_1" xmlns="http://www.w3.org/2000/svg" xmlns:xlink="http://www.w3.org/1999/xlink" x="0px" y="0px"
	 viewBox="0 0 122 84" style="enable-background:new 0 0 122 84;" xml:space="preserve">
<style type="text/css">
	.st0{fill:#FFFFFF;stroke:#FFCC24;stroke-width:2;}
</style>
<path class="st0" d="M78.1,79.6L77.5,81H79h15.4h0.7l0.3-0.6l25.3-62.2l0.1-0.2v-0.2V4.4v-1h-1H72.1h-1v1v13.4v1h1h30.9L78.1,79.6z
	 M15.2,5.5l0.5,0.9L15.2,5.5C10.9,7.9,7.4,11.3,5,15.7C2.6,20,1.4,25.1,1.4,30.9v22.7c0,5.7,1.2,10.8,3.6,15.2
	c2.4,4.4,5.8,7.8,10.2,10.2c4.4,2.4,9.4,3.6,15.2,3.6c5.7,0,10.8-1.2,15.2-3.6c4.4-2.4,7.8-5.8,10.2-10.2c2.4-4.4,3.6-9.4,3.6-15.2
	V30.9c0-5.7-1.2-10.8-3.6-15.2C53.4,11.3,50,7.9,45.6,5.5C41.2,3,36.1,1.8,30.4,1.8C24.7,1.8,19.6,3,15.2,5.5z M36.7,65.4
	c-1.9,1.1-4,1.6-6.3,1.6c-2.4,0-4.5-0.6-6.3-1.6c-1.9-1.1-3.4-2.6-4.5-4.5c-1.1-1.9-1.6-4-1.6-6.3V29.7c0-2.4,0.6-4.5,1.6-6.3
	c1.1-1.9,2.6-3.4,4.5-4.5c1.9-1.1,4-1.6,6.3-1.6c2.4,0,4.5,0.6,6.3,1.6c1.9,1.1,3.4,2.6,4.5,4.5c1.1,1.9,1.6,4,1.6,6.3v24.9
	c0,2.4-0.6,4.5-1.6,6.3C40.1,62.8,38.6,64.3,36.7,65.4z"/>
</svg>
