<svg width="130" height="84" viewBox="0 0 130 84" fill="none" xmlns="http://www.w3.org/2000/svg">
<path d="M86.7521 79.361L86.7614 79.3658C90.9119 81.5139 95.6233 82.5752 100.871 82.5752C106.119 82.5752 110.83 81.5139 114.981 79.3658L114.987 79.3626C119.125 77.1845 122.393 74.1954 124.767 70.3977L124.769 70.3941C127.15 66.5475 128.331 62.1797 128.331 57.3202C128.331 53.1727 127.384 49.2381 125.493 45.5289C124.284 43.1116 122.733 41.0121 120.844 39.2354C122.166 37.6433 123.246 36.016 124.078 34.3524L124.08 34.3479C125.521 31.429 126.231 28.1596 126.231 24.5602C126.231 20.0199 125.139 16.0124 122.923 12.5763C120.754 9.15809 117.741 6.51847 113.913 4.65816C110.114 2.75962 105.758 1.8252 100.871 1.8252C95.9826 1.8252 91.6097 2.76026 87.7766 4.65817C83.9821 6.51925 80.9712 9.15858 78.7682 12.5731L78.7642 12.5795C76.5843 16.0155 75.5111 20.0218 75.5111 24.5602C75.5111 28.1673 76.2591 31.4431 77.7759 34.3659L77.7806 34.3746C78.6748 36.0565 79.7595 37.6829 81.032 39.2541C79.1128 41.0762 77.5355 43.1839 76.3045 45.5749L76.3009 45.582C74.4448 49.2578 73.5161 53.1748 73.5161 57.3202C73.5161 62.1768 74.6781 66.5424 77.0222 70.3882L77.0221 70.3882L77.0281 70.3977C79.4003 74.1933 82.6489 77.1822 86.7521 79.361ZM15.5616 5.46956L16.0491 6.34269L15.5616 5.46957C11.1998 7.9049 7.79382 11.3109 5.35849 15.6727C2.91753 20.0446 1.71411 25.1178 1.71411 30.8602V53.5402C1.71411 59.2826 2.91753 64.3558 5.35849 68.7277C7.79382 73.0895 11.1998 76.4955 15.5616 78.9308C19.9335 81.3718 25.0067 82.5752 30.7491 82.5752C36.4916 82.5752 41.5648 81.3718 45.9366 78.9308C50.2984 76.4955 53.7044 73.0895 56.1397 68.7277C58.5807 64.3558 59.7841 59.2826 59.7841 53.5402V30.8602C59.7841 25.1178 58.5807 20.0446 56.1397 15.6727C53.7044 11.3109 50.2984 7.9049 45.9366 5.46957C41.5648 3.02862 36.4916 1.8252 30.7491 1.8252C25.0067 1.8252 19.9335 3.02862 15.5616 5.46956ZM108.392 49.9785L108.399 49.9847C110.23 51.6023 111.211 53.9913 111.211 57.3202C111.211 60.6886 110.228 63.0706 108.406 64.6495C106.524 66.2806 104.043 67.1352 100.871 67.1352C97.6984 67.1352 95.239 66.2804 93.3948 64.655C91.605 63.0776 90.6361 60.6939 90.6361 57.3202C90.6361 53.9861 91.6026 51.5953 93.4019 49.9791L93.4087 49.9729C95.2538 48.2842 97.7081 47.4002 100.871 47.4002C104.033 47.4002 106.509 48.2841 108.392 49.9785ZM106.906 19.0349L106.906 19.0349L106.916 19.0426C108.326 20.1648 109.111 21.9329 109.111 24.5602C109.111 27.1844 108.328 28.9514 106.921 30.0738C105.423 31.2335 103.435 31.8552 100.871 31.8552C98.3075 31.8552 96.3194 31.2335 94.8213 30.0738C93.4146 28.9514 92.6311 27.1844 92.6311 24.5602C92.6311 21.9329 93.4164 20.1648 94.8263 19.0426L94.8264 19.0427L94.8359 19.0349C96.3338 17.8121 98.3162 17.1602 100.871 17.1602C103.426 17.1602 105.408 17.8121 106.906 19.0349ZM37.0684 65.3825C35.2027 66.4762 33.1044 67.0302 30.7491 67.0302C28.3938 67.0302 26.2956 66.4762 24.4298 65.3825C22.5474 64.279 21.0603 62.7919 19.9568 60.9095C18.8631 59.0437 18.3091 56.9455 18.3091 54.5902V29.7052C18.3091 27.3499 18.8631 25.2516 19.9568 23.3859C21.0603 21.5035 22.5474 20.0164 24.4298 18.9129C26.2956 17.8192 28.3938 17.2652 30.7491 17.2652C33.1044 17.2652 35.2027 17.8192 37.0684 18.9129C38.9508 20.0164 40.4379 21.5035 41.5414 23.3859C42.6351 25.2516 43.1891 27.3499 43.1891 29.7052V54.5902C43.1891 56.9455 42.6351 59.0437 41.5414 60.9095C40.4379 62.7919 38.9508 64.279 37.0684 65.3825Z" stroke="#FFCC24" stroke-width="2"/>
</svg>
