<?xml version="1.0" encoding="utf-8"?>
<!-- Generator: Adobe Illustrator 26.3.1, SVG Export Plug-In . SVG Version: 6.00 Build 0)  -->
<svg version="1.1" id="Слой_1" xmlns="http://www.w3.org/2000/svg" xmlns:xlink="http://www.w3.org/1999/xlink" x="0px" y="0px"
	 viewBox="0 0 130 84" style="enable-background:new 0 0 130 84;" xml:space="preserve">
<style type="text/css">
	.st0{fill:#FFFFFF;stroke:#FFCC24;stroke-width:2;}
</style>
<path class="st0" d="M86.8,79.4L86.8,79.4c4.2,2.2,8.9,3.2,14.1,3.2c5.2,0,10-1.1,14.1-3.2l0,0c4.1-2.2,7.4-5.2,9.8-9l0,0
	c2.4-3.8,3.6-8.2,3.6-13.1c0-4.1-0.9-8.1-2.8-11.8c-1.2-2.4-2.8-4.5-4.6-6.3c1.3-1.6,2.4-3.2,3.2-4.9l0,0c1.4-2.9,2.2-6.2,2.2-9.8
	c0-4.5-1.1-8.5-3.3-12c-2.2-3.4-5.2-6.1-9-7.9c-3.8-1.9-8.2-2.8-13-2.8c-4.9,0-9.3,0.9-13.1,2.8c-3.8,1.9-6.8,4.5-9,7.9l0,0
	c-2.2,3.4-3.3,7.4-3.3,12c0,3.6,0.7,6.9,2.3,9.8l0,0c0.9,1.7,2,3.3,3.3,4.9c-1.9,1.8-3.5,3.9-4.7,6.3l0,0c-1.9,3.7-2.8,7.6-2.8,11.7
	c0,4.9,1.2,9.2,3.5,13.1h0l0,0C79.4,74.2,82.6,77.2,86.8,79.4z M15.6,5.5L16,6.3L15.6,5.5c-4.4,2.4-7.8,5.8-10.2,10.2
	C2.9,20,1.7,25.1,1.7,30.9v22.7c0,5.7,1.2,10.8,3.6,15.2c2.4,4.4,5.8,7.8,10.2,10.2c4.4,2.4,9.4,3.6,15.2,3.6
	c5.7,0,10.8-1.2,15.2-3.6c4.4-2.4,7.8-5.8,10.2-10.2c2.4-4.4,3.6-9.4,3.6-15.2V30.9c0-5.7-1.2-10.8-3.6-15.2
	c-2.4-4.4-5.8-7.8-10.2-10.2C41.6,3,36.5,1.8,30.7,1.8C25,1.8,19.9,3,15.6,5.5z M108.4,50L108.4,50c1.8,1.6,2.8,4,2.8,7.3
	c0,3.4-1,5.8-2.8,7.3c-1.9,1.6-4.4,2.5-7.5,2.5c-3.2,0-5.6-0.9-7.5-2.5c-1.8-1.6-2.8-4-2.8-7.3c0-3.3,1-5.7,2.8-7.3l0,0
	c1.8-1.7,4.3-2.6,7.5-2.6C104,47.4,106.5,48.3,108.4,50z M106.9,19L106.9,19L106.9,19c1.4,1.1,2.2,2.9,2.2,5.5
	c0,2.6-0.8,4.4-2.2,5.5c-1.5,1.2-3.5,1.8-6,1.8c-2.6,0-4.6-0.6-6-1.8c-1.4-1.1-2.2-2.9-2.2-5.5c0-2.6,0.8-4.4,2.2-5.5l0,0l0,0
	c1.5-1.2,3.5-1.9,6-1.9C103.4,17.2,105.4,17.8,106.9,19z M37.1,65.4c-1.9,1.1-4,1.6-6.3,1.6s-4.5-0.6-6.3-1.6
	c-1.9-1.1-3.4-2.6-4.5-4.5c-1.1-1.9-1.6-4-1.6-6.3V29.7c0-2.4,0.6-4.5,1.6-6.3c1.1-1.9,2.6-3.4,4.5-4.5c1.9-1.1,4-1.6,6.3-1.6
	s4.5,0.6,6.3,1.6c1.9,1.1,3.4,2.6,4.5,4.5c1.1,1.9,1.6,4,1.6,6.3v24.9c0,2.4-0.6,4.5-1.6,6.3C40.4,62.8,39,64.3,37.1,65.4z"/>
</svg>
