<?xml version="1.0" encoding="utf-8"?>
<!-- Generator: Adobe Illustrator 26.3.1, SVG Export Plug-In . SVG Version: 6.00 Build 0)  -->
<svg version="1.1" id="Слой_1" xmlns="http://www.w3.org/2000/svg" xmlns:xlink="http://www.w3.org/1999/xlink" x="0px" y="0px"
	 viewBox="0 0 129 84" style="enable-background:new 0 0 129 84;" xml:space="preserve">
<style type="text/css">
	.st0{fill:#FFFFFF;stroke:#FFCC24;stroke-width:2;}
</style>
<path class="st0" d="M106.9,52.2c1.3-0.5,2.5-1.2,3.7-1.9v4.5c0,2.1-0.5,4.2-1.6,6.1l0,0c-1,1.9-2.4,3.4-4.3,4.6
	c-1.8,1.1-4,1.7-6.6,1.7c-1.6,0-3.1-0.3-4.7-1c-1.5-0.6-2.9-1.6-4-2.7l-0.7-0.7L88,63.5L77.9,73.7l-0.7,0.7l0.8,0.7
	c2.9,2.6,6.1,4.6,9.5,5.7l0,0l0,0c3.4,1.1,7,1.7,10.8,1.7c5.8,0,10.9-1.2,15.3-3.6l0,0c4.4-2.4,7.8-5.9,10.2-10.4l0,0
	c2.4-4.5,3.6-9.8,3.6-15.9V30.8c0-5.6-1.2-10.6-3.6-15c-2.4-4.4-5.7-7.8-9.8-10.2c-4.1-2.4-8.8-3.7-13.9-3.7
	c-4.9,0-9.5,1.2-13.6,3.5c-4.1,2.3-7.5,5.5-10,9.5c-2.5,4-3.8,8.5-3.8,13.4c0,4.9,1,9.3,3.2,13.2l0,0c2.1,3.9,5.1,6.9,8.9,9.1l0,0
	c3.8,2.2,8.2,3.3,13.1,3.3C100.8,54,103.9,53.4,106.9,52.2L106.9,52.2z M15.6,5.5l0.5,0.9L15.6,5.5c-4.4,2.4-7.8,5.8-10.2,10.2
	C3,20,1.8,25.1,1.8,30.9v22.7c0,5.7,1.2,10.8,3.6,15.2c2.4,4.4,5.8,7.8,10.2,10.2c4.4,2.4,9.4,3.6,15.2,3.6c5.7,0,10.8-1.2,15.2-3.6
	c4.4-2.4,7.8-5.8,10.2-10.2c2.4-4.4,3.6-9.4,3.6-15.2V30.9c0-5.7-1.2-10.8-3.6-15.2C53.8,11.3,50.3,7.9,46,5.5
	C41.6,3,36.5,1.8,30.8,1.8C25.1,1.8,20,3,15.6,5.5z M109.1,33.8L109.1,33.8c-1,1.6-2.3,3-4,4c-1.6,1-3.4,1.4-5.4,1.4
	c-2,0-3.8-0.5-5.4-1.4c-1.6-1-2.9-2.3-3.9-3.9c-1-1.7-1.4-3.5-1.4-5.5c0-2,0.5-3.8,1.4-5.4c1-1.6,2.3-2.9,4-3.9
	c1.7-1,3.5-1.4,5.5-1.4c2,0,3.8,0.5,5.4,1.5c1.6,1,2.9,2.3,3.9,4c1,1.6,1.4,3.4,1.4,5.3C110.6,30.3,110.1,32.2,109.1,33.8z
	 M37.1,65.4c-1.9,1.1-4,1.6-6.3,1.6s-4.5-0.6-6.3-1.6c-1.9-1.1-3.4-2.6-4.5-4.5c-1.1-1.9-1.6-4-1.6-6.3V29.7c0-2.4,0.6-4.5,1.6-6.3
	c1.1-1.9,2.6-3.4,4.5-4.5c1.9-1.1,4-1.6,6.3-1.6s4.5,0.6,6.3,1.6c1.9,1.1,3.4,2.6,4.5,4.5c1.1,1.9,1.6,4,1.6,6.3v24.9
	c0,2.4-0.6,4.5-1.6,6.3C40.5,62.8,39,64.3,37.1,65.4z"/>
</svg>
