<?xml version="1.0" encoding="utf-8"?>
<!-- Generator: Adobe Illustrator 26.3.1, SVG Export Plug-In . SVG Version: 6.00 Build 0)  -->
<svg version="1.1" id="Слой_1" xmlns="http://www.w3.org/2000/svg" xmlns:xlink="http://www.w3.org/1999/xlink" x="0px" y="0px"
	 viewBox="0 0 112 84" style="enable-background:new 0 0 112 84;" xml:space="preserve">
<style type="text/css">
	.st0{fill:#FFFFFF;stroke:#FFCC24;stroke-width:2;}
</style>
<path class="st0" d="M15.7,80v1h1h14.6h1v-1V4.4v-1h-1H16.7h-0.3l-0.2,0.1L2,12l-0.5,0.3v0.6v15.7v1.8l1.5-0.9l12.7-7.8V80z
	 M66.2,78.9c4.4,2.4,9.4,3.6,15.2,3.6c5.7,0,10.8-1.2,15.2-3.6c4.4-2.4,7.8-5.8,10.2-10.2c2.4-4.4,3.6-9.4,3.6-15.2V30.9
	c0-5.7-1.2-10.8-3.6-15.2c-2.4-4.4-5.8-7.8-10.2-10.2C92.2,3,87.1,1.8,81.4,1.8c-5.7,0-10.8,1.2-15.2,3.6
	c-4.4,2.4-7.8,5.8-10.2,10.2c-2.4,4.4-3.6,9.4-3.6,15.2v22.7c0,5.7,1.2,10.8,3.6,15.2C58.4,73.1,61.9,76.5,66.2,78.9z M87.7,65.4
	c-1.9,1.1-4,1.6-6.3,1.6c-2.4,0-4.5-0.6-6.3-1.6c-1.9-1.1-3.4-2.6-4.5-4.5c-1.1-1.9-1.6-4-1.6-6.3V29.7c0-2.4,0.6-4.5,1.6-6.3
	c1.1-1.9,2.6-3.4,4.5-4.5c1.9-1.1,4-1.6,6.3-1.6c2.4,0,4.5,0.6,6.3,1.6c1.9,1.1,3.4,2.6,4.5,4.5c1.1,1.9,1.6,4,1.6,6.3v24.9
	c0,2.4-0.6,4.5-1.6,6.3C91.1,62.8,89.6,64.3,87.7,65.4z"/>
</svg>
