<svg width="76" height="73" viewBox="0 0 76 73" fill="none" xmlns="http://www.w3.org/2000/svg">
<circle cx="18" cy="55" r="18" fill="white"/>
<path d="M38.2817 55.8152L28.8992 25.5928H26.6877L17.3052 55.8152H15.2361V59.9282H40.3509V55.8152H38.2817Z" fill="#FFCC24"/>
<path d="M39.6855 54.3347V0H33.7581V35.4203L31.3202 27.2948C30.8556 25.7418 29.453 24.6976 27.8307 24.6976C26.2084 24.6976 24.8057 25.7419 24.3411 27.2946L16.2286 54.3347H15.9758C14.8861 54.3347 14 55.2208 14 56.3105V59.2743C14 60.3639 14.8861 61.25 15.9758 61.25H39.6855C40.7752 61.25 41.6612 60.3639 41.6612 59.2743V56.3105C41.6612 55.2208 40.7752 54.3347 39.6855 54.3347ZM35.7338 1.97581H37.7098V48.592L35.7338 42.0067V1.97581ZM26.234 27.8619C26.4476 27.1504 27.0887 26.6734 27.8307 26.6734C28.5726 26.6734 29.2138 27.1504 29.4273 27.8619L33.5169 41.4919H22.1444L26.234 27.8619ZM19.7736 49.3952H29.8065V47.4193H20.3658L21.5515 43.4678H34.1088L35.2944 47.4193H31.7822V49.3952H35.8877L37.3696 54.3347H18.2917L19.7736 49.3952ZM15.9758 59.2743V56.3105H39.6855L39.6875 59.2743H15.9758ZM69.3226 0V61.25H75.25V0H69.3226ZM73.2743 59.2743H71.2984V1.97581H73.2743V59.2743ZM55.4919 8.89112H53.5162V0H51.5403V10.8669H57.4677V0H55.4919V8.89112ZM51.5403 61.25H53.5162V52.3588H55.4919V61.25H57.4677V50.3831H51.5403V61.25ZM51.5403 46.4314H57.4677V32.6007H51.5403V46.4314ZM53.5162 34.5766H55.4919V44.4557H53.5162V34.5766ZM51.5403 28.6493H57.4677V14.8186H51.5403V28.6493ZM53.5162 16.7943H55.4919V26.6734H53.5162V16.7943Z" fill="black"/>
</svg>
