<svg width="100" height="51" viewBox="0 0 100 51" fill="none" xmlns="http://www.w3.org/2000/svg">
<circle cx="75.5" cy="26.5" r="24.5" fill="white"/>
<path d="M68.5344 20.8232V18.9588H67.4545V7.55974V3.5447V1.13574H9.30579V7.55974H61.8612V23.0384H62.3318V26.915H64.4363V30.5424H69.6697V20.8232H68.5344Z" fill="#FFCC24"/>
<path d="M8.15041 3.37473V6.13334H5.15007C3.52974 6.42492 2.35499 7.84227 2.35499 9.50806V24.2578C2.35517 24.5209 2.27871 24.7756 2.13385 24.9944L0.565276 27.3567C0.193305 27.9218 -0.00229393 28.5798 2.02998e-05 29.2591V35.6771C2.02998e-05 36.912 0.994525 37.9167 2.21703 37.9167H14.3203C14.3214 37.9167 14.3225 37.9167 14.3236 37.9167C15.2794 37.9167 16.1241 37.302 16.4267 36.3859L17.0962 34.3483H23.8396L24.5117 36.386C24.814 37.3015 25.6591 37.9167 26.6146 37.9167C26.6143 37.9167 26.6149 37.9167 26.6146 37.9167H39.0474C39.0484 37.9167 39.0496 37.9167 39.0507 37.9167C40.0065 37.9167 40.8511 37.302 41.1537 36.3859L41.8232 34.3483H48.5667L49.2387 36.386C49.541 37.3015 50.3863 37.9167 51.3417 37.9167C51.3412 37.9167 51.3419 37.9167 51.3417 37.9167H63.4459C64.6683 37.9167 65.6629 36.912 65.6629 35.6771V31.7834H69.2413C70.4637 31.7834 71.4583 30.7787 71.4583 29.5436V23.12C71.4607 22.441 71.2651 21.7834 70.8926 21.2183L69.3278 18.8476C69.1854 18.6343 69.1076 18.3848 69.1034 18.1268V3.37473C69.1034 1.70895 67.9287 0.291592 66.3082 0H10.9455C9.32516 0.291592 8.15041 1.70895 8.15041 3.37473ZM63.5792 35.8164H51.2432L50.5714 33.7786C50.2689 32.8631 49.4238 32.248 48.4683 32.248C48.468 32.248 48.4686 32.248 48.4683 32.248H41.923C41.9219 32.248 41.9208 32.248 41.9198 32.248C40.9638 32.248 40.1192 32.8627 39.8166 33.7786L39.1471 35.8164H26.5161L25.8441 33.7786C25.5418 32.8631 24.6967 32.248 23.7412 32.248C23.7409 32.248 23.7416 32.248 23.7412 32.248H17.1959C17.1949 32.248 17.1937 32.248 17.1927 32.248C16.2369 32.248 15.3921 32.8627 15.0895 33.7786L14.42 35.8164H2.07902V29.2537C2.07875 28.9906 2.15521 28.7359 2.30016 28.5171L3.86864 26.1548C4.2395 25.5913 4.4351 24.9353 4.43403 24.2581V9.50806C4.43403 8.77529 5.02408 8.17919 5.74937 8.17919H59.9134C60.6389 8.17919 61.229 8.77529 61.229 9.50806V24.2578C61.2267 24.9372 61.4222 25.5948 61.7947 26.1599L63.3593 28.5305C63.5031 28.7491 63.5791 29.0033 63.5792 29.2655V35.8164ZM10.2294 3.37473C10.2294 2.64196 10.8195 2.04585 11.5448 2.04585H65.7088C66.4342 2.04585 67.0244 2.64196 67.0244 3.37473V18.1245C67.0219 18.8039 67.2176 19.4615 67.5901 20.0266L69.1547 22.3972C69.2985 22.6158 69.3745 22.87 69.3746 23.1322V29.6831H65.6629V29.2537C65.6653 28.5743 65.4697 27.9167 65.0972 27.3516L63.5324 24.981C63.3899 24.7676 63.3122 24.5182 63.308 24.2601V9.50806C63.308 7.84227 62.1333 6.42492 60.5128 6.13334H10.2294V3.37473ZM12.6763 11.887C12.6763 12.466 12.21 12.937 11.6368 12.937H9.14384V15.4554C9.14384 16.0345 8.67761 16.5056 8.10443 16.5056C7.5313 16.5056 7.06498 16.0345 7.06498 15.4554V11.887C7.06498 11.308 7.5313 10.8369 8.10443 10.8369H11.6368C12.21 10.8369 12.6763 11.308 12.6763 11.887Z" fill="black"/>
</svg>
