<svg width="89" height="79" viewBox="0 0 89 79" fill="none" xmlns="http://www.w3.org/2000/svg">
<circle cx="23" cy="56" r="23" fill="#515151"/>
<path d="M87.5993 26.8359H51.8547V38.8395H87.5993V26.8359Z" fill="#919191"/>
<path d="M88.8663 68.5019L86.8749 65.0529V40.1049C88.1059 39.7117 89 38.5575 89 37.1977V32.8751V28.5521C89 27.7487 88.6903 26.9933 88.1291 26.4198C88.1217 26.4116 88.1149 26.4031 88.1072 26.3953C87.5398 25.8268 86.7543 25.5009 85.9524 25.5009C85.9512 25.5009 85.9501 25.5009 85.9487 25.5009H79.5009H73.1275C73.1269 25.5009 73.1264 25.5007 73.1256 25.5007L64.6253 25.5009H58.2502H53.9274C52.2449 25.5009 50.8761 26.8697 50.8761 28.5521V32.8751V37.1979C50.8761 38.0128 51.1933 38.7788 51.7695 39.3553C51.7705 39.3562 51.7715 39.3569 51.7725 39.3578C52.1169 39.702 52.5417 39.9553 53.0012 40.1023V44.0469C52.0406 42.81 50.7707 41.8043 49.2715 41.155C48.8779 40.9846 48.6234 40.6034 48.6234 40.1837V37.1251V13.7494V10.4948C50.9823 10.4055 52.8736 8.45869 52.8736 6.07845V0.998799C52.8736 0.447162 52.4265 0 51.8748 0H39.1246C38.5729 0 38.1258 0.447162 38.1258 0.998799V6.07845C38.1258 8.45869 40.0171 10.4055 42.3759 10.4948V13.7492V16.2489C42.3759 16.8004 42.8231 17.2477 43.3746 17.2477C43.9263 17.2477 44.3734 16.8004 44.3734 16.2489V14.748H46.6258V36.1263H44.3734V21.0378C44.3734 20.4861 43.9263 20.039 43.3746 20.039C42.8231 20.039 42.3759 20.4861 42.3759 21.0378V36.0917C40.0004 35.6283 37.4968 36.6962 36.2372 38.8779L25.662 57.1945C25.3862 57.6723 25.5499 58.2832 26.0276 58.5589C26.185 58.6498 26.3567 58.693 26.5261 58.693C26.8713 58.693 27.207 58.5137 27.3921 58.1933L37.9674 39.8767C38.9523 38.1704 40.8619 37.7003 42.3759 38.1523V40.1837C42.3759 40.6034 42.1216 40.9846 41.7281 41.155C38.2487 42.6616 36.0007 46.0847 36.0007 49.8756V57.6985L35.1903 57.4283C34.6675 57.254 34.1013 57.5367 33.9268 58.06C33.7524 58.5833 34.0353 59.149 34.5585 59.3234L36.6833 60.0317L37.7593 60.3905C38.5775 60.6632 39.4175 60.7976 40.2519 60.7976C41.7747 60.7976 43.2775 60.3492 44.5873 59.4759L45.6607 58.7605C47.0271 57.8493 48.7249 57.5553 50.3184 57.9536L55.8827 59.3447C56.4173 59.478 56.9601 59.1532 57.094 58.618C57.2277 58.0828 56.9024 57.5406 56.3672 57.4067L54.9988 57.0646V54.8701C56.4586 55.4875 58.0956 55.6571 59.6909 55.3264C61.8925 54.8696 63.7296 53.5363 64.8636 51.5721L67.5421 46.933C68.2271 45.7463 69.4543 45.0379 70.8244 45.0379C72.1945 45.0379 73.4215 45.7463 74.1066 46.933L80.7493 58.4383C80.7565 58.4515 80.7639 58.4641 80.7717 58.4768L85.0018 65.8039C85.0074 65.8141 85.0134 65.8242 85.0193 65.8343L86.2712 68.0024H21.7288L24.9651 62.3973C25.2408 61.9195 25.0772 61.3086 24.5995 61.0329C24.1215 60.7568 23.5109 60.9207 23.235 61.3985L19.1338 68.5019C18.9554 68.8107 18.9554 69.1915 19.1338 69.5007C19.3123 69.8097 19.6419 70 19.9988 70H88.0012C88.3581 70 88.6878 69.8097 88.8663 69.5007C89.0446 69.1915 89.0446 68.8107 88.8663 68.5019ZM87.0024 37.1977C87.0024 37.7787 86.5297 38.2514 85.9487 38.2514H84.0373L87.0024 35.2863V37.1977ZM87.0024 28.911V32.461L81.2121 38.2514H77.6622L87.0024 28.911ZM74.8371 38.2514H69.1619L73.7031 33.7101C74.0932 33.32 74.0932 32.6875 73.7031 32.2974C73.313 31.9075 72.6807 31.9075 72.2906 32.2974L66.3366 38.2514H62.7866L73.5393 27.4985H77.0895L75.6783 28.9097C75.2883 29.2998 75.2883 29.9322 75.6783 30.3223C76.0685 30.7124 76.7007 30.7124 77.091 30.3223L79.9146 27.4985H85.5897L74.8371 38.2514ZM59.9615 38.2514H54.2863L65.039 27.4983H70.7143L59.9615 38.2514ZM52.8737 33.2888L58.6639 27.4985H62.2139L52.8737 36.8387V33.2888ZM52.8737 28.5521C52.8737 27.9711 53.3464 27.4985 53.9274 27.4985H55.8387L52.8737 30.4636V28.5521ZM44.3734 1.9976H46.6258V4.25009H44.3734V1.9976ZM43.3746 8.50029H42.5451C41.2097 8.50029 40.1232 7.41385 40.1232 6.07845V1.9976H42.3759V5.24889C42.3759 5.80054 42.8231 6.24768 43.3746 6.24768H47.6246C48.1763 6.24768 48.6234 5.80054 48.6234 5.24889V1.9976H50.876V6.07845C50.876 7.41385 49.7895 8.50029 48.4541 8.50029H47.6246C47.0731 8.50029 46.6258 8.94747 46.6258 9.49911V12.7504H44.3734V9.49911C44.3734 8.94747 43.9263 8.50029 43.3746 8.50029ZM50.8029 56.0156C48.6646 55.4811 46.3863 55.8758 44.5526 57.0983L43.4793 57.8139C41.9683 58.8213 40.1135 59.0695 38.391 58.4954L37.9983 58.3644V49.8756C37.9983 46.9353 39.7115 44.2762 42.3759 43.0547V49.8756C42.3759 50.4273 42.8231 50.8744 43.3746 50.8744C43.9263 50.8744 44.3734 50.4273 44.3734 49.8756V40.1837V38.1239H46.6258V40.1837V49.8756C46.6258 50.4273 47.0731 50.8744 47.6246 50.8744C48.1763 50.8744 48.6234 50.4273 48.6234 49.8756V43.0545C51.2878 44.2759 53.0012 46.9352 53.0012 49.8756V53.1488V56.5653L50.8029 56.0156ZM54.9988 52.632V49.8756V40.249H57.2512V53.439C56.4539 53.3282 55.6856 53.0555 54.9988 52.632ZM80.627 54.2312L75.8366 45.9342C74.7905 44.1222 72.9168 43.0404 70.8245 43.0402C70.8247 43.0402 70.8244 43.0402 70.8245 43.0402C68.7322 43.0402 66.8581 44.1222 65.8119 45.9342L63.1336 50.5733C62.2882 52.0376 60.9213 53.031 59.285 53.3703C59.273 53.373 59.2608 53.3754 59.2488 53.3778V40.249H60.3753H66.7505H75.2505H80.627V54.2312ZM82.6246 57.6912V40.249H84.8773V61.5929L82.6246 57.6912Z" fill="white"/>
</svg>
