<svg width="119" height="84" viewBox="0 0 119 84" fill="none" xmlns="http://www.w3.org/2000/svg">
<path fill-rule="evenodd" clip-rule="evenodd" d="M35.5487 21.3002L55.6142 1.52615C57.679 -0.508763 61.0577 -0.508673 63.1226 1.52615L83.1882 21.3003C85.2531 23.3352 85.2531 26.6648 83.1882 28.6997L63.1226 48.4739C61.0577 50.5087 57.679 50.5088 55.6142 48.4739L35.5487 28.6998C33.4838 26.6649 33.4838 23.3351 35.5487 21.3002Z" fill="#EBEBEB"/>
<path fill-rule="evenodd" clip-rule="evenodd" d="M37.6328 30.7542C50.4732 23.2427 64.3653 19.6342 79.3491 17.5176L83.1882 21.3009C85.2531 23.3358 85.2531 26.6654 83.1882 28.7003L63.1227 48.4744C61.0578 50.5093 57.6791 50.5093 55.6142 48.4744L37.6328 30.7542Z" fill="url(#paint0_linear_68_20)"/>
<path d="M57.0758 23.8859H69.9267V9.40014C69.9267 8.17115 68.9045 7.1748 67.6433 7.1748H60.4729C58.6155 7.1748 57.0213 8.46379 56.6785 10.2427L56.0733 13.3822C55.7991 14.8034 55.7828 16.2603 56.0248 17.6867L57.0758 23.8859Z" fill="white"/>
<path d="M85.7062 25.9934H69.7827V14.1484L83.0347 18.1175C84.6226 18.5931 85.7062 20.0226 85.7062 21.6414V25.9934Z" fill="#E49A42"/>
<path fill-rule="evenodd" clip-rule="evenodd" d="M67.6433 6.45996H60.4728C58.2798 6.45996 56.3753 7.98117 55.9648 10.1101L55.3596 13.2497C55.0702 14.7511 55.0528 16.2985 55.3083 17.806L56.4607 24.6027H70.653V9.40107C70.653 7.76737 69.2951 6.45996 67.6433 6.45996ZM68.4292 22.4114H58.3438L57.5015 17.4445C57.2884 16.1877 57.3029 14.9107 57.5442 13.6587L58.1493 10.5189C58.3602 9.42461 59.3489 8.65128 60.4728 8.65128H67.6433C68.0656 8.65128 68.4292 8.97851 68.4292 9.40107V22.4114Z" fill="black"/>
<path d="M64.6166 27.9535C64.6166 33.1155 60.3703 37.2997 55.1327 37.2997C49.8951 37.2997 45.649 33.1155 45.649 27.9535C45.649 22.7917 49.8951 18.6074 55.1327 18.6074C60.3703 18.6074 64.6166 22.7917 64.6166 27.9535Z" fill="black"/>
<path d="M44.4426 25.3059L44.4437 30.6023C44.4439 31.1279 44.8841 31.5543 45.427 31.5543H70.9887V24.3535H45.4257C44.8826 24.3535 44.4424 24.7801 44.4426 25.3059Z" fill="#FFCC24"/>
<path d="M85.7675 28.9992L70.6298 29.2375V17.417L83.0958 21.1231C84.6837 21.5987 85.7675 23.0282 85.7675 24.647V28.9992Z" fill="#FFCC24"/>
<path d="M84.6415 33.1754H80.9696V28.749H87.111V31.4609L84.6415 33.1754Z" fill="#E49A42"/>
<path d="M78.0404 22.8574H74.2073C71.1057 22.8574 68.5911 25.3355 68.5911 28.3921V31.087H83.6565V28.3921C83.6565 25.3355 81.1422 22.8574 78.0404 22.8574Z" fill="#FFCC24"/>
<path d="M82.4056 31.1741C82.4056 34.5568 79.623 37.2986 76.1909 37.2986C72.7588 37.2986 69.9764 34.5568 69.9764 31.1741C69.9764 27.7917 72.7588 25.0498 76.1909 25.0498C79.623 25.0498 82.4056 27.7917 82.4056 31.1741Z" fill="black"/>
<path d="M78.7971 31.1756C78.7971 32.594 77.6302 33.7437 76.1911 33.7437C74.7518 33.7437 73.5851 32.594 73.5851 31.1756C73.5851 29.7571 74.7518 28.6074 76.1911 28.6074C77.6302 28.6074 78.7971 29.7571 78.7971 31.1756Z" fill="white"/>
<path d="M77.4206 31.1746C77.4206 31.8439 76.8703 32.3863 76.1911 32.3863C75.512 32.3863 74.9613 31.8439 74.9613 31.1746C74.9613 30.5055 75.512 29.9629 76.1911 29.9629C76.8703 29.9629 77.4206 30.5055 77.4206 31.1746Z" fill="black"/>
<path d="M73.3693 18.2252L70.6298 17.4165C70.1345 17.2702 69.7957 16.8251 69.7957 16.3205V14.165L74.885 15.6677V17.1295C74.885 17.8978 74.124 18.4482 73.3693 18.2252Z" fill="black"/>
<path d="M69.3099 9.95215L64.2079 23.4569H69.3099V9.95215Z" fill="black"/>
<path d="M57.3856 27.9535C57.3856 29.1795 56.377 30.1735 55.1329 30.1735C53.8888 30.1735 52.8801 29.1795 52.8801 27.9535C52.8801 26.7274 53.8888 25.7334 55.1329 25.7334C56.377 25.7334 57.3856 26.7274 57.3856 27.9535Z" fill="black"/>
<path d="M56.1986 27.9527C56.1986 28.5328 55.7215 29.0031 55.1329 29.0031C54.5443 29.0031 54.067 28.5328 54.067 27.9527C54.067 27.3727 54.5443 26.9023 55.1329 26.9023C55.7215 26.9023 56.1986 27.3727 56.1986 27.9527Z" fill="#FFCC24"/>
<path fill-rule="evenodd" clip-rule="evenodd" d="M54.2938 47.1721L51.6641 44.5806C52.8507 43.2646 53.9414 42.1043 54.2241 41.9315C56.9628 41.7967 57.6252 41.8398 58.1396 41.867C57.7152 42.4904 57.7346 42.4595 57.5812 42.648C56.2855 44.2397 55.3814 45.492 54.2938 47.1721ZM63.282 35.1215C64.9335 34.1213 66.3042 33.2128 68.0402 32.3684C68.3603 32.3649 68.4473 32.3978 68.9646 32.4149C68.4084 32.8215 68.08 33.0553 67.803 33.2473C67.4255 33.509 65.6731 34.6578 65.1329 35.1197C64.5473 35.1492 64.5324 35.1016 63.282 35.1215ZM59.2227 40.2939L56.1457 40.2862C56.7148 39.6763 58.6788 38.2341 59.4385 37.6646C60.1907 37.1006 60.8765 36.6267 61.6741 36.1596C62.4125 36.152 63.1497 36.15 63.8883 36.153C62.1578 37.7642 62.3088 37.6048 61.4858 38.3868C60.5281 39.2963 59.7139 40.1622 59.5924 40.2955C58.8619 40.2931 59.4549 40.2929 59.2227 40.2939Z" fill="white"/>
<path d="M0.000366211 80.1461C0.000366211 81.5078 1.05883 82.1289 2.09315 82.1289C2.58604 82.1289 3.00616 82.0413 3.3779 81.8661V81.0777C3.07085 81.2529 2.65873 81.3724 2.24668 81.3724C1.55172 81.3724 0.881084 80.9822 0.881084 80.1142C0.881084 79.2144 1.57604 78.8561 2.26284 78.8561C2.65873 78.8561 3.0547 78.9756 3.33745 79.1746V78.3942C2.99809 78.1952 2.57796 78.0996 2.14162 78.0996C1.10737 78.0996 0.000366211 78.7207 0.000366211 80.1461ZM6.0201 82.0253V78.9517H7.3534V78.2032H3.81428V78.9517H5.15556V82.0253H6.0201ZM8.79977 78.8004V78.2032H8.03212V83.7772H8.89677V81.5316C9.16335 81.8342 9.61587 82.1289 10.2946 82.1289C11.4582 82.1289 12.2177 81.2131 12.2177 80.1142C12.2177 79.0153 11.4582 78.0996 10.2946 78.0996C9.56741 78.0996 9.10682 78.434 8.79977 78.8004ZM11.337 80.1142C11.337 80.8628 10.836 81.3803 10.133 81.3803C9.53511 81.3803 9.0826 80.9982 8.89677 80.5761V79.6444C9.0826 79.2303 9.53511 78.8481 10.133 78.8481C10.836 78.8481 11.337 79.3657 11.337 80.1142ZM12.8156 80.1142C12.8156 81.4361 13.8337 82.1289 14.9165 82.1289C16.0074 82.1289 17.0174 81.4361 17.0174 80.1142C17.0174 78.7924 16.0074 78.0996 14.9165 78.0996C13.8337 78.0996 12.8156 78.7924 12.8156 80.1142ZM16.1366 80.1142C16.1366 80.8628 15.6356 81.3485 14.9165 81.3485C14.1893 81.3485 13.6883 80.8628 13.6883 80.1142C13.6883 79.3657 14.1893 78.88 14.9165 78.88C15.6356 78.88 16.1366 79.3657 16.1366 80.1142ZM18.6012 82.0253L20.6778 79.525V82.0253H21.5424V78.2032H20.799L18.7224 80.7035V78.2032H17.8578V82.0253H18.6012ZM24.4269 82.0253V78.9517H25.7602V78.2032H22.2211V78.9517H23.5624V82.0253H24.4269ZM26.0915 80.1142C26.0915 81.4599 27.1015 82.1289 28.2893 82.1289C28.8307 82.1289 29.3236 82.0333 29.6791 81.8661V81.1334C29.3478 81.2927 28.9195 81.4042 28.4509 81.4042C27.7398 81.4042 27.0611 81.1175 26.9641 80.4327H29.8811C30.1316 79.3259 29.5983 78.0996 28.055 78.0996C27.158 78.0996 26.0915 78.7287 26.0915 80.1142ZM29.1054 79.7957H26.9561C26.9884 79.1507 27.5136 78.8083 28.0954 78.8083C28.9438 78.8083 29.1539 79.4613 29.1054 79.7957ZM32.289 78.9278H33.5981V82.0253H34.4626V78.2032H31.4729C31.4001 80.0983 31.2224 81.3724 30.5679 81.3724C30.4871 81.3724 30.4063 81.3565 30.3175 81.3246V81.9935C30.5114 82.0651 30.6891 82.097 30.8507 82.097C31.8849 82.097 32.1759 80.7752 32.289 78.9278ZM37.4685 82.0253C38.4462 82.0253 39.0038 81.468 39.0038 80.7513C39.0038 80.0266 38.4462 79.4772 37.4685 79.4772H36.41V78.2032H35.5454V82.0253H37.4685ZM36.41 80.1461H37.2988C37.8078 80.1461 38.123 80.3532 38.123 80.7513C38.123 81.1414 37.8078 81.3485 37.2988 81.3485H36.41V80.1461ZM39.5128 80.1461C39.5128 81.5078 40.5713 82.1289 41.6056 82.1289C42.0985 82.1289 42.5186 82.0413 42.8903 81.8661V81.0777C42.5833 81.2529 42.1712 81.3724 41.7591 81.3724C41.0642 81.3724 40.3935 80.9822 40.3935 80.1142C40.3935 79.2144 41.0885 78.8561 41.7753 78.8561C42.1712 78.8561 42.5671 78.9756 42.8499 79.1746V78.3942C42.5105 78.1952 42.0904 78.0996 41.6541 78.0996C40.6198 78.0996 39.5128 78.7207 39.5128 80.1461ZM45.5568 82.0253V78.9517H46.8901V78.2032H43.3509V78.9517H44.6922V82.0253H45.5568ZM49.8475 82.0253C50.7444 82.0253 51.1242 81.5635 51.1242 80.9742C51.1242 80.5044 50.8252 80.2019 50.4616 80.0904C50.7929 79.947 51.0111 79.6444 51.0111 79.2224C51.0111 78.6252 50.5667 78.2032 49.7829 78.2032H47.5688V82.0253H49.8475ZM48.4334 80.4009H49.6536C49.9526 80.4009 50.2516 80.5044 50.2516 80.8946C50.2516 81.2609 49.9929 81.3803 49.6374 81.3803H48.4334V80.4009ZM48.4334 78.8481H49.589C49.8556 78.8481 50.1384 78.9596 50.1384 79.3339C50.1384 79.6763 49.896 79.7957 49.589 79.7957H48.4334V78.8481ZM51.7544 80.1142C51.7544 81.4361 52.7725 82.1289 53.8553 82.1289C54.9461 82.1289 55.9562 81.4361 55.9562 80.1142C55.9562 78.7924 54.9461 78.0996 53.8553 78.0996C52.7725 78.0996 51.7544 78.7924 51.7544 80.1142ZM55.0754 80.1142C55.0754 80.8628 54.5744 81.3485 53.8553 81.3485C53.128 81.3485 52.6271 80.8628 52.6271 80.1142C52.6271 79.3657 53.128 78.88 53.8553 78.88C54.5744 78.88 55.0754 79.3657 55.0754 80.1142ZM59.4468 82.0253L61.5235 79.525V82.0253H62.388V78.2032H61.6447L59.5681 80.7035V78.2032H58.7034V82.0253H59.4468ZM66.1454 78.8004V78.2032H65.3777V83.7772H66.2424V81.5316C66.509 81.8342 66.9615 82.1289 67.6402 82.1289C68.8038 82.1289 69.5633 81.2131 69.5633 80.1142C69.5633 79.0153 68.8038 78.0996 67.6402 78.0996C66.913 78.0996 66.4524 78.434 66.1454 78.8004ZM68.6826 80.1142C68.6826 80.8628 68.1816 81.3803 67.4786 81.3803C66.8807 81.3803 66.4282 80.9982 66.2424 80.5761V79.6444C66.4282 79.2303 66.8807 78.8481 67.4786 78.8481C68.1816 78.8481 68.6826 79.3657 68.6826 80.1142ZM70.1612 80.1142C70.1612 81.4599 71.1713 82.1289 72.359 82.1289C72.9005 82.1289 73.3933 82.0333 73.7489 81.8661V81.1334C73.4176 81.2927 72.9893 81.4042 72.5206 81.4042C71.8096 81.4042 71.1309 81.1175 71.0339 80.4327H73.9508C74.2014 79.3259 73.6681 78.0996 72.1247 78.0996C71.2278 78.0996 70.1612 78.7287 70.1612 80.1142ZM73.1751 79.7957H71.0258C71.0581 79.1507 71.5834 78.8083 72.1651 78.8083C73.0135 78.8083 73.2237 79.4613 73.1751 79.7957ZM75.6476 82.0253V79.4374L76.7466 81.1096H77.2637L78.3707 79.4374V82.0253H79.2029V78.2032H78.3303L77.0052 80.2178L75.6881 78.2032H74.8154V82.0253H75.6476ZM80.0433 80.1142C80.0433 81.4361 81.0614 82.1289 82.1443 82.1289C83.2351 82.1289 84.2451 81.4361 84.2451 80.1142C84.2451 78.7924 83.2351 78.0996 82.1443 78.0996C81.0614 78.0996 80.0433 78.7924 80.0433 80.1142ZM83.3643 80.1142C83.3643 80.8628 82.8634 81.3485 82.1443 81.3485C81.4169 81.3485 80.916 80.8628 80.916 80.1142C80.916 79.3657 81.4169 78.88 82.1443 78.88C82.8634 78.88 83.3643 79.3657 83.3643 80.1142ZM85.9501 82.0253V80.4885H87.8894V82.0253H88.7539V78.2032H87.8894V79.74H85.9501V78.2032H85.0855V82.0253H85.9501ZM91.6385 82.0253V78.9517H92.9718V78.2032H89.4326V78.9517H90.7739V82.0253H91.6385ZM96.0261 83.0525V82.0253H99.1452V83.0525H99.9613V81.3246H99.3876V78.2032H96.3574C96.3735 79.5329 96.2119 80.5044 95.7433 81.3246H95.21V83.0525H96.0261ZM97.1654 78.9038H98.5149V81.3246H96.6483C96.9715 80.6477 97.1331 79.9311 97.1654 78.9038ZM100.43 80.1142C100.43 81.4361 101.448 82.1289 102.531 82.1289C103.622 82.1289 104.632 81.4361 104.632 80.1142C104.632 78.7924 103.622 78.0996 102.531 78.0996C101.448 78.0996 100.43 78.7924 100.43 80.1142ZM103.751 80.1142C103.751 80.8628 103.25 81.3485 102.531 81.3485C101.804 81.3485 101.303 80.8628 101.303 80.1142C101.303 79.3657 101.804 78.88 102.531 78.88C103.25 78.88 103.751 79.3657 103.751 80.1142ZM106.24 78.8004V78.2032H105.472V83.7772H106.337V81.5316C106.603 81.8342 107.056 82.1289 107.734 82.1289C108.898 82.1289 109.658 81.2131 109.658 80.1142C109.658 79.0153 108.898 78.0996 107.734 78.0996C107.007 78.0996 106.547 78.434 106.24 78.8004ZM108.777 80.1142C108.777 80.8628 108.276 81.3803 107.573 81.3803C106.975 81.3803 106.522 80.9982 106.337 80.5761V79.6444C106.522 79.2303 106.975 78.8481 107.573 78.8481C108.276 78.8481 108.777 79.3657 108.777 80.1142ZM110.256 80.1142C110.256 81.4361 111.274 82.1289 112.356 82.1289C113.447 82.1289 114.457 81.4361 114.457 80.1142C114.457 78.7924 113.447 78.0996 112.356 78.0996C111.274 78.0996 110.256 78.7924 110.256 80.1142ZM113.576 80.1142C113.576 80.8628 113.075 81.3485 112.356 81.3485C111.629 81.3485 111.128 80.8628 111.128 80.1142C111.128 79.3657 111.629 78.88 112.356 78.88C113.075 78.88 113.576 79.3657 113.576 80.1142ZM116.162 82.0253V78.9517H118.19V78.2032H115.298V82.0253H116.162Z" fill="white"/>
<path d="M3.82009 73.5498V67.7298C3.82009 66.9566 3.79943 66.0612 3.73746 65.3896L9.39541 73.5498H13.009V59.3052H9.18892V65.1252C9.18892 65.9188 9.20957 66.8142 9.27153 67.4857L3.61361 59.3052H0V73.5498H3.82009ZM16.0452 59.3052V73.5498H26.5764V70.2939H19.8653V67.974H25.833V64.7386H19.8653V62.5611H26.4524V59.3052H16.0452ZM46.5897 59.3052L44.1325 69.3171L41.3861 59.3052H38.0409L35.2946 69.3171L32.8373 59.3052H28.7074L33.1264 73.5498H37.2563L39.7135 64.7386L42.1708 73.5498H46.3007L50.7196 59.3052H46.5897ZM60.4582 73.5498V68.9101H62.1101L65.5585 73.5498H69.8742L65.8889 68.381C67.4789 67.7502 68.656 66.4682 68.656 64.1077C68.656 60.343 65.6618 59.3052 62.7295 59.3052H56.6381V73.5498H60.4582ZM60.4582 62.5611H62.8948C63.9892 62.5611 64.7326 63.1105 64.7326 64.2094C64.7326 65.3083 63.9892 65.8577 62.8948 65.8577H60.4582V62.5611ZM71.0847 66.4275C71.0847 70.3957 73.6658 73.8551 78.8282 73.8551C83.9905 73.8551 86.5717 70.3957 86.5717 66.4275C86.5717 62.4593 83.9905 59 78.8282 59C73.6658 59 71.0847 62.4593 71.0847 66.4275ZM82.6483 66.4275C82.6483 68.7067 81.3267 70.3957 78.8282 70.3957C76.3297 70.3957 75.0081 68.7067 75.0081 66.4275C75.0081 64.1483 76.3297 62.4593 78.8282 62.4593C81.3267 62.4593 82.6483 64.1483 82.6483 66.4275ZM91.1893 73.5498L92.0152 71.3114H98.0035L98.8295 73.5498H102.753L97.0742 59.3052H92.9445L87.2659 73.5498H91.1893ZM94.6377 64.1483C94.7616 63.8024 94.8854 63.4565 95.0094 62.7035C95.1332 63.4565 95.2572 63.8024 95.381 64.1483L96.8678 68.259H93.1509L94.6377 64.1483ZM104.872 59.3052V73.5498H110.633C115.795 73.5498 118.191 70.5788 118.191 66.4275C118.191 62.2762 115.795 59.3052 110.633 59.3052H104.872ZM114.267 66.4275C114.267 69.0933 112.925 70.2939 110.633 70.2939H108.692V62.5611H110.633C112.925 62.5611 114.267 63.7617 114.267 66.4275Z" fill="white"/>
<defs>
<linearGradient id="paint0_linear_68_20" x1="37.7779" y1="34.8475" x2="86.7731" y2="33.1114" gradientUnits="userSpaceOnUse">
<stop stop-color="#717171"/>
<stop offset="1"/>
</linearGradient>
</defs>
</svg>
