<svg width="179" height="50" viewBox="0 0 179 50" fill="none" xmlns="http://www.w3.org/2000/svg">
<path fill-rule="evenodd" clip-rule="evenodd" d="M1.54867 21.3002L21.6142 1.52615C23.679 -0.508763 27.0577 -0.508673 29.1226 1.52615L49.1882 21.3003C51.2531 23.3352 51.2531 26.6648 49.1882 28.6997L29.1226 48.4739C27.0577 50.5087 23.679 50.5088 21.6142 48.4739L1.54867 28.6998C-0.516224 26.6649 -0.516224 23.3351 1.54867 21.3002Z" fill="#EBEBEB"/>
<path fill-rule="evenodd" clip-rule="evenodd" d="M3.63281 30.7542C16.4732 23.2427 30.3653 19.6342 45.3491 17.5176L49.1882 21.3009C51.2531 23.3358 51.2531 26.6654 49.1882 28.7003L29.1227 48.4744C27.0578 50.5093 23.6791 50.5093 21.6142 48.4744L3.63281 30.7542Z" fill="url(#paint0_linear_38_733)"/>
<path d="M23.0758 23.8859H35.9267V9.40014C35.9267 8.17115 34.9045 7.1748 33.6433 7.1748H26.4729C24.6155 7.1748 23.0213 8.46379 22.6785 10.2427L22.0733 13.3822C21.7991 14.8034 21.7828 16.2603 22.0248 17.6867L23.0758 23.8859Z" fill="white"/>
<path d="M51.7062 25.9934H35.7827V14.1484L49.0347 18.1175C50.6226 18.5931 51.7062 20.0226 51.7062 21.6414V25.9934Z" fill="#E49A42"/>
<path fill-rule="evenodd" clip-rule="evenodd" d="M33.6433 6.45996H26.4728C24.2798 6.45996 22.3753 7.98117 21.9648 10.1101L21.3596 13.2497C21.0702 14.7511 21.0528 16.2985 21.3083 17.806L22.4607 24.6027H36.653V9.40107C36.653 7.76737 35.2951 6.45996 33.6433 6.45996ZM34.4292 22.4114H24.3438L23.5015 17.4445C23.2884 16.1877 23.3029 14.9107 23.5442 13.6587L24.1493 10.5189C24.3602 9.42461 25.3489 8.65128 26.4728 8.65128H33.6433C34.0656 8.65128 34.4292 8.97851 34.4292 9.40107V22.4114Z" fill="black"/>
<path d="M30.6166 27.9535C30.6166 33.1155 26.3703 37.2997 21.1327 37.2997C15.8951 37.2997 11.649 33.1155 11.649 27.9535C11.649 22.7917 15.8951 18.6074 21.1327 18.6074C26.3703 18.6074 30.6166 22.7917 30.6166 27.9535Z" fill="black"/>
<path d="M10.4426 25.3059L10.4437 30.6023C10.4439 31.1279 10.8841 31.5543 11.427 31.5543H36.9887V24.3535H11.4257C10.8826 24.3535 10.4424 24.7801 10.4426 25.3059Z" fill="#FFCC24"/>
<path d="M51.7675 28.9992L36.6298 29.2375V17.417L49.0958 21.1231C50.6837 21.5987 51.7675 23.0282 51.7675 24.647V28.9992Z" fill="#FFCC24"/>
<path d="M50.6415 33.1754H46.9696V28.749H53.111V31.4609L50.6415 33.1754Z" fill="#E49A42"/>
<path d="M44.0404 22.8574H40.2073C37.1057 22.8574 34.5911 25.3355 34.5911 28.3921V31.087H49.6565V28.3921C49.6565 25.3355 47.1422 22.8574 44.0404 22.8574Z" fill="#FFCC24"/>
<path d="M48.4056 31.1741C48.4056 34.5568 45.623 37.2986 42.1909 37.2986C38.7588 37.2986 35.9764 34.5568 35.9764 31.1741C35.9764 27.7917 38.7588 25.0498 42.1909 25.0498C45.623 25.0498 48.4056 27.7917 48.4056 31.1741Z" fill="black"/>
<path d="M44.7971 31.1756C44.7971 32.594 43.6302 33.7437 42.1911 33.7437C40.7518 33.7437 39.5851 32.594 39.5851 31.1756C39.5851 29.7571 40.7518 28.6074 42.1911 28.6074C43.6302 28.6074 44.7971 29.7571 44.7971 31.1756Z" fill="white"/>
<path d="M43.4206 31.1746C43.4206 31.8439 42.8703 32.3863 42.1911 32.3863C41.512 32.3863 40.9613 31.8439 40.9613 31.1746C40.9613 30.5055 41.512 29.9629 42.1911 29.9629C42.8703 29.9629 43.4206 30.5055 43.4206 31.1746Z" fill="black"/>
<path d="M39.3693 18.2252L36.6298 17.4165C36.1345 17.2702 35.7957 16.8251 35.7957 16.3205V14.165L40.885 15.6677V17.1295C40.885 17.8978 40.124 18.4482 39.3693 18.2252Z" fill="black"/>
<path d="M35.3099 9.95215L30.2079 23.4569H35.3099V9.95215Z" fill="black"/>
<path d="M23.3856 27.9535C23.3856 29.1795 22.377 30.1735 21.1329 30.1735C19.8888 30.1735 18.8801 29.1795 18.8801 27.9535C18.8801 26.7274 19.8888 25.7334 21.1329 25.7334C22.377 25.7334 23.3856 26.7274 23.3856 27.9535Z" fill="black"/>
<path d="M22.1986 27.9527C22.1986 28.5328 21.7215 29.0031 21.1329 29.0031C20.5443 29.0031 20.067 28.5328 20.067 27.9527C20.067 27.3727 20.5443 26.9023 21.1329 26.9023C21.7215 26.9023 22.1986 27.3727 22.1986 27.9527Z" fill="#FFCC24"/>
<path d="M60.8097 34.5211C60.8097 35.8828 61.8682 36.5039 62.9025 36.5039C63.3954 36.5039 63.8155 36.4163 64.1872 36.2411V35.4527C63.8802 35.6279 63.4681 35.7474 63.056 35.7474C62.361 35.7474 61.6904 35.3572 61.6904 34.4892C61.6904 33.5894 62.3854 33.2311 63.0722 33.2311C63.4681 33.2311 63.864 33.3506 64.1468 33.5496V32.7692C63.8074 32.5702 63.3873 32.4746 62.9509 32.4746C61.9167 32.4746 60.8097 33.0957 60.8097 34.5211ZM66.8294 36.4003V33.3267H68.1627V32.5782H64.6236V33.3267H65.9649V36.4003H66.8294ZM69.6091 33.1754V32.5782H68.8414V38.1522H69.7061V35.9066C69.9727 36.2092 70.4252 36.5039 71.1039 36.5039C72.2675 36.5039 73.027 35.5881 73.027 34.4892C73.027 33.3903 72.2675 32.4746 71.1039 32.4746C70.3767 32.4746 69.9161 32.809 69.6091 33.1754ZM72.1463 34.4892C72.1463 35.2378 71.6453 35.7553 70.9423 35.7553C70.3444 35.7553 69.8919 35.3732 69.7061 34.9511V34.0194C69.8919 33.6053 70.3444 33.2231 70.9423 33.2231C71.6453 33.2231 72.1463 33.7407 72.1463 34.4892ZM73.625 34.4892C73.625 35.8111 74.6431 36.5039 75.7258 36.5039C76.8167 36.5039 77.8268 35.8111 77.8268 34.4892C77.8268 33.1674 76.8167 32.4746 75.7258 32.4746C74.6431 32.4746 73.625 33.1674 73.625 34.4892ZM76.9459 34.4892C76.9459 35.2378 76.4449 35.7235 75.7258 35.7235C74.9986 35.7235 74.4976 35.2378 74.4976 34.4892C74.4976 33.7407 74.9986 33.255 75.7258 33.255C76.4449 33.255 76.9459 33.7407 76.9459 34.4892ZM79.4105 36.4003L81.4871 33.9V36.4003H82.3517V32.5782H81.6084L79.5317 35.0785V32.5782H78.6671V36.4003H79.4105ZM85.2362 36.4003V33.3267H86.5696V32.5782H83.0304V33.3267H84.3717V36.4003H85.2362ZM86.9008 34.4892C86.9008 35.8349 87.9108 36.5039 89.0986 36.5039C89.64 36.5039 90.1329 36.4083 90.4884 36.2411V35.5084C90.1571 35.6677 89.7289 35.7792 89.2602 35.7792C88.5492 35.7792 87.8705 35.4925 87.7735 34.8077H90.6904C90.9409 33.7009 90.4077 32.4746 88.8643 32.4746C87.9674 32.4746 86.9008 33.1037 86.9008 34.4892ZM89.9147 34.1707H87.7654C87.7977 33.5257 88.323 33.1833 88.9047 33.1833C89.7531 33.1833 89.9632 33.8363 89.9147 34.1707ZM93.0983 33.3028H94.4074V36.4003H95.2719V32.5782H92.2822C92.2095 34.4733 92.0317 35.7474 91.3772 35.7474C91.2965 35.7474 91.2156 35.7315 91.1268 35.6996V36.3685C91.3207 36.4401 91.4984 36.472 91.66 36.472C92.6943 36.472 92.9852 35.1502 93.0983 33.3028ZM98.2778 36.4003C99.2555 36.4003 99.8131 35.843 99.8131 35.1263C99.8131 34.4016 99.2555 33.8522 98.2778 33.8522H97.2194V32.5782H96.3547V36.4003H98.2778ZM97.2194 34.5211H98.1081C98.6172 34.5211 98.9323 34.7282 98.9323 35.1263C98.9323 35.5164 98.6172 35.7235 98.1081 35.7235H97.2194V34.5211ZM100.322 34.5211C100.322 35.8828 101.381 36.5039 102.415 36.5039C102.908 36.5039 103.328 36.4163 103.7 36.2411V35.4527C103.393 35.6279 102.98 35.7474 102.568 35.7474C101.873 35.7474 101.203 35.3572 101.203 34.4892C101.203 33.5894 101.898 33.2311 102.585 33.2311C102.98 33.2311 103.376 33.3506 103.659 33.5496V32.7692C103.32 32.5702 102.9 32.4746 102.463 32.4746C101.429 32.4746 100.322 33.0957 100.322 34.5211ZM106.366 36.4003V33.3267H107.699V32.5782H104.16V33.3267H105.502V36.4003H106.366ZM110.657 36.4003C111.554 36.4003 111.934 35.9385 111.934 35.3492C111.934 34.8794 111.635 34.5769 111.271 34.4654C111.602 34.322 111.82 34.0194 111.82 33.5974C111.82 33.0002 111.376 32.5782 110.592 32.5782H108.378V36.4003H110.657ZM109.243 34.7759H110.463C110.762 34.7759 111.061 34.8794 111.061 35.2696C111.061 35.6359 110.802 35.7553 110.447 35.7553H109.243V34.7759ZM109.243 33.2231H110.398C110.665 33.2231 110.948 33.3346 110.948 33.7089C110.948 34.0513 110.705 34.1707 110.398 34.1707H109.243V33.2231ZM112.564 34.4892C112.564 35.8111 113.582 36.5039 114.665 36.5039C115.755 36.5039 116.765 35.8111 116.765 34.4892C116.765 33.1674 115.755 32.4746 114.665 32.4746C113.582 32.4746 112.564 33.1674 112.564 34.4892ZM115.885 34.4892C115.885 35.2378 115.384 35.7235 114.665 35.7235C113.937 35.7235 113.436 35.2378 113.436 34.4892C113.436 33.7407 113.937 33.255 114.665 33.255C115.384 33.255 115.885 33.7407 115.885 34.4892ZM120.256 36.4003L122.333 33.9V36.4003H123.197V32.5782H122.454L120.377 35.0785V32.5782H119.513V36.4003H120.256ZM126.955 33.1754V32.5782H126.187V38.1522H127.052V35.9066C127.318 36.2092 127.771 36.5039 128.45 36.5039C129.613 36.5039 130.373 35.5881 130.373 34.4892C130.373 33.3903 129.613 32.4746 128.45 32.4746C127.722 32.4746 127.262 32.809 126.955 33.1754ZM129.492 34.4892C129.492 35.2378 128.991 35.7553 128.288 35.7553C127.69 35.7553 127.238 35.3732 127.052 34.9511V34.0194C127.238 33.6053 127.69 33.2231 128.288 33.2231C128.991 33.2231 129.492 33.7407 129.492 34.4892ZM130.971 34.4892C130.971 35.8349 131.981 36.5039 133.168 36.5039C133.71 36.5039 134.203 36.4083 134.558 36.2411V35.5084C134.227 35.6677 133.799 35.7792 133.33 35.7792C132.619 35.7792 131.94 35.4925 131.843 34.8077H134.76C135.011 33.7009 134.477 32.4746 132.934 32.4746C132.037 32.4746 130.971 33.1037 130.971 34.4892ZM133.984 34.1707H131.835C131.867 33.5257 132.393 33.1833 132.974 33.1833C133.823 33.1833 134.033 33.8363 133.984 34.1707ZM136.457 36.4003V33.8124L137.556 35.4846H138.073L139.18 33.8124V36.4003H140.012V32.5782H139.14L137.815 34.5928L136.497 32.5782H135.625V36.4003H136.457ZM140.853 34.4892C140.853 35.8111 141.871 36.5039 142.954 36.5039C144.044 36.5039 145.054 35.8111 145.054 34.4892C145.054 33.1674 144.044 32.4746 142.954 32.4746C141.871 32.4746 140.853 33.1674 140.853 34.4892ZM144.174 34.4892C144.174 35.2378 143.673 35.7235 142.954 35.7235C142.226 35.7235 141.725 35.2378 141.725 34.4892C141.725 33.7407 142.226 33.255 142.954 33.255C143.673 33.255 144.174 33.7407 144.174 34.4892ZM146.759 36.4003V34.8635H148.699V36.4003H149.563V32.5782H148.699V34.115H146.759V32.5782H145.895V36.4003H146.759ZM152.448 36.4003V33.3267H153.781V32.5782H150.242V33.3267H151.583V36.4003H152.448ZM156.835 37.4275V36.4003H159.955V37.4275H160.771V35.6996H160.197V32.5782H157.167C157.183 33.9079 157.021 34.8794 156.553 35.6996H156.019V37.4275H156.835ZM157.975 33.2788H159.324V35.6996H157.458C157.781 35.0227 157.942 34.3061 157.975 33.2788ZM161.239 34.4892C161.239 35.8111 162.257 36.5039 163.34 36.5039C164.431 36.5039 165.441 35.8111 165.441 34.4892C165.441 33.1674 164.431 32.4746 163.34 32.4746C162.257 32.4746 161.239 33.1674 161.239 34.4892ZM164.56 34.4892C164.56 35.2378 164.059 35.7235 163.34 35.7235C162.613 35.7235 162.112 35.2378 162.112 34.4892C162.112 33.7407 162.613 33.255 163.34 33.255C164.059 33.255 164.56 33.7407 164.56 34.4892ZM167.049 33.1754V32.5782H166.281V38.1522H167.146V35.9066C167.413 36.2092 167.865 36.5039 168.544 36.5039C169.707 36.5039 170.467 35.5881 170.467 34.4892C170.467 33.3903 169.707 32.4746 168.544 32.4746C167.817 32.4746 167.356 32.809 167.049 33.1754ZM169.586 34.4892C169.586 35.2378 169.085 35.7553 168.382 35.7553C167.784 35.7553 167.332 35.3732 167.146 34.9511V34.0194C167.332 33.6053 167.784 33.2231 168.382 33.2231C169.085 33.2231 169.586 33.7407 169.586 34.4892ZM171.065 34.4892C171.065 35.8111 172.083 36.5039 173.166 36.5039C174.257 36.5039 175.267 35.8111 175.267 34.4892C175.267 33.1674 174.257 32.4746 173.166 32.4746C172.083 32.4746 171.065 33.1674 171.065 34.4892ZM174.386 34.4892C174.386 35.2378 173.885 35.7235 173.166 35.7235C172.438 35.7235 171.937 35.2378 171.937 34.4892C171.937 33.7407 172.438 33.255 173.166 33.255C173.885 33.255 174.386 33.7407 174.386 34.4892ZM176.972 36.4003V33.3267H179V32.5782H176.107V36.4003H176.972Z" fill="black"/>
<path d="M64.6294 27.9248V22.1048C64.6294 21.3316 64.6088 20.4362 64.5468 19.7646L70.2047 27.9248H73.8183V13.6802H69.9982V19.5002C69.9982 20.2938 70.0189 21.1892 70.0809 21.8607L64.4229 13.6802H60.8093V27.9248H64.6294ZM76.8546 13.6802V27.9248H87.3857V24.6689H80.6747V22.349H86.6423V19.1136H80.6747V16.9361H87.2617V13.6802H76.8546ZM107.399 13.6802L104.942 23.6921L102.195 13.6802H98.8503L96.1039 23.6921L93.6466 13.6802H89.5167L93.9357 27.9248H98.0656L100.523 19.1136L102.98 27.9248H107.11L111.529 13.6802H107.399ZM121.268 27.9248V23.2851H122.919L126.368 27.9248H130.684L126.698 22.756C128.288 22.1252 129.465 20.8432 129.465 18.4827C129.465 14.718 126.471 13.6802 123.539 13.6802H117.447V27.9248H121.268ZM121.268 16.9361H123.704C124.798 16.9361 125.542 17.4855 125.542 18.5844C125.542 19.6833 124.798 20.2327 123.704 20.2327H121.268V16.9361ZM131.894 20.8025C131.894 24.7707 134.475 28.2301 139.638 28.2301C144.8 28.2301 147.381 24.7707 147.381 20.8025C147.381 16.8343 144.8 13.375 139.638 13.375C134.475 13.375 131.894 16.8343 131.894 20.8025ZM143.458 20.8025C143.458 23.0817 142.136 24.7707 139.638 24.7707C137.139 24.7707 135.817 23.0817 135.817 20.8025C135.817 18.5233 137.139 16.8343 139.638 16.8343C142.136 16.8343 143.458 18.5233 143.458 20.8025ZM151.999 27.9248L152.825 25.6864H158.813L159.639 27.9248H163.562L157.884 13.6802H153.754L148.075 27.9248H151.999ZM155.447 18.5233C155.571 18.1774 155.695 17.8315 155.819 17.0785C155.943 17.8315 156.066 18.1774 156.19 18.5233L157.677 22.634H153.96L155.447 18.5233ZM165.681 13.6802V27.9248H171.442C176.605 27.9248 179 24.9538 179 20.8025C179 16.6512 176.605 13.6802 171.442 13.6802H165.681ZM175.077 20.8025C175.077 23.4683 173.734 24.6689 171.442 24.6689H169.501V16.9361H171.442C173.734 16.9361 175.077 18.1367 175.077 20.8025Z" fill="black"/>
<path fill-rule="evenodd" clip-rule="evenodd" d="M20.2938 47.1721L17.6641 44.5806C18.8507 43.2646 19.9414 42.1043 20.2241 41.9315C22.9628 41.7967 23.6252 41.8398 24.1396 41.867C23.7152 42.4904 23.7346 42.4595 23.5812 42.648C22.2855 44.2397 21.3814 45.492 20.2938 47.1721ZM29.282 35.1215C30.9335 34.1213 32.3042 33.2128 34.0402 32.3684C34.3603 32.3649 34.4473 32.3978 34.9646 32.4149C34.4084 32.8215 34.08 33.0553 33.803 33.2473C33.4255 33.509 31.6731 34.6578 31.1329 35.1197C30.5473 35.1492 30.5324 35.1016 29.282 35.1215ZM25.2227 40.2939L22.1457 40.2862C22.7148 39.6763 24.6788 38.2341 25.4385 37.6646C26.1907 37.1006 26.8765 36.6267 27.6741 36.1596C28.4125 36.152 29.1497 36.15 29.8883 36.153C28.1578 37.7642 28.3088 37.6048 27.4858 38.3868C26.5281 39.2963 25.7139 40.1622 25.5924 40.2955C24.8619 40.2931 25.4549 40.2929 25.2227 40.2939Z" fill="white"/>
<defs>
<linearGradient id="paint0_linear_38_733" x1="3.77786" y1="34.8475" x2="52.7731" y2="33.1114" gradientUnits="userSpaceOnUse">
<stop stop-color="#717171"/>
<stop offset="1"/>
</linearGradient>
</defs>
</svg>
