<svg width="78" height="98" viewBox="0 0 78 98" fill="none" xmlns="http://www.w3.org/2000/svg">
<path d="M77.9151 -6.10352e-05H0.1455V77.8628H77.9151V-6.10352e-05ZM24.6515 13.1434C24.6515 7.27126 33.3292 7.27126 33.3292 13.1434V43.2576C33.3292 47.2949 39.1653 47.5383 39.1653 43.2576V13.1434C39.1653 7.27126 47.7426 7.22065 47.8386 13.1434V43.5846C47.8386 50.5529 42.6306 55.1537 36.2554 55.1537C29.875 55.1537 24.6515 50.4382 24.6515 43.5846V13.1434ZM18.7984 66.6787C13.894 66.6787 10.0969 62.752 10.0969 58.0603L10.0486 13.1638C10.1827 7.36195 18.6374 7.26164 18.7984 13.1411V55.2223C18.7861 56.5546 19.9544 58.0603 21.5027 58.0263H61.53L51.1687 33.6553C50.899 32.7235 50.7122 31.7936 50.7122 30.8639C50.7122 29.8359 51.1687 28.1857 51.8462 26.8368L61.3564 11.1936C62.0559 9.78594 63.4812 8.84393 65.1669 8.77056C67.5344 8.6705 69.5674 10.2978 69.6622 12.8099C69.6769 13.3104 69.5518 14.4136 69.3079 14.9039L60.6191 28.9401C59.6739 30.519 59.8081 31.7564 60.2481 32.9558L73.449 66.6787H18.7984ZM2.4698 85.1303H11.8561V97.4681H8.39663V88.0955H5.93007V92.9581C5.93007 94.7373 5.75147 97.629 1.44703 97.629C0.935778 97.629 0.547515 97.6094 0 97.4681V94.5102C0.266429 94.5804 0.514482 94.6322 0.758059 94.6322C2.27769 94.6322 2.4698 93.6806 2.4698 91.9353V85.1303ZM21.5932 85.1303H25.3481L19.793 97.4681H16.0897L17.7654 94.0686L13.1262 85.1303H17.2011L19.6174 90.3141L21.5932 85.1303ZM33.0402 91.1077L37.8556 97.4681H33.5359L29.9558 92.1667V97.4681H26.4988V85.1303H29.9558V90.3141L33.6756 85.1303H37.7338L33.0402 91.1077ZM61.4541 85.1303H64.8369V97.4681H61.5057V90.0654L56.7242 97.4681H53.3362V85.1303H56.6736V92.5382L61.4541 85.1303ZM60.8167 81.7474L62.7928 82.4843C62.1235 83.9344 60.5523 84.4636 59.0865 84.4636C57.624 84.4636 56.0517 83.9344 55.3835 82.4843L57.3596 81.7474C57.6776 82.5969 58.4524 82.7877 59.0865 82.7877C59.722 82.7877 60.4987 82.5969 60.8167 81.7474ZM78 85.1303V97.4681H74.5429V88.0955H72.0763V92.9581C72.0763 94.7373 71.8995 97.629 67.5933 97.629C67.0829 97.629 66.6947 97.6094 66.1492 97.4681V94.5102C66.4107 94.5804 66.6596 94.6322 66.9043 94.6322C68.4237 94.6322 68.6169 93.6806 68.6169 91.9353V85.1303H78ZM44.8082 84.6087C40.1734 84.6087 38.0003 87.9223 38.0003 91.3052C38.0003 94.6905 40.1734 97.9999 44.8082 97.9999C49.447 97.9999 51.6193 94.6905 51.6193 91.3052C51.6193 87.9223 49.447 84.6087 44.8082 84.6087ZM44.8082 94.9567C43.1617 94.9567 41.6568 93.7461 41.6568 91.3052C41.6568 88.8625 43.1617 87.6467 44.8082 87.6467C46.4546 87.6467 47.9628 88.8625 47.9628 91.3052C47.9628 93.7461 46.4546 94.9567 44.8082 94.9567Z" fill="#5E5E5E"/>
</svg>
