<svg width="70" height="70" viewBox="0 0 70 70" fill="none" xmlns="http://www.w3.org/2000/svg">
<rect width="70" height="70" rx="35" fill="white"/>
<path fill-rule="evenodd" clip-rule="evenodd" d="M25.993 29C25.993 24.0294 30.0261 20 35.0012 20C39.9763 20 44.0094 24.0294 44.0094 29C44.0094 33.9706 39.9763 38 35.0012 38C30.0261 38 25.993 33.9706 25.993 29Z" fill="#CDCDCD"/>
<path fill-rule="evenodd" clip-rule="evenodd" d="M25.1386 42.3538C27.5783 41.3319 30.8324 41 35.0012 41C39.1615 41 42.4106 41.3306 44.8481 42.3472C47.4644 43.4383 49.0703 45.292 49.9263 47.9881C50.2443 48.9901 49.4921 50 48.4523 50H21.5408C20.5052 50 19.7575 48.9946 20.073 47.9981C20.9264 45.3022 22.5266 43.4477 25.1386 42.3538Z" fill="#CDCDCD"/>
</svg>
