<svg width="65" height="46" viewBox="0 0 65 46" fill="none" xmlns="http://www.w3.org/2000/svg">
<path d="M36 1H64V30H36V1Z" fill="white"/>
<path d="M51.5 43.5C52.1667 39 53.4 29.9 53 29.5H64L51.5 43.5Z" fill="white"/>
<path d="M2 1H30V30H2V1Z" fill="white"/>
<path d="M17.5 43.5C18.1667 39 19.4 29.9 19 29.5H30L17.5 43.5Z" fill="white"/>
<path d="M1.08333 30.7621H17.862L15.8947 44.7667C15.8619 44.9997 15.906 45.2371 16.0203 45.4428C16.1346 45.6486 16.3128 45.8115 16.5281 45.907C16.7433 46.0024 16.9839 46.0252 17.2132 45.9718C17.4426 45.9184 17.6483 45.7918 17.7992 45.6111L30.5229 30.3724C30.6861 30.1779 30.7754 29.9322 30.7753 29.6784V1.0826C30.7753 0.795478 30.6612 0.520114 30.458 0.317087C30.2549 0.11406 29.9793 0 29.692 0H1.08333C0.796016 0 0.520465 0.11406 0.317301 0.317087C0.114137 0.520114 0 0.795478 0 1.0826V29.6795C0 29.9666 0.114137 30.242 0.317301 30.445C0.520465 30.6481 0.796016 30.7621 1.08333 30.7621ZM2.16667 2.1652H28.6087V29.2876L18.5683 41.311L20.1803 29.83C20.202 29.6766 20.1905 29.5203 20.1466 29.3717C20.1027 29.223 20.0273 29.0856 19.9256 28.9686C19.8239 28.8516 19.6983 28.7578 19.5572 28.6935C19.4162 28.6292 19.2629 28.5959 19.1078 28.5958H2.16667V2.1652ZM63.9167 0H35.308C35.0207 0 34.7451 0.11406 34.542 0.317087C34.3388 0.520114 34.2247 0.795478 34.2247 1.0826V29.6795C34.2247 29.9666 34.3388 30.242 34.542 30.445C34.7451 30.6481 35.0207 30.7621 35.308 30.7621H52.0867L50.1204 44.7667C50.088 44.9994 50.1323 45.2364 50.2466 45.4419C50.3608 45.6473 50.5389 45.81 50.7539 45.9053C50.9688 46.0007 51.209 46.0236 51.4381 45.9705C51.6672 45.9174 51.8728 45.7912 52.0238 45.6111L64.7487 30.3724C64.9112 30.1781 65.0002 29.9328 65 29.6795V1.0826C65 0.795478 64.8859 0.520114 64.6827 0.317087C64.4795 0.11406 64.204 0 63.9167 0ZM62.8333 29.2876L52.793 41.311L54.405 29.8311C54.4267 29.6777 54.4152 29.5213 54.3713 29.3727C54.3273 29.2241 54.252 29.0867 54.1503 28.9697C54.0486 28.8527 53.923 28.7588 53.7819 28.6945C53.6408 28.6302 53.4876 28.5969 53.3325 28.5969H36.3913V2.16629H62.8333V29.2876Z" fill="black"/>
</svg>
