<?xml version="1.0" encoding="utf-8"?>
<!-- Generator: Adobe Illustrator 26.3.1, SVG Export Plug-In . SVG Version: 6.00 Build 0)  -->
<svg version="1.1" id="Слой_1" xmlns="http://www.w3.org/2000/svg" xmlns:xlink="http://www.w3.org/1999/xlink" x="0px" y="0px"
	 viewBox="0 0 139 68" style="enable-background:new 0 0 139 68;" xml:space="preserve">
<style type="text/css">
	.st0{fill:#FFCB3F;}
</style>
<path class="st0" d="M37.9,54.4v3.9h7.4V61h-7.4v4.1h8.7v2.7H34.4V51.7h12.1L43,54.4H37.9z M21.1,54.4V58h4.2c3.8,0,5.9,1.7,5.9,4.8
	c0,3.2-2.3,5.1-6.4,5.1h-7.2V51.7h13.8l-3.6,2.7H21.1z M21.1,60.6v4.5h3.6c2.1,0,3.2-0.7,3.2-2.2c0-1.5-1-2.2-3.2-2.2H21.1z
	 M63.3,57.5c0,3.6-2.6,5.8-6.8,5.8h-3.2v4.6h-3.5V51.7h6.6C60.6,51.7,63.3,53.9,63.3,57.5z M59.8,57.5c0-2-1.2-3.1-3.4-3.1h-3.1v6.2
	h3.1C58.6,60.5,59.8,59.4,59.8,57.5z M11.7,64.3c-0.9,0.5-1.9,0.8-3,0.8c-3.1,0-5.4-2.2-5.4-5.3c0-3.1,2.3-5.3,5.4-5.3
	c1.1,0,2.2,0.3,3.2,1l2.5-1.8l-0.2-0.2c-1.4-1.3-3.4-1.9-5.6-1.9c-2.4,0-4.6,0.8-6.1,2.3c-1.6,1.5-2.5,3.7-2.4,5.9
	c0,2.2,0.8,4.4,2.4,6c1.7,1.6,3.9,2.4,6.1,2.4c2.5,0,4.7-0.9,6.1-2.5l-2.2-1.7L11.7,64.3z M95.9,51.7l6.8,16.1H99l-1.3-3.2h-7.4
	l-1.4,3.2h-3.5l6.9-16.1H95.9z M96.6,61.9l-2.5-6.5l-2.7,6.5H96.6z M131.9,59.5l6.2-7.8h-4l-5.2,6.9h-1.9v-6.9h-3.5v16.1h3.5v-6.5
	h2.2l5.3,6.5h4.5L131.9,59.5z M115.8,58.3h-7.4v-6.6H105v16.1h3.5v-6.6h7.4v6.6h3.5V51.7h-3.5V58.3z M84.1,62.8
	c0,3.2-2.3,5.1-6.4,5.1h-7.2V51.7h12.5v2.7H74V58h4.2C82,58,84.1,59.7,84.1,62.8z M80.9,62.9c0-1.5-1-2.2-3.2-2.2H74v4.5v0h3.6
	C79.8,65.2,80.9,64.4,80.9,62.9z M61.3,15.7v6.2l8.2,5.2L89,12.6c-0.7-1.5-1.6-3-2.6-4.3L69.5,20.8L61.3,15.7z M69.5,42.9
	c5.5,0,10.5-2.1,14.3-5.6l0.1,0.1c4.3-3.9,7-9.6,7-15.9c0-1.3-0.1-2.6-0.3-3.8L86,21c0,0.1,0,0.3,0,0.4c0,4.6-1.9,8.7-4.9,11.6l0,0
	c-2.9,3-7,4.9-11.6,4.9c-4.5,0-8.6-1.9-11.6-4.9l0,0c-3-3-4.8-7.1-4.8-11.6c0-4.5,1.9-8.6,4.8-11.6C60.8,6.8,65,5,69.5,5
	c0.3,0,0.5,0,0.8,0l0,0c3.1,0.2,6,1.2,8.4,2.8l4.2-3.1C79.3,1.8,74.6,0,69.5,0v0C64,0.1,59,2.2,55.2,5.6l0,0
	c-4.1,3.7-6.7,8.9-7,14.8l0,0c0,0.3,0,0.7,0,1.1c0,0,0,0,0,0c0,0,0,0,0,0h0c0,5.5,2.1,10.5,5.6,14.3l0,0c3.7,4.1,8.9,6.7,14.7,7l0,0
	C68.7,42.8,69.1,42.9,69.5,42.9C69.4,42.9,69.5,42.9,69.5,42.9C69.5,42.9,69.5,42.9,69.5,42.9L69.5,42.9z"/>
</svg>
