<svg width="39" height="172" viewBox="0 0 39 172" fill="none" xmlns="http://www.w3.org/2000/svg">
<mask id="path-1-inside-1_109_4762" fill="white">
<path fill-rule="evenodd" clip-rule="evenodd" d="M1 0H19C30.0457 0 39 8.95431 39 20V147C39 158.046 30.0457 167 19 167H1V166H19C29.4934 166 38 157.493 38 147V20C38 9.50659 29.4934 1 19 1H1V0Z"/>
</mask>
<path d="M1 0H0.5V-0.5H1V0ZM1 167V167.5H0.5V167H1ZM1 166H0.5V165.5H1V166ZM1 1V1.5H0.5V1H1ZM1 -0.5H2.5V0.5H1V-0.5ZM5.5 -0.5H8.5V0.5H5.5V-0.5ZM11.5 -0.5H14.5V0.5H11.5V-0.5ZM17.5 -0.5H19V0.5H17.5V-0.5ZM19 -0.5C19.5416 -0.5 20.0783 -0.47899 20.6095 -0.437725L20.532 0.559271C20.0266 0.520006 19.5157 0.5 19 0.5V-0.5ZM23.7873 0.0621035C24.8412 0.314269 25.8636 0.647827 26.8473 1.05575L26.4642 1.97947C25.5288 1.59159 24.5568 1.27443 23.5546 1.03466L23.7873 0.0621035ZM29.7128 2.51855C30.6302 3.08187 31.4997 3.71534 32.314 4.41146L31.6642 5.17157C30.8894 4.50921 30.0622 3.90655 29.1895 3.3707L29.7128 2.51855ZM34.5885 6.68599C35.2847 7.50028 35.9181 8.36982 36.4815 9.28716L35.6293 9.81046C35.0934 8.93785 34.4908 8.11059 33.8284 7.33579L34.5885 6.68599ZM37.9443 12.1527C38.3522 13.1364 38.6857 14.1588 38.9379 15.2127L37.9653 15.4454C37.7256 14.4433 37.4084 13.4712 37.0205 12.5358L37.9443 12.1527ZM39.4377 18.3905C39.479 18.9217 39.5 19.4584 39.5 20H38.5C38.5 19.4843 38.48 18.9734 38.4407 18.468L39.4377 18.3905ZM39.5 20V21.5119H38.5V20H39.5ZM39.5 24.5357V27.5595H38.5V24.5357H39.5ZM39.5 30.5833V33.6071H38.5V30.5833H39.5ZM39.5 36.631V39.6548H38.5V36.631H39.5ZM39.5 42.6786V45.7024H38.5V42.6786H39.5ZM39.5 48.7262V51.75H38.5V48.7262H39.5ZM39.5 54.7738V57.7976H38.5V54.7738H39.5ZM39.5 60.8214V63.8452H38.5V60.8214H39.5ZM39.5 66.8691V69.8929H38.5V66.8691H39.5ZM39.5 72.9167V75.9405H38.5V72.9167H39.5ZM39.5 78.9643V81.9881H38.5V78.9643H39.5ZM39.5 85.0119V88.0357H38.5V85.0119H39.5ZM39.5 91.0595V94.0834H38.5V91.0595H39.5ZM39.5 97.1072V100.131H38.5V97.1072H39.5ZM39.5 103.155V106.179H38.5V103.155H39.5ZM39.5 109.202V112.226H38.5V109.202H39.5ZM39.5 115.25V118.274H38.5V115.25H39.5ZM39.5 121.298V124.321H38.5V121.298H39.5ZM39.5 127.345V130.369H38.5V127.345H39.5ZM39.5 133.393V136.417H38.5V133.393H39.5ZM39.5 139.441V142.464H38.5V139.441H39.5ZM39.5 145.488V147H38.5V145.488H39.5ZM39.5 147C39.5 147.542 39.479 148.078 39.4377 148.609L38.4407 148.532C38.48 148.027 38.5 147.516 38.5 147H39.5ZM38.9379 151.787C38.6857 152.841 38.3522 153.864 37.9443 154.847L37.0205 154.464C37.4084 153.529 37.7256 152.557 37.9653 151.555L38.9379 151.787ZM36.4815 157.713C35.9181 158.63 35.2847 159.5 34.5885 160.314L33.8284 159.664C34.4908 158.889 35.0934 158.062 35.6293 157.19L36.4815 157.713ZM32.314 162.589C31.4997 163.285 30.6302 163.918 29.7128 164.481L29.1895 163.629C30.0622 163.093 30.8894 162.491 31.6642 161.828L32.314 162.589ZM26.8473 165.944C25.8636 166.352 24.8412 166.686 23.7873 166.938L23.5546 165.965C24.5567 165.726 25.5288 165.408 26.4642 165.021L26.8473 165.944ZM20.6095 167.438C20.0783 167.479 19.5416 167.5 19 167.5V166.5C19.5157 166.5 20.0266 166.48 20.532 166.441L20.6095 167.438ZM19 167.5H17.5V166.5H19V167.5ZM14.5 167.5H11.5V166.5H14.5V167.5ZM8.5 167.5H5.5V166.5H8.5V167.5ZM2.5 167.5H1V166.5H2.5V167.5ZM0.5 167V166.75H1.5V167H0.5ZM0.5 166.25V166H1.5V166.25H0.5ZM1 165.5H2.5V166.5H1V165.5ZM5.5 165.5H8.5V166.5H5.5V165.5ZM11.5 165.5H14.5V166.5H11.5V165.5ZM17.5 165.5H19V166.5H17.5V165.5ZM19 165.5C19.4892 165.5 19.974 165.481 20.4535 165.444L20.5309 166.441C20.0257 166.48 19.5151 166.5 19 166.5V165.5ZM23.321 164.993C24.2718 164.765 25.194 164.464 26.0814 164.096L26.4645 165.02C25.5288 165.408 24.5563 165.725 23.5537 165.965L23.321 164.993ZM28.667 162.777C29.4948 162.268 30.2797 161.696 31.0148 161.068L31.6646 161.828C30.89 162.49 30.0629 163.093 29.1903 163.629L28.667 162.777ZM33.068 159.015C33.6964 158.28 34.2682 157.495 34.7765 156.667L35.6287 157.19C35.0928 158.063 34.4903 158.89 33.8281 159.665L33.068 159.015ZM36.0964 154.081C36.4644 153.194 36.7653 152.272 36.9928 151.321L37.9653 151.554C37.7254 152.556 37.4082 153.529 37.0201 154.464L36.0964 154.081ZM37.4438 148.453C37.481 147.974 37.5 147.489 37.5 147H38.5C38.5 147.515 38.48 148.026 38.4408 148.531L37.4438 148.453ZM37.5 147V145.488H38.5V147H37.5ZM37.5 142.464V139.44H38.5V142.464H37.5ZM37.5 136.417V133.393H38.5V136.417H37.5ZM37.5 130.369V127.345H38.5V130.369H37.5ZM37.5 124.321V121.298H38.5V124.321H37.5ZM37.5 118.274V115.25H38.5V118.274H37.5ZM37.5 112.226V109.202H38.5V112.226H37.5ZM37.5 106.179V103.155H38.5V106.179H37.5ZM37.5 100.131V97.1071H38.5V100.131H37.5ZM37.5 94.0833V91.0595H38.5V94.0833H37.5ZM37.5 88.0357V85.0119H38.5V88.0357H37.5ZM37.5 81.9881V78.9643H38.5V81.9881H37.5ZM37.5 75.9405V72.9166H38.5V75.9405H37.5ZM37.5 69.8928V66.869H38.5V69.8928H37.5ZM37.5 63.8452V60.8214H38.5V63.8452H37.5ZM37.5 57.7976V54.7738H38.5V57.7976H37.5ZM37.5 51.75V48.7262H38.5V51.75H37.5ZM37.5 45.7023V42.6785H38.5V45.7023H37.5ZM37.5 39.6547V36.6309H38.5V39.6547H37.5ZM37.5 33.6071V30.5833H38.5V33.6071H37.5ZM37.5 27.5595V24.5357H38.5V27.5595H37.5ZM37.5 21.5119V20H38.5V21.5119H37.5ZM37.5 20C37.5 19.5108 37.481 19.026 37.4438 18.5465L38.4408 18.4691C38.48 18.9743 38.5 19.4849 38.5 20H37.5ZM36.9928 15.679C36.7653 14.7282 36.4644 13.806 36.0964 12.9186L37.0201 12.5355C37.4082 13.4712 37.7254 14.4437 37.9653 15.4463L36.9928 15.679ZM34.7765 10.333C34.2682 9.50516 33.6964 8.72031 33.068 7.98525L33.8281 7.33545C34.4903 8.11001 35.0928 8.93713 35.6287 9.80972L34.7765 10.333ZM31.0148 5.93199C30.2797 5.3036 29.4948 4.73184 28.667 4.22346L29.1903 3.37131C30.0629 3.90716 30.89 4.50973 31.6646 5.17188L31.0148 5.93199ZM26.0814 2.90359C25.194 2.5356 24.2718 2.23471 23.321 2.00724L23.5537 1.03468C24.5563 1.27455 25.5288 1.59184 26.4645 1.97987L26.0814 2.90359ZM20.4535 1.55623C19.974 1.51898 19.4893 1.5 19 1.5V0.5C19.5151 0.5 20.0257 0.519985 20.5309 0.559236L20.4535 1.55623ZM19 1.5H17.5V0.5H19V1.5ZM14.5 1.5H11.5V0.5H14.5V1.5ZM8.5 1.5H5.5V0.5H8.5V1.5ZM2.5 1.5H1V0.5H2.5V1.5ZM0.5 1V0.75H1.5V1H0.5ZM0.5 0.25V0H1.5V0.25H0.5ZM1 0H0V-1H1V0ZM1 167V168H0V167H1ZM1 166H0V165H1V166ZM1 1V2H0V1H1ZM1 -1H2.5V1H1V-1ZM5.5 -1H8.5V1H5.5V-1ZM11.5 -1H14.5V1H11.5V-1ZM17.5 -1H19V1H17.5V-1ZM19 -1C19.5545 -1 20.1042 -0.978487 20.6482 -0.936223L20.4933 1.05777C20.0007 1.0195 19.5027 1 19 1V-1ZM23.9036 -0.424172C24.9835 -0.16581 26.031 0.175947 27.0388 0.593886L26.2727 2.44134C25.3615 2.06347 24.4145 1.75451 23.4382 1.52093L23.9036 -0.424172ZM29.9745 2.09247C30.9142 2.66953 31.8049 3.31841 32.6389 4.03141L31.3393 5.55162C30.5843 4.90615 29.7781 4.31889 28.9279 3.79677L29.9745 2.09247ZM34.9686 6.36109C35.6816 7.19513 36.3305 8.08581 36.9075 9.02551L35.2032 10.0721C34.6811 9.22187 34.0939 8.41574 33.4484 7.66069L34.9686 6.36109ZM38.4061 11.9612C38.8241 12.969 39.1658 14.0165 39.4242 15.0964L37.4791 15.5618C37.2455 14.5855 36.9365 13.6385 36.5587 12.7273L38.4061 11.9612ZM39.9362 18.3518C39.9785 18.8958 40 19.4455 40 20H38C38 19.4973 37.9805 18.9993 37.9422 18.5067L39.9362 18.3518ZM40 20V21.5119H38V20H40ZM40 24.5357V27.5595H38V24.5357H40ZM40 30.5833V33.6071H38V30.5833H40ZM40 36.631V39.6548H38V36.631H40ZM40 42.6786V45.7024H38V42.6786H40ZM40 48.7262V51.75H38V48.7262H40ZM40 54.7738V57.7976H38V54.7738H40ZM40 60.8214V63.8452H38V60.8214H40ZM40 66.8691V69.8929H38V66.8691H40ZM40 72.9167V75.9405H38V72.9167H40ZM40 78.9643V81.9881H38V78.9643H40ZM40 85.0119V88.0357H38V85.0119H40ZM40 91.0595V94.0834H38V91.0595H40ZM40 97.1072V100.131H38V97.1072H40ZM40 103.155V106.179H38V103.155H40ZM40 109.202V112.226H38V109.202H40ZM40 115.25V118.274H38V115.25H40ZM40 121.298V124.321H38V121.298H40ZM40 127.345V130.369H38V127.345H40ZM40 133.393V136.417H38V133.393H40ZM40 139.441V142.464H38V139.441H40ZM40 145.488V147H38V145.488H40ZM40 147C40 147.554 39.9785 148.104 39.9362 148.648L37.9422 148.493C37.9805 148.001 38 147.503 38 147H40ZM39.4242 151.904C39.1658 152.983 38.8241 154.031 38.4061 155.039L36.5587 154.273C36.9365 153.361 37.2455 152.415 37.4791 151.438L39.4242 151.904ZM36.9075 157.974C36.3305 158.914 35.6816 159.805 34.9686 160.639L33.4484 159.339C34.0939 158.584 34.6811 157.778 35.2032 156.928L36.9075 157.974ZM32.6389 162.969C31.8049 163.682 30.9142 164.33 29.9745 164.908L28.9279 163.203C29.7781 162.681 30.5843 162.094 31.3393 161.448L32.6389 162.969ZM27.0388 166.406C26.031 166.824 24.9835 167.166 23.9036 167.424L23.4382 165.479C24.4145 165.245 25.3615 164.937 26.2727 164.559L27.0388 166.406ZM20.6482 167.936C20.1042 167.978 19.5545 168 19 168V166C19.5027 166 20.0007 165.98 20.4933 165.942L20.6482 167.936ZM19 168H17.5V166H19V168ZM14.5 168H11.5V166H14.5V168ZM8.5 168H5.5V166H8.5V168ZM2.5 168H1V166H2.5V168ZM0 167V166.75H2V167H0ZM0 166.25V166H2V166.25H0ZM1 165H2.5V167H1V165ZM5.5 165H8.5V167H5.5V165ZM11.5 165H14.5V167H11.5V165ZM17.5 165H19V167H17.5V165ZM19 165C19.4763 165 19.9481 164.982 20.4147 164.945L20.5696 166.939C20.0515 166.98 19.5281 167 19 167V165ZM23.2047 164.506C24.1296 164.285 25.0267 163.993 25.8899 163.635L26.656 165.482C25.6961 165.88 24.6985 166.206 23.6701 166.452L23.2047 164.506ZM28.4053 162.35C29.2108 161.856 29.9745 161.299 30.6899 160.688L31.9895 162.208C31.1951 162.887 30.3469 163.505 29.4519 164.055L28.4053 162.35ZM32.688 158.69C33.2995 157.975 33.8558 157.211 34.3505 156.405L36.0548 157.452C35.5052 158.347 34.8872 159.195 34.2082 159.989L32.688 158.69ZM35.6345 153.89C35.9925 153.027 36.2852 152.13 36.5065 151.205L38.4516 151.67C38.2055 152.699 37.88 153.696 37.482 154.656L35.6345 153.89ZM36.9453 148.415C36.9815 147.948 37 147.476 37 147H39C39 147.528 38.9795 148.052 38.9393 148.57L36.9453 148.415ZM37 147V145.488H39V147H37ZM37 142.464V139.44H39V142.464H37ZM37 136.417V133.393H39V136.417H37ZM37 130.369V127.345H39V130.369H37ZM37 124.321V121.298H39V124.321H37ZM37 118.274V115.25H39V118.274H37ZM37 112.226V109.202H39V112.226H37ZM37 106.179V103.155H39V106.179H37ZM37 100.131V97.1071H39V100.131H37ZM37 94.0833V91.0595H39V94.0833H37ZM37 88.0357V85.0119H39V88.0357H37ZM37 81.9881V78.9643H39V81.9881H37ZM37 75.9405V72.9166H39V75.9405H37ZM37 69.8928V66.869H39V69.8928H37ZM37 63.8452V60.8214H39V63.8452H37ZM37 57.7976V54.7738H39V57.7976H37ZM37 51.75V48.7262H39V51.75H37ZM37 45.7023V42.6785H39V45.7023H37ZM37 39.6547V36.6309H39V39.6547H37ZM37 33.6071V30.5833H39V33.6071H37ZM37 27.5595V24.5357H39V27.5595H37ZM37 21.5119V20H39V21.5119H37ZM37 20C37 19.5237 36.9815 19.0519 36.9453 18.5853L38.9393 18.4304C38.9795 18.9485 39 19.4719 39 20H37ZM36.5065 15.7953C36.2852 14.8704 35.9925 13.9733 35.6345 13.1101L37.482 12.344C37.88 13.3039 38.2055 14.3015 38.4516 15.3299L36.5065 15.7953ZM34.3505 10.5947C33.8558 9.78917 33.2995 9.02546 32.688 8.31015L34.2082 7.01055C34.8872 7.80486 35.5052 8.65312 36.0548 9.54807L34.3505 10.5947ZM30.6899 6.31204C29.9745 5.70053 29.2108 5.14418 28.4053 4.64954L29.4519 2.94524C30.3469 3.49482 31.1951 4.11279 31.9895 4.79183L30.6899 6.31204ZM25.8899 3.36546C25.0267 3.00748 24.1296 2.71479 23.2047 2.49351L23.6701 0.548408C24.6985 0.794471 25.6961 1.11996 26.656 1.518L25.8899 3.36546ZM20.4147 2.05473C19.9481 2.01848 19.4763 2 19 2V0C19.5281 0 20.0515 0.0204871 20.5696 0.0607381L20.4147 2.05473ZM19 2H17.5V0H19V2ZM14.5 2H11.5V0H14.5V2ZM8.5 2H5.5V0H8.5V2ZM2.5 2H1V0H2.5V2ZM0 1V0.75H2V1H0ZM0 0.25V0H2V0.25H0Z" fill="black" mask="url(#path-1-inside-1_109_4762)"/>
<path d="M2.40413e-07 166.5L7.5 171.263L7.5 161.737L2.40413e-07 166.5Z" fill="black"/>
</svg>
