<?xml version="1.0" encoding="utf-8"?>
<!-- Generator: Adobe Illustrator 26.3.1, SVG Export Plug-In . SVG Version: 6.00 Build 0)  -->
<svg version="1.1" id="Слой_1" xmlns="http://www.w3.org/2000/svg" xmlns:xlink="http://www.w3.org/1999/xlink" x="0px" y="0px"
	 viewBox="0 0 19 19" style="enable-background:new 0 0 19 19;" xml:space="preserve">
<g>
	<path d="M18.9,18.1l-4-4c1.3-1.5,2.2-3.5,2.2-5.6C17,3.8,13.2,0,8.5,0C3.8,0,0,3.8,0,8.5C0,13.2,3.8,17,8.5,17
		c2.2,0,4.1-0.8,5.6-2.2l4,4c0.1,0.1,0.2,0.1,0.4,0.1s0.3,0,0.4-0.1C19,18.7,19,18.3,18.9,18.1z M1,8.5C1,4.4,4.4,1,8.5,1
		S16,4.4,16,8.5c0,2.1-0.8,3.9-2.2,5.3c0,0,0,0,0,0c0,0,0,0,0,0c-1.4,1.3-3.2,2.2-5.3,2.2C4.4,16,1,12.6,1,8.5z"/>
	<path d="M11.5,8H9V5.5C9,5.2,8.8,5,8.5,5S8,5.2,8,5.5V8H5.5C5.2,8,5,8.2,5,8.5S5.2,9,5.5,9H8v2.5C8,11.8,8.2,12,8.5,12
		S9,11.8,9,11.5V9h2.5C11.8,9,12,8.8,12,8.5S11.8,8,11.5,8z"/>
</g>
</svg>
