<?xml version="1.0" encoding="utf-8"?>
<!-- Generator: Adobe Illustrator 26.3.1, SVG Export Plug-In . SVG Version: 6.00 Build 0)  -->
<svg version="1.1" id="Слой_1" xmlns="http://www.w3.org/2000/svg" xmlns:xlink="http://www.w3.org/1999/xlink" x="0px" y="0px"
	 viewBox="0 0 129 84" style="enable-background:new 0 0 129 84;" xml:space="preserve">
<style type="text/css">
	.st0{fill:#FFFFFF;stroke:#FFCC24;stroke-width:2;}
</style>
<path class="st0" d="M72.5,79.9v1h1h52.9h1v-1V66.5v-1h-1H98.3l14.9-13.1c0,0,0,0,0,0c3-2.6,5.6-5,7.7-7.1l0,0
	c2.1-2.2,3.8-4.6,4.9-7.1l0,0c1.1-2.6,1.7-5.9,1.7-9.7c0-5.2-1.2-9.9-3.5-13.9c-2.3-4-5.5-7.1-9.6-9.4c-4-2.3-8.6-3.4-13.7-3.4
	C95.1,1.8,90.2,2.9,86,5c-4.2,2.1-7.5,5.2-9.9,9.1c-2.4,4-3.6,8.6-3.6,14v1h1h14.7h1l0-1c-0.1-1.9,0.4-3.7,1.3-5.3l0,0
	c0.9-1.7,2.2-3,3.9-4l0,0c1.7-1,3.6-1.5,5.9-1.5c2.2,0,4,0.5,5.5,1.4l0,0l0,0c1.5,0.9,2.8,2.2,3.6,3.9l0,0c0.9,1.6,1.3,3.5,1.3,5.7
	c0,1.4-0.4,3-1.4,4.7c-0.9,1.7-2.5,3.6-4.8,5.6l0,0L72.8,66.8l-0.3,0.3v0.4V79.9z M15.6,5.5l0.5,0.9L15.6,5.5
	c-4.4,2.4-7.8,5.8-10.2,10.2C2.9,20,1.7,25.1,1.7,30.9v22.7c0,5.7,1.2,10.8,3.6,15.2c2.4,4.4,5.8,7.8,10.2,10.2
	c4.4,2.4,9.4,3.6,15.2,3.6s10.8-1.2,15.2-3.6c4.4-2.4,7.8-5.8,10.2-10.2c2.4-4.4,3.6-9.4,3.6-15.2V30.9c0-5.7-1.2-10.8-3.6-15.2
	C53.7,11.3,50.3,7.9,46,5.5C41.6,3,36.5,1.8,30.8,1.8S20,3,15.6,5.5z M37.1,65.4c-1.9,1.1-4,1.6-6.3,1.6s-4.5-0.6-6.3-1.6
	c-1.9-1.1-3.4-2.6-4.5-4.5c-1.1-1.9-1.6-4-1.6-6.3V29.7c0-2.4,0.6-4.5,1.6-6.3c1.1-1.9,2.6-3.4,4.5-4.5c1.9-1.1,4-1.6,6.3-1.6
	s4.5,0.6,6.3,1.6c1.9,1.1,3.4,2.6,4.5,4.5c1.1,1.9,1.6,4,1.6,6.3v24.9c0,2.4-0.6,4.5-1.6,6.3C40.5,62.8,39,64.3,37.1,65.4z"/>
</svg>
