<?xml version="1.0" encoding="utf-8"?>
<!-- Generator: Adobe Illustrator 26.3.1, SVG Export Plug-In . SVG Version: 6.00 Build 0)  -->
<svg version="1.1" id="Слой_1" xmlns="http://www.w3.org/2000/svg" xmlns:xlink="http://www.w3.org/1999/xlink" x="0px" y="0px"
	 viewBox="0 0 126 84" style="enable-background:new 0 0 126 84;" xml:space="preserve">
<style type="text/css">
	.st0{fill:#FFFFFF;stroke:#FFCC24;stroke-width:2;}
</style>
<path class="st0" d="M86.1,80L86.1,80c3.6,1.6,7.3,2.3,11.2,2.3c4.9,0,9.5-1.1,13.6-3.4l0,0c4.1-2.3,7.5-5.4,10-9.4l0,0
	c2.5-4,3.8-8.5,3.8-13.4c0-4-0.8-7.8-2.5-11.4c-1.6-3.6-4-6.6-7.1-9.1c-1.8-1.5-3.9-2.6-6.2-3.5L123,18.6l0.3-0.3v-0.4V4.4v-1h-1H75
	h-1v1v13.4v1h1h27.6L84.4,34l-0.6,0.5l0.4,0.7l6.4,11.2l0.5,0.9l0.9-0.5c0.8-0.5,1.7-0.9,2.6-1.1l0,0l0,0c0.9-0.3,1.8-0.4,2.7-0.4
	c3.2,0,5.8,1.1,7.8,3.2l0,0l0,0c2.1,2.1,3.1,4.7,3.1,7.7c0,2-0.5,3.8-1.5,5.4l0,0l0,0c-1,1.6-2.3,2.9-3.9,3.9l0,0
	c-1.6,1-3.4,1.4-5.4,1.4c-2.3,0-4.4-0.7-6.5-2.1c-1.9-1.4-3.2-3.3-3.9-5.9l-0.3-1l-1,0.3l-13.9,3.7l-1,0.3l0.3,1
	c1.1,3.9,3,7.3,5.6,10.2l0,0C79.4,76.2,82.5,78.4,86.1,80z M15.3,5.5l0.5,0.9L15.3,5.5c-4.4,2.4-7.8,5.8-10.2,10.2
	C2.6,20,1.4,25.1,1.4,30.9v22.7c0,5.7,1.2,10.8,3.6,15.2c2.4,4.4,5.8,7.8,10.2,10.2c4.4,2.4,9.4,3.6,15.2,3.6s10.8-1.2,15.2-3.6
	c4.4-2.4,7.8-5.8,10.2-10.2c2.4-4.4,3.6-9.4,3.6-15.2V30.9c0-5.7-1.2-10.8-3.6-15.2C53.4,11.3,50,7.9,45.6,5.5
	C41.3,3,36.2,1.8,30.4,1.8S19.6,3,15.3,5.5z M36.8,65.4c-1.9,1.1-4,1.6-6.3,1.6s-4.5-0.6-6.3-1.6c-1.9-1.1-3.4-2.6-4.5-4.5
	c-1.1-1.9-1.6-4-1.6-6.3V29.7c0-2.4,0.6-4.5,1.6-6.3c1.1-1.9,2.6-3.4,4.5-4.5c1.9-1.1,4-1.6,6.3-1.6s4.5,0.6,6.3,1.6
	c1.9,1.1,3.4,2.6,4.5,4.5c1.1,1.9,1.6,4,1.6,6.3v24.9c0,2.4-0.6,4.5-1.6,6.3C40.1,62.8,38.6,64.3,36.8,65.4z"/>
</svg>
