<?xml version="1.0" encoding="utf-8"?>
<!-- Generator: Adobe Illustrator 26.3.1, SVG Export Plug-In . SVG Version: 6.00 Build 0)  -->
<svg version="1.1" id="Слой_1" xmlns="http://www.w3.org/2000/svg" xmlns:xlink="http://www.w3.org/1999/xlink" x="0px" y="0px"
	 viewBox="0 0 126.8 80.8" style="enable-background:new 0 0 126.8 80.8;" xml:space="preserve">
<style type="text/css">
	.st0{fill:#FFFFFF;stroke:#FFCC24;stroke-width:2;stroke-miterlimit:10;}
</style>
<path class="st0" d="M29,79.8c-5.6,0-10.5-1.2-14.7-3.5c-4.2-2.3-7.5-5.6-9.8-9.8C2.2,62.2,1,57.3,1,51.7V29
	c0-5.6,1.2-10.5,3.5-14.7c2.3-4.2,5.6-7.5,9.8-9.8C18.5,2.2,23.4,1,29,1s10.5,1.2,14.7,3.5s7.5,5.6,9.8,9.8
	c2.3,4.2,3.5,9.1,3.5,14.7v22.7c0,5.6-1.2,10.5-3.5,14.7c-2.3,4.2-5.6,7.5-9.8,9.8S34.6,79.8,29,79.8z M29,66.2
	c2.5,0,4.8-0.6,6.8-1.8c2-1.2,3.6-2.8,4.8-4.8c1.2-2,1.8-4.3,1.8-6.8V27.9c0-2.5-0.6-4.8-1.8-6.8c-1.2-2-2.8-3.6-4.8-4.8
	c-2-1.2-4.3-1.8-6.8-1.8s-4.8,0.6-6.8,1.8s-3.6,2.8-4.8,4.8s-1.8,4.3-1.8,6.8v24.9c0,2.5,0.6,4.8,1.8,6.8c1.2,2,2.8,3.6,4.8,4.8
	S26.5,66.2,29,66.2z"/>
<path class="st0" d="M104.6,78.2V66.4H71.8V53.1L95.6,2.6H112L88.1,53.1h16.5V34.2h14.5v18.9h6.7v13.3h-6.7v11.8H104.6z"/>
</svg>
