<?xml version="1.0" encoding="utf-8"?>
<!-- Generator: Adobe Illustrator 26.3.1, SVG Export Plug-In . SVG Version: 6.00 Build 0)  -->
<svg version="1.1" id="Слой_1" xmlns="http://www.w3.org/2000/svg" xmlns:xlink="http://www.w3.org/1999/xlink" x="0px" y="0px"
	 viewBox="0 0 127 84" style="enable-background:new 0 0 127 84;" xml:space="preserve">
<style type="text/css">
	.st0{fill:#FFFFFF;stroke:#FFCC24;stroke-width:2;}
</style>
<path class="st0" d="M86.6,80.1L86.6,80.1c3.5,1.6,7.2,2.5,11.2,2.5c4.9,0,9.5-1.2,13.7-3.5l0,0c4.2-2.4,7.6-5.5,10.2-9.5l0,0
	c2.6-4,3.9-8.5,3.9-13.5c0-4.9-1.1-9.3-3.2-13.1c-2.1-3.9-5.1-6.9-8.9-9.1c-3.8-2.2-8.1-3.3-13.1-3.3c-2.2,0-4.6,0.4-7.1,1.1
	c-0.8,0.2-1.6,0.5-2.4,0.9l0.8-13.8h27.7h1v-1V4.4v-1h-1H78.3h-0.9l-0.1,0.9L75,44.6l0,0.8l0.8,0.2l12.1,3.7l0.6,0.2l0.4-0.4
	c0.7-0.7,1.9-1.5,3.6-2.4l0,0l0,0c1.5-0.8,3.5-1.2,6-1.2c2,0,3.8,0.5,5.4,1.4l0,0c1.7,1,3,2.3,3.9,3.9l0,0l0,0
	c1,1.6,1.5,3.4,1.5,5.4s-0.5,3.8-1.5,5.4l0,0l0,0c-1,1.6-2.3,2.9-3.9,3.9l0,0c-1.6,1-3.4,1.4-5.4,1.4c-1.5,0-3-0.3-4.4-1
	c-1.4-0.7-2.7-1.6-3.8-2.8c-1-1.2-1.8-2.6-2.2-4.2l-0.2-1l-1,0.3L73,61.9l-1,0.3l0.3,1c1.1,3.8,2.9,7.2,5.4,10.1
	C80.2,76.2,83.2,78.5,86.6,80.1z M15.4,5.5l0.5,0.9L15.4,5.5C11,7.9,7.6,11.3,5.2,15.7C2.7,20,1.5,25.1,1.5,30.9v22.7
	c0,5.7,1.2,10.8,3.6,15.2c2.4,4.4,5.8,7.8,10.2,10.2c4.4,2.4,9.4,3.6,15.2,3.6c5.7,0,10.8-1.2,15.2-3.6c4.4-2.4,7.8-5.8,10.2-10.2
	c2.4-4.4,3.6-9.4,3.6-15.2V30.9c0-5.7-1.2-10.8-3.6-15.2c-2.4-4.4-5.8-7.8-10.2-10.2C41.4,3,36.3,1.8,30.5,1.8
	C24.8,1.8,19.7,3,15.4,5.5z M36.9,65.4c-1.9,1.1-4,1.6-6.3,1.6c-2.4,0-4.5-0.6-6.3-1.6c-1.9-1.1-3.4-2.6-4.5-4.5
	c-1.1-1.9-1.6-4-1.6-6.3V29.7c0-2.4,0.6-4.5,1.6-6.3c1.1-1.9,2.6-3.4,4.5-4.5c1.9-1.1,4-1.6,6.3-1.6c2.4,0,4.5,0.6,6.3,1.6
	c1.9,1.1,3.4,2.6,4.5,4.5c1.1,1.9,1.6,4,1.6,6.3v24.9c0,2.4-0.6,4.5-1.6,6.3C40.2,62.8,38.7,64.3,36.9,65.4z"/>
</svg>
