<?xml version="1.0" encoding="utf-8"?>
<!-- Generator: Adobe Illustrator 26.3.1, SVG Export Plug-In . SVG Version: 6.00 Build 0)  -->
<svg version="1.1" id="Слой_1" xmlns="http://www.w3.org/2000/svg" xmlns:xlink="http://www.w3.org/1999/xlink" x="0px" y="0px"
	 viewBox="0 0 131 84" style="enable-background:new 0 0 131 84;" xml:space="preserve">
<style type="text/css">
	.st0{fill:#FFFFFF;stroke:#FFCC24;stroke-width:2;}
</style>
<path class="st0" d="M88,78.9L88,78.9c4.2,2.4,8.8,3.7,14,3.7c4.9,0,9.5-1.2,13.6-3.5l0,0c4.1-2.4,7.5-5.5,10-9.5l0,0
	c2.5-4,3.8-8.5,3.8-13.4c0-4.9-1.1-9.3-3.2-13.2c-2.1-3.9-5.1-6.9-8.9-9.1c-3.8-2.2-8.1-3.3-13.1-3.3c-3.2,0-6.3,0.6-9.3,1.9
	c-1.3,0.5-2.5,1.2-3.7,1.9v-4.6c0-2.1,0.5-4.2,1.5-6c1-1.9,2.5-3.4,4.3-4.6l0,0c1.8-1.2,4-1.8,6.6-1.8c1.6,0,3.2,0.3,4.7,1
	c1.5,0.7,2.9,1.6,4,2.7l0.7,0.7l0.7-0.7L124,10.8l0.7-0.7L124,9.3c-2.9-2.7-6-4.6-9.5-5.7c-3.4-1.1-7-1.7-10.8-1.7
	c-5.8,0-10.9,1.2-15.3,3.6C84,8,80.6,11.4,78.2,16c-2.4,4.5-3.6,9.8-3.6,15.9v21.9c0,5.6,1.2,10.7,3.6,15l0,0
	C80.6,73.1,83.9,76.5,88,78.9z M15.6,5.5l0.5,0.9L15.6,5.5c-4.4,2.4-7.8,5.8-10.2,10.2C3,20,1.8,25.1,1.8,30.9v22.7
	c0,5.7,1.2,10.8,3.6,15.2c2.4,4.4,5.8,7.8,10.2,10.2c4.4,2.4,9.4,3.6,15.2,3.6c5.7,0,10.8-1.2,15.2-3.6c4.4-2.4,7.8-5.8,10.2-10.2
	c2.4-4.4,3.6-9.4,3.6-15.2V30.9c0-5.7-1.2-10.8-3.6-15.2C53.8,11.3,50.3,7.9,46,5.5C41.6,3,36.5,1.8,30.8,1.8
	C25.1,1.8,20,3,15.6,5.5z M107.4,65.5L107.4,65.5c-1.6,1-3.4,1.4-5.4,1.4c-2,0-3.8-0.5-5.4-1.5c-1.6-1-2.9-2.3-3.9-4
	c-1-1.6-1.4-3.4-1.4-5.3c0-2,0.5-3.8,1.4-5.4c1-1.7,2.3-3,4-4l0,0c1.7-1,3.5-1.5,5.5-1.5c2,0,3.8,0.5,5.4,1.5l0,0l0,0
	c1.6,1,2.9,2.3,3.9,3.9l0,0c1,1.6,1.4,3.4,1.4,5.4c0,2-0.5,3.8-1.5,5.4l0,0l0,0C110.4,63.2,109.1,64.5,107.4,65.5z M37.1,65.4
	c-1.9,1.1-4,1.6-6.3,1.6s-4.5-0.6-6.3-1.6c-1.9-1.1-3.4-2.6-4.5-4.5c-1.1-1.9-1.6-4-1.6-6.3V29.7c0-2.4,0.6-4.5,1.6-6.3
	c1.1-1.9,2.6-3.4,4.5-4.5c1.9-1.1,4-1.6,6.3-1.6s4.5,0.6,6.3,1.6c1.9,1.1,3.4,2.6,4.5,4.5c1.1,1.9,1.6,4,1.6,6.3v24.9
	c0,2.4-0.6,4.5-1.6,6.3C40.5,62.8,39,64.3,37.1,65.4z"/>
</svg>
