<svg width="41" height="31" viewBox="0 0 41 31" fill="none" xmlns="http://www.w3.org/2000/svg">
<path d="M6.12656 30.0002V30.5002H6.62656H12.1866H12.6866V30.0002V1.2002V0.700195H12.1866H6.62656H6.48807L6.36931 0.771449L0.969315 4.01145L0.726562 4.1571V4.44019V10.4402V11.3345L1.48844 10.8661L6.12656 8.01454V30.0002ZM31.4106 30.0002V30.5002H31.9106H37.4306H37.9306V30.0002V26.0202H39.9906H40.4906V25.5202V20.4402V19.9402H39.9906H37.9306V13.2402V12.7402H37.4306H31.9106H31.4106V13.2402V19.9402H26.4195L35.1628 1.41359L35.4995 0.700195H34.7106H28.4706H28.1537L28.0184 0.986799L18.9384 20.2268L18.8906 20.3281V20.4402V25.5202V26.0202H19.3906H31.4106V30.0002Z" stroke="white"/>
</svg>
