<svg width="39" height="32" viewBox="0 0 39 32" fill="none" xmlns="http://www.w3.org/2000/svg">
<path d="M3.09352 27.537L3.09585 27.5395C4.11485 28.6423 5.31007 29.502 6.67827 30.1163L6.68218 30.1181C8.05277 30.7194 9.49457 31.0202 11.0031 31.0202C12.8971 31.0202 14.6476 30.5806 16.2449 29.6978L16.2478 29.6962C17.838 28.8035 19.1193 27.6001 20.0844 26.0894L20.0855 26.0876C21.059 24.5499 21.5431 22.8228 21.5431 20.9202C21.5431 19.3714 21.2288 17.9076 20.5987 16.5343C19.9789 15.1409 19.0619 13.9703 17.8529 13.0277C17.1875 12.4959 16.4417 12.0723 15.6185 11.7547L20.8705 6.67976L21.0231 6.53234V6.3202V1.2002V0.700195H20.5231H2.52308H2.02308V1.2002V6.3202V6.8202H2.52308H12.6993L6.00381 12.3754L5.6809 12.6433L5.88871 13.0078L8.32871 17.2878L8.57761 17.7244L9.01294 17.4733C9.32529 17.2931 9.64761 17.1561 9.98044 17.061L9.9883 17.0587L9.99608 17.0562C10.319 16.9524 10.654 16.9002 11.0031 16.9002C12.1969 16.9002 13.1411 17.2981 13.8788 18.0827L13.8788 18.0828L13.8841 18.0883C14.6458 18.8738 15.0231 19.8085 15.0231 20.9202C15.0231 21.659 14.8397 22.3219 14.4758 22.9205L14.4758 22.9205L14.4721 22.9267C14.1166 23.531 13.6328 24.0096 13.0132 24.3671L13.0132 24.3671L13.0096 24.3692C12.4101 24.7218 11.745 24.9002 11.0031 24.9002C10.1514 24.9002 9.35798 24.6484 8.61186 24.132C7.90257 23.6191 7.41894 22.9022 7.1663 21.9517L7.03793 21.4688L6.55493 21.5969L1.27493 22.9969L0.780477 23.128L0.922826 23.6193C1.35653 25.1163 2.0798 26.4247 3.09352 27.537ZM31.1359 30.0002V30.5002H31.6359H37.1959H37.6959V30.0002V1.2002V0.700195H37.1959H31.6359H31.4974L31.3786 0.771449L25.9786 4.01145L25.7359 4.1571V4.44019V10.4402V11.3345L26.4978 10.8661L31.1359 8.01454V30.0002Z" stroke="white"/>
</svg>
