<svg width="219" height="196" viewBox="0 0 219 196" fill="none" xmlns="http://www.w3.org/2000/svg">
<path d="M16.6412 104.048L77.7218 64.4653C77.8816 64.3616 78.0399 64.2643 78.198 64.1724C80.4484 62.8638 82.5027 62.7385 83.9872 63.6075L91.798 68.1797C93.245 69.0168 94.1629 70.83 94.1702 73.4315L94.1931 81.5477C94.2078 86.7764 90.5429 93.1118 86.0839 95.705C85.9265 95.7966 85.7677 95.8836 85.6084 95.9657L24.505 127.432C22.3856 128.523 20.4956 128.55 19.1175 127.705C19.1395 127.719 19.1588 127.737 19.1811 127.75L11.3703 123.178C9.90668 122.321 9.00491 120.497 8.99768 117.918C8.9836 112.923 12.3329 106.84 16.6412 104.048Z" fill="#FBB03B"/>
<path d="M86.0089 68.7456C85.8508 68.8375 85.6924 68.9348 85.5326 69.0385L24.4521 108.621C20.1437 111.414 16.7944 117.496 16.8085 122.492C16.8226 127.487 20.195 129.652 24.505 127.433L85.6084 95.9666C85.7677 95.8846 85.9264 95.7975 86.0839 95.706C90.5429 93.1128 94.2078 86.7774 94.1931 81.5487L94.1702 73.4325C94.1555 68.2044 90.4671 66.1533 86.0089 68.7456Z" fill="#C4720E"/>
<path d="M89.2912 99.4398L79.452 93.7177C78.1641 92.9686 77.3675 91.3624 77.3675 89.0765C77.3674 84.5046 80.5539 78.9453 84.4846 76.6593C86.45 75.5163 88.2292 75.4081 89.5172 76.1572L99.3564 81.8793L89.2912 99.4398Z" fill="black"/>
<path d="M89.3185 99.4548C86.5241 97.8647 86.4997 92.6375 89.2641 87.7796C92.0285 82.9218 96.5348 80.2728 99.3292 81.8629C102.124 83.4531 102.148 88.6803 99.3836 93.5381C96.6192 98.396 92.1129 101.045 89.3185 99.4548Z" fill="#E6E6E6"/>
<path d="M107.041 49.6257L110.143 47.822C110.985 47.3323 111.749 47.2866 112.301 47.6097L117.358 50.57C117.9 50.8842 118.24 51.562 118.243 52.5289L118.291 69.7836C118.297 71.7244 116.94 74.0852 115.268 75.0577L112.167 76.8614C111.322 77.3529 110.557 77.3951 110.006 77.0674C110.013 77.0738 104.956 74.1134 104.956 74.1134C104.412 73.7948 104.074 73.1166 104.072 72.1518L104.023 54.8972C104.017 52.9564 105.369 50.5982 107.041 49.6257Z" fill="#4D4D4D"/>
<path d="M112.099 52.5857C110.426 53.5582 109.075 55.9164 109.08 57.8571L109.129 75.1118C109.134 77.0525 110.495 77.8335 112.167 76.861L115.268 75.0573C116.94 74.0848 118.297 71.724 118.291 69.7832L118.243 52.5286C118.237 50.5878 116.872 49.8095 115.2 50.782L112.099 52.5857Z" fill="#1A1A1A"/>
<path d="M108.563 6.47375L108.687 50.5462C108.688 50.865 108.895 51.1833 109.31 51.4263C110.148 51.9165 111.51 51.9165 112.35 51.4276C112.775 51.1809 112.987 50.8571 112.986 50.5339L112.862 6.46143C112.862 6.78467 112.651 7.1084 112.226 7.35511C111.386 7.84405 110.024 7.84405 109.186 7.35381C108.771 7.11089 108.564 6.79257 108.563 6.47375Z" fill="#333333"/>
<path d="M109.196 5.58176C108.355 6.0707 108.351 6.86519 109.186 7.35419C110.024 7.84444 111.385 7.84444 112.226 7.3555C113.069 6.86525 113.074 6.0707 112.236 5.58045C111.401 5.09145 110.039 5.09145 109.196 5.58176Z" fill="#333333"/>
<path d="M112.861 6.46144C112.985 1.89854 110.577 0.922343 105.958 4.3695L108.126 8.10684C108.802 7.93105 112.861 6.46144 112.861 6.46144Z" fill="#333333"/>
<path d="M105.522 5.35855C105.522 4.38068 106.203 3.97954 107.041 4.46368C107.882 4.9492 108.562 6.13711 108.562 7.11498C108.562 8.09553 107.882 8.49667 107.041 8.01116C106.203 7.52702 105.522 6.33911 105.522 5.35855Z" fill="black"/>
<path d="M87.8204 79.6694L83.04 82.4403C83.7257 82.0441 84.2045 81.2884 84.3857 80.2388C82.2399 80.0519 80.2159 78.8493 79.0574 76.828C77.8951 74.8003 77.8765 72.4246 78.7975 70.4558C77.8142 70.0915 76.9326 70.1287 76.252 70.5218L81.0324 67.7509C81.0696 67.7294 81.1105 67.7152 81.1488 67.6959C81.2808 67.6063 81.4153 67.5191 81.5553 67.4378C84.8194 65.5395 88.9931 66.666 90.8775 69.9538C92.762 73.2417 91.6437 77.4458 88.3797 79.3441C88.2499 79.4195 88.1184 79.4884 87.9861 79.5543C87.931 79.5929 87.8784 79.6358 87.8204 79.6694Z" fill="#FBB03B"/>
<path d="M85.4185 80.3867C85.1507 80.5419 84.9533 80.6562 84.8836 80.6966C84.9119 80.5808 84.9366 80.4616 84.9578 80.3394C85.1147 80.3325 85.2655 80.3631 85.4185 80.3867Z" fill="#999999"/>
<path d="M83.2365 68.7257C80.2627 70.4551 79.9752 70.6253 80.5302 70.3056C80.4555 70.3488 80.3779 70.3938 80.2992 70.4394C79.7529 70.0256 78.9954 69.8327 78.6691 69.7974C78.8351 69.7013 78.9899 69.6116 79.1394 69.525C78.5844 69.8447 78.872 69.6745 81.8457 67.9451C84.0669 66.6533 86.7557 66.8989 88.6948 68.349C86.9738 67.6504 84.9643 67.7208 83.2365 68.7257Z" fill="white"/>
<path d="M83.2131 79.1817C83.2136 76.5276 81.3679 73.3075 79.0931 71.9937C76.8183 70.6789 74.9727 71.7663 74.9731 74.421C74.9727 77.075 76.8182 80.2932 79.0931 81.6072C81.3681 82.922 83.2136 81.8363 83.2131 79.1817Z" fill="#CCCCCC"/>
<path d="M84.469 79.2683C84.4689 82.3767 82.3098 83.6469 79.6459 82.1079C79.0667 81.7732 78.5112 81.3332 77.9967 80.8177C77.8927 80.7135 77.7887 80.6092 77.6847 80.5051C78.1242 80.9454 78.5986 81.3212 79.0932 81.6069C81.3682 82.9217 83.2137 81.8359 83.2132 79.1814C83.2137 76.5272 81.368 73.3072 79.0932 71.9934C76.8184 70.6786 74.9728 71.766 74.9732 74.4207C74.9731 74.9808 75.0552 75.566 75.2062 76.1531C75.1695 76.0102 75.1327 75.8671 75.0959 75.7241C74.9191 75.0366 74.8229 74.3513 74.8229 73.6952C74.8229 70.5868 76.9821 69.3147 79.6459 70.8537C82.3098 72.3928 84.4689 76.1599 84.469 79.2683Z" fill="#C4720E"/>
<path d="M79.1951 80.7602C77.3494 79.6289 75.8064 76.9382 75.7505 74.7519C75.6938 72.5651 77.1456 71.7091 78.9912 72.8411C80.8368 73.9723 82.38 76.6645 82.4359 78.8509C82.4926 81.0376 81.0409 81.8922 79.1951 80.7602Z" fill="white"/>
<path d="M82.4081 79.4731C82.4342 79.2788 82.4441 79.0737 82.4374 78.8512C82.3787 76.6657 80.8348 73.9721 78.9924 72.8408C78.8114 72.7299 78.6356 72.6396 78.4659 72.5659C76.8769 71.8886 75.7001 72.779 75.7514 74.7527C75.806 76.9372 77.3484 79.6282 79.1949 80.7606C80.855 81.7784 82.1956 81.1913 82.4081 79.4731Z" fill="white"/>
<path d="M82.4081 79.4726C82.4342 79.2783 82.4441 79.0732 82.4374 78.8508C82.3787 76.6652 80.8348 73.9717 78.9924 72.8404C78.8114 72.7294 78.6356 72.6391 78.4659 72.5654C78.0629 72.945 77.804 73.5348 77.7609 74.2965C77.6582 76.1772 78.9247 78.3867 80.5886 79.23C81.2556 79.5685 81.8867 79.6339 82.4081 79.4726Z" fill="#FFF8B3"/>
<path d="M116.719 65.6525L116.71 62.5098L117.529 61.9094L117.816 59.1735L117.102 58.7555L117.795 55.3103L118.614 54.9639L119.572 51.7021L118.964 51.346L120.311 47.8369L121.072 47.7605L122.677 44.3931L122.172 43.9297L124.083 40.5956L124.743 40.7952L126.832 37.7118L126.513 37.0154L128.86 34.0736L129.471 34.4312L131.804 31.9516L131.689 31.0686L134.311 28.7306L135.016 29.1433L137.247 27.5073L137.352 26.4967L140.067 24.9176L140.986 25.4556L142.802 24.6743L143.11 23.6135L145.736 22.8995L147.193 23.7523L148.077 23.6615L148.573 22.6094L150.928 22.8166L153.04 24.0525L153.371 23.5628L155.295 24.6669L168.3 32.2802L168.063 32.7761L170.177 34.0135L171.545 35.9436L170.888 36.9031L171.235 37.6674L172.727 38.5406L173.437 41.1698L172.678 41.9716L172.918 43.9122L173.849 44.457L173.858 47.5996L173.039 48.2001L172.755 50.9381L173.466 51.354L172.773 54.7993L171.953 55.1456L170.996 58.4013L171.609 58.7603L170.257 62.2726L169.495 62.3491L167.89 65.7102L168.396 66.1799L166.485 69.5139L165.83 69.3112L163.736 72.3978L164.054 73.0942L161.708 76.0297L161.102 75.6751L158.763 78.1579L158.879 79.0409L156.257 81.379L155.548 80.9641L153.321 82.6022L153.216 83.6129L150.501 85.1918L149.58 84.6526L147.771 85.4258L147.458 86.496L144.831 87.21L143.372 86.3558L142.496 86.4449L141.995 87.4939L139.639 87.2929L137.529 86.0577L137.196 86.5467L135.273 85.4426L122.267 77.8294L122.503 77.3328L120.39 76.096L119.028 74.1628L119.68 73.2002L119.335 72.4437L117.84 71.569L117.13 68.9397L117.895 68.1286L117.652 66.1987L116.719 65.6525Z" fill="#333333"/>
<path d="M155.944 80.6737L142.938 73.0605L143.251 73.7663L156.257 81.3795L155.944 80.6737Z" fill="black"/>
<path d="M173.466 51.3544L160.46 43.7412L159.699 43.8177L172.705 51.4309L173.466 51.3544Z" fill="black"/>
<path d="M150.391 84.306L137.385 76.6929L137.495 77.579L150.501 85.1921L150.391 84.306Z" fill="black"/>
<path d="M173.849 44.4574L160.843 36.8442L160.024 37.1967L173.029 44.81L173.849 44.4574Z" fill="black"/>
<path d="M144.941 86.1962L131.935 78.583L131.826 79.5968L144.831 87.21L144.941 86.1962Z" fill="black"/>
<path d="M172.727 38.5405L159.721 30.9272L158.902 31.5339L171.908 39.1472L172.727 38.5405Z" fill="black"/>
<path d="M139.953 86.2294L126.947 78.6162L126.633 79.6801L139.639 87.2933L139.953 86.2294Z" fill="black"/>
<path d="M170.177 34.0136L157.172 26.4004L156.412 27.2084L169.418 34.8216L170.177 34.0136Z" fill="black"/>
<path d="M135.774 84.3876L122.768 76.7744L122.267 77.8296L135.273 85.4428L135.774 84.3876Z" fill="black"/>
<path d="M166.377 31.1761L153.371 23.563L152.72 24.5256L165.725 32.1388L166.377 31.1761Z" fill="black"/>
<path d="M134.155 82.9017L121.15 75.2886L122.768 76.7747L135.774 84.3879L134.155 82.9017Z" fill="#1A1A1A"/>
<path d="M165.725 32.1389L152.72 24.5258L150.615 23.8809L163.621 31.4941L165.725 32.1389Z" fill="#1A1A1A"/>
<path d="M132.685 80.8138L119.679 73.2007L119.028 74.1633L132.033 81.7765L132.685 80.8138Z" fill="black"/>
<path d="M161.579 30.2225L148.573 22.6094L148.077 23.6614L161.083 31.2746L161.579 30.2225Z" fill="black"/>
<path d="M131.665 78.5756L118.659 70.9624L119.679 73.2003L132.685 80.8135L131.665 78.5756Z" fill="#1A1A1A"/>
<path d="M161.083 31.2748L148.077 23.6616L145.626 23.9134L158.632 31.5266L161.083 31.2748Z" fill="#1A1A1A"/>
<path d="M130.901 75.7416L117.895 68.1284L117.131 68.9395L130.136 76.5526L130.901 75.7416Z" fill="black"/>
<path d="M156.115 31.2275L143.11 23.6143L142.802 24.6751L155.807 32.2883L156.115 31.2275Z" fill="black"/>
<path d="M130.545 72.9135L117.539 65.3003L117.895 68.1289L130.901 75.7421L130.545 72.9135Z" fill="#1A1A1A"/>
<path d="M155.807 32.288L142.802 24.6748L140.176 25.8042L153.182 33.4174L155.807 32.288Z" fill="#1A1A1A"/>
<path d="M130.535 69.5228L117.529 61.9097L116.71 62.5101L129.716 70.1233L130.535 69.5228Z" fill="black"/>
<path d="M150.357 34.1098L137.351 26.4966L137.247 27.5073L150.253 35.1204L150.357 34.1098Z" fill="black"/>
<path d="M130.874 66.2826L117.868 58.6694L117.529 61.9091L130.535 69.5223L130.874 66.2826Z" fill="#1A1A1A"/>
<path d="M150.253 35.121L137.247 27.5078L134.629 29.4274L147.635 37.0407L150.253 35.121Z" fill="#1A1A1A"/>
<path d="M131.62 62.577L118.614 54.9639L117.794 55.3102L130.8 62.9234L131.62 62.577Z" fill="black"/>
<path d="M144.695 38.6815L131.689 31.0684L131.804 31.9513L144.81 39.5645L144.695 38.6815Z" fill="black"/>
<path d="M132.625 59.1561L119.619 51.543L118.615 54.9643L131.62 62.5775L132.625 59.1561Z" fill="#1A1A1A"/>
<path d="M144.81 39.5648L131.804 31.9517L129.366 34.5434L142.371 42.1565L144.81 39.5648Z" fill="#1A1A1A"/>
<path d="M135.683 52.0062L122.677 44.3931L121.072 47.7603L134.078 55.3735L135.683 52.0062Z" fill="#1A1A1A"/>
<path d="M139.838 45.3251L126.832 37.7119L124.743 40.7954L137.749 48.4086L139.838 45.3251Z" fill="#1A1A1A"/>
<path d="M134.078 55.3739L121.072 47.7607L120.311 47.8373L133.316 55.4504L134.078 55.3739Z" fill="black"/>
<path d="M139.519 44.6284L126.513 37.0151L126.832 37.7116L139.838 45.3248L139.519 44.6284Z" fill="black"/>
<path d="M137.749 48.4085L124.743 40.7953L124.083 40.5957L137.088 48.2089L137.749 48.4085Z" fill="black"/>
<path d="M150.357 34.1099L150.253 35.1206L147.635 37.0403L147.317 36.3438L144.695 38.6819L144.81 39.5648L142.371 42.1565L141.866 41.6869L139.519 44.6286L139.838 45.325L137.749 48.4085L137.089 48.2089L135.178 51.5429L135.683 52.0064L134.078 55.3737L133.317 55.4502L131.969 58.9593L132.624 59.1558L131.62 62.5772L130.8 62.9235L130.107 66.3688L130.874 66.2829L130.535 69.5226L129.716 70.1231L129.725 73.2658L130.544 72.9132L130.901 75.7419L130.136 76.5529L130.846 79.1822L131.665 78.5756L132.685 80.8134L132.034 81.7761L133.396 83.7093L134.156 82.9013L135.774 84.3875L135.273 85.4427L137.196 86.5467L137.854 85.581L139.953 86.2291L139.639 87.293L141.995 87.494L142.496 86.445L144.941 86.1964L144.831 87.2101L147.458 86.4961L147.771 85.4259L150.391 84.3059L150.501 85.192L153.216 83.6129L153.321 82.6022L155.944 80.6733L156.257 81.379L158.878 79.041L158.763 78.158L161.207 75.5632L161.708 76.0297L164.054 73.0943L163.736 72.3979L165.83 69.3113L166.485 69.514L168.396 66.1799L167.89 65.7102L169.495 62.3492L170.257 62.2727L171.609 58.7604L170.949 58.5609L171.953 55.1457L172.773 54.7994L173.466 51.3541L172.704 51.4306L173.039 48.2002L173.858 47.5997L173.849 44.4571L173.029 44.8096L172.678 41.9717L173.437 41.1699L172.727 38.5406L171.908 39.1473L170.888 36.9032L171.545 35.9436L170.177 34.0136L169.418 34.8215L167.799 33.3291L168.3 32.2802L166.377 31.1761L165.725 32.1387L163.621 31.4938L163.934 30.4299L161.579 30.2227L161.083 31.2748L158.632 31.5265L158.742 30.5127L156.115 31.2268L155.807 32.2876L153.182 33.417L153.072 32.5309L150.357 34.1099Z" fill="black"/>
<path d="M155.591 40.2512C154.463 40.5805 153.29 41.0887 152.076 41.7875C143.927 46.492 137.325 58.0278 137.322 67.5288C137.326 68.975 137.481 70.294 137.763 71.4731C139.365 78.0238 145.168 80.2182 152.08 76.2187C160.222 71.51 166.835 59.9899 166.834 50.4775C166.831 42.3882 162.04 38.3624 155.591 40.2512Z" fill="#666666"/>
<path d="M137.575 38.6406L122.796 29.9893L113.139 57.907L127.918 66.5584L137.575 38.6406Z" fill="#C4720E"/>
<path d="M173.772 17.5898L158.993 8.93848L122.796 29.989L137.575 38.6403L173.772 17.5898Z" fill="#FFBE59"/>
<path d="M127.917 66.5579L132.682 74.4745L134.015 73.6972L159.724 58.7172L171.408 26.2312L173.773 19.6578V17.5879L137.572 38.6427L127.917 66.5579Z" fill="#C4720E"/>
<path opacity="0.3" d="M124.537 30.887L159.351 10.6401L162.931 12.7354L127.884 33.1178L118.965 58.9L115.54 56.8951L124.537 30.887Z" fill="white"/>
<path opacity="0.3" d="M132.497 71.1708L134.016 73.697L159.724 58.717L171.408 26.231L142.152 43.2471L132.497 71.1708Z" fill="#C4720E"/>
<path d="M154.613 93.9088L133.922 81.7969L115.239 92.6626L135.683 104.918L154.613 93.9088Z" fill="#666666"/>
<path d="M154.613 93.909L133.923 81.797L136.36 73.9966L157.051 86.1084L154.613 93.909Z" fill="#4D4D4D"/>
<path d="M180.412 72.5226L159.721 60.4106L136.36 73.9964L157.051 86.1083L180.412 72.5226Z" fill="#333333"/>
<path d="M131.797 93.5557L111.106 81.4438L102.421 101.899L123.111 114.011L131.797 93.5557Z" fill="#7C7C7C"/>
<path d="M123.112 114.01L131.798 85.1064L141.708 79.3368L139.642 102.609L154.614 93.9088L157.051 86.1082L180.412 72.5225L180.46 89.3577L113.518 128.288L101.903 135.043V126.345L123.112 114.01Z" fill="black"/>
<path d="M165.195 64.2248L147.46 53.8433L141.204 72.2955L158.939 82.6771L165.195 64.2248Z" fill="#333333"/>
<path d="M187.034 51.5237L169.299 41.1421L147.46 53.8428L165.195 64.2243L187.034 51.5237Z" fill="#FBB03B"/>
<path d="M165.195 64.225L158.939 82.6773L187.076 66.3141L187.034 51.5244L165.195 64.225Z" fill="#FBB03B"/>
<path d="M161.206 18.9378C161.447 17.0258 162.766 14.9949 164.266 14.1226C164.43 14.027 164.597 13.9456 164.764 13.8794C165.445 13.6101 166.039 13.6363 166.49 13.9003L185.826 25.2193C185.375 24.9553 184.781 24.929 184.1 25.1984C183.933 25.2644 183.766 25.3461 183.602 25.4415C182.102 26.314 180.784 28.3446 180.542 30.2568L177.302 56.0472L157.966 44.7282L161.206 18.9378Z" fill="#4D4D4D"/>
<path d="M140.373 54.9603L157.966 44.7285L177.302 56.0476L159.709 66.2791C157.992 67.2776 156.602 69.7022 156.608 71.6971C156.611 72.6843 156.958 73.379 157.516 73.7062L138.18 62.3871C137.621 62.0601 137.275 61.3653 137.272 60.3783C137.266 58.3833 138.656 55.9586 140.373 54.9603Z" fill="#4D4D4D"/>
<path d="M183.602 25.4413C182.102 26.3137 180.784 28.3445 180.542 30.2567L177.302 56.0471L159.709 66.2786C157.992 67.2771 156.602 69.7017 156.608 71.6966C156.614 73.6835 158.012 74.4865 159.729 73.4883L182.627 60.172L186.697 27.8225C186.965 25.701 185.804 24.5243 184.1 25.1982C183.933 25.2643 183.766 25.3459 183.602 25.4413Z" fill="black"/>
<path d="M155.49 26.0554L147.046 34.2003L133.665 40.976C131.934 40.4849 131.092 39.8815 132.216 38.1467L143.468 28.8664L150.338 19.7124C151.759 15.8879 154.615 13.2998 157.279 13.2251L155.49 26.0554Z" fill="#617A78"/>
<path d="M135.248 86.6561C135.007 88.4399 135.786 89.6642 135.463 91.3051C134.803 92.9199 132.6 93.2515 131.23 93.2885C128.586 93.3596 126.838 94.6441 123.361 94.6028C121.08 94.5758 120.236 93.8125 119.973 92.448C119.987 91.8367 120.415 91.2702 121.221 90.7435C121.221 90.7435 126.288 88.8571 126.42 88.7913C126.552 88.7256 129.391 86.6518 129.452 86.494C129.514 86.3361 130.82 82.7637 130.82 82.7637L136.053 83.5476L135.248 86.6561Z" fill="black"/>
<path d="M129.455 86.4904C130.081 88.6901 133.132 88.2812 136.457 87.5735C137.291 85.4624 138.081 83.3842 138.816 81.3612C141.307 74.5519 143.228 68.2844 144.183 62.9232L154.893 56.4786L160.71 52.9745L159.448 48.9506L159.085 47.812L158.46 45.8334L157.725 43.4678L157.45 42.6168L157.077 41.4229C155.091 42.506 153.137 43.6005 151.25 44.728C144.238 48.8844 138.114 53.3945 134.844 59.032C133 65.3771 131.222 75.7569 129.455 86.4904Z" fill="#617A78"/>
<path opacity="0.3" d="M136.6 80.8748L138.816 81.3612C141.307 74.5519 143.228 68.2843 144.183 62.9231L154.893 56.4786L160.71 52.9744L159.448 48.9506L159.085 47.812C154.915 52.7533 148.375 57.219 141.044 61.1432C140.89 68.66 140.166 77.6248 136.6 80.8748Z" fill="#004759"/>
<path d="M145.929 94.4677C145.66 95.3329 145.333 95.714 145.365 97.4412C145.052 99.2164 144.216 100.02 142.843 100.36C140.19 101.018 140.168 102.324 136.59 102.631C134.463 102.813 131.572 101.814 131.009 100.496C130.889 99.8761 131.411 99.0159 132.109 98.3061C132.109 98.3061 136.579 96.2122 136.698 96.1168C136.816 96.021 140.284 94.019 140.455 93.9814C140.88 93.8874 142.937 89.6099 142.628 89.5483L147.243 91.0891L145.929 94.4677Z" fill="black"/>
<path d="M140.451 93.9811C141.283 95.4434 143.034 95.8453 145.184 95.7895C145.682 95.7783 146.214 95.7448 146.757 95.689C146.957 95.2983 147.145 94.9076 147.334 94.528C151.756 85.6757 155.091 77.1358 156.743 69.0872C164.722 63.539 173.81 57.5891 175.527 54.3741C176.381 51.5944 176.791 49.1162 176.613 47.0399C176.613 46.9952 176.602 46.9394 176.602 46.8948C176.591 46.7831 176.58 46.6827 176.569 46.5822C176.569 46.5375 176.558 46.4928 176.558 46.4482C176.547 46.4036 176.536 46.3477 176.536 46.3031C176.392 45.41 176.137 44.6063 175.749 43.903L170.03 43.1328L161.641 42.0276L157.075 41.4248C157.02 42.1839 156.986 42.9541 156.986 43.7356C156.986 44.3049 156.998 44.8742 157.042 45.4212C157.131 46.7161 157.363 47.9776 157.807 49.1274C157.829 49.1944 157.851 49.2725 157.873 49.3395C158.35 50.7907 158.117 52.3982 157.164 53.6149L154.892 56.4727L148.475 64.5549C147.666 65.5484 147.09 66.7205 146.791 67.9708C144.364 78.5759 142.125 90.1298 140.451 93.9811Z" fill="#617A78"/>
<path opacity="0.3" d="M146.159 95.5324C146.569 95.2198 146.957 94.8849 147.334 94.5277C151.756 85.6753 155.091 77.1355 156.743 69.0869C164.722 63.5387 173.81 57.5888 175.527 54.3737C176.381 51.5941 176.791 49.1159 176.613 47.0395C176.613 46.9949 176.602 46.939 176.602 46.8945C176.414 46.8721 176.226 46.8609 176.037 46.8498C173.51 46.6935 170.961 46.6935 168.435 46.8609C166.938 46.9503 161.298 46.794 160.333 47.9773C159.713 48.7363 161.519 51.7504 161.641 53.09C161.852 55.2445 161.408 57.4995 160.555 59.4753C158.87 63.349 155.967 66.5416 154.05 70.3036C150.027 78.1736 150.636 87.9191 146.159 95.5324Z" fill="#004759"/>
<path d="M153.451 33.8225C153.451 35.7202 153.462 37.6626 153.474 39.6161C153.474 40.4422 153.485 41.2682 153.496 42.0943C153.496 42.6414 153.507 43.1884 153.507 43.7353C153.573 46.3922 169.011 55.1665 175.084 50.3775C175.716 49.8974 177.079 49.4509 177.079 48.7253C176.902 47.0174 176.802 45.421 176.769 43.9139C176.713 42.1613 176.758 40.5315 176.846 39.0022C177.245 31.5787 178.775 26.7339 177.456 22.2462C177.4 22.0006 177.323 21.7997 177.245 21.5876C177.157 21.342 177.046 21.1075 176.913 20.862C175.062 17.4572 169.565 14.3427 166.285 13.3938C162.783 12.3779 156.987 13.2487 156.987 13.2487C156.987 13.2487 153.573 19.3661 153.518 25.7961C153.462 28.2743 153.451 30.9981 153.451 33.8225Z" fill="#FF4C00"/>
<path d="M153.451 33.8223C153.451 35.72 153.462 37.6624 153.473 39.6159C156.178 41.2793 165.531 46.7269 170.485 46.0347C174.275 45.499 176.015 44.5278 176.769 43.9137C176.713 42.1611 176.758 40.5313 176.846 39.002C175.827 39.7722 173.244 41.5695 170.906 41.8262C168.025 42.1277 156.399 37.7963 153.451 33.8223Z" fill="white"/>
<path opacity="0.5" d="M153.496 42.0946C153.496 42.6417 153.507 43.1887 153.507 43.7357C153.573 46.3925 169.011 55.1668 175.084 50.3778C175.716 49.8977 177.079 49.4512 177.079 48.7256C175.672 35.3297 179.273 28.4421 177.456 22.2466C177.383 21.9244 177.19 21.3746 176.913 20.8623C175.689 24.2331 173.024 31.073 168.922 36.8441C164.913 42.4847 157.279 43.0603 153.496 42.0946Z" fill="#D36300"/>
<path d="M176.17 31.9657C175.064 34.2432 172.034 39.613 169.958 43.2494C168.633 45.5692 166.417 47.2329 163.832 47.8498L150.982 51.0666C149.05 51.4991 147.261 47.751 149.193 46.5979L162.932 41.5523L168.871 28.2175C168.871 28.2175 172.687 19.9675 176.027 21.0095C179.368 22.0512 177.816 28.5778 176.17 31.9657Z" fill="#617A78"/>
<path d="M143.236 46.1831L141.071 47.1381C140.457 47.8071 140.582 48.2256 141.268 48.4536L142.538 48.3095L143.236 46.1831Z" fill="white"/>
<path d="M142.616 58.5581C143.026 58.5581 143.421 58.5103 143.796 58.4112C145.044 58.082 145.968 57.2513 146.469 56.0088C147.423 53.6447 146.708 50.0891 144.558 46.4984C141.344 41.1329 136.103 37.6507 132.622 38.5684C131.374 38.8976 130.45 39.7283 129.949 40.9709C128.995 43.335 129.71 46.8906 131.86 50.4813C134.727 55.2687 139.211 58.5581 142.616 58.5581ZM133.842 40.5781C136.211 40.5781 140.059 43.1738 142.72 47.615C144.468 50.5356 145.159 53.5105 144.48 55.1949C144.237 55.7975 143.835 56.1654 143.252 56.3195C141.01 56.9114 136.63 54.2594 133.699 49.3646C131.95 46.444 131.259 43.4687 131.938 41.7847C132.181 41.1822 132.583 40.8141 133.166 40.6602C133.374 40.6052 133.601 40.5781 133.842 40.5781Z" fill="black"/>
<path d="M134.349 40.6106L133.182 42.2324L131.833 43.5028L131.277 44.0096C130.492 44.6918 129.988 43.7122 130.532 43.1107L131.639 42.0024L132.323 41.1242C133.011 40.556 133.683 40.5041 134.349 40.6106Z" fill="white"/>
<path d="M133.325 38.4164L132.556 38.2183L130.981 38.6688L129.139 40.1282C128.768 40.4291 128.617 40.8435 128.584 41.3176C128.331 41.6157 128.247 41.9896 128.28 42.4168C128.142 42.9101 128.153 43.3476 128.352 43.7144C128.132 44.1226 128.433 44.4437 128.62 44.7955L129.389 45.4262L130.606 45.21C131.107 45.0839 131.089 44.7053 130.695 44.5613L130.266 44.3629L131.483 42.597L131.525 42.1771C131.561 41.8152 131.313 41.4875 130.957 41.4276C130.946 41.4257 130.57 40.2365 130.57 40.2365C131.196 39.2678 132.073 38.6094 133.325 38.4164Z" fill="white"/>
<path d="M150.66 50.598C151.503 49.5325 151.14 48.3465 150.195 47.1021L149.264 46.9579L146.975 45.9488L143.996 45.6064L144.417 46.3003L143.325 47.4266L145.862 52.3513L148.299 51.7875L150.66 50.598Z" fill="white"/>
<path d="M146.402 52.2016L144.87 52.5606L143.977 52.8186C143.524 52.9494 143.047 52.7173 142.866 52.2794L142.663 51.7871C142.22 51.8098 141.922 51.5701 141.863 51.2333L141.822 50.3454L141.645 50.3115C141.308 50.247 141.059 49.9585 141.042 49.6137C141.027 49.3143 141.191 49.0349 141.458 48.9037L141.715 48.7777L141.598 48.3396C141.49 47.9382 142.08 47.3341 142.457 47.1649C143.512 47.1348 144.008 47.0306 144.542 46.2368L146.402 52.2016Z" fill="white"/>
<path d="M139.533 42.4043L137.733 48.4903L143.236 57.5554L141.041 57.6262L136.432 49.6289L131.193 48.4903L130.756 47.0074L135.72 47.319L138.209 41.4229L139.533 42.4043Z" fill="black"/>
<path d="M145.501 55.9857L121.854 42.1436L113.934 55.8724C120.524 60.9823 128.6 65.5221 137.58 69.7145L145.501 55.9857Z" fill="#FFBE59"/>
<path d="M102.611 111.457L78.9646 97.6147L79.0042 112.518L102.651 126.36L102.611 111.457Z" fill="white"/>
<path d="M102.611 111.457L78.9646 97.6147L79.0042 112.518L102.651 126.36L102.611 111.457Z" fill="#FBB03B"/>
<path d="M108.919 91.4525L85.2719 77.6104L78.9647 97.615L102.611 111.457L108.919 91.4525Z" fill="#FBB03B"/>
<path d="M105.909 92.623L86.72 81.3906L80.8825 99.0981L100.071 110.33L105.909 92.623Z" fill="#C4720E"/>
<path d="M137.58 69.7147L113.933 55.8726L85.2717 77.6104L108.918 91.4525L137.58 69.7147Z" fill="#FFBE59"/>
<path opacity="0.5" d="M133.037 69.9874L114.113 58.9097L95.3309 77.3794C94.3094 78.3839 94.5199 80.0927 95.7542 80.8153L102.382 84.695C103.397 85.2892 104.645 85.3109 105.68 84.7524L133.037 69.9874Z" fill="#C4720E"/>
<path d="M102.612 111.455L102.654 125.413V127.677L131.617 110.838L133.353 90.1975L145.121 82.8807L151.764 62.5611L148.518 59.1561L145.498 55.9878L137.58 69.7173L108.919 91.4564L102.612 111.455Z" fill="#C4720E"/>
<path d="M102.612 111.455L102.654 125.413V127.677L131.617 110.838L133.353 90.1975L145.121 82.8807L151.764 62.5611L148.518 59.1561L145.498 55.9878L137.58 69.7173L108.919 91.4564L102.612 111.455Z" fill="#C4720E"/>
<path opacity="0.3" d="M102.654 117.029V127.677L131.617 110.838L133.353 90.1976L145.121 82.8809L151.764 62.5612L148.518 59.1562L140.493 77.2194L124.743 87.4938L102.654 117.029Z" fill="#C4720E"/>
<path d="M161.113 102.807L161.104 99.6642L161.923 99.0637L162.21 96.3278L161.496 95.9098L162.189 92.4646L163.009 92.1182L163.966 88.8564L163.358 88.5003L164.705 84.9912L165.467 84.9147L167.072 81.5474L166.566 81.084L168.477 77.7499L169.138 77.9495L171.226 74.8661L170.908 74.1697L173.255 71.2279L173.865 71.5855L176.199 69.1059L176.084 68.2229L178.706 65.8849L179.411 66.2976L181.642 64.6616L181.746 63.651L184.461 62.0719L185.38 62.6099L187.196 61.8286L187.504 60.7678L190.131 60.0538L191.588 60.9066L192.472 60.8158L192.967 59.7637L195.323 59.9709L197.434 61.2068L197.766 60.7171L199.689 61.8212L212.695 69.4345L212.458 69.9304L214.572 71.1678L215.94 73.0979L215.283 74.0574L215.63 74.8217L217.122 75.6949L217.832 78.3241L217.072 79.1259L217.313 81.0665L218.243 81.6113L218.252 84.7539L217.433 85.3544L217.15 88.0924L217.86 88.5083L217.167 91.9536L216.348 92.2999L215.39 95.5556L216.004 95.9146L214.651 99.4269L213.89 99.5034L212.285 102.864L212.79 103.334L210.879 106.668L210.224 106.466L208.13 109.552L208.449 110.249L206.102 113.184L205.496 112.829L203.158 115.312L203.273 116.195L200.651 118.533L199.942 118.118L197.715 119.756L197.611 120.767L194.895 122.346L193.974 121.807L192.166 122.58L191.852 123.65L189.226 124.364L187.767 123.51L186.89 123.599L186.389 124.648L184.034 124.447L181.924 123.212L181.591 123.701L179.668 122.597L166.662 114.984L166.898 114.487L164.785 113.25L163.422 111.317L164.074 110.355L163.729 109.598L162.235 108.723L161.525 106.094L162.29 105.283L162.046 103.353L161.113 102.807Z" fill="#333333"/>
<path d="M200.338 117.828L187.332 110.214L187.645 110.92L200.651 118.533L200.338 117.828Z" fill="black"/>
<path d="M217.861 88.5082L204.855 80.895L204.093 80.9716L217.099 88.5847L217.861 88.5082Z" fill="black"/>
<path d="M194.786 121.459L181.78 113.846L181.89 114.732L194.896 122.345L194.786 121.459Z" fill="black"/>
<path d="M218.243 81.6107L205.238 73.9976L204.418 74.3501L217.424 81.9633L218.243 81.6107Z" fill="black"/>
<path d="M189.336 123.351L176.33 115.737L176.22 116.751L189.226 124.364L189.336 123.351Z" fill="black"/>
<path d="M217.122 75.6948L204.116 68.0815L203.297 68.6882L216.303 76.3014L217.122 75.6948Z" fill="black"/>
<path d="M184.347 123.383L171.342 115.77L171.028 116.834L184.034 124.447L184.347 123.383Z" fill="black"/>
<path d="M214.572 71.1674L201.566 63.5542L200.807 64.3621L213.812 71.9754L214.572 71.1674Z" fill="black"/>
<path d="M180.169 121.541L167.163 113.928L166.662 114.983L179.668 122.596L180.169 121.541Z" fill="black"/>
<path d="M210.771 68.3304L197.766 60.7173L197.114 61.6799L210.12 69.2931L210.771 68.3304Z" fill="black"/>
<path d="M178.55 120.055L165.544 112.442L167.163 113.928L180.169 121.541L178.55 120.055Z" fill="#1A1A1A"/>
<path d="M210.12 69.2927L197.114 61.6796L195.009 61.0347L208.015 68.6479L210.12 69.2927Z" fill="#1A1A1A"/>
<path d="M177.08 117.967L164.074 110.354L163.422 111.317L176.428 118.93L177.08 117.967Z" fill="black"/>
<path d="M205.973 67.3768L192.968 59.7637L192.472 60.8157L205.478 68.4289L205.973 67.3768Z" fill="black"/>
<path d="M176.06 115.729L163.054 108.116L164.074 110.354L177.08 117.967L176.06 115.729Z" fill="#1A1A1A"/>
<path d="M205.478 68.4286L192.472 60.8154L190.021 61.0672L203.027 68.6804L205.478 68.4286Z" fill="#1A1A1A"/>
<path d="M175.295 112.896L162.29 105.283L161.525 106.094L174.531 113.707L175.295 112.896Z" fill="black"/>
<path d="M200.51 68.3808L187.504 60.7676L187.196 61.8284L200.202 69.4416L200.51 68.3808Z" fill="black"/>
<path d="M174.939 110.067L161.933 102.454L162.29 105.282L175.295 112.895L174.939 110.067Z" fill="#1A1A1A"/>
<path d="M200.202 69.4418L187.196 61.8286L184.571 62.958L197.577 70.5712L200.202 69.4418Z" fill="#1A1A1A"/>
<path d="M174.929 106.677L161.924 99.0635L161.105 99.6639L174.11 107.277L174.929 106.677Z" fill="black"/>
<path d="M194.752 71.2641L181.746 63.6509L181.642 64.6616L194.647 72.2747L194.752 71.2641Z" fill="black"/>
<path d="M175.269 103.437L162.263 95.8237L161.923 99.0634L174.929 106.677L175.269 103.437Z" fill="#1A1A1A"/>
<path d="M194.647 72.2743L181.642 64.6611L179.024 66.5808L192.03 74.194L194.647 72.2743Z" fill="#1A1A1A"/>
<path d="M176.015 99.7313L163.009 92.1182L162.189 92.4645L175.195 100.078L176.015 99.7313Z" fill="black"/>
<path d="M189.089 75.8363L176.084 68.2231L176.199 69.1061L189.204 76.7193L189.089 75.8363Z" fill="black"/>
<path d="M177.019 96.3104L164.013 88.6973L163.009 92.1186L176.015 99.7318L177.019 96.3104Z" fill="#1A1A1A"/>
<path d="M189.204 76.7186L176.199 69.1055L173.76 71.6972L186.766 79.3103L189.204 76.7186Z" fill="#1A1A1A"/>
<path d="M180.078 89.1605L167.072 81.5474L165.467 84.9146L178.473 92.5278L180.078 89.1605Z" fill="#1A1A1A"/>
<path d="M184.232 82.4789L171.227 74.8657L169.138 77.9492L182.144 85.5624L184.232 82.4789Z" fill="#1A1A1A"/>
<path d="M178.473 92.5278L165.467 84.9146L164.705 84.9911L177.711 92.6043L178.473 92.5278Z" fill="black"/>
<path d="M183.914 81.7827L170.908 74.1694L171.227 74.8659L184.232 82.4791L183.914 81.7827Z" fill="black"/>
<path d="M182.144 85.5628L169.138 77.9496L168.477 77.75L181.483 85.3632L182.144 85.5628Z" fill="black"/>
<path d="M194.752 71.2633L194.647 72.2739L192.03 74.1936L191.711 73.4971L189.089 75.8352L189.204 76.7182L186.766 79.3099L186.26 78.8402L183.914 81.7819L184.232 82.4783L182.143 85.5618L181.483 85.3622L179.572 88.6963L180.078 89.1597L178.473 92.527L177.711 92.6035L176.364 96.1126L177.019 96.3091L176.015 99.7305L175.195 100.077L174.502 103.522L175.269 103.436L174.929 106.676L174.11 107.276L174.119 110.419L174.939 110.067L175.295 112.895L174.531 113.706L175.241 116.336L176.06 115.729L177.08 117.967L176.428 118.929L177.791 120.863L178.55 120.055L180.169 121.541L179.668 122.596L181.591 123.7L182.248 122.734L184.347 123.382L184.034 124.446L186.389 124.647L186.89 123.598L189.336 123.35L189.226 124.363L191.852 123.649L192.166 122.579L194.786 121.459L194.896 122.345L197.611 120.766L197.715 119.756L200.338 117.827L200.651 118.532L203.273 116.194L203.158 115.311L205.602 112.716L206.102 113.183L208.449 110.248L208.13 109.551L210.224 106.465L210.879 106.667L212.79 103.333L212.285 102.864L213.89 99.5025L214.651 99.426L216.004 95.9138L215.344 95.7142L216.348 92.299L217.167 91.9527L217.86 88.5074L217.099 88.5839L217.433 85.3535L218.252 84.7531L218.243 81.6104L217.424 81.963L217.072 79.125L217.832 78.3232L217.122 75.694L216.303 76.3006L215.283 74.0565L215.94 73.097L214.572 71.1669L213.812 71.9749L212.194 70.4825L212.695 69.4335L210.771 68.3294L210.12 69.292L208.015 68.6471L208.329 67.5832L205.973 67.376L205.477 68.4281L203.027 68.6798L203.136 67.666L200.51 68.3801L200.202 69.4409L197.577 70.5703L197.467 69.6842L194.752 71.2633Z" fill="black"/>
<path d="M199.986 77.4051C198.858 77.7343 197.685 78.2425 196.471 78.9414C188.322 83.6459 181.719 95.1816 181.717 104.683C181.721 106.129 181.875 107.448 182.158 108.627C183.76 115.178 189.563 117.372 196.475 113.372C204.617 108.664 211.23 97.1438 211.229 87.6313C211.226 79.5419 206.434 75.5162 199.986 77.4051Z" fill="#B3B3B3"/>
<path d="M199.986 77.4053C198.858 77.7346 197.685 78.2427 196.471 78.9416C188.322 83.6461 181.719 95.1818 181.717 104.683C181.721 106.129 181.875 107.448 182.158 108.627C184.476 111.156 188.326 111.453 192.68 108.942C199.775 104.843 205.525 94.8118 205.526 86.5296C205.526 81.4271 203.329 78.179 199.986 77.4053Z" fill="#D4EEFF"/>
<path d="M199.986 77.4053C198.858 77.7346 197.685 78.2427 196.471 78.9416C188.322 83.6461 181.719 95.1818 181.717 104.683C181.721 106.129 181.875 107.448 182.158 108.627C184.476 111.156 188.326 111.453 192.68 108.942C199.775 104.843 205.525 94.8118 205.526 86.5296C205.526 81.4271 203.329 78.179 199.986 77.4053Z" fill="#E6E6E6"/>
<path d="M194.011 89.0621C193.705 89.1571 193.385 89.293 193.055 89.4812C192.673 89.708 192.303 89.9809 191.953 90.3042C190.607 91.5211 189.553 93.3766 189.18 95.1596C189.085 95.6119 189.04 96.0634 189.033 96.4982C189.039 96.8923 189.078 97.2467 189.153 97.5729C189.591 99.3596 191.175 99.9588 193.059 98.869C195.277 97.5836 197.077 94.4447 197.081 91.852C197.077 89.6449 195.771 88.5439 194.011 89.0621Z" fill="#808080"/>
<path d="M191.953 90.3041C190.607 91.521 189.553 93.3765 189.18 95.1595C189.465 96.0473 190.302 96.3288 191.302 95.7495C192.532 95.0404 193.526 93.3062 193.525 91.8715C193.527 90.702 192.868 90.0944 191.953 90.3041Z" fill="#333333"/>
<path d="M197.886 95.7256C197.817 95.7455 197.746 95.7762 197.673 95.8185C197.18 96.1031 196.781 96.8008 196.781 97.3754C196.781 97.4629 196.79 97.5427 196.807 97.614C196.904 98.0103 197.255 98.143 197.673 97.901C198.166 97.6163 198.566 96.9195 198.566 96.3441C198.565 95.8548 198.276 95.6113 197.886 95.7256Z" fill="black"/>
<path d="M197.886 95.7256C197.817 95.7455 197.746 95.7762 197.673 95.8185C197.18 96.1031 196.781 96.8008 196.781 97.3754C196.781 97.4629 196.79 97.5427 196.807 97.614C196.904 98.0103 197.255 98.143 197.673 97.901C198.166 97.6163 198.566 96.9195 198.566 96.3441C198.565 95.8548 198.276 95.6113 197.886 95.7256Z" fill="black"/>
<path d="M188.261 90.1284C188.193 90.1483 188.122 90.1791 188.048 90.2214C187.555 90.5059 187.156 91.2036 187.156 91.7783C187.156 91.8658 187.166 91.9455 187.183 92.0168C187.279 92.4131 187.63 92.5458 188.049 92.3039C188.541 92.0191 188.941 91.3223 188.941 90.7469C188.941 90.2577 188.651 90.0142 188.261 90.1284Z" fill="black"/>
<path d="M188.261 90.1284C188.193 90.1483 188.122 90.1791 188.048 90.2214C187.555 90.5059 187.156 91.2036 187.156 91.7783C187.156 91.8658 187.166 91.9455 187.183 92.0168C187.279 92.4131 187.63 92.5458 188.049 92.3039C188.541 92.0191 188.941 91.3223 188.941 90.7469C188.941 90.2577 188.651 90.0142 188.261 90.1284Z" fill="black"/>
<path d="M188.444 101.048C188.376 101.068 188.305 101.099 188.232 101.141C187.739 101.426 187.34 102.124 187.34 102.698C187.34 102.786 187.349 102.865 187.366 102.937C187.463 103.333 187.814 103.466 188.232 103.224C188.725 102.939 189.125 102.242 189.125 101.667C189.124 101.178 188.835 100.934 188.444 101.048Z" fill="black"/>
<path d="M188.444 101.048C188.376 101.068 188.305 101.099 188.232 101.141C187.739 101.426 187.34 102.124 187.34 102.698C187.34 102.786 187.349 102.865 187.366 102.937C187.463 103.333 187.814 103.466 188.232 103.224C188.725 102.939 189.125 102.242 189.125 101.667C189.124 101.178 188.835 100.934 188.444 101.048Z" fill="black"/>
<path d="M197.601 85.0723C197.533 85.0922 197.462 85.1229 197.389 85.1652C196.896 85.4498 196.496 86.1475 196.496 86.7222C196.496 86.8096 196.506 86.8894 196.523 86.9607C196.62 87.3569 196.971 87.4896 197.389 87.2477C197.881 86.963 198.281 86.2662 198.281 85.6908C198.281 85.2015 197.991 84.958 197.601 85.0723Z" fill="black"/>
<path d="M197.601 85.0723C197.533 85.0922 197.462 85.1229 197.389 85.1652C196.896 85.4498 196.496 86.1475 196.496 86.7222C196.496 86.8096 196.506 86.8894 196.523 86.9607C196.62 87.3569 196.971 87.4896 197.389 87.2477C197.881 86.963 198.281 86.2662 198.281 85.6908C198.281 85.2015 197.991 84.958 197.601 85.0723Z" fill="black"/>
<path d="M188.459 107.26C189.858 107.26 191.417 106.763 193.012 105.788C198.367 102.52 202.843 94.7103 202.991 88.3793C203.058 85.494 202.214 83.2419 200.614 82.0382C199.246 81.0092 197.463 80.8063 195.451 81.4572C194.69 81.7023 193.9 82.0723 193.104 82.5571C187.752 85.8187 183.275 93.6282 183.125 99.9657C183.105 100.924 183.182 101.821 183.354 102.635C183.804 104.72 184.871 106.18 186.44 106.859C187.059 107.127 187.738 107.26 188.459 107.26ZM197.648 81.9304C198.585 81.9304 199.419 82.1933 200.112 82.7151C201.488 83.7506 202.213 85.7552 202.153 88.3595C202.01 94.4351 197.715 101.929 192.578 105.065C190.396 106.398 188.335 106.76 186.77 106.083C185.461 105.517 184.564 104.263 184.174 102.457C184.016 101.709 183.944 100.876 183.963 99.9843C184.107 93.9034 188.403 86.4095 193.538 83.2799C194.278 82.8298 195.008 82.487 195.707 82.2617C196.391 82.0406 197.041 81.9304 197.648 81.9304Z" fill="#B3B3B3"/>
<path d="M181.874 64.4033L167.095 55.752L157.438 83.6697L172.217 92.321L181.874 64.4033Z" fill="#FBB03B"/>
<path d="M218.071 43.3525L203.292 34.7012L167.095 55.7516L181.874 64.403L218.071 43.3525Z" fill="#FFBE59"/>
<path d="M181.874 64.4025L172.217 92.3203L173.815 92.322L182.978 65.8344L218.077 45.4224L218.071 43.3521L181.874 64.4025Z" fill="#C4720E"/>
<path d="M181.874 64.4025L172.217 92.3203L173.815 92.322L182.978 65.8344L218.077 45.4224L218.071 43.3521L181.874 64.4025Z" fill="#C4720E"/>
<path d="M100.511 122.698L99.0626 121.856V113.668L100.511 114.51V122.698Z" fill="black"/>
<path d="M97.9216 121.192L96.4735 120.35V112.162L97.9216 113.004V121.192Z" fill="black"/>
<path d="M95.3325 119.686L93.8844 118.844V110.656L95.3325 111.498V119.686Z" fill="black"/>
<path d="M92.7437 118.181L91.2956 117.339V109.151L92.7437 109.993V118.181Z" fill="black"/>
<path d="M90.1543 116.676L88.7062 115.834V107.646L90.1543 108.488V116.676Z" fill="black"/>
<path d="M87.5652 115.17L86.1171 114.328V106.14L87.5652 106.982V115.17Z" fill="black"/>
<path d="M84.9761 113.664L83.528 112.822V104.634L84.9761 105.476V113.664Z" fill="black"/>
<path d="M82.3872 112.158L80.9391 111.316V103.128L82.3872 103.97V112.158Z" fill="black"/>
<path d="M121.223 99.0951L116.442 101.866C117.128 101.47 117.607 100.714 117.788 99.6646C115.642 99.4777 113.618 98.275 112.46 96.2537C111.297 94.2261 111.279 91.8504 112.2 89.8815C111.216 89.5173 110.335 89.5544 109.654 89.9476L114.435 87.1767C114.472 87.1552 114.513 87.1409 114.551 87.1216C114.683 87.032 114.817 86.9449 114.957 86.8635C118.221 84.9653 122.395 86.0918 124.28 89.3796C126.164 92.6675 125.046 96.8716 121.782 98.7698C121.652 98.8452 121.521 98.9142 121.388 98.9801C121.333 99.0187 121.281 99.0616 121.223 99.0951Z" fill="#FBB03B"/>
<path d="M118.821 99.812C118.553 99.9671 118.356 100.081 118.286 100.122C118.314 100.006 118.339 99.8869 118.36 99.7646C118.517 99.7578 118.668 99.7884 118.821 99.812Z" fill="#999999"/>
<path d="M116.638 88.151C113.665 89.8804 113.377 90.0506 113.932 89.7309C113.857 89.7741 113.78 89.8191 113.701 89.8647C113.155 89.4509 112.397 89.258 112.071 89.2227C112.237 89.1266 112.392 89.0369 112.541 88.9503C111.986 89.27 112.274 89.0998 115.248 87.3704C117.469 86.0786 120.158 86.3242 122.097 87.7743C120.376 87.0757 118.366 87.1461 116.638 88.151Z" fill="white"/>
<path d="M116.615 98.607C116.615 95.9528 114.77 92.7328 112.495 91.419C110.22 90.1042 108.375 91.1916 108.375 93.8463C108.375 96.5003 110.22 99.7185 112.495 101.032C114.77 102.347 116.615 101.262 116.615 98.607Z" fill="#CCCCCC"/>
<path d="M117.871 98.6941C117.871 101.802 115.712 103.073 113.048 101.534C112.469 101.199 111.913 100.759 111.399 100.244C111.295 100.139 111.191 100.035 111.087 99.9308C111.526 100.371 112 100.747 112.495 101.033C114.77 102.347 116.616 101.262 116.615 98.6072C116.616 95.953 114.77 92.733 112.495 91.4192C110.22 90.1044 108.375 91.1918 108.375 93.8465C108.375 94.4066 108.457 94.9918 108.608 95.5789C108.571 95.4359 108.535 95.2929 108.498 95.1499C108.321 94.4624 108.225 93.777 108.225 93.121C108.225 90.0125 110.384 88.7405 113.048 90.2795C115.712 91.8185 117.871 95.5856 117.871 98.6941Z" fill="#C4720E"/>
<path d="M112.597 100.185C110.751 99.0542 109.208 96.3635 109.152 94.1772C109.096 91.9904 110.547 91.1344 112.393 92.2664C114.239 93.3976 115.782 96.0898 115.838 98.2762C115.894 100.463 114.443 101.318 112.597 100.185Z" fill="white"/>
<path d="M115.81 98.8984C115.836 98.7041 115.846 98.499 115.84 98.2765C115.781 96.091 114.237 93.3974 112.394 92.2661C112.214 92.1552 112.038 92.0649 111.868 91.9912C110.279 91.3139 109.102 92.2043 109.153 94.178C109.208 96.3625 110.751 99.0535 112.597 100.186C114.257 101.204 115.598 100.617 115.81 98.8984Z" fill="white"/>
<path d="M115.81 98.8984C115.836 98.7041 115.846 98.499 115.84 98.2765C115.781 96.0909 114.237 93.3974 112.394 92.2661C112.214 92.1552 112.038 92.0649 111.868 91.9912C111.465 92.3708 111.206 92.9606 111.163 93.7222C111.06 95.6029 112.327 97.8126 113.991 98.6558C114.658 98.9943 115.289 99.0596 115.81 98.8984Z" fill="#FFF8B3"/>
<path opacity="0.3" d="M92.057 79.4585L88.708 77.498L115.621 57.0861L122.869 44.5225L126.333 46.5501L118.968 59.3169L92.057 79.4585Z" fill="white"/>
<path opacity="0.3" d="M168.882 56.97L203.696 36.7231L207.276 38.8184L172.228 59.2008L163.31 84.983L159.885 82.9781L168.882 56.97Z" fill="white"/>
<path d="M71.528 185.05L7.29563 147.695C2.78809 145.074 0.000175476 139.453 0.000175476 131.452C0.000114441 115.452 11.1519 95.9957 24.9085 87.9956C31.7867 83.9955 38.0138 83.6167 42.5213 86.2381L106.754 123.593L71.528 185.05Z" fill="#B3B3B3"/>
<path d="M71.6232 185.105C61.8435 179.54 61.7582 161.246 71.4328 144.245C81.1074 127.244 96.8782 117.973 106.658 123.538C116.438 129.103 116.523 147.397 106.848 164.398C97.1738 181.4 81.403 190.671 71.6232 185.105Z" fill="#E6E6E6"/>
<path d="M100.526 125.407C97.1974 125.03 93.3086 125.965 89.1424 128.389C76.8245 135.547 66.8392 152.968 66.8446 167.292C66.8438 172.138 67.9842 175.998 69.9723 178.714C73.8594 184.055 80.9881 184.991 89.14 180.258C101.448 173.095 111.434 155.674 111.438 141.355C111.432 131.878 107.062 126.127 100.526 125.407Z" fill="#808080"/>
<path d="M100.527 125.407C97.1975 125.03 93.3087 125.965 89.1425 128.389C76.8246 135.547 66.8393 152.968 66.8447 167.292C66.8439 172.138 67.9843 175.998 69.9724 178.714C73.3014 179.09 77.1998 178.161 81.366 175.737C93.6743 168.574 103.66 151.153 103.664 136.834C103.665 131.988 102.515 128.123 100.527 125.407Z" fill="black"/>
<path d="M85.4768 143.864C81.492 146.18 78.2694 151.803 78.2832 156.415C78.2954 161.027 81.539 162.889 85.5238 160.571C89.5083 158.254 92.7283 152.634 92.7146 148.022C92.7023 143.409 89.4613 141.546 85.4768 143.864Z" fill="#333333"/>
<path d="M85.4768 143.864C81.492 146.18 78.2694 151.803 78.2832 156.415C78.2954 161.027 81.539 162.889 85.5238 160.571C89.5083 158.254 92.7283 152.634 92.7146 148.022C92.7023 143.409 89.4613 141.546 85.4768 143.864Z" fill="black"/>
<path d="M84.511 141.876C89.1772 139.162 92.9691 141.342 92.9843 146.743C92.9876 147.917 92.8121 149.147 92.4873 150.381C92.4217 150.63 92.356 150.88 92.2904 151.129C92.5677 150.075 92.7177 149.025 92.7147 148.022C92.7024 143.409 89.4614 141.546 85.4769 143.864C81.492 146.181 78.2695 151.803 78.2833 156.415C78.2955 161.027 81.5391 162.889 85.5239 160.571C86.3648 160.082 87.1716 159.446 87.9212 158.704C87.7386 158.884 87.556 159.065 87.3734 159.246C86.4958 160.116 85.5509 160.861 84.566 161.433C79.8997 164.147 76.105 161.969 76.0898 156.568C76.0746 151.167 79.8447 144.589 84.511 141.876Z" fill="#CCCCCC"/>
<path d="M86.9787 146.011C86.5614 146.126 86.1159 146.327 85.6533 146.618C83.032 148.254 80.8338 152.089 80.7469 155.178C80.7327 155.71 80.7801 156.187 80.8875 156.603C81.3891 158.595 83.1748 159.169 85.3438 157.816C87.9689 156.183 90.1671 152.347 90.2501 149.256C90.3201 146.712 88.9384 145.459 86.9787 146.011Z" fill="#B3B3B3"/>
<path d="M86.9786 146.01C86.5614 146.126 86.1159 146.326 85.6533 146.618C84.4981 147.339 83.4201 148.494 82.575 149.82C82.3566 150.157 82.1548 150.509 81.9702 150.866C81.2426 152.276 80.7842 153.801 80.7469 155.178C80.7327 155.709 80.7801 156.186 80.8875 156.602C81.6161 157.036 82.6523 156.942 83.8133 156.219C86.1135 154.785 88.0323 151.429 88.11 148.723C88.1483 147.362 87.7084 146.425 86.9786 146.01Z" fill="white"/>
<path d="M84.561 148.873C84.4094 148.927 84.2457 149.014 84.0739 149.136C83.1007 149.821 82.2302 151.34 82.1309 152.525C82.1141 152.73 82.1205 152.911 82.1497 153.068C82.2849 153.82 82.9106 154 83.7159 153.433C84.6903 152.748 85.5608 151.23 85.6588 150.043C85.74 149.067 85.2737 148.618 84.561 148.873Z" fill="#333333"/>
<path d="M85.8452 151.693C85.8059 151.707 85.7634 151.729 85.7188 151.761C85.4662 151.939 85.2402 152.333 85.2144 152.641C85.2101 152.694 85.2118 152.741 85.2194 152.782C85.2544 152.977 85.4169 153.023 85.6259 152.876C85.8788 152.699 86.1048 152.304 86.1302 151.996C86.1513 151.743 86.0302 151.626 85.8452 151.693Z" fill="#333333"/>
<path d="M82.0743 154.137C82.0348 154.151 81.9924 154.174 81.9478 154.206C81.6952 154.383 81.4692 154.778 81.4435 155.085C81.4391 155.138 81.4407 155.186 81.4483 155.226C81.4834 155.422 81.6458 155.468 81.8549 155.321C82.1078 155.143 82.3337 154.749 82.3592 154.441C82.3802 154.188 82.2593 154.071 82.0743 154.137Z" fill="#333333"/>
<path d="M86.0347 147.228C85.9953 147.242 85.9528 147.265 85.9082 147.296C85.6556 147.474 85.4297 147.869 85.4039 148.176C85.3995 148.229 85.4012 148.276 85.4088 148.317C85.4439 148.512 85.6063 148.559 85.8153 148.412C86.0683 148.234 86.2942 147.84 86.3196 147.532C86.3407 147.279 86.2197 147.162 86.0347 147.228Z" fill="#333333"/>
<path d="M82.5749 149.82C82.3565 150.158 82.1547 150.51 81.9701 150.867C82.004 150.851 82.038 150.836 82.0726 150.81C82.3242 150.634 82.5521 150.236 82.5761 149.932C82.5805 149.889 82.5807 149.854 82.5749 149.82Z" fill="#333333"/>
<path d="M75.5488 134.6L15.2204 99.5152C17.5925 96.7208 20.1516 94.2954 22.8113 92.3286L82.8999 127.274C80.3174 129.362 77.8418 131.82 75.5488 134.6Z" fill="white"/>
<path d="M87.9956 123.713C87.2617 124.14 86.535 124.61 85.8124 125.1L25.9156 90.2663C25.9375 90.2536 25.9589 90.2389 25.9807 90.2261C27.1788 89.5294 28.3563 88.9537 29.5077 88.4883L89.0791 123.132C88.7179 123.326 88.3585 123.502 87.9956 123.713Z" fill="white"/>
<path d="M134.403 125.675L124.564 119.953C123.276 119.204 122.479 117.598 122.479 115.312C122.479 110.74 125.665 105.181 129.596 102.895C131.562 101.752 133.341 101.643 134.629 102.393L144.468 108.115L134.403 125.675Z" fill="black"/>
<path d="M134.43 125.691C131.636 124.101 131.612 118.873 134.376 114.015C137.14 109.158 141.647 106.509 144.441 108.099C147.235 109.689 147.26 114.916 144.495 119.774C141.731 124.632 137.225 127.281 134.43 125.691Z" fill="#E6E6E6"/>
<path d="M81.6913 141.879L142.772 102.296C142.932 102.193 143.09 102.095 143.248 102.003C145.499 100.695 147.553 100.57 149.037 101.439L156.848 106.011C158.295 106.848 159.213 108.661 159.22 111.263L159.243 119.379C159.258 124.607 155.593 130.943 151.134 133.536C150.977 133.628 150.818 133.715 150.658 133.797L89.5551 165.263C87.4356 166.354 85.5457 166.381 84.1675 165.536C84.1896 165.55 84.2089 165.568 84.2312 165.581L76.4203 161.009C74.9567 160.152 74.055 158.328 74.0477 155.75C74.0337 150.754 77.383 144.671 81.6913 141.879Z" fill="#FBB03B"/>
<path d="M151.059 106.575C150.901 106.667 150.743 106.764 150.583 106.868L89.5021 146.451C85.1938 149.243 81.8445 155.325 81.8585 160.321C81.8726 165.317 85.2452 167.482 89.5551 165.263L150.658 133.796C150.818 133.714 150.977 133.627 151.134 133.536C155.593 130.942 159.258 124.607 159.243 119.378L159.22 111.262C159.206 106.034 155.517 103.983 151.059 106.575Z" fill="#C4720E"/>
<path d="M91.6836 153.507C90.1828 154.379 88.9691 156.497 88.9743 158.234C88.9789 159.971 90.2006 160.672 91.7014 159.799C93.2021 158.927 94.4148 156.81 94.4097 155.073C94.405 153.335 93.1844 152.634 91.6836 153.507Z" fill="#333333"/>
<path d="M91.6836 153.507C90.1828 154.379 88.9691 156.497 88.9743 158.234C88.9789 159.971 90.2006 160.672 91.7014 159.799C93.2021 158.927 94.4148 156.81 94.4097 155.073C94.405 153.335 93.1844 152.634 91.6836 153.507Z" fill="black"/>
<path d="M89.7401 151.834C90.6242 151.319 91.4249 151.272 92.0032 151.61L93.5828 152.535C93.0045 152.196 92.2037 152.244 91.3196 152.758C89.5621 153.78 88.1422 156.258 88.1479 158.292C88.1508 159.302 88.5049 160.013 89.0761 160.348L87.4966 159.423C86.9254 159.089 86.5712 158.378 86.5684 157.367C86.5627 155.333 87.9826 152.856 89.7401 151.834Z" fill="#333333"/>
<path d="M91.3196 152.758C93.0771 151.736 94.5052 152.557 94.511 154.591C94.5122 155.033 94.4461 155.497 94.3238 155.961C94.2991 156.055 94.2743 156.149 94.2496 156.243C94.3541 155.846 94.4105 155.451 94.4094 155.073C94.4048 153.335 93.1841 152.634 91.6834 153.507C90.1826 154.379 88.9689 156.497 88.9741 158.234C88.9787 159.971 90.2003 160.672 91.7011 159.799C92.0178 159.615 92.3217 159.376 92.604 159.096C92.5352 159.164 92.4665 159.232 92.3977 159.3C92.0671 159.628 91.7113 159.908 91.3403 160.124C89.5829 161.146 88.1537 160.326 88.1479 158.292C88.1422 156.257 89.5621 153.78 91.3196 152.758Z" fill="#1A1A1A"/>
<path d="M92.2493 154.315C92.0922 154.359 91.9244 154.434 91.7501 154.544C90.7629 155.16 89.935 156.605 89.9022 157.768C89.8969 157.968 89.9147 158.148 89.9552 158.305C90.1441 159.055 90.8166 159.271 91.6336 158.762C92.6223 158.147 93.4501 156.702 93.4815 155.538C93.5078 154.58 92.9874 154.108 92.2493 154.315Z" fill="white"/>
<path d="M153.172 110.992C151.671 111.864 150.457 113.982 150.463 115.719C150.467 117.456 151.689 118.157 153.19 117.284C154.69 116.412 155.903 114.295 155.898 112.558C155.893 110.82 154.673 110.119 153.172 110.992Z" fill="#333333"/>
<path d="M153.172 110.992C151.671 111.864 150.457 113.982 150.463 115.719C150.467 117.456 151.689 118.157 153.19 117.284C154.69 116.412 155.903 114.295 155.898 112.558C155.893 110.82 154.673 110.119 153.172 110.992Z" fill="black"/>
<path d="M151.229 109.318C152.113 108.804 152.913 108.756 153.492 109.095L155.071 110.019C154.493 109.681 153.692 109.728 152.808 110.243C151.051 111.265 149.631 113.742 149.637 115.776C149.639 116.787 149.993 117.498 150.565 117.832L148.985 116.907C148.414 116.573 148.06 115.862 148.057 114.852C148.051 112.817 149.471 110.34 151.229 109.318Z" fill="#333333"/>
<path d="M152.808 110.243C154.566 109.221 155.994 110.042 155.999 112.076C156.001 112.518 155.935 112.982 155.812 113.446C155.788 113.54 155.763 113.634 155.738 113.728C155.843 113.331 155.899 112.935 155.898 112.558C155.893 110.82 154.673 110.119 153.172 110.992C151.671 111.864 150.457 113.982 150.463 115.719C150.467 117.456 151.689 118.157 153.19 117.284C153.506 117.1 153.81 116.86 154.093 116.581C154.024 116.649 153.955 116.717 153.886 116.785C153.556 117.113 153.2 117.393 152.829 117.609C151.071 118.631 149.642 117.811 149.637 115.776C149.631 113.742 151.051 111.265 152.808 110.243Z" fill="#1A1A1A"/>
<path d="M153.738 111.8C153.58 111.844 153.413 111.919 153.238 112.029C152.251 112.645 151.423 114.089 151.39 115.253C151.385 115.453 151.403 115.633 151.443 115.789C151.632 116.54 152.305 116.756 153.122 116.247C154.111 115.631 154.938 114.187 154.97 113.023C154.996 112.064 154.476 111.593 153.738 111.8Z" fill="white"/>
<path d="M153.172 124.037C151.671 124.909 150.457 127.027 150.463 128.764C150.467 130.501 151.689 131.203 153.19 130.329C154.69 129.457 155.903 127.34 155.898 125.603C155.893 123.866 154.673 123.164 153.172 124.037Z" fill="#333333"/>
<path d="M153.172 124.037C151.671 124.909 150.457 127.027 150.463 128.764C150.467 130.501 151.689 131.203 153.19 130.329C154.69 129.457 155.903 127.34 155.898 125.603C155.893 123.866 154.673 123.164 153.172 124.037Z" fill="black"/>
<path d="M151.229 122.363C152.113 121.849 152.913 121.801 153.492 122.139L155.071 123.064C154.493 122.726 153.692 122.773 152.808 123.288C151.051 124.31 149.631 126.787 149.637 128.821C149.639 129.832 149.993 130.543 150.565 130.877L148.985 129.952C148.414 129.618 148.06 128.907 148.057 127.896C148.051 125.862 149.471 123.385 151.229 122.363Z" fill="#333333"/>
<path d="M152.808 123.288C154.566 122.266 155.994 123.087 155.999 125.121C156.001 125.564 155.935 126.027 155.812 126.492C155.788 126.586 155.763 126.68 155.738 126.773C155.843 126.377 155.899 125.981 155.898 125.603C155.893 123.866 154.673 123.164 153.172 124.037C151.671 124.91 150.457 127.027 150.463 128.764C150.467 130.501 151.689 131.203 153.19 130.329C153.506 130.145 153.81 129.906 154.093 129.626C154.024 129.694 153.955 129.762 153.886 129.831C153.556 130.158 153.2 130.439 152.829 130.654C151.071 131.676 149.642 130.856 149.637 128.822C149.631 126.788 151.051 124.31 152.808 123.288Z" fill="#1A1A1A"/>
<path d="M153.738 124.845C153.58 124.889 153.413 124.964 153.238 125.074C152.251 125.69 151.423 127.134 151.39 128.298C151.385 128.498 151.403 128.678 151.443 128.834C151.632 129.585 152.305 129.801 153.122 129.292C154.111 128.676 154.938 127.232 154.97 126.068C154.996 125.109 154.476 124.638 153.738 124.845Z" fill="white"/>
<path d="M160.501 21.1232C160.727 21.5732 161.03 21.8968 161.425 22.0139C165.222 23.1419 168.334 18.7777 167.9 16.2073C167.545 13.5629 167.34 12.1235 167.34 12.1235L159.996 13.9481C159.996 13.9481 159.917 14.6416 159.874 15.6217C159.8 17.286 159.825 19.7794 160.501 21.1232Z" fill="#FFB294"/>
<path opacity="0.5" d="M160.501 21.1233C160.865 21.373 161.266 21.5239 161.703 21.5239C165.173 21.5239 166.281 14.9375 166.281 14.9375L159.873 15.6218C159.8 17.286 159.824 19.7795 160.501 21.1233Z" fill="#FFB294"/>
<path d="M166.766 13.4087C166.766 13.4087 165.97 16.6099 164.548 17.9933C163.125 19.3766 160.859 20.0678 159.996 20.1122C159.133 20.1565 158.454 20.0811 157.893 19.4188C157.332 18.7562 156.987 12.6638 156.987 12.6638C157.004 10.3095 157.043 9.59973 157.32 8.28983C157.729 6.35949 159.116 2.08203 164.701 2.85255C167.394 3.22423 169.061 5.20259 169.412 7.59124C169.691 9.48995 168.181 12.8693 168.181 12.8693L166.766 13.4087Z" fill="#FFB294"/>
<path opacity="0.5" d="M158.923 15.3524C164.076 16.5791 166.281 10.8714 166.281 10.8714L156.987 7.3501C156.768 12.3227 156.589 14.7969 158.923 15.3524Z" fill="#FFB294"/>
<path d="M168.244 13.2627L165.593 14.6882L165.393 13.0903C165.403 12.3268 164.765 11.7142 164.009 11.7711C162.737 11.8667 160.782 11.7991 158.912 10.874C157.134 9.99437 156.825 8.79363 156.825 8.79363C155.929 5.32624 160.465 2.6486 163.884 2.76436C168.036 2.90484 169.717 5.71156 169.723 8.19006C169.729 10.4422 168.244 13.2627 168.244 13.2627Z" fill="black"/>
<path d="M167.652 11.1036C168.018 10.9184 168.525 10.9446 168.772 11.2747C168.91 11.4599 168.944 11.7082 168.909 11.9373C168.875 12.1664 168.779 12.381 168.678 12.5891C168.501 12.9506 168.306 13.3025 168.093 13.6432C167.92 13.9201 167.706 14.2103 167.39 14.2858C167.066 14.3631 166.677 14.5884 166.502 14.3032C166.327 14.018 166.346 13.2447 166.411 12.916C166.549 12.2175 167 11.4331 167.652 11.1036Z" fill="#FFB294"/>
<path d="M169.338 4.49217C169.338 4.49217 171.644 5.52279 171.507 7.83024C171.507 7.83024 171.324 9.32239 169.705 10.4915C168.086 11.6606 166.711 12.2452 165.245 12.4913C163.779 12.7374 161.794 13.1528 161.229 13.2912C160.664 13.4297 159.274 13.4758 158.404 13.1835C157.533 12.8912 156.663 12.522 156.174 12.2452C155.685 11.9683 154.105 10.9453 154.105 10.1608C154.105 9.37626 154.547 8.85475 154.891 8.23791C155.425 7.28015 155.67 6.9231 155.971 6.53105C156.283 6.12655 157.052 5.38231 157.564 5.01517C158.572 4.29216 169.338 4.49217 169.338 4.49217Z" fill="#C72800"/>
<path d="M169.338 4.12254C169.338 4.12254 171.644 5.15316 171.507 7.46061C171.507 7.46061 171.324 8.95277 169.705 10.1219C168.086 11.291 166.711 11.8756 165.245 12.1216C163.779 12.3678 161.794 12.7831 161.229 12.9216C160.664 13.06 159.274 13.1062 158.404 12.8139C157.533 12.5216 156.663 12.1525 156.174 11.8756C155.685 11.5986 154.105 10.5757 154.105 9.79116C154.105 9.00663 154.547 8.48512 154.891 7.86828C155.425 6.91052 155.67 6.55347 155.971 6.16142C156.283 5.75692 157.052 5.01268 157.564 4.64554C158.572 3.92254 169.338 4.12254 169.338 4.12254Z" fill="#E84600"/>
<path d="M156.481 6.14209H156.121L155.899 6.92245L155.823 7.91464L156.249 7.97617L156.556 6.89935L156.481 6.14209Z" fill="#C72800"/>
<path d="M156.251 8.15384C156.326 10.9837 160.008 11.5984 160.008 11.5984C163.658 12.1374 166.897 11.6039 169.446 9.27618C169.446 9.27618 170.346 8.1686 170.391 7.61484C170.437 7.06101 170.545 3.89151 168.376 1.95326C168.376 1.95326 168.132 1.03031 166.697 0.400827C165.26 -0.23052 164.238 0.0611488 163.856 0.10729C163.856 0.10729 162.084 -0.189921 160.563 0.642618C160.492 0.683218 160.433 0.71647 160.374 0.753395C158.817 1.72249 158.404 2.21541 157.855 3.23065C157.855 3.23065 156.174 5.32215 156.251 8.15384Z" fill="#FF4C00"/>
<path d="M168.376 1.95414C168.376 1.95414 167.735 1.15423 166.666 1.20037C163.42 1.34048 159.781 6.06011 158.923 7.692C158.923 7.692 160.406 3.78504 163.329 1.97724C166.04 0.300458 167.49 0.292798 168.376 1.95414Z" fill="#C72800"/>
<path d="M157.595 5.89567C158.135 2.24626 160.573 0.379987 163.857 0.10675C163.857 0.10675 162.085 -0.190461 160.564 0.642078C157.602 2.46962 157.595 5.86248 157.595 5.89567Z" fill="#C72800"/>
<path d="M169.6 3.55273C169.6 3.55273 165.89 4.81742 161.092 8.56385L169.6 3.55273Z" fill="#C72800"/>
<path d="M159.625 11.7913L159.819 11.5594L160.282 8.93316C160.282 8.93316 158.404 8.44547 157.182 7.18408H156.815L156.248 9.70686C156.248 9.70686 156.531 10.9837 159.625 11.7913Z" fill="#C72800"/>
<path d="M159.625 11.7913L160.083 9.16848C158.6 8.70351 157.446 8.07403 156.815 7.18408L156.248 9.70686C156.248 9.70686 156.531 10.9837 159.625 11.7913Z" fill="#FF4C00"/>
<path d="M164.249 11.6734L164.146 10.5796L162.809 10.6834L162.748 10.8992L162.811 12.0194L164.18 11.9105L164.249 11.6734Z" fill="#C72800"/>
<path d="M170.841 7.34367L170.778 6.28223H170.367L170.136 7.07255L170.186 8.18156H170.606L170.841 7.34367Z" fill="#C72800"/>
</svg>
