<svg width="83" height="76" viewBox="0 0 83 76" fill="none" xmlns="http://www.w3.org/2000/svg">
<circle cx="23.5" cy="23.5" r="23.5" fill="white"/>
<path d="M20.6539 47.1826C13.9565 47.1826 8.5271 52.4426 8.5271 58.931H32.7806C32.7806 52.4426 27.3512 47.1826 20.6539 47.1826Z" fill="#FFCC24"/>
<path d="M20.6539 74.0161C27.3512 74.0161 32.7806 69.3459 32.7806 63.585H8.5271C8.5271 69.3459 13.9565 74.0161 20.6539 74.0161Z" fill="#FFCC24"/>
<path d="M65.5944 47.1826C58.897 47.1826 53.4677 52.4426 53.4677 58.931H77.7211C77.7211 52.4426 72.2918 47.1826 65.5944 47.1826Z" fill="#FFCC24"/>
<path d="M65.5944 74.0161C72.2918 74.0161 77.7211 69.3459 77.7211 63.585H53.4677C53.4677 69.3459 58.897 74.0161 65.5944 74.0161Z" fill="#FFCC24"/>
<path d="M46.0214 75.3333H81.7483C82.3007 75.3333 82.75 74.878 82.75 74.3183C82.75 73.7588 82.3007 73.3035 81.7483 73.3035H73.1848L74.0219 72.711C76.6966 70.8176 78.6626 68.0242 79.5576 64.8451L79.6241 64.6089H80.425C81.707 64.6089 82.75 63.5522 82.75 62.2534V59.5722C82.75 58.2734 81.707 57.2167 80.425 57.2167H79.6257L79.559 56.9809C78.0593 51.6811 73.805 47.7565 68.4567 46.7388L68.1947 46.6889V43.4855C68.1947 41.4475 66.5581 39.7895 64.5464 39.7895H64.2249V37.8941C64.2246 37.4486 64.3958 37.0298 64.7069 36.7148L65.2547 36.1597C65.4367 35.9688 65.5365 35.7122 65.5319 35.4411C65.5272 35.17 65.4186 34.9169 65.2261 34.7287C64.836 34.3467 64.2245 34.3466 63.8342 34.7287L63.2903 35.2796C62.6076 35.9669 62.2183 36.9191 62.2213 37.893V39.7895H59.8947L52.8883 24.4041L53.2914 24.3256C54.2485 24.1393 55.0765 23.5866 55.6231 22.7694C56.1698 21.9521 56.3696 20.9681 56.1859 19.9985C55.8592 18.2763 54.3657 17.0152 52.6347 17H30.1429C29.1809 17.036 28.2792 17.4543 27.6159 18.1776C26.9527 18.9009 26.6071 19.8425 26.643 20.8291C26.7121 22.7344 28.1805 24.2618 30.0587 24.3821L30.3837 24.4029L29.2152 39.7895H25.8518V36.5536C25.8549 35.5786 25.4655 34.6263 24.7837 33.9398L24.2351 33.3841C23.8418 32.9994 23.2062 33.0105 22.8224 33.4131C22.4456 33.8085 22.4456 34.428 22.8224 34.8233L23.3664 35.3743C23.6774 35.6893 23.8486 36.1081 23.8482 36.5539V39.7895H23.5268C21.5152 39.7895 19.8786 41.4475 19.8786 43.4855V46.526L19.5874 46.5538C13.6889 47.1179 8.82305 51.2107 7.19111 56.9809L7.12433 57.2167H6.32504C5.04299 57.2167 4 58.2734 4 59.5722V62.2534C4 63.5522 5.04299 64.6089 6.32504 64.6089H7.12466L7.19115 64.8451C8.08645 68.0243 10.0529 70.8177 12.7281 72.711L13.5654 73.3035H5.00185C4.44945 73.3035 4 73.7588 4 74.3183C4 74.878 4.44945 75.3333 5.00185 75.3333H40.7285C41.281 75.3333 41.7304 74.878 41.7304 74.3183C41.7304 73.7588 41.281 73.3035 40.7285 73.3035H28.1956L29.0326 72.711C31.7073 70.8176 33.6734 68.0242 34.5683 64.8451L34.6348 64.6089H52.1139L52.1804 64.8451C53.0757 68.0243 55.0421 70.8177 57.7174 72.711L58.5546 73.3035H46.0214C45.469 73.3035 45.0196 73.7588 45.0196 74.3183C45.0196 74.878 45.469 75.3333 46.0214 75.3333ZM69.9337 49.2278C73.4371 50.4798 76.1551 53.2336 77.3909 56.7829L77.5418 57.2167H74.0022L73.9151 57.0301C71.8221 52.5355 66.5098 50.6042 62.0736 52.7248C60.2117 53.6147 58.7025 55.1437 57.824 57.0301L57.7371 57.2167H54.1973L54.3484 56.7829C55.434 53.6651 57.6529 51.1622 60.5966 49.7352C63.5402 48.3084 66.8564 48.1283 69.9337 49.2278ZM71.8043 57.2167H59.9481L60.3326 56.6961C62.6203 53.5993 66.9685 52.9654 70.0252 55.2833C70.5544 55.6845 71.0235 56.1597 71.4198 56.6961L71.8043 57.2167ZM30.1429 22.3622C29.236 22.3622 28.4982 21.6148 28.4982 20.6961C28.4982 19.7774 29.236 19.0299 30.1429 19.0299H52.6375C53.5442 19.0299 54.2822 19.7774 54.2822 20.6961C54.2822 21.6148 53.5442 22.3622 52.6375 22.3622H30.1429ZM21.8822 43.4855C21.8822 42.5669 22.62 41.8194 23.5268 41.8194H37.0804V50.1883C37.0804 51.4872 38.1234 52.5438 39.4054 52.5438H44.6983C45.9803 52.5438 47.0233 51.4872 47.0233 50.1883V41.8194H51.3143C51.8667 41.8194 52.3162 41.3641 52.3162 40.8045C52.3162 40.2448 51.8667 39.7895 51.3143 39.7895H31.2249L32.3937 24.3922H50.6731L57.6877 39.7895H56.6072C56.0548 39.7895 55.6053 40.2448 55.6053 40.8045C55.6053 41.3641 56.0548 41.8194 56.6072 41.8194H64.5464C65.4533 41.8194 66.1911 42.5669 66.1911 43.4855V46.4913L65.8705 46.4923C59.5497 46.5113 53.9201 50.8243 52.1803 56.9808L52.1136 57.2167H34.6364L34.5697 56.9809C32.9378 51.2107 28.072 47.1179 22.1734 46.5538L21.8822 46.526V43.4855ZM45.0196 47.1817V50.514H39.084V47.1817H45.0196ZM39.084 45.1517V41.8194H45.0196V45.1517H39.084ZM9.35945 56.7819C11.0912 51.8588 15.7207 48.5395 20.8793 48.5222H20.8815C26.0401 48.5395 30.6695 51.8588 32.4013 56.7819L32.5543 57.2167H29.0129L28.926 57.0301C26.8328 52.5355 21.5207 50.6042 17.0844 52.7248C15.2225 53.6147 13.7133 55.1437 12.8348 57.0301L12.7479 57.2167H9.20651L9.35945 56.7819ZM26.8145 57.2167H14.9529L15.3367 56.6963C17.6219 53.5976 21.9694 52.9602 25.028 55.2751C25.5606 55.6784 26.0326 56.1565 26.4308 56.6963L26.8145 57.2167ZM32.3974 65.0438C30.6662 69.9651 26.0383 73.2844 20.8817 73.3035H20.8793C15.7207 73.2861 11.0912 69.9668 9.35945 65.0438L9.20651 64.6089H12.7479L12.8348 64.7956C13.8488 66.9728 15.6389 68.6196 17.8755 69.4329C20.1119 70.2459 22.5272 70.1283 24.6764 69.1008C26.5382 68.211 28.0475 66.6819 28.926 64.7956L29.0129 64.6089H32.5504L32.3974 65.0438ZM15.3435 65.1295L15.5941 64.9395V64.6089H26.8152L26.4305 65.1295C25.3223 66.6297 23.7038 67.6028 21.8732 67.8697C21.5386 67.9184 21.2044 67.9425 20.8725 67.9425C19.3874 67.9426 17.9482 67.4601 16.7381 66.5425C16.2087 66.141 15.7395 65.6656 15.3435 65.1295ZM6.00367 62.5789V59.2466H80.7462V62.5789H6.00367ZM71.8043 64.6089L71.4198 65.1295C70.3116 66.6297 68.693 67.6028 66.8623 67.8697C66.5279 67.9184 66.1935 67.9425 65.8616 67.9425C64.3768 67.9426 62.9375 67.4601 61.7272 66.5425C61.198 66.141 60.7289 65.6657 60.3326 65.1295L60.5833 64.9395V64.6089H71.8043ZM54.3487 65.0438L54.1957 64.6089H57.7371L57.824 64.7956C58.838 66.9728 60.6281 68.6196 62.8647 69.4329C65.1011 70.2459 67.5165 70.1283 69.6655 69.1008C71.5275 68.211 73.0368 66.6819 73.9151 64.7956L74.0022 64.6089H77.5395L77.3867 65.0438C75.6555 69.9651 71.0278 73.2844 65.8708 73.3035H65.8686C60.7099 73.2861 56.0804 69.9668 54.3487 65.0438Z" fill="black"/>
</svg>
