<svg width="79" height="77" viewBox="0 0 79 77" fill="none" xmlns="http://www.w3.org/2000/svg">
<circle cx="24.5" cy="24.5" r="24.5" fill="white"/>
<path d="M31.9506 22.1035L14.3398 12.2598L14.0698 27.8146L26.3014 34.7509L25.035 36.8484L26.821 37.8867L28.5239 38.0737L30.8914 34.647L36.8101 23.7026L34.1311 21.2728L32.7813 22.4358L31.9506 22.1035Z" fill="#FFCC24"/>
<path d="M28.8461 61.5575C28.8585 61.6204 28.8652 61.6858 28.8652 61.75C28.8652 61.8143 28.8585 61.8799 28.8461 61.9441C28.8323 62.007 28.8133 62.0698 28.7888 62.1285C28.7641 62.1886 28.734 62.2459 28.6986 62.3007C28.6616 62.3539 28.6207 62.4044 28.5743 62.4509C28.5292 62.496 28.4786 62.5383 28.424 62.5738C28.3706 62.6093 28.3133 62.6395 28.2532 62.6654C28.1931 62.6899 28.1316 62.709 28.0688 62.7214C28.0046 62.7336 27.939 62.7405 27.8748 62.7405C27.8107 62.7405 27.7451 62.7336 27.6809 62.7214C27.618 62.709 27.5552 62.6899 27.495 62.6654C27.4363 62.6395 27.379 62.6093 27.3242 62.5738C27.271 62.5383 27.2204 62.496 27.1741 62.4509C26.9896 62.2665 26.8844 62.0111 26.8844 61.75C26.8844 61.6858 26.8912 61.6204 26.9037 61.5575C26.9159 61.4934 26.935 61.4318 26.9596 61.3717C26.9842 61.3116 27.0155 61.2542 27.0511 61.201C27.0867 61.1462 27.1289 61.0958 27.1741 61.0493C27.2204 61.0042 27.271 60.9632 27.3242 60.9263C27.379 60.8909 27.4363 60.8609 27.495 60.8362C27.5552 60.8117 27.618 60.7924 27.6809 60.7787C27.8093 60.7542 27.9404 60.7542 28.0688 60.7787C28.1316 60.7924 28.1931 60.8117 28.2532 60.8362C28.3133 60.8609 28.3706 60.8909 28.424 60.9263C28.4786 60.9632 28.5292 61.0042 28.5743 61.0493C28.6207 61.0958 28.6616 61.1462 28.6986 61.201C28.734 61.2542 28.7641 61.3116 28.7888 61.3717C28.8133 61.4318 28.8323 61.4934 28.8461 61.5575ZM20.3356 70.5692C20.2755 70.5448 20.214 70.5257 20.1511 70.512C20.0229 70.4874 19.8917 70.4874 19.7632 70.512C19.7004 70.5257 19.6375 70.5448 19.5789 70.5692C19.5187 70.5939 19.4614 70.624 19.4066 70.6594C19.3534 70.6963 19.3029 70.7373 19.2564 70.7838C19.2114 70.8289 19.1691 70.8793 19.1335 70.9342C19.098 70.9874 19.068 71.0447 19.042 71.1048C19.0174 71.165 18.9983 71.2264 18.9859 71.2906C18.9736 71.3534 18.9668 71.419 18.9668 71.4832C18.9668 71.5474 18.9736 71.613 18.9859 71.6771C18.9983 71.74 19.0174 71.8029 19.042 71.863C19.068 71.9217 19.098 71.9791 19.1335 72.0337C19.1691 72.0869 19.2114 72.1389 19.2564 72.184C19.3029 72.2292 19.3534 72.2715 19.4066 72.3069C19.4614 72.3425 19.5187 72.3738 19.5789 72.3985C19.6375 72.4231 19.7004 72.4421 19.7632 72.4545C19.8274 72.4667 19.8931 72.4736 19.9572 72.4736C20.0213 72.4736 20.087 72.4667 20.1511 72.4545C20.214 72.4421 20.2755 72.4231 20.3356 72.3985C20.3957 72.3738 20.453 72.3425 20.5064 72.3069C20.561 72.2715 20.6116 72.2292 20.6566 72.184C20.7031 72.1389 20.744 72.0869 20.781 72.0337C20.8165 71.9791 20.8465 71.9217 20.8711 71.863C20.897 71.8029 20.9147 71.74 20.9285 71.6771C20.9408 71.613 20.9476 71.5474 20.9476 71.4832C20.9476 71.2236 20.841 70.9683 20.6566 70.7838C20.6116 70.7373 20.561 70.6963 20.5064 70.6594C20.453 70.624 20.3957 70.5939 20.3356 70.5692ZM19.9571 62.7028C18.3143 62.7028 16.9778 61.3664 16.9778 59.7237C16.9778 58.0808 18.3143 56.7444 19.9571 56.7444C21.5998 56.7444 22.9362 58.0808 22.9362 59.7237C22.9362 61.3664 21.5998 62.7028 19.9571 62.7028ZM20.9555 59.7237C20.9555 59.173 20.5076 58.7251 19.9571 58.7251C19.4066 58.7251 18.9586 59.173 18.9586 59.7237C18.9586 60.2742 19.4066 60.722 19.9571 60.722C20.5076 60.722 20.9555 60.2742 20.9555 59.7237ZM78.625 51.7V73.7138C78.625 75.3191 77.3189 76.625 75.7137 76.625H15.9112C14.3059 76.625 13 75.3191 13 73.7138V69.3016C13 68.7545 13.4434 68.3111 13.9903 68.3111C14.5373 68.3111 14.9807 68.7545 14.9807 69.3016V73.7138C14.9807 74.2267 15.3982 74.6443 15.9112 74.6443H75.7137C76.2267 74.6443 76.6443 74.2267 76.6443 73.7138V51.7C76.6443 51.187 76.2267 50.7696 75.7137 50.7696H69.679C67.7536 50.7696 66.1874 52.3359 66.1874 54.2612V55.5763C66.1877 55.589 66.1876 55.6014 66.1874 55.6139V61.2083C66.1874 64.2258 63.7324 66.6806 60.715 66.6806H41.8348C38.8172 66.6806 36.3624 64.2258 36.3624 61.2083V54.2612C36.3624 52.3359 34.796 50.7696 32.8708 50.7696H15.9112C15.3982 50.7696 14.9807 51.187 14.9807 51.7V64.8197C14.9807 65.3665 14.5373 65.81 13.9903 65.81C13.4434 65.81 13 65.3665 13 64.8197V51.7C13 50.0947 14.3059 48.7888 15.9112 48.7888H32.8708C35.8882 48.7888 38.343 51.2437 38.343 54.2612V55.2884C38.6468 55.3514 39.0228 55.3953 39.5134 55.3953C40.7083 55.3953 41.2708 55.1397 41.9222 54.8436C42.674 54.5019 43.5261 54.1147 45.1491 54.1147C46.772 54.1147 47.6241 54.5019 48.3759 54.8436C48.4558 54.88 48.5359 54.9164 48.6168 54.9521C48.2183 52.1654 47.1617 49.4716 45.5594 47.1579C45.2479 46.7083 45.36 46.0913 45.8097 45.7798C46.2596 45.4686 46.8764 45.5806 47.1877 46.0302C48.9762 48.6124 50.1513 51.6218 50.5864 54.7328C50.6174 54.9553 50.6088 55.178 50.5649 55.3919C50.6356 55.394 50.7081 55.3953 50.7836 55.3953C51.1285 55.3953 51.4333 55.3743 51.7154 55.3311C52.257 55.2489 52.7614 55.6196 52.8443 56.1602C52.9269 56.7009 52.5558 57.2063 52.015 57.2891C51.6328 57.3476 51.2301 57.3761 50.7836 57.3761C49.4088 57.3761 48.5738 57.0946 47.8763 56.7904C47.8758 56.7901 47.8754 56.7897 47.8749 56.7897C47.7673 56.7427 47.6618 56.6949 47.5565 56.6469C46.9054 56.3511 46.343 56.0955 45.1491 56.0955C43.9551 56.0955 43.3928 56.3511 42.7417 56.6469C41.9897 56.9887 41.1372 57.3761 39.5134 57.3761C39.0922 57.3761 38.7082 57.3493 38.343 57.2967V61.2083C38.343 63.1336 39.9096 64.6999 41.8348 64.6999H60.715C62.6403 64.6999 64.2066 63.1336 64.2066 61.2083V57.0775C63.6573 57.2495 62.982 57.3761 62.0539 57.3761C60.4308 57.3761 59.5787 56.9887 58.827 56.647C58.3955 56.451 58.0231 56.2817 57.4929 56.1835C56.5693 56.0149 55.8518 55.2432 55.7509 54.3073L55.7482 54.2854C55.6773 53.7431 55.2572 53.1724 54.8127 52.568C54.3617 51.9545 53.8951 51.3203 53.6799 50.5648C53.4462 49.7447 53.5081 48.8833 53.5627 48.1231C53.6137 47.4134 53.6619 46.7431 53.4636 46.3159C53.2371 45.8285 52.6659 45.4155 52.0612 44.9784C51.4409 44.53 50.7995 44.0663 50.3573 43.4077C49.8849 42.7041 49.6816 41.8651 49.5022 41.1252C49.3337 40.4309 49.1749 39.7749 48.8514 39.4181C48.4964 39.0263 47.8404 38.7944 47.146 38.5491C46.4063 38.2876 45.6414 38.0174 45.0233 37.4877C44.353 36.9131 43.9323 36.125 43.5613 35.4297C43.2334 34.8155 42.9238 34.2353 42.5413 33.9711C42.0847 33.6556 41.3903 33.5629 40.6556 33.4646C39.8699 33.3596 39.0575 33.251 38.3559 32.8442C37.4896 32.3418 36.9029 31.5633 36.3854 30.8764C36.0056 30.3723 35.6467 29.8962 35.311 29.7192C35.1631 29.6411 35.002 29.5732 34.8289 29.5124L31.7346 34.8718L40.6809 40.0366C41.8618 40.7185 42.9777 41.5232 43.9972 42.4287C44.4062 42.7918 44.4434 43.4178 44.0801 43.8269C43.8844 44.0471 43.6124 44.1595 43.3391 44.1595C43.1054 44.1595 42.8706 44.0772 42.6819 43.9098C41.7624 43.0929 40.7559 42.3672 39.6905 41.752L30.7442 36.5871L30.2453 37.4513C29.6942 38.4061 28.6906 38.9404 27.66 38.9404C27.1549 38.9404 26.6434 38.8119 26.1754 38.5418L24.4531 37.5472C23.9796 37.2738 23.8173 36.6681 24.0909 36.1944L24.5896 35.3305L13.4952 28.9247C13.1887 28.7478 13 28.4208 13 28.0671V11.9904C13 11.6365 13.1887 11.3097 13.4952 11.1327C13.8014 10.9558 14.179 10.9558 14.4856 11.1327L25.3484 17.4046C25.3559 17.409 25.3597 17.4166 25.3671 17.4212L32.5415 21.5574L33.0407 20.6926C33.3142 20.2189 33.92 20.0566 34.3935 20.3301L36.1751 21.3586C36.8483 21.7475 37.3302 22.3752 37.5315 23.1262C37.7327 23.8774 37.6293 24.662 37.2405 25.3354L35.8313 27.7761C35.9704 27.8352 36.1049 27.8985 36.2349 27.9671C36.9623 28.3506 37.4731 29.0286 37.9674 29.6843C38.3916 30.2473 38.8301 30.8294 39.3496 31.1307C39.7104 31.3399 40.2969 31.4183 40.9179 31.5012C41.809 31.6204 42.8189 31.7553 43.6673 32.3414C44.445 32.8787 44.884 33.7015 45.3088 34.4971C45.6255 35.0908 45.9249 35.6517 46.3124 35.9837C46.6498 36.2729 47.2115 36.4714 47.806 36.6814C48.6602 36.9832 49.6282 37.3254 50.3193 38.0881C50.9811 38.8186 51.2181 39.7961 51.4272 40.6585C51.581 41.2937 51.7265 41.8935 52.0018 42.3035C52.2467 42.6683 52.7203 43.0107 53.2218 43.3731C53.9691 43.9134 54.8161 44.5257 55.2602 45.4817C55.6743 46.3738 55.6052 47.3352 55.5384 48.2651C55.4914 48.9197 55.447 49.538 55.5849 50.0221C55.7023 50.4344 56.0453 50.9006 56.4084 51.3943C56.9553 52.1378 57.5751 52.9803 57.7129 54.0338L57.7205 54.0984C57.7278 54.1649 57.7816 54.2227 57.8511 54.2353C58.6221 54.3783 59.1663 54.6256 59.6466 54.8437C60.2975 55.1397 60.8598 55.3953 62.0539 55.3953C63.0907 55.3953 63.6511 55.2031 64.2066 54.9591V54.2612C64.2066 51.2437 66.6615 48.7888 69.679 48.7888H75.7137C77.3189 48.7888 78.625 50.0947 78.625 51.7ZM14.9807 16.0112L30.5526 25.0021L31.551 23.2728L23.9105 18.8678C23.9023 18.8631 23.8981 18.8547 23.8901 18.8498L14.9807 13.7058V16.0112ZM29.5623 26.7175L14.9807 18.2984V27.4952L25.58 33.6151L29.5623 26.7175ZM35.6181 23.6389C35.5538 23.3989 35.3998 23.1982 35.1848 23.074L34.2608 22.5406L26.3013 36.3271L27.1659 36.8263C27.6425 37.1015 28.2546 36.9378 28.53 36.4608L33.4827 27.8827C33.484 27.8803 33.4853 27.8782 33.4866 27.876L35.5252 24.3449C35.6495 24.1297 35.6824 23.8791 35.6181 23.6389ZM28.7354 71.1076C28.7 71.0528 28.6589 71.0024 28.6126 70.9559C28.5674 70.9109 28.517 70.8698 28.4622 70.833C28.409 70.7976 28.3516 70.7675 28.2915 70.7428C28.2314 70.7182 28.1686 70.6991 28.1056 70.6854C27.9786 70.6608 27.8461 70.6608 27.7191 70.6854C27.6563 70.6991 27.5935 70.7182 27.5333 70.7428C27.4747 70.7675 27.4159 70.7976 27.3625 70.833C27.308 70.8698 27.2574 70.9109 27.2123 70.9559C27.1672 71.0024 27.1248 71.0528 27.0893 71.1076C27.0538 71.1608 27.0224 71.2182 26.9978 71.2783C26.9733 71.3384 26.954 71.3998 26.9418 71.4641C26.9282 71.527 26.9214 71.5924 26.9214 71.6566C26.9214 71.7209 26.9282 71.7864 26.9418 71.8507C26.954 71.9136 26.9733 71.9764 26.9978 72.035C27.0224 72.0953 27.0538 72.1526 27.0893 72.2073C27.1248 72.2605 27.1672 72.311 27.2123 72.3574C27.2574 72.4026 27.308 72.4449 27.3625 72.4805C27.4159 72.5159 27.4747 72.5461 27.5333 72.572C27.5935 72.5965 27.6563 72.6156 27.7191 72.628C27.7832 72.6402 27.8474 72.6471 27.9132 72.6471C27.9772 72.6471 28.0415 72.6402 28.1056 72.628C28.1686 72.6156 28.2314 72.5965 28.2915 72.572C28.3516 72.5461 28.409 72.5159 28.4622 72.4805C28.517 72.4449 28.5674 72.4026 28.6126 72.3574C28.7969 72.173 28.9035 71.9176 28.9035 71.6566C28.9035 71.5924 28.8967 71.527 28.883 71.4641C28.8707 71.3998 28.8516 71.3384 28.827 71.2783C28.8023 71.2182 28.771 71.1608 28.7354 71.1076ZM57.3666 70.5829C57.4265 70.6076 57.4893 70.6267 57.5522 70.639C57.6163 70.6512 57.6807 70.6581 57.7462 70.6581C58.0057 70.6581 58.2612 70.553 58.4455 70.3684C58.6302 70.1841 58.7365 69.9286 58.7365 69.6678C58.7365 69.6036 58.7298 69.538 58.7176 69.475C58.7037 69.411 58.6847 69.3494 58.6601 69.2893C58.6354 69.2292 58.6054 69.1719 58.5686 69.1186C58.533 69.0638 58.4921 69.0134 58.4455 68.9669C58.2162 68.7374 57.8746 68.6323 57.5522 68.6965C57.4893 68.7102 57.4265 68.7293 57.3666 68.7538C57.3076 68.7785 57.249 68.8085 57.1958 68.8439C57.1411 68.8808 57.0905 68.9218 57.0454 68.9669C57.0004 69.0134 56.9581 69.0638 56.9225 69.1186C56.8869 69.1719 56.8556 69.2292 56.8309 69.2893C56.8064 69.3494 56.7873 69.411 56.775 69.475C56.7613 69.538 56.7558 69.6036 56.7558 69.6678C56.7558 69.9286 56.8611 70.1841 57.0454 70.3684C57.0905 70.4137 57.1411 70.4559 57.1958 70.4914C57.249 70.527 57.3076 70.557 57.3666 70.5829ZM51.5853 58.7529C51.5226 58.7654 51.4597 58.7844 51.401 58.809C51.3409 58.8336 51.2834 58.865 51.2287 58.9005C51.1755 58.936 51.125 58.977 51.0785 59.0235C50.8941 59.2079 50.7888 59.4619 50.7888 59.7229C50.7888 59.7884 50.7957 59.8527 50.808 59.9168C50.8203 59.9798 50.8395 60.0424 50.864 60.1027C50.8886 60.1628 50.9201 60.2201 50.9556 60.2734C50.991 60.3281 51.0334 60.3786 51.0785 60.4237C51.263 60.6081 51.5184 60.7147 51.7794 60.7147C52.0402 60.7147 52.2944 60.6081 52.4788 60.4237C52.5252 60.3786 52.5662 60.3281 52.603 60.2734C52.6386 60.2201 52.6686 60.1628 52.6932 60.1027C52.7178 60.0424 52.7369 59.9798 52.7506 59.9168C52.7629 59.8527 52.7698 59.7884 52.7698 59.7229C52.7698 59.4633 52.6645 59.2079 52.4788 59.0235C52.2491 58.794 51.9077 58.6889 51.5853 58.7529ZM44.6473 61.1627C44.6102 61.1081 44.5692 61.0574 44.5242 61.0124C44.4778 60.966 44.4272 60.925 44.3727 60.8894C44.3193 60.8525 44.262 60.8227 44.2019 60.798C44.1431 60.7734 44.0803 60.7542 44.0174 60.742C43.8891 60.7161 43.758 60.7161 43.6295 60.742C43.5666 60.7542 43.5051 60.7734 43.4451 60.798C43.3849 60.8227 43.3276 60.8525 43.2744 60.8894C43.2197 60.925 43.1691 60.966 43.1227 61.0124C42.9382 61.1969 42.8331 61.4523 42.8331 61.7132C42.8331 61.7774 42.8398 61.8416 42.8522 61.9058C42.8659 61.9686 42.8849 62.0314 42.9096 62.0915C42.9342 62.1518 42.9642 62.2091 42.9996 62.2623C43.0366 62.317 43.0777 62.3674 43.1227 62.4127C43.1691 62.459 43.2197 62.5 43.2744 62.5356C43.3276 62.571 43.3849 62.6025 43.4451 62.6272C43.5051 62.6517 43.5666 62.6708 43.6295 62.6831C43.6936 62.6968 43.7593 62.7036 43.8234 62.7036C44.0844 62.7036 44.3398 62.597 44.5242 62.4127C44.7087 62.2281 44.8138 61.9729 44.8138 61.7132C44.8138 61.6476 44.807 61.5835 44.7947 61.5192C44.7825 61.4564 44.7632 61.3936 44.7387 61.3335C44.7127 61.2734 44.6827 61.2159 44.6473 61.1627ZM31.8902 68.6695C30.2476 68.6695 28.911 67.3329 28.911 65.6903C28.911 64.0476 30.2476 62.711 31.8902 62.711C33.533 62.711 34.8696 64.0476 34.8696 65.6903C34.8696 67.3329 33.533 68.6695 31.8902 68.6695ZM31.8902 66.6888C32.4409 66.6888 32.8888 66.2408 32.8888 65.6903C32.8888 65.1397 32.4409 64.6918 31.8902 64.6918C31.3397 64.6918 30.8916 65.1397 30.8916 65.6903C30.8916 66.2408 31.3397 66.6888 31.8902 66.6888ZM71.6678 64.6999C73.3107 64.6999 74.6473 66.0363 74.6473 67.6792C74.6473 69.3219 73.3107 70.6583 71.6678 70.6583C70.0252 70.6583 68.6886 69.3219 68.6886 67.6792C68.6886 66.0363 70.0252 64.6999 71.6678 64.6999ZM70.6693 67.6792C70.6693 68.2297 71.1173 68.6775 71.6678 68.6775C72.2184 68.6775 72.6663 68.2297 72.6663 67.6792C72.6663 67.1287 72.2184 66.6806 71.6678 66.6806C71.1173 66.6806 70.6693 67.1287 70.6693 67.6792ZM56.9225 62.2623C56.9581 62.317 57.0004 62.3674 57.0454 62.4127C57.0905 62.4577 57.1411 62.5 57.1958 62.5356C57.249 62.571 57.3076 62.6025 57.3666 62.6272C57.4265 62.6517 57.4893 62.6708 57.5522 62.6831C57.6163 62.6968 57.6807 62.7023 57.7462 62.7023C58.0071 62.7023 58.2612 62.597 58.4455 62.4127C58.4921 62.3674 58.533 62.317 58.5686 62.2623C58.6054 62.2091 58.6354 62.1504 58.6601 62.0915C58.6847 62.0314 58.7037 61.9686 58.7176 61.9058C58.7298 61.8416 58.7365 61.7774 58.7365 61.7118C58.7365 61.6476 58.7298 61.582 58.7176 61.5192C58.7037 61.455 58.6847 61.3936 58.6601 61.3335C58.6354 61.2734 58.6054 61.2159 58.5686 61.1627C58.533 61.1081 58.4921 61.0574 58.4455 61.0124C58.2162 60.7816 57.8746 60.6764 57.5522 60.742C57.4893 60.7542 57.4265 60.7734 57.3666 60.798C57.3076 60.8227 57.249 60.8525 57.1958 60.8894C57.1411 60.925 57.0905 60.966 57.0454 61.0124C57.0004 61.0574 56.9581 61.1081 56.9225 61.1627C56.8869 61.2159 56.8556 61.2734 56.8309 61.3335C56.8064 61.3936 56.7873 61.455 56.775 61.5192C56.7613 61.582 56.7558 61.6476 56.7558 61.7118C56.7558 61.7774 56.7613 61.8416 56.775 61.9058C56.7873 61.9686 56.8064 62.0314 56.8309 62.0915C56.8556 62.1504 56.8869 62.2091 56.9225 62.2623ZM70.5938 59.3445C70.5679 59.2844 70.5379 59.2271 70.5023 59.1737C70.4667 59.119 70.4246 59.0686 70.3794 59.0235C70.1499 58.7926 69.807 58.6873 69.4847 58.7529C69.4219 58.7654 69.3604 58.7844 69.3003 58.809C69.2402 58.8336 69.1829 58.865 69.1295 58.9005C69.0749 58.936 69.0243 58.977 68.978 59.0235C68.9329 59.0686 68.8918 59.119 68.8549 59.1737C68.8194 59.2271 68.7893 59.2844 68.7647 59.3445C68.7402 59.4046 68.721 59.4674 68.7075 59.5303C68.6952 59.5944 68.6883 59.6588 68.6883 59.7242C68.6883 59.7884 68.6952 59.8527 68.7075 59.9168C68.721 59.9798 68.7402 60.0424 68.7647 60.1027C68.7893 60.1628 68.8194 60.2201 68.8549 60.2734C68.8918 60.3281 68.9329 60.3786 68.978 60.4237C69.0243 60.4702 69.0749 60.5112 69.1295 60.5466C69.1829 60.5822 69.2402 60.6135 69.3003 60.6382C69.3604 60.6626 69.4219 60.6818 69.4847 60.6942C69.5489 60.7078 69.6144 60.7147 69.6786 60.7147C69.9395 60.7147 70.1949 60.6081 70.3794 60.4237C70.4246 60.3786 70.4667 60.3281 70.5023 60.2734C70.5379 60.2201 70.5679 60.1628 70.5938 60.1027C70.6186 60.0424 70.6375 59.9798 70.6499 59.9168C70.6622 59.8527 70.6691 59.7884 70.6691 59.7242C70.6691 59.6588 70.6622 59.5944 70.6499 59.5303C70.6375 59.4674 70.6186 59.4046 70.5938 59.3445ZM41.0108 70.2183C41.0476 70.2715 41.0887 70.3221 41.1337 70.3684C41.1802 70.4137 41.2306 70.4559 41.2854 70.4914C41.3387 70.527 41.396 70.5585 41.4561 70.5829C41.5162 70.6076 41.5778 70.6267 41.6406 70.639C41.7048 70.6512 41.7702 70.6581 41.8346 70.6581C41.8987 70.6581 41.9643 70.6512 42.0285 70.639C42.0914 70.6267 42.1542 70.6076 42.2142 70.5829C42.2731 70.5585 42.3304 70.527 42.3849 70.4914C42.4383 70.4559 42.4902 70.4137 42.5353 70.3684C42.5804 70.3221 42.6227 70.2715 42.6581 70.2183C42.6938 70.1635 42.7252 70.1062 42.7499 70.0461C42.7743 69.9874 42.7934 69.9245 42.8057 69.8617C42.818 69.7975 42.8249 69.7319 42.8249 69.6678C42.8249 69.4069 42.7196 69.1513 42.5353 68.9683C42.4889 68.9218 42.4383 68.8808 42.3849 68.8439C42.3304 68.8085 42.2731 68.7785 42.2142 68.7538C42.1542 68.7293 42.0914 68.7102 42.0285 68.6965C41.9001 68.6705 41.769 68.6705 41.6406 68.6965C41.5778 68.7102 41.5162 68.7293 41.4561 68.7538C41.396 68.7785 41.3387 68.8085 41.2854 68.8439C41.2306 68.8808 41.1802 68.9218 41.1337 68.9683C40.9505 69.1513 40.8441 69.4069 40.8441 69.6678C40.8441 69.7319 40.8509 69.7975 40.8632 69.8617C40.8769 69.9245 40.896 69.9874 40.9206 70.0461C40.9451 70.1062 40.9754 70.1635 41.0108 70.2183ZM52.9446 72.2073C52.98 72.2605 53.0223 72.311 53.0675 72.3574C53.1139 72.4026 53.1645 72.4449 53.2177 72.4805C53.2724 72.5159 53.3297 72.5474 53.39 72.572C53.4486 72.5965 53.5115 72.6156 53.5743 72.628C53.6386 72.6402 53.7041 72.6471 53.7683 72.6471C53.8325 72.6471 53.898 72.6402 53.9609 72.628C54.0251 72.6156 54.0865 72.5965 54.1467 72.572C54.2068 72.5474 54.2641 72.5159 54.3175 72.4805C54.372 72.4449 54.4226 72.4026 54.4677 72.3574C54.5141 72.311 54.5552 72.2605 54.5906 72.2073C54.6275 72.1526 54.6577 72.0953 54.6822 72.035C54.7067 71.9764 54.7259 71.9136 54.7382 71.8507C54.7517 71.7864 54.7586 71.7209 54.7586 71.6566C54.7586 71.5924 54.7517 71.527 54.7382 71.4641C54.7259 71.3998 54.7067 71.3384 54.6822 71.2783C54.6577 71.2182 54.6275 71.1608 54.5906 71.1076C54.5552 71.0528 54.5141 71.0024 54.4677 70.9559C54.4226 70.9109 54.372 70.8698 54.3175 70.833C54.2641 70.7976 54.2068 70.7675 54.1467 70.7428C54.0865 70.7182 54.0251 70.6991 53.9609 70.6854C53.8339 70.6594 53.7028 70.6594 53.5743 70.6854C53.5115 70.6991 53.4486 70.7182 53.39 70.7428C53.3297 70.7675 53.2724 70.7976 53.2177 70.833C53.1645 70.8698 53.1139 70.9109 53.0675 70.9559C53.0223 71.0024 52.98 71.0528 52.9446 71.1076C52.909 71.1608 52.8776 71.2182 52.8532 71.2783C52.8283 71.3384 52.8093 71.3998 52.797 71.4641C52.7833 71.527 52.7779 71.5924 52.7779 71.6566C52.7779 71.7209 52.7833 71.7864 52.797 71.8507C52.8093 71.9136 52.8283 71.9764 52.8532 72.035C52.8776 72.0953 52.909 72.1526 52.9446 72.2073Z" fill="black"/>
</svg>
