<svg width="85" height="71" viewBox="0 0 85 71" fill="none" xmlns="http://www.w3.org/2000/svg">
<circle cx="65.5" cy="19.5" r="19.5" fill="white"/>
<path d="M40.4116 10.0352L30.8257 19.2282L40.4116 29.5288L60.3483 10.4782L40.4116 10.0352Z" fill="#FFCC24"/>
<path d="M2.20252 48.3856L20.8893 29.335L31.0186 39.0818L10.9299 59.5641L1.83862 49.5486L2.20252 48.3856Z" fill="#FFCC24"/>
<path d="M41.2424 49.0772L50.7064 39.3857L60.3484 49.0772V68.7025L41.2424 49.0772Z" fill="#FFCC24"/>
<path d="M21.0837 68.7033L30.8254 60.0986C30.8254 60.0986 40.6882 68.8903 40.522 68.7033C40.3559 68.5164 21.0837 68.7033 21.0837 68.7033Z" fill="#FFCC24"/>
<path d="M1.83862 9.7207C1.83862 9.7207 10.8834 19.4045 10.9299 19.3529C10.9763 19.3014 20.8893 9.7207 20.8893 9.7207H1.83862Z" fill="#FFCC24"/>
<path d="M0.0710297 9.63035C0.0647989 9.64642 0.0595474 9.66295 0.0540956 9.67935L0.0362714 9.73776C0.0321992 9.75214 0.0271702 9.76955 0.023276 9.78743L0.0179799 9.81701C0.013396 9.84282 0.0108147 9.86077 0.00865618 9.87885C0.00756579 9.88799 0.00634195 9.8972 0.00498454 9.90647C0.00473983 9.9099 0.00445047 9.91333 0.00418345 9.91682C0.00215856 9.93941 0.000111262 9.96824 0.000111262 9.99735L0 69.2232C0.000244708 69.2312 0.000534074 69.2391 0.000689824 69.2471L0.000934601 69.261C0.000934601 69.2678 0.00106813 69.2748 0.00122388 69.2817L0.0111039 69.3209V69.3927C0.0127061 69.4053 0.0147533 69.4177 0.0170453 69.4301L0.025568 69.4702C0.0292173 69.4869 0.0334009 69.5019 0.0374953 69.517L0.0695387 69.6127L0.12962 69.7393C0.140568 69.7585 0.14829 69.7718 0.156679 69.7848L0.17971 69.8199C0.18712 69.8307 0.195532 69.8421 0.204299 69.8535L0.218252 69.8672L0.247625 69.9076C0.261844 69.9233 0.275218 69.937 0.288614 69.9508L0.304836 69.9659C0.322571 69.983 0.33788 69.9968 0.353702 70.0101C0.361001 70.0164 0.368455 70.0228 0.375865 70.0294L0.385078 70.0366C0.395915 70.0451 0.414317 70.0584 0.432876 70.0712C0.438261 70.0749 0.443691 70.0788 0.449231 70.0826L0.472374 70.0967C0.487661 70.1062 0.503216 70.1161 0.519193 70.125L0.555998 70.1435C0.568705 70.15 0.581411 70.1559 0.594406 70.1616L0.636775 70.1803C0.652329 70.1863 0.668974 70.1914 0.685352 70.1968L0.735286 70.2121C0.755958 70.2176 0.773827 70.2229 0.792119 70.2268L0.825809 70.2328C0.847572 70.2366 0.86544 70.2391 0.883465 70.2412C0.893055 70.2424 0.902802 70.2436 0.912393 70.2449C0.948954 70.2481 0.976658 70.25 1.00483 70.25H60.6477L60.7045 70.2459C60.7178 70.2452 60.7323 70.2445 60.7471 70.244L60.9523 70.2014L61.1414 70.119C61.1552 70.1113 61.169 70.1033 61.1824 70.0948L61.2182 70.0718C61.236 70.0595 61.253 70.0466 61.2699 70.0334C61.2774 70.0273 61.2877 70.0196 61.2988 70.0111C61.316 69.9964 61.3335 69.9798 61.3506 69.9629L61.369 69.9439C61.3811 69.9312 61.3965 69.9144 61.4115 69.8969C61.4166 69.891 61.4226 69.8841 61.429 69.877L61.4321 69.8729C61.4449 69.8571 61.4578 69.8393 61.4703 69.8214C61.4747 69.8151 61.4788 69.8096 61.4826 69.8043L61.4935 69.7864C61.5062 69.7663 61.5157 69.7518 61.5241 69.7368L61.5444 69.6974C61.5517 69.6832 61.5569 69.6716 61.5622 69.6601L61.5798 69.6206C61.587 69.6025 61.5922 69.5863 61.5976 69.5701L61.6148 69.5141C61.6185 69.5006 61.6236 69.4832 61.6275 69.4657L61.6335 69.4329C61.638 69.4071 61.6406 69.3891 61.6428 69.3712C61.6438 69.3619 61.6452 69.3524 61.6465 69.3429C61.6495 69.3065 61.6513 69.2798 61.6513 69.2528L61.6514 9.99909C61.6514 9.9712 61.6501 9.94236 61.6475 9.91319L61.5913 9.66429L61.5305 9.52556L61.4197 9.36206C61.3808 9.31561 61.3389 9.27283 61.2937 9.23485L61.0736 9.09692L60.9317 9.04214L60.7341 9.00417C60.7336 9.0041 60.734 9.00423 60.7341 9.00417C60.7028 9.00148 60.6732 9 60.6458 9H1.03322C1.02092 9.00047 1.00859 9.00074 0.996284 9.00087C0.971695 9.00108 0.947997 9.00161 0.924565 9.00323C0.9097 9.00531 0.895637 9.00712 0.881418 9.00867C0.866531 9.01049 0.844879 9.01331 0.823383 9.01721L0.782506 9.02595C0.769265 9.0289 0.754112 9.03287 0.738913 9.03697L0.590378 9.09054L0.510381 9.1308C0.493492 9.14035 0.479806 9.14835 0.46641 9.15681L0.440286 9.17342C0.416342 9.18982 0.399297 9.20272 0.382519 9.21596C0.372906 9.22349 0.364249 9.23015 0.35586 9.2364C0.337057 9.2524 0.318521 9.26974 0.300385 9.28741L0.287256 9.30146C0.26872 9.32055 0.2541 9.33655 0.239881 9.35302C0.234474 9.3594 0.228132 9.36673 0.2211 9.37453L0.215937 9.38118C0.20648 9.39288 0.193618 9.41062 0.181023 9.42863L0.155856 9.46695C0.145864 9.48268 0.135695 9.49827 0.126505 9.5146L0.10877 9.54902C0.100002 9.56643 0.0938829 9.57974 0.087808 9.59318L0.0733217 9.6245L0.0767263 9.6163M58.2207 10.9966L40.7659 28.3378L32.2468 19.8739L41.1821 10.9966H58.2207ZM50.7063 21.2856L59.2253 29.7495L40.7659 48.0887L32.2468 39.625L50.7063 21.2856ZM38.3401 10.9966L30.8258 18.4619L23.3113 10.9966H38.3401ZM39.3449 29.7495L30.8258 38.2132L12.366 19.8738L20.8853 11.4102L39.3449 29.7495ZM29.4046 39.625L10.945 57.9643L2.42589 49.5005L20.8853 31.1613L29.4046 39.625ZM18.4595 10.9966L10.945 18.4619L3.43083 10.9966H18.4595ZM2.00966 12.4085L19.4643 29.7495L10.945 38.2132L2.00966 29.3359V12.4085ZM2.00966 32.1595L9.52396 39.625L2.00966 47.0905V32.1595ZM2.00966 51.9106L9.52396 59.3762L2.00966 66.8416V51.9106ZM3.43072 68.2534L20.8853 50.9124L29.4046 59.3762L20.4691 68.2534H3.43072ZM23.3114 68.2534L30.8258 60.7879L38.34 68.2534H23.3114ZM22.3065 49.5005L30.8258 41.0368L49.2852 59.3762L40.7659 67.84L22.3065 49.5005ZM43.1918 68.2534L50.7063 60.788L58.2207 68.2534H43.1918ZM59.6417 66.8416L42.1871 49.5005L50.7063 41.0367L59.6417 49.9141V66.8416ZM59.6417 47.0904L52.1275 39.6249L59.6417 32.1594V47.0904ZM59.6417 27.3393L52.1275 19.8738L59.6417 12.4084V27.3393Z" fill="black"/>
</svg>
