<svg width="92" height="65" viewBox="0 0 92 65" fill="none" xmlns="http://www.w3.org/2000/svg">
<circle cx="17" cy="17" r="17" fill="white"/>
<path d="M27.727 21.387L28.8069 15.0322C28.8069 15.0322 33.7496 10.5465 33.8742 10.5465C33.9988 10.5465 39.8552 9.79883 39.8552 9.79883L46.8746 14.5753L48.4944 18.5627L49.159 22.0101L53.0096 25.0836L53.9355 30.6493L53.2709 34.9689L49.242 38.9147L45.6285 40.41L42.4303 44.2904L37.1139 45.3942L31.7143 42.6944L29.8037 39.3301L25.4426 37.8348L22.5352 32.4768L23.7397 25.7897L26.7619 22.4669L27.727 21.387Z" fill="#FFCC24"/>
<path d="M90.9714 62.4191H75.8049V54.9581L75.9478 54.9387C79.2046 54.4984 82.0278 52.482 83.6934 49.4065L83.729 49.3409L83.8014 49.3243C86.002 48.8186 88.025 47.5181 89.4979 45.6621C91.1114 43.629 92 41.0301 92 38.3442C92 34.2624 89.9495 30.4969 86.6486 28.517L86.573 28.4717L86.5686 28.3832C86.2242 21.5082 80.982 16.1228 74.6345 16.1228C72.6325 16.1228 70.6515 16.6706 68.9056 17.7067C68.4336 17.9868 68.2764 18.6003 68.555 19.0745L68.5586 19.0809C68.6939 19.3074 68.9081 19.4682 69.163 19.5343C69.4196 19.6006 69.6873 19.5629 69.916 19.4271C71.356 18.5724 72.9875 18.1206 74.6345 18.1206C80.1182 18.1206 84.5882 23.0342 84.5985 29.0739C84.5993 29.4518 84.8081 29.7926 85.1435 29.9635C88.1011 31.4678 90.0121 34.7574 90.0121 38.3441C90.0121 42.8728 86.9554 46.7946 82.9016 47.4667C82.5828 47.5196 82.3086 47.7258 82.1682 48.0185C80.9231 50.6141 78.6166 52.4422 75.9985 52.9083L75.8049 52.9428V42.367L81.5609 37.0471C81.7564 36.8666 81.8702 36.6203 81.8812 36.3537C81.8923 36.0871 81.7996 35.8322 81.6197 35.6358C81.2491 35.2305 80.6189 35.204 80.2157 35.5764L75.8049 39.6529V31.5011C75.8049 30.9503 75.3591 30.5021 74.8111 30.5021C74.2631 30.5021 73.817 30.9503 73.817 31.5011V45.9743L69.4066 41.8979C69.0033 41.5253 68.3736 41.5516 68.0026 41.9569C67.8226 42.1535 67.7297 42.4084 67.7408 42.6752C67.7518 42.9416 67.8656 43.1879 68.061 43.3684L73.8172 48.6884V52.9882L73.6313 52.964C70.8275 52.6008 68.374 50.7265 67.0682 47.9499C66.9365 47.6698 66.6778 47.4642 66.3764 47.3997C62.4557 46.5626 59.6098 42.7542 59.6098 38.3441C59.6098 34.8681 61.3562 31.7211 64.167 30.1313C64.4837 29.9521 64.6779 29.6137 64.6733 29.2484C64.673 29.2169 64.6722 29.1863 64.6711 29.1558C64.6701 29.1303 64.6695 29.1126 64.6695 29.095C64.6695 26.6343 65.3924 24.3089 66.7599 22.3703C66.9134 22.1526 66.9735 21.8879 66.9289 21.6249C66.8844 21.3617 66.7407 21.132 66.5241 20.9777C66.0769 20.6589 65.4555 20.7656 65.1384 21.2147C63.6269 23.3577 62.7801 25.9145 62.69 28.6089L62.6872 28.695L62.6153 28.7422C59.4888 30.7913 57.6223 34.3809 57.6223 38.3442C57.6223 43.4855 60.8281 47.9583 65.4183 49.2211L65.4869 49.24L65.5204 49.3033C67.2211 52.5225 70.2672 54.6446 73.6687 54.9795L73.8175 54.9941V62.4191H72.7628L72.7541 62.2626C72.5874 59.2857 70.5721 56.6953 67.7397 55.8167L67.67 55.7952L67.6391 55.729C66.7615 53.8526 65.0344 52.4674 63.0191 52.0239L62.916 52.0012L62.8934 51.8976C62.2239 48.8385 59.4789 46.6183 56.3665 46.6183C53.9598 46.6183 51.7307 47.9238 50.5492 50.0256L50.5039 50.1061L50.4119 50.1096C48.1196 50.1968 46.0257 51.4163 44.8108 53.372L44.6318 53.6605L44.516 53.3409C43.7591 51.2473 41.8474 49.7918 39.6458 49.6329L39.4929 49.6219V46.2613L39.635 46.2415C42.7401 45.8076 45.4354 43.8781 47.0297 40.9476L47.0651 40.8824L47.1371 40.8656C49.2446 40.3762 51.1822 39.1276 52.593 37.3497C54.144 35.396 54.9978 32.8985 54.9978 30.3171C54.9978 26.4056 53.0354 22.7917 49.8764 20.8855L49.8011 20.8401L49.7965 20.7522C49.4533 14.1621 44.4164 9 38.3294 9C35.9881 9 33.7911 9.82987 31.8157 11.1958C29.3207 12.9209 28.0633 15.6653 27.7835 16.517C27.309 17.9613 26.9073 19.4273 26.8526 20.9696L26.8496 21.0552L26.7783 21.1022C23.7862 23.074 22 26.5189 22 30.3171C22 35.2476 25.0737 39.5443 29.4747 40.7659L29.5429 40.7849L29.5762 40.8475C31.2046 43.9156 34.1132 45.9471 37.3567 46.2818L37.5048 46.2969V49.8954L37.3943 49.9342C36.1533 50.3694 35.1006 51.235 34.43 52.371L34.3852 52.4468L34.2977 52.4518C31.5661 52.6079 29.3558 54.6087 28.9225 57.3171L28.9083 57.4057L28.8268 57.4422C26.8167 58.3397 25.2862 60.1536 24.733 62.2947L24.7008 62.4188H22.994C22.4459 62.4188 22 62.8669 22 63.4177C22 63.9686 22.4459 64.4167 22.994 64.4167H90.9729C91.5183 64.4082 91.9574 63.9533 91.949 63.4024C91.9406 62.8596 91.5113 62.428 90.9714 62.4191ZM32.0077 35.1589L37.5047 40.2394V44.2903L37.3175 44.2645C34.6726 43.9008 32.3572 42.1181 31.1239 39.4957C30.9922 39.2156 30.7336 39.0099 30.4321 38.9456C26.6979 38.1479 23.9876 34.519 23.9876 30.3171C23.9876 27.0043 25.6511 24.0057 28.3287 22.4912C28.6454 22.3122 28.8394 21.9743 28.835 21.6093C28.8348 21.579 28.8342 21.5492 28.8329 21.5194L28.8316 21.462C28.8316 20.0003 29.0998 18.5865 29.6284 17.2601C29.7852 16.8672 30.2399 14.866 33.0759 12.7521C34.6344 11.6081 36.4471 10.9978 38.3294 10.9978C43.5563 10.9978 47.8169 15.683 47.8268 21.4418C47.8274 21.8198 48.0362 22.1606 48.3718 22.3313C51.1891 23.7645 53.0097 26.8992 53.0097 30.3171C53.0097 34.6321 50.0983 38.3688 46.2377 39.0089C45.919 39.0617 45.6449 39.2681 45.5042 39.5607C44.3112 42.0475 42.191 43.7415 39.6875 44.2087L39.4926 44.245V34.1873L44.9899 29.1069C45.3873 28.7306 45.4061 28.0971 45.0304 27.6962C44.6569 27.2981 44.0475 27.2723 43.643 27.6377L39.4926 31.4734V23.766C39.4926 23.215 39.0468 22.7669 38.4987 22.7669C37.9507 22.7669 37.5048 23.215 37.5048 23.766V37.5254L33.3532 33.6884C32.9654 33.3299 32.3677 33.3407 31.9927 33.7026V33.7376L31.9295 33.7694C31.5789 34.1754 31.6114 34.7927 32.0077 35.1589ZM26.7619 62.4191L26.8502 62.1928C27.4326 60.7013 28.6352 59.563 30.1497 59.0699C30.5484 58.9401 30.8246 58.5701 30.8371 58.1491C30.8979 56.0693 32.5678 54.4401 34.6385 54.4401C34.7218 54.4401 34.8123 54.4439 34.9234 54.4522C35.3501 54.4836 35.7473 54.2387 35.913 53.8429C36.4765 52.4895 37.7834 51.6155 39.2432 51.6155H39.248C41.1224 51.6155 42.705 53.0856 42.8509 54.9623C42.8893 55.4557 43.2736 55.842 43.7646 55.8806C44.0865 55.9057 44.4076 55.9766 44.7191 56.091C44.7793 56.1134 44.8346 56.1357 44.8894 56.1592L44.9238 56.174C44.9762 56.1968 45.0271 56.2204 45.0771 56.2452L45.1275 56.2712C45.1967 56.3067 45.2645 56.3447 45.3308 56.3844L45.3559 56.3994C45.3841 56.4161 45.4122 56.433 45.4398 56.451C45.4574 56.4624 45.4758 56.4751 45.4939 56.4876L45.5177 56.5041C45.5804 56.5465 45.6421 56.5915 45.7018 56.6386C45.7487 56.6751 45.7952 56.7131 45.8404 56.7524L45.8767 56.7834C46.0591 56.9459 46.2254 57.127 46.3714 57.3226L46.3951 57.354C46.4901 57.4842 46.5767 57.6213 46.6527 57.7614L46.6825 57.8183C46.7099 57.8707 46.7359 57.9243 46.761 57.9784C46.8029 58.0691 46.8417 58.1628 46.8762 58.2566C46.9966 58.5904 47.2677 58.8282 47.6044 58.9013C47.7074 58.9234 47.8116 58.951 47.9231 58.9853C47.9453 58.9922 47.9672 59 47.9893 59.0077L48.0236 59.0198C48.093 59.0432 48.1619 59.0671 48.2296 59.0941C48.2582 59.1056 48.2859 59.1181 48.3137 59.1306L48.3451 59.1445C48.4053 59.171 48.4652 59.1979 48.5239 59.2272C48.5575 59.244 48.5902 59.2618 48.623 59.2797L48.6408 59.2895C48.7898 59.3697 48.9356 59.4614 49.0731 59.5616C49.1087 59.5875 49.1443 59.6135 49.1793 59.6408C49.2293 59.6798 49.2777 59.72 49.3255 59.7609L49.3372 59.7709C49.3659 59.7954 49.3947 59.8199 49.4223 59.8451C49.4719 59.8902 49.5187 59.937 49.5656 59.984L49.5886 60.0069C49.6092 60.0272 49.6296 60.0474 49.6493 60.0686C49.7012 60.1239 49.7511 60.1826 49.8005 60.2417L49.8215 60.266C49.8332 60.2792 49.845 60.2927 49.8561 60.3066C49.9242 60.3921 49.9875 60.478 50.0445 60.5623C50.0526 60.5741 50.0604 60.5869 50.0679 60.5997L50.0796 60.6186C50.1254 60.6885 50.1699 60.7592 50.2113 60.8318C50.224 60.8544 50.2357 60.8769 50.2472 60.8995L50.2647 60.9329C50.2965 60.9926 50.328 61.0529 50.3571 61.1148C50.371 61.1447 50.3838 61.1749 50.3968 61.2052L50.4082 61.2318C50.4336 61.2906 50.4582 61.3498 50.4809 61.4105C50.4964 61.4524 50.5108 61.4942 50.5247 61.536C50.5593 61.6383 50.5899 61.743 50.6161 61.8474C50.6315 61.9095 50.6449 61.9719 50.6574 62.0348C50.6662 62.0783 50.6746 62.1222 50.6817 62.1667C50.6841 62.1798 50.6858 62.1937 50.6874 62.2078L50.7185 62.4191H26.7619ZM52.6988 62.4196V62.2636C52.6969 62.2504 52.6958 62.2415 52.6951 62.2327C52.683 62.1035 52.6657 61.9682 52.6437 61.8335L52.6399 61.8138C52.6165 61.6763 52.5889 61.5409 52.5569 61.4081L52.5535 61.3927C52.5212 61.2619 52.484 61.1308 52.443 61.002L52.4301 60.96C52.3917 60.8425 52.3482 60.7232 52.2972 60.5954L52.2764 60.5432C52.2213 60.4089 52.1602 60.2742 52.0948 60.1429C52.0382 60.0295 51.9779 59.9173 51.9155 59.8093L51.8864 59.7597C51.8228 59.6516 51.754 59.5428 51.6816 59.4362L51.6557 59.3993C51.5806 59.2903 51.502 59.1834 51.4207 59.0804L51.4028 59.0579C51.3207 58.9549 51.231 58.8499 51.1388 58.7489C51.0455 58.6472 50.9496 58.5499 50.8514 58.4563L50.8254 58.431C50.7321 58.3434 50.6339 58.2568 50.5342 58.1744L50.4923 58.1396C50.3954 58.061 50.2934 57.9834 50.191 57.9106L50.1417 57.8758C50.0229 57.7928 49.8989 57.7129 49.7741 57.6389C49.664 57.5734 49.551 57.511 49.4383 57.4536L49.3915 57.4306C49.273 57.3715 49.1523 57.3161 49.0319 57.2656L48.9993 57.2528C48.8723 57.2004 48.7411 57.1521 48.6095 57.1083L48.5389 57.0794L48.4934 56.9894C48.448 56.8979 48.4003 56.8079 48.35 56.7192C48.3315 56.6862 48.3119 56.6541 48.2925 56.6219L48.2703 56.585C48.1816 56.4364 48.0837 56.2903 47.9793 56.1502C47.9398 56.0958 47.9003 56.0434 47.8596 55.9917C47.8452 55.9736 47.8297 55.9553 47.8141 55.9369L47.7864 55.9038C47.6915 55.7892 47.5912 55.6775 47.4886 55.5716L47.4354 55.5161C47.3842 55.4647 47.331 55.4153 47.2776 55.366C47.2462 55.3367 47.2152 55.3084 47.1839 55.2804C47.1336 55.236 47.0818 55.1917 47.029 55.1483C46.9938 55.1193 46.9582 55.0914 46.9223 55.0634L46.8853 55.0345C46.8455 55.0036 46.8056 54.9724 46.7644 54.9427C46.6935 54.891 46.6212 54.842 46.5481 54.7938L46.5168 54.7723C46.5082 54.7662 46.4995 54.7599 46.4905 54.7542L46.3558 54.6681L46.4371 54.5299C47.3196 53.033 48.943 52.1031 50.6741 52.1031C50.785 52.1059 50.901 52.1081 51.0463 52.1187C51.4714 52.1507 51.8702 51.9057 52.0357 51.5095C52.7676 49.7517 54.4646 48.6167 56.3602 48.6167C56.3626 48.6167 56.3645 48.6167 56.3668 48.6167C58.8012 48.6167 60.8567 50.5259 61.0457 52.9634C61.084 53.457 61.4684 53.8432 61.9593 53.8817C63.7912 54.0252 65.3792 55.2408 66.0049 56.9785C66.1223 57.304 66.3934 57.542 66.7303 57.615C68.919 58.089 70.5768 59.9909 70.7619 62.2403L70.7765 62.4196H52.6988Z" fill="black"/>
</svg>
