<svg width="77" height="65" viewBox="0 0 77 65" fill="none" xmlns="http://www.w3.org/2000/svg">
<circle cx="59" cy="26" r="18" fill="white"/>
<path d="M32.984 1.1709L31.1328 1.56012L0.967285 47.9652L1.96482 50.6999L60.5411 50.9943L63.1074 50.6577L64.033 48.0913L32.984 1.1709ZM55.8331 46.7307L53.8755 46.9975L9.19389 46.764L8.43303 44.596L31.4431 7.80686L32.8552 7.49833L56.5392 44.6961L55.8331 46.7307Z" fill="#FFCC24"/>
<path d="M61.6146 52.0001C63.4837 51.9994 64.9984 50.4836 64.9977 48.6145C64.9975 47.9648 64.8102 47.3289 64.4583 46.7828L35.3427 1.55276C34.3339 -0.0171926 32.2434 -0.472117 30.6734 0.536659C30.2658 0.798587 29.9193 1.14512 29.6573 1.55276L0.541667 46.7828C-0.470673 48.354 -0.0176021 50.4484 1.55363 51.4607C2.09979 51.8126 2.73571 51.9998 3.38542 52.0001H5.41667V56.3334H1.08333C0.485025 56.3334 0 56.8184 0 57.4167C0 58.015 0.485025 58.5 1.08333 58.5H5.41667V61.75C5.42026 62.1199 5.48769 62.4864 5.616 62.8333H1.08333C0.485025 62.8333 0 63.3184 0 63.9167C0 64.515 0.485025 65 1.08333 65H18.4167C19.015 65 19.5 64.515 19.5 63.9167C19.5 63.3184 19.015 62.8333 18.4167 62.8333H11.7173C11.8456 62.4864 11.9131 62.1199 11.9167 61.75V58.5H34.6667C35.265 58.5 35.75 58.015 35.75 57.4167C35.75 56.8184 35.265 56.3334 34.6667 56.3334H23.634C23.7623 55.9864 23.8297 55.6199 23.8333 55.25V52.0001H41.1667V55.25C41.1703 55.6199 41.2377 55.9864 41.366 56.3334H39C38.4017 56.3334 37.9167 56.8184 37.9167 57.4167C37.9167 58.015 38.4017 58.5 39 58.5H53.0833V61.75C53.0869 62.1199 53.1544 62.4864 53.2827 62.8333H22.75C22.1517 62.8333 21.6667 63.3184 21.6667 63.9167C21.6667 64.515 22.1517 65 22.75 65H63.9167C64.515 65 65 64.515 65 63.9167C65 63.3184 64.515 62.8333 63.9167 62.8333H59.384C59.5123 62.4864 59.5797 62.1199 59.5833 61.75V58.5H63.9167C64.515 58.5 65 58.015 65 57.4167C65 56.8184 64.515 56.3334 63.9167 56.3334H59.5833V52.0001H61.6146ZM2.31942 49.1997C2.10152 48.8087 2.11906 48.329 2.36492 47.9549L31.4795 2.72492C31.8409 2.16132 32.5907 1.99737 33.1543 2.35874C33.3013 2.453 33.4262 2.57791 33.5205 2.72492L62.6351 47.9549C62.8809 48.329 62.8985 48.8087 62.6806 49.1997C62.4718 49.5937 62.0605 49.8383 61.6146 49.8334H3.38542C2.93949 49.8383 2.52818 49.5937 2.31942 49.1997ZM7.58333 61.75V52.0001H9.75V61.75C9.75 62.3483 9.26498 62.8333 8.66667 62.8333C8.06836 62.8333 7.58333 62.3483 7.58333 61.75ZM11.9167 52.0001H17.3333V55.25C17.3369 55.6199 17.4044 55.9864 17.5327 56.3334H11.9167V52.0001ZM21.6667 55.25C21.6667 55.8484 21.1816 56.3334 20.5833 56.3334C19.985 56.3334 19.5 55.8484 19.5 55.25V52.0001H21.6667V55.25ZM43.3333 55.25V52.0001H45.5V55.25C45.5 55.8484 45.015 56.3334 44.4167 56.3334C43.8184 56.3334 43.3333 55.8484 43.3333 55.25ZM47.4673 56.3334C47.5956 55.9864 47.6631 55.6199 47.6667 55.25V52.0001H53.0833V56.3334H47.4673ZM57.4167 61.75C57.4167 62.3483 56.9316 62.8333 56.3333 62.8333C55.735 62.8333 55.25 62.3483 55.25 61.75V52.0001H57.4167V61.75ZM58.2411 45.1621L33.8661 7.24565C33.3231 6.49088 32.2711 6.31918 31.5163 6.86213C31.3686 6.9684 31.2391 7.09792 31.1328 7.24565L6.75783 45.1621C6.27201 45.9167 6.48989 46.9222 7.24448 47.4081C7.50704 47.5771 7.81274 47.6669 8.125 47.6668H56.875C57.7725 47.6672 58.5004 46.9401 58.5009 46.0426C58.501 45.7304 58.4101 45.4247 58.2411 45.1621ZM15.8752 34.9918C16.6425 35.4077 17.1639 36.1663 17.277 37.0317C17.3405 37.5202 17.7255 37.9043 18.2141 37.9666C19.5558 38.1357 20.5646 39.2728 20.5725 40.6251C20.569 40.8344 20.5421 41.0426 20.4923 41.2459C20.3735 41.7549 20.635 42.2762 21.1142 42.4852C22.2901 42.9862 22.9467 44.2498 22.6807 45.5001H9.11733L15.8752 34.9918ZM32.4859 24.9169C31.2893 24.9169 30.3193 23.9468 30.3193 22.7502C30.3193 21.5536 31.2893 20.5836 32.4859 20.5836C33.6825 20.5836 34.6526 21.5536 34.6526 22.7502C34.6526 23.9468 33.6825 24.9169 32.4859 24.9169ZM32.721 27.0597C33.5457 27.0181 34.341 26.7394 35.0112 26.257C35.7591 26.2354 36.4573 26.63 36.8247 27.2818L46.4663 43.8437C46.5466 43.9969 46.5868 44.168 46.5833 44.3409C46.576 44.9392 46.0851 45.4183 45.4868 45.4109C45.0662 45.4058 44.6865 45.1576 44.5131 44.7743L40.3769 38.1335C39.9849 37.4588 39.258 37.0495 38.4778 37.0642C37.6916 37.0772 36.9734 37.5133 36.5993 38.205L36.1205 39.1052C35.8685 39.5835 35.7365 40.1159 35.7359 40.6566V44.4168C35.7366 44.7097 35.6158 44.9898 35.4023 45.1903C35.1791 45.4109 34.8712 45.5239 34.5583 45.5001C33.9751 45.4045 33.5538 44.8904 33.5747 44.2998V38.426C33.5746 38.2593 33.6136 38.095 33.6884 37.9461L35.3687 34.5877C35.6937 33.9301 35.664 33.1527 35.2896 32.5218L34.5139 31.2522L34.7143 30.9846C35.0733 30.506 34.9763 29.8269 34.4977 29.4679C34.019 29.109 33.34 29.206 32.981 29.6846L32.3397 30.5404L30.6919 32.7353L27.3195 34.4762C26.9305 34.666 26.4612 34.5397 26.2199 34.1804C26.0828 33.9798 26.0408 33.729 26.1051 33.4947C26.1701 33.2506 26.3399 33.0479 26.5687 32.9411L29.4937 31.4244C29.8206 31.256 30.0995 31.0074 30.3041 30.7019L32.721 27.0597ZM42.4158 45.5001H37.7054C37.8324 45.1529 37.8991 44.7865 37.9026 44.4168V40.6522C37.9026 40.4637 37.948 40.2779 38.0348 40.1106L38.5223 39.2439L42.4158 45.5001ZM24.9167 35.9517C25.843 36.7763 27.1767 36.9571 28.2891 36.4088L31.6767 34.6593C31.966 34.5092 32.218 34.2964 32.4144 34.0363L33.1077 33.1112L33.4208 33.6193L31.7428 36.9776C31.5176 37.4276 31.4 37.9238 31.3993 38.4271V44.2965C31.4015 44.7078 31.477 45.1154 31.6225 45.5001H24.8463C24.876 45.3208 24.8959 45.1399 24.9058 44.9584C24.9058 43.3284 24.0885 41.8069 22.7294 40.9068C22.7359 40.8115 22.7392 40.7183 22.7392 40.6251C22.7342 39.4227 22.2803 38.2655 21.4663 37.3806L24.9167 35.9517ZM48.5333 45.5001C48.6754 45.1301 48.7489 44.7373 48.75 44.3409C48.7508 43.7983 48.6144 43.2643 48.3535 42.7885L38.7118 26.2136C38.2274 25.346 37.4467 24.6819 36.5127 24.3427C36.7154 23.8363 36.8195 23.2958 36.8193 22.7502C36.8323 20.357 34.9028 18.4064 32.5096 18.3934C30.1164 18.3804 28.1657 20.3099 28.1527 22.7031C28.1439 24.3146 29.0302 25.7979 30.4536 26.5538L28.4917 29.4994L25.5829 31.0084C24.4466 31.5558 23.7834 32.7644 23.9319 34.0168L19.253 35.9538C18.8925 34.7817 18.1055 33.7874 17.0473 33.1675L32.5 9.12847L55.8827 45.5001H48.5333Z" fill="black"/>
</svg>
