<svg width="233" height="277" viewBox="0 0 233 277" fill="none" xmlns="http://www.w3.org/2000/svg">
<rect x="8.5" y="8.5" width="216" height="260" stroke="white" stroke-width="17"/>
<path d="M44.6974 218L44.7297 200.558H49.1871V208.956L55.098 200.558H60.5244L54.2259 209.279L60.9443 218H55.2272L49.1871 209.602V218H44.6974ZM67.3964 218.485C66.1475 218.485 65.087 218.248 64.2149 217.774C63.3535 217.289 62.6968 216.649 62.2446 215.852C61.8031 215.045 61.5824 214.156 61.5824 213.187C61.5824 212.38 61.7062 211.642 61.9539 210.975C62.2015 210.307 62.5999 209.72 63.149 209.214C63.7088 208.698 64.4571 208.267 65.3938 207.922C66.0398 207.686 66.8096 207.476 67.7033 207.293C68.5969 207.11 69.609 206.937 70.7395 206.776C71.87 206.603 73.1135 206.415 74.4701 206.21L72.8874 207.083C72.8874 206.049 72.6398 205.29 72.1445 204.805C71.6493 204.321 70.8202 204.079 69.6574 204.079C69.0114 204.079 68.3385 204.235 67.6387 204.547C66.9388 204.859 66.449 205.414 66.169 206.21L62.1961 204.951C62.6376 203.508 63.4666 202.334 64.6832 201.43C65.8999 200.526 67.5579 200.074 69.6574 200.074C71.1971 200.074 72.5644 200.31 73.7595 200.784C74.9546 201.258 75.859 202.076 76.4727 203.239C76.8173 203.885 77.0218 204.531 77.0864 205.177C77.151 205.823 77.1833 206.544 77.1833 207.341V218H73.3396V214.415L73.8887 215.158C73.0382 216.331 72.1176 217.182 71.1271 217.709C70.1473 218.226 68.9038 218.485 67.3964 218.485ZM68.3331 215.028C69.1406 215.028 69.8189 214.888 70.368 214.608C70.9279 214.318 71.3693 213.989 71.6923 213.623C72.0261 213.257 72.2522 212.95 72.3706 212.703C72.5967 212.229 72.7259 211.68 72.7582 211.056C72.8013 210.42 72.8228 209.893 72.8228 209.473L74.1148 209.796C72.8121 210.011 71.7569 210.194 70.9494 210.345C70.1419 210.485 69.4905 210.614 68.9953 210.732C68.5 210.851 68.064 210.98 67.6871 211.12C67.2565 211.292 66.9065 211.481 66.6374 211.685C66.379 211.879 66.1852 212.094 66.056 212.331C65.9375 212.568 65.8783 212.832 65.8783 213.123C65.8783 213.521 65.9752 213.866 66.169 214.156C66.3736 214.436 66.6589 214.652 67.025 214.802C67.391 214.953 67.8271 215.028 68.3331 215.028ZM85.6462 218V204.434H79.9291V200.558H95.7561V204.434H90.039V218H85.6462ZM103.355 218.485C102.106 218.485 101.046 218.248 100.174 217.774C99.3125 217.289 98.6558 216.649 98.2036 215.852C97.7621 215.045 97.5414 214.156 97.5414 213.187C97.5414 212.38 97.6652 211.642 97.9129 210.975C98.1605 210.307 98.5589 209.72 99.108 209.214C99.6678 208.698 100.416 208.267 101.353 207.922C101.999 207.686 102.769 207.476 103.662 207.293C104.556 207.11 105.568 206.937 106.698 206.776C107.829 206.603 109.073 206.415 110.429 206.21L108.846 207.083C108.846 206.049 108.599 205.29 108.104 204.805C107.608 204.321 106.779 204.079 105.616 204.079C104.97 204.079 104.297 204.235 103.598 204.547C102.898 204.859 102.408 205.414 102.128 206.21L98.1551 204.951C98.5965 203.508 99.4256 202.334 100.642 201.43C101.859 200.526 103.517 200.074 105.616 200.074C107.156 200.074 108.523 200.31 109.719 200.784C110.914 201.258 111.818 202.076 112.432 203.239C112.776 203.885 112.981 204.531 113.045 205.177C113.11 205.823 113.142 206.544 113.142 207.341V218H109.299V214.415L109.848 215.158C108.997 216.331 108.077 217.182 107.086 217.709C106.106 218.226 104.863 218.485 103.355 218.485ZM104.292 215.028C105.1 215.028 105.778 214.888 106.327 214.608C106.887 214.318 107.328 213.989 107.651 213.623C107.985 213.257 108.211 212.95 108.33 212.703C108.556 212.229 108.685 211.68 108.717 211.056C108.76 210.42 108.782 209.893 108.782 209.473L110.074 209.796C108.771 210.011 107.716 210.194 106.908 210.345C106.101 210.485 105.45 210.614 104.954 210.732C104.459 210.851 104.023 210.98 103.646 211.12C103.215 211.292 102.866 211.481 102.596 211.685C102.338 211.879 102.144 212.094 102.015 212.331C101.897 212.568 101.837 212.832 101.837 213.123C101.837 213.521 101.934 213.866 102.128 214.156C102.333 214.436 102.618 214.652 102.984 214.802C103.35 214.953 103.786 215.028 104.292 215.028ZM115.727 218V214.35C116.362 214.469 116.852 214.463 117.196 214.334C117.541 214.194 117.799 213.925 117.971 213.526C118.154 213.117 118.311 212.563 118.44 211.863C118.612 210.937 118.763 209.855 118.892 208.617C119.032 207.379 119.15 206.071 119.247 204.692C119.344 203.303 119.43 201.925 119.506 200.558H132.684V218H128.291V204.66H123.349C123.306 205.22 123.247 205.887 123.172 206.663C123.107 207.438 123.032 208.245 122.946 209.085C122.87 209.914 122.784 210.711 122.687 211.475C122.59 212.229 122.488 212.875 122.38 213.413C122.122 214.781 121.74 215.857 121.234 216.643C120.728 217.429 120.033 217.93 119.15 218.145C118.267 218.371 117.126 218.323 115.727 218ZM145.063 218.485C143.308 218.485 141.768 218.092 140.444 217.306C139.119 216.52 138.086 215.438 137.343 214.059C136.611 212.67 136.245 211.077 136.245 209.279C136.245 207.459 136.621 205.861 137.375 204.482C138.129 203.094 139.168 202.011 140.492 201.236C141.816 200.461 143.34 200.074 145.063 200.074C146.818 200.074 148.357 200.466 149.681 201.252C151.017 202.038 152.055 203.126 152.798 204.515C153.541 205.893 153.913 207.481 153.913 209.279C153.913 211.088 153.536 212.687 152.782 214.076C152.039 215.454 151 216.536 149.665 217.322C148.341 218.097 146.807 218.485 145.063 218.485ZM145.063 214.382C146.473 214.382 147.523 213.909 148.212 212.961C148.912 212.003 149.262 210.776 149.262 209.279C149.262 207.729 148.906 206.49 148.196 205.564C147.496 204.639 146.451 204.176 145.063 204.176C144.104 204.176 143.318 204.391 142.705 204.822C142.091 205.252 141.633 205.85 141.332 206.614C141.041 207.379 140.896 208.267 140.896 209.279C140.896 210.84 141.246 212.084 141.946 213.01C142.656 213.925 143.695 214.382 145.063 214.382ZM157.464 218V200.558H170.061V204.66H161.857V218H157.464ZM181.248 218.485C179.461 218.485 177.884 218.102 176.516 217.338C175.16 216.563 174.094 215.502 173.319 214.156C172.554 212.8 172.172 211.249 172.172 209.505C172.172 207.599 172.549 205.941 173.303 204.531C174.056 203.12 175.095 202.028 176.42 201.252C177.744 200.466 179.267 200.074 180.99 200.074C182.82 200.074 184.376 200.504 185.657 201.365C186.939 202.227 187.886 203.438 188.5 204.999C189.113 206.56 189.329 208.396 189.146 210.506H184.801V208.891C184.801 207.115 184.516 205.839 183.945 205.064C183.386 204.278 182.465 203.885 181.184 203.885C179.687 203.885 178.584 204.342 177.873 205.258C177.173 206.162 176.823 207.502 176.823 209.279C176.823 210.905 177.173 212.164 177.873 213.058C178.584 213.941 179.623 214.382 180.99 214.382C181.851 214.382 182.589 214.194 183.203 213.817C183.816 213.44 184.285 212.897 184.608 212.186L189 213.446C188.344 215.039 187.305 216.277 185.883 217.16C184.473 218.043 182.928 218.485 181.248 218.485ZM175.467 210.506V207.244H187.03V210.506H175.467Z" fill="black"/>
<path d="M44.9449 186V166.56H54.0529C54.7729 166.56 55.4029 166.602 55.9429 166.686C56.4829 166.758 56.9329 166.848 57.2929 166.956C58.1809 167.22 58.9909 167.736 59.7229 168.504C60.4549 169.272 60.8209 170.388 60.8209 171.852C60.8209 172.716 60.6829 173.418 60.4069 173.958C60.1309 174.486 59.7649 174.924 59.3089 175.272C59.0929 175.428 58.8769 175.56 58.6609 175.668C58.4449 175.776 58.2289 175.86 58.0129 175.92C58.5169 175.992 58.9729 176.124 59.3809 176.316C60.0289 176.604 60.5929 177.06 61.0729 177.684C61.5529 178.296 61.7929 179.208 61.7929 180.42C61.7929 181.716 61.4749 182.82 60.8389 183.732C60.2149 184.644 59.2729 185.28 58.0129 185.64C57.5809 185.76 57.0709 185.85 56.4829 185.91C55.9069 185.97 55.3009 186 54.6649 186H44.9449ZM49.9129 182.292H54.3049C54.5569 182.292 54.8149 182.268 55.0789 182.22C55.3549 182.16 55.6009 182.088 55.8169 182.004C56.1649 181.86 56.4109 181.614 56.5549 181.266C56.7109 180.918 56.7889 180.564 56.7889 180.204C56.7889 179.7 56.6749 179.304 56.4469 179.016C56.2309 178.728 55.9849 178.524 55.7089 178.404C55.4809 178.296 55.2289 178.236 54.9529 178.224C54.6889 178.2 54.4729 178.188 54.3049 178.188H49.9129V182.292ZM49.9129 174.408H52.9009C53.2849 174.408 53.6449 174.39 53.9809 174.354C54.3289 174.306 54.6169 174.228 54.8449 174.12C55.1569 173.976 55.3909 173.748 55.5469 173.436C55.7029 173.112 55.7809 172.752 55.7809 172.356C55.7809 171.936 55.6909 171.558 55.5109 171.222C55.3429 170.874 55.0609 170.64 54.6649 170.52C54.4009 170.424 54.0649 170.37 53.6569 170.358C53.2609 170.346 53.0089 170.34 52.9009 170.34H49.9129V174.408ZM72.5778 186V166.56H77.4738V173.976H85.4658V166.56H90.3618V186H85.4658V178.548H77.4738V186H72.5778ZM100.795 186.54C99.403 186.54 98.221 186.276 97.249 185.748C96.289 185.208 95.557 184.494 95.053 183.606C94.561 182.706 94.315 181.716 94.315 180.636C94.315 179.736 94.453 178.914 94.729 178.17C95.005 177.426 95.449 176.772 96.061 176.208C96.685 175.632 97.519 175.152 98.563 174.768C99.283 174.504 100.141 174.27 101.137 174.066C102.133 173.862 103.261 173.67 104.521 173.49C105.781 173.298 107.167 173.088 108.679 172.86L106.915 173.832C106.915 172.68 106.639 171.834 106.087 171.294C105.535 170.754 104.611 170.484 103.315 170.484C102.595 170.484 101.845 170.658 101.065 171.006C100.285 171.354 99.739 171.972 99.427 172.86L94.999 171.456C95.491 169.848 96.415 168.54 97.771 167.532C99.127 166.524 100.975 166.02 103.315 166.02C105.031 166.02 106.555 166.284 107.887 166.812C109.219 167.34 110.227 168.252 110.911 169.548C111.295 170.268 111.523 170.988 111.595 171.708C111.667 172.428 111.703 173.232 111.703 174.12V186H107.419V182.004L108.031 182.832C107.083 184.14 106.057 185.088 104.953 185.676C103.861 186.252 102.475 186.54 100.795 186.54ZM101.839 182.688C102.739 182.688 103.495 182.532 104.107 182.22C104.731 181.896 105.223 181.53 105.583 181.122C105.955 180.714 106.207 180.372 106.339 180.096C106.591 179.568 106.735 178.956 106.771 178.26C106.819 177.552 106.843 176.964 106.843 176.496L108.283 176.856C106.831 177.096 105.655 177.3 104.755 177.468C103.855 177.624 103.129 177.768 102.577 177.9C102.025 178.032 101.539 178.176 101.119 178.332C100.639 178.524 100.249 178.734 99.949 178.962C99.661 179.178 99.445 179.418 99.301 179.682C99.169 179.946 99.103 180.24 99.103 180.564C99.103 181.008 99.211 181.392 99.427 181.716C99.655 182.028 99.973 182.268 100.381 182.436C100.789 182.604 101.275 182.688 101.839 182.688ZM116.347 186V166.56H121.027V181.68H125.923V166.56H130.603V181.68H135.499V166.56H140.179V186H116.347ZM154.247 186.54C152.255 186.54 150.497 186.114 148.973 185.262C147.461 184.398 146.273 183.216 145.409 181.716C144.557 180.204 144.131 178.476 144.131 176.532C144.131 174.408 144.551 172.56 145.391 170.988C146.231 169.416 147.389 168.198 148.865 167.334C150.341 166.458 152.039 166.02 153.959 166.02C155.999 166.02 157.733 166.5 159.161 167.46C160.589 168.42 161.645 169.77 162.329 171.51C163.013 173.25 163.253 175.296 163.049 177.648H158.207V175.848C158.207 173.868 157.889 172.446 157.253 171.582C156.629 170.706 155.603 170.268 154.175 170.268C152.507 170.268 151.277 170.778 150.485 171.798C149.705 172.806 149.315 174.3 149.315 176.28C149.315 178.092 149.705 179.496 150.485 180.492C151.277 181.476 152.435 181.968 153.959 181.968C154.919 181.968 155.741 181.758 156.425 181.338C157.109 180.918 157.631 180.312 157.991 179.52L162.887 180.924C162.155 182.7 160.997 184.08 159.413 185.064C157.841 186.048 156.119 186.54 154.247 186.54ZM147.803 177.648V174.012H160.691V177.648H147.803ZM166.55 186V166.56H170.51L177.278 179.16L184.046 166.56H188.006V186H183.326V176.316L178.142 186H176.414L171.23 176.316V186H166.55Z" fill="black"/>
<path d="M49.5563 153V138.09H43.2728V133.83H60.6678V138.09H54.3843V153H49.5563ZM72.9521 153.533C70.9878 153.533 69.2542 153.112 67.7514 152.272C66.2604 151.42 65.0889 150.255 64.2369 148.775C63.3967 147.284 62.9766 145.58 62.9766 143.663C62.9766 141.569 63.3908 139.747 64.2191 138.196C65.0475 136.646 66.1894 135.445 67.6449 134.593C69.1004 133.729 70.7748 133.297 72.6681 133.297C74.6798 133.297 76.3897 133.771 77.7979 134.717C79.2061 135.664 80.2474 136.995 80.9219 138.711C81.5964 140.427 81.8331 142.445 81.6319 144.764H76.8571V142.989C76.8571 141.036 76.5436 139.634 75.9164 138.782C75.3011 137.918 74.2893 137.486 72.8811 137.486C71.2363 137.486 70.0234 137.989 69.2424 138.995C68.4732 139.989 68.0886 141.462 68.0886 143.415C68.0886 145.202 68.4732 146.586 69.2424 147.568C70.0234 148.539 71.1653 149.024 72.6681 149.024C73.6148 149.024 74.4254 148.817 75.0999 148.403C75.7744 147.989 76.2891 147.391 76.6441 146.61L81.4721 147.994C80.7503 149.746 79.6084 151.107 78.0464 152.077C76.4962 153.047 74.7981 153.533 72.9521 153.533ZM66.5976 144.764V141.178H79.3066V144.764H66.5976ZM82.8164 153L89.6679 143.308L82.9584 133.83H88.6384L92.4724 139.51L96.2354 133.83H101.915L95.2059 143.308L102.093 153H96.4129L92.4724 147.107L88.4964 153H82.8164ZM104.914 153V133.83H109.742V141.143H117.623V133.83H122.451V153H117.623V145.651H109.742V153H104.914ZM144.49 133.83V153H139.875V141.285L131.213 153H127.379V133.83H131.994V145.154L140.692 133.83H144.49ZM149.428 153L149.464 133.83H154.363V143.06L160.859 133.83H166.823L159.901 143.415L167.285 153H161.001L154.363 143.77V153H149.428ZM186.126 133.83V153H181.511V141.285L172.849 153H169.015V133.83H173.63V145.154L182.328 133.83H186.126Z" fill="black"/>
<path d="M43.6834 120V92.64H62.4554V97.466H48.8514V102.672H55.2354C55.4888 102.672 55.8434 102.685 56.2994 102.71C56.7554 102.723 57.1608 102.748 57.5154 102.786C59.0861 102.951 60.3908 103.438 61.4294 104.249C62.4808 105.047 63.2661 106.067 63.7854 107.308C64.3174 108.537 64.5834 109.879 64.5834 111.336C64.5834 112.793 64.3238 114.142 63.8044 115.383C63.2851 116.612 62.4998 117.631 61.4484 118.442C60.4098 119.24 59.0988 119.721 57.5154 119.886C57.1608 119.924 56.7554 119.956 56.2994 119.981C55.8561 119.994 55.5014 120 55.2354 120H43.6834ZM48.8514 115.174H55.0074C55.2734 115.174 55.5648 115.161 55.8814 115.136C56.1981 115.111 56.4894 115.073 56.7554 115.022C57.8068 114.794 58.5034 114.306 58.8454 113.559C59.2001 112.812 59.3774 112.071 59.3774 111.336C59.3774 110.589 59.2001 109.848 58.8454 109.113C58.5034 108.366 57.8068 107.878 56.7554 107.65C56.4894 107.587 56.1981 107.549 55.8814 107.536C55.5648 107.511 55.2734 107.498 55.0074 107.498H48.8514V115.174ZM77.6323 120.57C75.5676 120.57 73.7563 120.108 72.1983 119.183C70.6403 118.258 69.4243 116.985 68.5503 115.364C67.6889 113.73 67.2583 111.855 67.2583 109.74C67.2583 107.599 67.7016 105.718 68.5883 104.097C69.4749 102.463 70.6973 101.19 72.2553 100.278C73.8133 99.366 75.6056 98.91 77.6323 98.91C79.6969 98.91 81.5083 99.3723 83.0663 100.297C84.6369 101.222 85.8593 102.501 86.7333 104.135C87.6073 105.756 88.0443 107.625 88.0443 109.74C88.0443 111.868 87.6009 113.749 86.7143 115.383C85.8403 117.004 84.6179 118.277 83.0473 119.202C81.4893 120.114 79.6843 120.57 77.6323 120.57ZM77.6323 115.744C79.2916 115.744 80.5266 115.187 81.3373 114.072C82.1606 112.945 82.5723 111.501 82.5723 109.74C82.5723 107.916 82.1543 106.459 81.3183 105.37C80.4949 104.281 79.2663 103.736 77.6323 103.736C76.5049 103.736 75.5803 103.989 74.8583 104.496C74.1363 105.003 73.5979 105.706 73.2433 106.605C72.9013 107.504 72.7303 108.549 72.7303 109.74C72.7303 111.577 73.1419 113.04 73.9653 114.129C74.8013 115.206 76.0236 115.744 77.6323 115.744ZM90.3225 120V115.706C91.0698 115.845 91.6462 115.839 92.0515 115.687C92.4568 115.522 92.7608 115.206 92.9635 114.737C93.1788 114.256 93.3625 113.603 93.5145 112.78C93.7172 111.691 93.8945 110.418 94.0465 108.961C94.2112 107.504 94.3505 105.965 94.4645 104.344C94.5785 102.71 94.6798 101.089 94.7685 99.48H110.273V120H105.105V104.306H99.2905C99.2398 104.965 99.1702 105.75 99.0815 106.662C99.0055 107.574 98.9168 108.524 98.8155 109.512C98.7268 110.487 98.6255 111.425 98.5115 112.324C98.3975 113.211 98.2772 113.971 98.1505 114.604C97.8465 116.213 97.3968 117.479 96.8015 118.404C96.2062 119.329 95.3892 119.918 94.3505 120.171C93.3118 120.437 91.9692 120.38 90.3225 120ZM115.563 120V99.48H120.731V106.016H124.037C124.607 106.016 125.272 106.029 126.032 106.054C126.792 106.079 127.419 106.143 127.913 106.244C129.117 106.51 130.13 106.934 130.953 107.517C131.777 108.1 132.397 108.853 132.815 109.778C133.246 110.69 133.461 111.779 133.461 113.046C133.461 114.87 132.986 116.339 132.036 117.454C131.099 118.556 129.737 119.316 127.951 119.734C127.457 119.848 126.824 119.924 126.051 119.962C125.279 119.987 124.607 120 124.037 120H115.563ZM120.731 116.01H124.607C124.835 116.01 125.089 115.997 125.367 115.972C125.646 115.947 125.925 115.896 126.203 115.82C126.735 115.668 127.204 115.332 127.609 114.813C128.015 114.294 128.217 113.705 128.217 113.046C128.217 112.324 128.008 111.71 127.59 111.203C127.172 110.684 126.685 110.348 126.127 110.196C125.861 110.12 125.595 110.069 125.329 110.044C125.063 110.019 124.823 110.006 124.607 110.006H120.731V116.01ZM137.05 120V99.48H141.99V115.44H147.158V99.48H152.098V115.44H157.266V99.48H162.206V120H137.05ZM177.055 120.57C174.953 120.57 173.097 120.12 171.488 119.221C169.892 118.309 168.638 117.061 167.726 115.478C166.827 113.882 166.377 112.058 166.377 110.006C166.377 107.764 166.821 105.813 167.707 104.154C168.594 102.495 169.816 101.209 171.374 100.297C172.932 99.3723 174.725 98.91 176.751 98.91C178.905 98.91 180.735 99.4167 182.242 100.43C183.75 101.443 184.864 102.868 185.586 104.705C186.308 106.542 186.562 108.701 186.346 111.184H181.235V109.284C181.235 107.194 180.9 105.693 180.228 104.781C179.57 103.856 178.487 103.394 176.979 103.394C175.219 103.394 173.92 103.932 173.084 105.009C172.261 106.073 171.849 107.65 171.849 109.74C171.849 111.653 172.261 113.135 173.084 114.186C173.92 115.225 175.143 115.744 176.751 115.744C177.765 115.744 178.632 115.522 179.354 115.079C180.076 114.636 180.627 113.996 181.007 113.16L186.175 114.642C185.403 116.517 184.18 117.973 182.508 119.012C180.849 120.051 179.031 120.57 177.055 120.57ZM170.253 111.184V107.346H183.857V111.184H170.253Z" fill="black"/>
</svg>
