<?xml version="1.0" encoding="utf-8"?>
<!-- Generator: Adobe Illustrator 26.3.1, SVG Export Plug-In . SVG Version: 6.00 Build 0)  -->
<svg version="1.1" id="Слой_1" xmlns="http://www.w3.org/2000/svg" xmlns:xlink="http://www.w3.org/1999/xlink" x="0px" y="0px"
	 viewBox="0 0 33 36" style="enable-background:new 0 0 33 36;" xml:space="preserve">
<path d="M28.2,4.8C25.1,1.7,20.9,0,16.5,0S7.9,1.7,4.8,4.8C1.7,7.9,0,12,0,16.4c0,7.5,5.1,13.9,12.3,15.8c0.5,0.1,0.9,0.4,1.2,0.8
	l1.5,1.9c0.8,1.1,2.4,1.1,3.2,0l1.5-1.9c0.3-0.4,0.7-0.6,1.2-0.8C27.9,30.3,33,23.8,33,16.4C33,12,31.3,7.9,28.2,4.8z"/>
</svg>
