<svg width="76" height="76" viewBox="0 0 76 76" fill="none" xmlns="http://www.w3.org/2000/svg">
<rect width="76" height="76" rx="3" fill="white"/>
<path d="M55 57.0002V52.7779C55 50.5383 54.1045 48.3905 52.5104 46.8068C50.9163 45.2232 48.7543 44.3335 46.5 44.3335H29.5C27.2457 44.3335 25.0837 45.2232 23.4896 46.8068C21.8955 48.3905 21 50.5383 21 52.7779V57.0002" stroke="black" stroke-linecap="round" stroke-linejoin="round"/>
<path d="M38 35.8889C42.6944 35.8889 46.5 32.1082 46.5 27.4444C46.5 22.7807 42.6944 19 38 19C33.3056 19 29.5 22.7807 29.5 27.4444C29.5 32.1082 33.3056 35.8889 38 35.8889Z" stroke="black" stroke-linecap="round" stroke-linejoin="round"/>
</svg>
