<svg width="185" height="160" viewBox="0 0 185 160" fill="none" xmlns="http://www.w3.org/2000/svg">
<path d="M95.963 5.98995C94.4229 3.32597 90.5772 3.32596 89.0371 5.98995L3.46991 153.998C1.92824 156.665 3.85262 160 6.93285 160H178.067C181.147 160 183.072 156.665 181.53 153.998L95.963 5.98995Z" fill="#FFCC24"/>
<path d="M95.0972 36.3241C93.9421 34.3261 91.0578 34.3261 89.9028 36.3241L30.2069 139.583C29.0507 141.583 30.4939 144.084 32.8041 144.084H152.196C154.506 144.084 155.949 141.583 154.793 139.583L95.0972 36.3241Z" fill="white"/>
<path d="M150.495 140.31L136.516 116.131L130.176 127.099L110.196 114.393C110.869 113.534 111.089 112.359 110.655 111.274L105.846 99.2306L109.427 87.0773C109.82 85.7369 109.291 84.2971 108.12 83.5314L91.5406 72.692C90.7444 72.1705 89.7513 72.0352 88.843 72.3233L74.945 76.7263C73.8539 77.0723 73.0323 77.9785 72.7979 79.098L70.6706 89.2592L70.6031 89.2162C70.0861 88.8875 69.394 89.0409 69.0649 89.5572C68.7356 90.0735 68.8894 90.7646 69.4062 91.0933L70.1831 91.5873L69.7652 93.5839C69.4076 95.2981 70.5172 96.9828 72.2217 97.334C73.8244 97.6692 75.3809 96.7266 75.8752 95.207L78.8716 97.1123L77.4 99.6877C77.0717 100.212 76.8922 100.838 76.9213 101.502L77.6598 118.514L67.47 133.463C66.4833 134.91 66.8596 136.882 68.3071 137.867C68.7221 138.148 69.1797 138.319 69.6439 138.385C70.8037 138.55 72.0123 138.063 72.7168 137.031L83.5 121.212C83.8853 120.647 84.0774 119.973 84.0473 119.291L83.4855 106.364L88.959 107.033L97.0074 117.596L94.4903 136.676C94.2632 138.4 95.4692 139.983 97.1892 140.227C97.1994 140.229 97.2118 140.231 97.2219 140.232C98.9591 140.46 100.554 139.239 100.783 137.504L103.47 117.13C103.58 116.3 103.355 115.462 102.849 114.797L99.2456 110.068L104.736 113.559L104.76 113.621C105.09 114.445 105.726 115.055 106.487 115.372C106.939 115.561 107.435 115.63 107.935 115.594L129.061 129.028L122.538 140.31H150.495ZM76.3935 92.8986L78.6309 82.2072L89.3249 78.8196L79.9773 95.1773L76.3935 92.8986ZM95.3461 104.95L94.0129 103.201L102.673 87.5456L99.448 98.4924C99.2468 99.1731 99.2824 99.9022 99.545 100.56L103.324 110.023L95.3461 104.95Z" fill="black"/>
<path d="M100.823 77.4196C104.228 78.8372 108.139 77.2298 109.559 73.8296C110.978 70.4291 109.369 66.5233 105.964 65.1054C102.559 63.6879 98.6479 65.2952 97.2283 68.6957C95.8087 72.0961 97.4181 76.0019 100.823 77.4196Z" fill="black"/>
</svg>
