<svg width="1920" height="714" viewBox="0 0 1920 714" fill="none" xmlns="http://www.w3.org/2000/svg">
<path d="M193.455 2.57473L185.798 1.74173C180.728 1.14921 175.526 0.71853 170.212 0.453358L153.982 0.00805207L137.509 0.00439453H98.9374H33.0394H-98.7582L-137.327 118.311H106.829L200.946 3.68845C198.445 3.3227 196.004 2.86002 193.455 2.57473Z" fill="url(#paint0_radial_41_357)"/>
<path d="M1499.93 490.038H1143.49H1124.85L1093.99 414.647L1072.57 362.305L1059.43 330.21C1056.31 322.057 1052.35 314.1 1048.37 306.259C1046.1 302.442 1043.68 298.675 1040.97 295.009C1038.4 291.329 1035.84 287.662 1032.69 284.131C1009.5 256.117 974.109 231.764 933.334 215.264C913.289 207.128 891.95 200.648 870.134 196.403C848.402 192.155 826.517 189.973 803.963 189.78H757.906H458.357H324.428L325.931 111.556L326.121 101.662C326.022 98.4128 325.717 95.2051 325.525 91.9966C325.496 90.3827 325.172 88.8346 324.811 87.2957C324.471 85.7559 324.14 84.2151 323.599 82.7238L322.137 78.2323C321.702 76.7336 321.159 75.2551 320.395 73.814C315.34 62.2287 306.773 51.428 295.372 41.9294C273.283 23.1634 239.281 9.63509 200.948 3.68701L106.829 118.31L91.8874 209.267L91.2529 216.922C91.0754 219.483 90.6804 222.098 90.9502 224.577C91.9131 239.988 96.282 255.31 105.965 269.378C115.678 283.672 129.464 296.905 147.036 307.99C164.779 319.263 186.167 328.293 209.794 334.515L218.752 336.792C221.797 337.464 224.922 338.007 228.007 338.622C231.119 339.189 234.169 339.887 237.337 340.348L246.896 341.636C253.239 342.556 259.748 343.225 266.382 343.652L286.668 344.345L468.479 344.357H797.317H813.458L832.033 414.647L848.43 476.697L853.462 495.734C856.435 506.702 858.988 517.876 863.001 528.932C866.233 540.319 872.487 550.972 878.471 561.867C885.225 572.717 892.674 583.589 901.884 593.932C920.217 615.097 943.389 634.788 969.867 651.944C997.073 669.096 1027.47 683.509 1059.41 693.936C1075.46 699.35 1091.92 703.215 1108.37 706.548C1124.88 709.176 1141.37 712.248 1158.08 712.38C1174.8 713.363 1191.36 712.955 1207.98 713.044H1236.98H1635.67H2034.36L1856.36 490.038H1499.93Z" fill="url(#paint1_radial_41_357)"/>
<path d="M2212.81 490.04H1856.37L2034.36 713.045H2433.05L2212.81 490.04Z" fill="url(#paint2_radial_41_357)"/>
<path d="M148.15 15.2822L162.436 15.6196C167.358 15.8327 171.803 16.1545 176.062 16.6062L182.883 17.271C184.277 17.4118 185.632 17.6194 186.99 17.826C187.784 17.9467 188.579 18.0656 189.38 18.1762C223.101 23.0673 253.008 35.1097 271.593 51.49C281.386 59.949 288.328 69.3617 292.172 79.4757C294.37 85.6405 295.487 90.5343 295.777 95.2983L296.03 103.73L292.478 194.09H292.489C292.066 198.611 295.023 203.017 300.337 205.815C302.842 207.278 306.114 208.381 309.757 208.998C312.508 209.493 315.227 209.543 317.874 209.543C318.198 209.543 318.521 209.541 318.841 209.541L459.651 209.54H762.943H805.556C826.566 209.717 845.472 211.447 863.419 214.842C882.132 218.34 900.711 223.816 918.705 231.162C954.417 245.685 984.656 267.089 1003.85 291.871C1006.36 294.842 1008.33 297.893 1010.56 301.353C1012.51 304.202 1014.39 307.31 1016.43 311.039C1019.73 318.019 1022.92 324.913 1025.51 331.973L1057.69 414.648L1088.87 494.762C1089.68 497.083 1091.1 500.562 1094.03 503.827C1099.22 509.901 1107.78 514.792 1116.8 516.861C1120.94 517.883 1124.85 518.099 1127.99 518.099C1128.6 518.099 1129.19 518.091 1129.74 518.08H1155.24H1516.99H1878.75H2240.5L2235.13 512.648H1874.41H1513.69H1152.97L1127.43 512.65C1124.62 512.71 1120.94 512.662 1117.21 511.747C1110.55 510.225 1104.05 506.52 1100.18 502.024C1098.49 500.135 1097.25 497.944 1096.16 494.842L1064.64 414.648L1032.16 332.007C1029.5 324.835 1026.24 317.857 1022.82 310.695C1020.64 306.735 1018.68 303.508 1016.56 300.42C1014.47 297.196 1012.31 293.875 1009.65 290.744C989.749 265.174 958.366 243.036 921.362 228.026C902.746 220.447 883.514 214.792 864.143 211.18C845.62 207.684 826.147 205.901 804.521 205.719H761.968H459.401H320.118L318.905 205.72C316.3 205.736 313.798 205.732 311.516 205.324C308.781 204.861 306.388 204.064 304.48 202.956C300.507 200.87 298.249 197.497 298.573 194.163L295.517 194.09H298.578L301.784 103.663L301.497 95.1364C301.174 90.1548 300.003 85.1001 297.709 78.7378C293.68 68.2398 286.451 58.4942 276.29 49.7536C256.991 32.8137 225.992 20.3644 191.082 15.3105L190.238 16.7342L191.045 15.306C190.275 15.2017 189.515 15.0847 188.752 14.9695C187.252 14.7418 185.751 14.5169 184.194 14.3605L177.408 13.7003C173.002 13.2331 168.375 12.8984 163.167 12.6735L148.7 12.3333L-102.775 12.3306L-103.736 15.2813L148.15 15.2822Z" fill="#E0E0E0"/>
<path d="M54.2334 57.8028L55.0984 53.6313H-12.8177L-13.8801 57.8028H54.2334Z" fill="#E0E0E0"/>
<path d="M188.426 65.9344L193.276 62.5548C183.514 58.2325 171.563 55.3705 158.684 54.2513C158.669 54.2504 158.654 54.2476 158.641 54.2467C158.628 54.2458 158.615 54.2431 158.603 54.2422C152.938 53.6826 147.162 53.6624 141.579 53.6451L121.066 53.6313L120.386 57.8028L140.922 57.8165C146.486 57.8339 151.742 57.8512 156.842 58.3605L157.766 56.295L156.924 58.3679C168.678 59.3856 179.562 61.9971 188.426 65.9344Z" fill="#E0E0E0"/>
<path d="M221.201 128.644C221.315 127.141 221.438 125.631 221.572 124.117L222.706 111.783C223.047 107.886 223.459 102.785 223.601 97.7197L215.952 97.8733C215.784 102.871 215.353 107.922 214.993 111.783L213.797 124.117C213.654 125.641 213.522 127.163 213.402 128.661L212.401 139.4H220.255L221.201 128.644Z" fill="#E0E0E0"/>
<path d="M206.675 219.722C208.052 224.787 209.814 228.763 212.213 232.222L219.876 229.903C217.726 226.831 216.124 223.227 214.858 218.685C214.086 214.912 213.91 210.921 214.327 206.829L210.181 206.806H214.33L216.472 182.43H208.398L206.13 206.806C205.661 211.213 205.833 215.523 206.675 219.722Z" fill="#E0E0E0"/>
<path d="M293.984 259.423C284.981 259.423 277.371 258.856 270.73 257.693L268.24 262.939C275.633 264.238 283.988 264.87 293.784 264.87C294.974 264.87 296.167 264.862 297.26 264.847H346.859L346.885 259.399L297.356 259.401C296.235 259.415 295.111 259.423 293.984 259.423Z" fill="#E0E0E0"/>
<path d="M421.203 259.398L421.422 264.846H463.273H505.121L504.627 259.398H462.916H421.203Z" fill="#E0E0E0"/>
<path d="M581.812 264.846H659.658L658.655 259.398H581.066L581.812 264.846Z" fill="#E0E0E0"/>
<path d="M733.945 259.398L735.195 264.846H777.044L819.35 264.857L817.837 259.41L775.655 259.398H733.945Z" fill="#E0E0E0"/>
<path d="M897.013 277.999L892.136 281.886C907.819 290.481 920.1 302.213 926.621 314.912C928.586 319.141 930.092 323.495 931.353 327.26L931.61 328.024H940.433L940.172 327.26C938.848 323.374 937.266 318.873 935.129 314.324C927.853 300.299 914.298 287.434 897.013 277.999Z" fill="#E0E0E0"/>
<path d="M950.129 383.202L960.679 414.647L971.609 447.229H981.044L969.946 414.647L959.234 383.202H950.129Z" fill="#E0E0E0"/>
<path d="M1012.75 533C1009.09 527.398 1006.22 521.239 1003.43 513.053C1003.06 511.966 1002.7 510.879 1002.35 509.796L992.564 509.686C992.914 510.807 993.279 511.928 993.658 513.053C995.634 518.945 998.573 526.762 1003.67 534.617C1008.8 542.82 1016 550.919 1025.1 558.68C1031.7 564.326 1039.11 569.573 1047.13 574.276L1052.18 568.763C1044.91 564.516 1038.18 559.771 1032.18 554.666C1023.94 547.676 1017.43 540.403 1012.75 533Z" fill="#E0E0E0"/>
<path d="M1135.64 589.439L1138.73 597.287H1188.45H1238.7L1235.21 589.439H1185.16H1135.64Z" fill="#E0E0E0"/>
<path d="M1330.78 597.287H1424.26L1420.04 589.439H1326.93L1330.78 597.287Z" fill="#E0E0E0"/>
<path d="M1510.38 589.439L1514.96 597.287H1565.21H1615.46L1610.48 589.439H1560.43H1510.38Z" fill="#E0E0E0"/>
<path d="M1707.54 597.287H1801.01L1795.31 589.439H1702.2L1707.54 597.287Z" fill="#E0E0E0"/>
<path d="M1885.65 589.439L1891.72 597.287H1941.97H1992.22L1985.75 589.439H1935.7H1885.65Z" fill="#E0E0E0"/>
<path d="M2395.29 674.809H2003.84H1612.39H1220.95H1193.65C1189.97 674.797 1186.29 674.802 1182.6 674.809C1172.55 674.844 1162.11 674.852 1151.78 674.356C1124.58 673.561 1096.94 668.881 1069.78 660.496C1043.16 652.272 1017.77 640.722 994.449 626.309C971.685 611.867 952.385 595.534 937.052 577.853C921.813 560.25 910.937 541.847 904.592 523.134C901.973 516.036 899.902 508.73 897.909 501.716C897.264 499.441 896.62 497.172 895.962 494.921L872.932 414.649L852.171 342.288C851.959 341.616 851.776 340.947 851.591 340.276C851.115 338.555 850.627 336.779 849.749 334.98C847.277 329.842 841.582 325.073 834.11 321.871C830.506 320.357 826.521 319.267 822.638 318.728C819.44 318.249 816.454 318.257 813.552 318.268L790.663 318.267H466.771L292.723 318.258L275.682 317.785C269.706 317.468 264.385 317.009 259.368 316.378L251.245 315.442C249.563 315.23 247.923 314.932 246.279 314.637C245.327 314.466 244.371 314.295 243.483 314.149L240.652 313.656C238.973 313.369 237.291 313.08 235.773 312.778L228.1 310.966C207.844 306.01 189.929 298.738 174.882 289.398C160.091 280.298 148.376 269.412 140.022 257.099C132.505 246.165 128.421 233.435 127.81 219.339C127.715 216.628 127.959 213.771 128.195 211.017C128.329 209.455 128.463 207.894 128.531 206.457L141.156 117.314C141.221 116.711 141.315 116.109 141.411 115.508C141.617 114.19 141.83 112.829 141.766 111.422C141.602 109.313 140.63 107.248 138.96 105.456C135.6 101.816 129.351 99.2997 122.237 98.7117L121.594 100.316L122.227 98.7099C119.743 98.5105 117.272 98.5197 114.871 98.5361C113.859 98.5407 112.849 98.5453 111.797 98.5352H-130.879L-131.963 101.859H111.198C112.262 101.873 113.33 101.867 114.388 101.859C116.691 101.849 118.852 101.837 120.93 102.003C126.408 102.459 131.22 104.407 133.811 107.227C135.102 108.622 135.848 110.218 135.966 111.819C136.016 112.999 135.822 114.201 135.618 115.477C135.517 116.111 135.416 116.743 135.346 117.345L122.372 206.565C122.292 208.083 122.154 209.614 122.016 211.15C121.762 213.975 121.501 216.908 121.589 219.763L124.7 219.551L121.592 219.772C122.161 234.363 126.363 247.582 134.146 258.976C142.765 271.763 154.902 283.086 170.24 292.56C185.867 302.292 204.491 309.877 225.59 315.053L233.448 316.912C235.195 317.264 236.968 317.57 238.74 317.875L241.571 318.368C242.487 318.519 243.397 318.682 244.303 318.847C246.109 319.174 247.916 319.497 249.815 319.736L257.957 320.677C263.17 321.335 268.73 321.816 275.082 322.152L292.428 322.635L467.058 322.646H791.78H814.76C817.422 322.642 819.885 322.63 822.347 323C825.394 323.424 828.475 324.27 831.232 325.43C837.034 327.923 841.443 331.609 843.33 335.565C844.055 337.06 844.472 338.604 844.92 340.244C845.112 340.949 845.304 341.656 845.51 342.324L865.982 414.649L890.624 501.705C892.609 508.8 894.679 516.196 897.314 523.405C903.802 542.76 915.02 561.873 930.788 580.171C946.658 598.567 966.656 615.56 990.325 630.624C1014.58 645.667 1040.96 657.703 1068.64 666.281C1096.9 675.032 1125.66 679.92 1153.86 680.742C1162.25 681.148 1170.67 681.216 1178.93 681.216C1181.02 681.216 1183.11 681.211 1185.19 681.208C1188.85 681.201 1192.52 681.194 1196.22 681.208H1223.63H1616.29H2008.95H2401.61L2395.29 674.809Z" fill="#E0E0E0"/>
<defs>
<radialGradient id="paint0_radial_41_357" cx="0" cy="0" r="1" gradientUnits="userSpaceOnUse" gradientTransform="translate(370.083 -1192.93) scale(3020.38 2801.4)">
<stop stop-color="#404040"/>
<stop offset="0.229896" stop-color="#3B3B3B"/>
<stop offset="0.504157" stop-color="#2C2C2C"/>
<stop offset="0.799874" stop-color="#151515"/>
<stop offset="1"/>
</radialGradient>
<radialGradient id="paint1_radial_41_357" cx="0" cy="0" r="1" gradientUnits="userSpaceOnUse" gradientTransform="translate(369.85 -1192.94) scale(3020.46 2801.48)">
<stop stop-color="#404040"/>
<stop offset="0.229896" stop-color="#3B3B3B"/>
<stop offset="0.504157" stop-color="#2C2C2C"/>
<stop offset="0.799874" stop-color="#151515"/>
<stop offset="1"/>
</radialGradient>
<radialGradient id="paint2_radial_41_357" cx="0" cy="0" r="1" gradientUnits="userSpaceOnUse" gradientTransform="translate(369.852 -1192.94) scale(3020.45 2801.47)">
<stop stop-color="#404040"/>
<stop offset="0.229896" stop-color="#3B3B3B"/>
<stop offset="0.504157" stop-color="#2C2C2C"/>
<stop offset="0.799874" stop-color="#151515"/>
<stop offset="1"/>
</radialGradient>
</defs>
</svg>
