<svg width="39" height="178" viewBox="0 0 39 178" fill="none" xmlns="http://www.w3.org/2000/svg">
<mask id="path-1-inside-1_109_4761" fill="white">
<path fill-rule="evenodd" clip-rule="evenodd" d="M38 0H20C8.95431 0 0 8.95431 0 20V153C0 164.046 8.95431 173 20 173H38V172H20C9.50659 172 1 163.493 1 153V20C1 9.50659 9.50659 1 20 1H38V0Z"/>
</mask>
<path d="M38 0H38.5V-0.5H38V0ZM38 173V173.5H38.5V173H38ZM38 172H38.5V171.5H38V172ZM38 1V1.5H38.5V1H38ZM38 -0.5H36.5V0.5H38V-0.5ZM33.5 -0.5H30.5V0.5H33.5V-0.5ZM27.5 -0.5H24.5V0.5H27.5V-0.5ZM21.5 -0.5H20V0.5H21.5V-0.5ZM20 -0.5C19.4584 -0.5 18.9217 -0.47899 18.3905 -0.437725L18.468 0.559271C18.9734 0.520006 19.4843 0.5 20 0.5V-0.5ZM15.2127 0.0621035C14.1588 0.314269 13.1364 0.647827 12.1527 1.05575L12.5358 1.97947C13.4712 1.59159 14.4432 1.27443 15.4454 1.03466L15.2127 0.0621035ZM9.28716 2.51855C8.36982 3.08187 7.50028 3.71534 6.68599 4.41146L7.33579 5.17157C8.11058 4.50921 8.93785 3.90655 9.81045 3.3707L9.28716 2.51855ZM4.41146 6.68599C3.71534 7.50028 3.08187 8.36982 2.51854 9.28716L3.37069 9.81046C3.90655 8.93785 4.50921 8.11059 5.17156 7.33579L4.41146 6.68599ZM1.05575 12.1527C0.647825 13.1364 0.314268 14.1588 0.0621026 15.2127L1.03465 15.4454C1.27443 14.4433 1.59159 13.4712 1.97947 12.5358L1.05575 12.1527ZM-0.437725 18.3905C-0.47899 18.9217 -0.5 19.4584 -0.5 20H0.5C0.5 19.4843 0.520006 18.9734 0.559271 18.468L-0.437725 18.3905ZM-0.5 20V21.5114H0.5V20H-0.5ZM-0.5 24.5341V27.5568H0.5V24.5341H-0.5ZM-0.5 30.5795V33.6023H0.5V30.5795H-0.5ZM-0.5 36.625V39.6477H0.5V36.625H-0.5ZM-0.5 42.6705V45.6932H0.5V42.6705H-0.5ZM-0.5 48.7159V51.7386H0.5V48.7159H-0.5ZM-0.5 54.7614V57.7841H0.5V54.7614H-0.5ZM-0.5 60.8068V63.8296H0.5V60.8068H-0.5ZM-0.5 66.8523V69.875H0.5V66.8523H-0.5ZM-0.5 72.8977V75.9205H0.5V72.8977H-0.5ZM-0.5 78.9432V81.9659H0.5V78.9432H-0.5ZM-0.5 84.9886V88.0114H0.5V84.9886H-0.5ZM-0.5 91.0341V94.0568H0.5V91.0341H-0.5ZM-0.5 97.0796V100.102H0.5V97.0796H-0.5ZM-0.5 103.125V106.148H0.5V103.125H-0.5ZM-0.5 109.17V112.193H0.5V109.17H-0.5ZM-0.5 115.216V118.239H0.5V115.216H-0.5ZM-0.5 121.261V124.284H0.5V121.261H-0.5ZM-0.5 127.307V130.33H0.5V127.307H-0.5ZM-0.5 133.352V136.375H0.5V133.352H-0.5ZM-0.5 139.398V142.42H0.5V139.398H-0.5ZM-0.5 145.443V148.466H0.5V145.443H-0.5ZM-0.5 151.489V153H0.5V151.489H-0.5ZM-0.5 153C-0.5 153.542 -0.47899 154.078 -0.437725 154.609L0.559271 154.532C0.520006 154.027 0.5 153.516 0.5 153H-0.5ZM0.0621027 157.787C0.314268 158.841 0.647826 159.864 1.05575 160.847L1.97947 160.464C1.59159 159.529 1.27443 158.557 1.03465 157.555L0.0621027 157.787ZM2.51854 163.713C3.08187 164.63 3.71534 165.5 4.41146 166.314L5.17156 165.664C4.50921 164.889 3.90655 164.062 3.37069 163.19L2.51854 163.713ZM6.68599 168.589C7.50028 169.285 8.36982 169.918 9.28716 170.481L9.81046 169.629C8.93785 169.093 8.11058 168.491 7.33579 167.828L6.68599 168.589ZM12.1527 171.944C13.1364 172.352 14.1588 172.686 15.2127 172.938L15.4454 171.965C14.4433 171.726 13.4712 171.408 12.5358 171.021L12.1527 171.944ZM18.3905 173.438C18.9217 173.479 19.4584 173.5 20 173.5V172.5C19.4843 172.5 18.9734 172.48 18.468 172.441L18.3905 173.438ZM20 173.5H21.5V172.5H20V173.5ZM24.5 173.5H27.5V172.5H24.5V173.5ZM30.5 173.5H33.5V172.5H30.5V173.5ZM36.5 173.5H38V172.5H36.5V173.5ZM38.5 173V172.75H37.5V173H38.5ZM38.5 172.25V172H37.5V172.25H38.5ZM38 171.5H36.5V172.5H38V171.5ZM33.5 171.5H30.5V172.5H33.5V171.5ZM27.5 171.5H24.5V172.5H27.5V171.5ZM21.5 171.5H20V172.5H21.5V171.5ZM20 171.5C19.5108 171.5 19.026 171.481 18.5465 171.444L18.4691 172.441C18.9743 172.48 19.4849 172.5 20 172.5V171.5ZM15.679 170.993C14.7282 170.765 13.806 170.464 12.9186 170.096L12.5355 171.02C13.4712 171.408 14.4437 171.725 15.4463 171.965L15.679 170.993ZM10.333 168.777C9.50516 168.268 8.72031 167.696 7.98525 167.068L7.33545 167.828C8.11001 168.49 8.93713 169.093 9.80972 169.629L10.333 168.777ZM5.93199 165.015C5.3036 164.28 4.73184 163.495 4.22346 162.667L3.37131 163.19C3.90716 164.063 4.50973 164.89 5.17188 165.665L5.93199 165.015ZM2.90359 160.081C2.5356 159.194 2.23471 158.272 2.00724 157.321L1.03468 157.554C1.27455 158.556 1.59184 159.529 1.97987 160.464L2.90359 160.081ZM1.55623 154.453C1.51898 153.974 1.5 153.489 1.5 153H0.5C0.5 153.515 0.519985 154.026 0.559236 154.531L1.55623 154.453ZM1.5 153V151.489H0.5V153H1.5ZM1.5 148.466V145.443H0.5V148.466H1.5ZM1.5 142.42V139.398H0.5V142.42H1.5ZM1.5 136.375V133.352H0.5V136.375H1.5ZM1.5 130.33V127.307H0.5V130.33H1.5ZM1.5 124.284V121.261H0.5V124.284H1.5ZM1.5 118.239V115.216H0.5V118.239H1.5ZM1.5 112.193V109.17H0.5V112.193H1.5ZM1.5 106.148V103.125H0.5V106.148H1.5ZM1.5 100.102V97.0795H0.5V100.102H1.5ZM1.5 94.0568V91.0341H0.5V94.0568H1.5ZM1.5 88.0114V84.9886H0.5V88.0114H1.5ZM1.5 81.9659V78.9432H0.5V81.9659H1.5ZM1.5 75.9204V72.8977H0.5V75.9204H1.5ZM1.5 69.875V66.8523H0.5V69.875H1.5ZM1.5 63.8295V60.8068H0.5V63.8295H1.5ZM1.5 57.7841V54.7613H0.5V57.7841H1.5ZM1.5 51.7386V48.7159H0.5V51.7386H1.5ZM1.5 45.6932V42.6704H0.5V45.6932H1.5ZM1.5 39.6477V36.625H0.5V39.6477H1.5ZM1.5 33.6023V30.5795H0.5V33.6023H1.5ZM1.5 27.5568V24.5341H0.5V27.5568H1.5ZM1.5 21.5114V20H0.5V21.5114H1.5ZM1.5 20C1.5 19.5108 1.51898 19.026 1.55623 18.5465L0.559236 18.4691C0.519985 18.9743 0.5 19.4849 0.5 20H1.5ZM2.00724 15.679C2.23471 14.7282 2.5356 13.806 2.90359 12.9186L1.97987 12.5355C1.59184 13.4712 1.27455 14.4437 1.03468 15.4463L2.00724 15.679ZM4.22346 10.333C4.73184 9.50516 5.3036 8.72031 5.93199 7.98525L5.17188 7.33545C4.50973 8.11001 3.90716 8.93713 3.37131 9.80972L4.22346 10.333ZM7.98525 5.93199C8.72031 5.3036 9.50516 4.73184 10.333 4.22346L9.80972 3.37131C8.93713 3.90716 8.11001 4.50973 7.33545 5.17188L7.98525 5.93199ZM12.9186 2.90359C13.806 2.5356 14.7282 2.23471 15.679 2.00724L15.4463 1.03468C14.4437 1.27455 13.4712 1.59184 12.5355 1.97987L12.9186 2.90359ZM18.5465 1.55623C19.026 1.51898 19.5107 1.5 20 1.5V0.5C19.4849 0.5 18.9743 0.519985 18.4691 0.559236L18.5465 1.55623ZM20 1.5H21.5V0.5H20V1.5ZM24.5 1.5H27.5V0.5H24.5V1.5ZM30.5 1.5H33.5V0.5H30.5V1.5ZM36.5 1.5H38V0.5H36.5V1.5ZM38.5 1V0.75H37.5V1H38.5ZM38.5 0.25V0H37.5V0.25H38.5ZM38 0H39V-1H38V0ZM38 173V174H39V173H38ZM38 172H39V171H38V172ZM38 1V2H39V1H38ZM38 -1H36.5V1H38V-1ZM33.5 -1H30.5V1H33.5V-1ZM27.5 -1H24.5V1H27.5V-1ZM21.5 -1H20V1H21.5V-1ZM20 -1C19.4455 -1 18.8958 -0.978487 18.3518 -0.936223L18.5067 1.05777C18.9993 1.0195 19.4973 1 20 1V-1ZM15.0964 -0.424172C14.0165 -0.16581 12.969 0.175947 11.9612 0.593886L12.7273 2.44134C13.6385 2.06347 14.5855 1.75451 15.5618 1.52093L15.0964 -0.424172ZM9.02551 2.09247C8.0858 2.66953 7.19513 3.31841 6.36109 4.03141L7.66069 5.55162C8.41573 4.90615 9.22186 4.31889 10.0721 3.79677L9.02551 2.09247ZM4.03141 6.36109C3.3184 7.19513 2.66953 8.08581 2.09247 9.02551L3.79677 10.0721C4.31889 9.22187 4.90614 8.41574 5.55162 7.66069L4.03141 6.36109ZM0.593884 11.9612C0.175945 12.969 -0.165811 14.0165 -0.424173 15.0964L1.52093 15.5618C1.75451 14.5855 2.06347 13.6385 2.44134 12.7273L0.593884 11.9612ZM-0.936223 18.3518C-0.978487 18.8958 -1 19.4455 -1 20H1C1 19.4973 1.0195 18.9993 1.05777 18.5067L-0.936223 18.3518ZM-1 20V21.5114H1V20H-1ZM-1 24.5341V27.5568H1V24.5341H-1ZM-1 30.5795V33.6023H1V30.5795H-1ZM-1 36.625V39.6477H1V36.625H-1ZM-1 42.6705V45.6932H1V42.6705H-1ZM-1 48.7159V51.7386H1V48.7159H-1ZM-1 54.7614V57.7841H1V54.7614H-1ZM-1 60.8068V63.8296H1V60.8068H-1ZM-1 66.8523V69.875H1V66.8523H-1ZM-1 72.8977V75.9205H1V72.8977H-1ZM-1 78.9432V81.9659H1V78.9432H-1ZM-1 84.9886V88.0114H1V84.9886H-1ZM-1 91.0341V94.0568H1V91.0341H-1ZM-1 97.0796V100.102H1V97.0796H-1ZM-1 103.125V106.148H1V103.125H-1ZM-1 109.17V112.193H1V109.17H-1ZM-1 115.216V118.239H1V115.216H-1ZM-1 121.261V124.284H1V121.261H-1ZM-1 127.307V130.33H1V127.307H-1ZM-1 133.352V136.375H1V133.352H-1ZM-1 139.398V142.42H1V139.398H-1ZM-1 145.443V148.466H1V145.443H-1ZM-1 151.489V153H1V151.489H-1ZM-1 153C-1 153.554 -0.978487 154.104 -0.936223 154.648L1.05777 154.493C1.0195 154.001 1 153.503 1 153H-1ZM-0.424173 157.904C-0.165811 158.983 0.175945 160.031 0.593884 161.039L2.44134 160.273C2.06347 159.361 1.75451 158.415 1.52093 157.438L-0.424173 157.904ZM2.09247 163.974C2.66953 164.914 3.3184 165.805 4.03141 166.639L5.55162 165.339C4.90614 164.584 4.31889 163.778 3.79677 162.928L2.09247 163.974ZM6.36109 168.969C7.19513 169.682 8.08581 170.33 9.02551 170.908L10.0721 169.203C9.22186 168.681 8.41574 168.094 7.66069 167.448L6.36109 168.969ZM11.9612 172.406C12.969 172.824 14.0165 173.166 15.0964 173.424L15.5618 171.479C14.5855 171.245 13.6385 170.937 12.7273 170.559L11.9612 172.406ZM18.3518 173.936C18.8958 173.978 19.4455 174 20 174V172C19.4973 172 18.9993 171.98 18.5067 171.942L18.3518 173.936ZM20 174H21.5V172H20V174ZM24.5 174H27.5V172H24.5V174ZM30.5 174H33.5V172H30.5V174ZM36.5 174H38V172H36.5V174ZM39 173V172.75H37V173H39ZM39 172.25V172H37V172.25H39ZM38 171H36.5V173H38V171ZM33.5 171H30.5V173H33.5V171ZM27.5 171H24.5V173H27.5V171ZM21.5 171H20V173H21.5V171ZM20 171C19.5237 171 19.0519 170.982 18.5853 170.945L18.4304 172.939C18.9485 172.98 19.4719 173 20 173V171ZM15.7953 170.506C14.8704 170.285 13.9733 169.993 13.1101 169.635L12.344 171.482C13.3039 171.88 14.3015 172.206 15.3299 172.452L15.7953 170.506ZM10.5947 168.35C9.78917 167.856 9.02546 167.299 8.31015 166.688L7.01055 168.208C7.80486 168.887 8.65311 169.505 9.54807 170.055L10.5947 168.35ZM6.31204 164.69C5.70053 163.975 5.14418 163.211 4.64954 162.405L2.94524 163.452C3.49482 164.347 4.11279 165.195 4.79183 165.989L6.31204 164.69ZM3.36546 159.89C3.00748 159.027 2.71479 158.13 2.49351 157.205L0.548408 157.67C0.794471 158.699 1.11996 159.696 1.518 160.656L3.36546 159.89ZM2.05473 154.415C2.01848 153.948 2 153.476 2 153H0C0 153.528 0.0204871 154.052 0.060738 154.57L2.05473 154.415ZM2 153V151.489H0V153H2ZM2 148.466V145.443H0V148.466H2ZM2 142.42V139.398H0V142.42H2ZM2 136.375V133.352H0V136.375H2ZM2 130.33V127.307H0V130.33H2ZM2 124.284V121.261H0V124.284H2ZM2 118.239V115.216H0V118.239H2ZM2 112.193V109.17H0V112.193H2ZM2 106.148V103.125H0V106.148H2ZM2 100.102V97.0795H0V100.102H2ZM2 94.0568V91.0341H0V94.0568H2ZM2 88.0114V84.9886H0V88.0114H2ZM2 81.9659V78.9432H0V81.9659H2ZM2 75.9204V72.8977H0V75.9204H2ZM2 69.875V66.8523H0V69.875H2ZM2 63.8295V60.8068H0V63.8295H2ZM2 57.7841V54.7613H0V57.7841H2ZM2 51.7386V48.7159H0V51.7386H2ZM2 45.6932V42.6704H0V45.6932H2ZM2 39.6477V36.625H0V39.6477H2ZM2 33.6023V30.5795H0V33.6023H2ZM2 27.5568V24.5341H0V27.5568H2ZM2 21.5114V20H0V21.5114H2ZM2 20C2 19.5237 2.01848 19.0519 2.05473 18.5853L0.0607383 18.4304C0.0204872 18.9485 0 19.4719 0 20H2ZM2.49351 15.7953C2.71479 14.8704 3.00748 13.9733 3.36546 13.1101L1.518 12.344C1.11996 13.3039 0.794472 14.3015 0.548408 15.3299L2.49351 15.7953ZM4.64954 10.5947C5.14418 9.78917 5.70053 9.02546 6.31204 8.31015L4.79183 7.01055C4.11279 7.80486 3.49482 8.65312 2.94524 9.54807L4.64954 10.5947ZM8.31015 6.31204C9.02546 5.70053 9.78917 5.14418 10.5947 4.64954L9.54807 2.94524C8.65311 3.49482 7.80486 4.11279 7.01055 4.79183L8.31015 6.31204ZM13.1101 3.36546C13.9733 3.00748 14.8704 2.71479 15.7953 2.49351L15.3299 0.548408C14.3015 0.794471 13.3039 1.11996 12.344 1.518L13.1101 3.36546ZM18.5853 2.05473C19.0519 2.01848 19.5237 2 20 2V0C19.4719 0 18.9485 0.0204871 18.4304 0.0607381L18.5853 2.05473ZM20 2H21.5V0H20V2ZM24.5 2H27.5V0H24.5V2ZM30.5 2H33.5V0H30.5V2ZM36.5 2H38V0H36.5V2ZM39 1V0.75H37V1H39ZM39 0.25V0H37V0.25H39Z" fill="black" mask="url(#path-1-inside-1_109_4761)"/>
<path d="M39 172.5L31.5 177.263L31.5 167.737L39 172.5Z" fill="black"/>
</svg>
