<svg aria-hidden="true" style="position: absolute; width: 0; height: 0; overflow: hidden;" version="1.1" xmlns="http://www.w3.org/2000/svg" xmlns:xlink="http://www.w3.org/1999/xlink">
<defs>
<symbol id="icon-arrow-down" viewBox="0 0 32 32">
<path d="M16 24c-0.533 0-1.6 0-2.133-0.533l-13.333-13.333c-0.533-1.067-0.533-3.2 0-4.267s2.667-1.067 3.733 0l11.733 11.733 11.2-11.2c1.067-1.067 3.2-1.067 4.267-0.533s1.067 2.667 0 3.733l-13.333 13.867c-0.533 0.533-1.6 0.533-2.133 0.533z"></path>
</symbol>
<symbol id="icon-arrow-left" viewBox="0 0 32 32">
<path d="M21.333 32c-0.533 0-1.6 0-2.133-0.533l-13.333-13.333c-0.533-1.067-0.533-3.2 0-4.267l13.333-13.333c1.067-0.533 3.2-0.533 4.267 0s1.067 2.667 0 3.733l-11.733 11.733 11.2 11.2c1.067 1.067 1.067 2.667 0 3.733 0 1.067-1.067 1.067-1.6 1.067z"></path>
</symbol>
<symbol id="icon-arrow-right" viewBox="0 0 32 32">
<path d="M8 32c-0.533 0-1.6 0-2.133-0.533-0.533-1.067-0.533-3.2 0-4.267l11.733-11.2-11.733-11.2c-0.533-1.067-0.533-3.2 0-4.267s2.667-1.067 3.733 0l13.333 13.333c1.067 1.067 1.067 2.667 0 3.733l-12.8 13.867c-0.533 0.533-1.6 0.533-2.133 0.533z"></path>
</symbol>
<symbol id="icon-badge" viewBox="0 0 32 32">
<path fill="#efefef" style="fill: var(--color1, #efefef)" d="M32 16c0 8.837-7.163 16-16 16s-16-7.163-16-16c0-8.837 7.163-16 16-16s16 7.163 16 16z"></path>
<path fill="#ffcc24" style="fill: var(--color2, #ffcc24)" d="M26.057 12.114c0 5.428-4.4 9.829-9.829 9.829s-9.829-4.4-9.829-9.829c0-5.428 4.4-9.829 9.829-9.829s9.829 4.4 9.829 9.829z"></path>
<path fill="none" stroke="#000" style="stroke: var(--color3, #000)" stroke-linejoin="round" stroke-linecap="round" stroke-miterlimit="4" stroke-width="1.0514" d="M16.229 19.574c3.913 0 7.086-3.256 7.086-7.273s-3.172-7.273-7.086-7.273c-3.913 0-7.086 3.256-7.086 7.273s3.172 7.273 7.086 7.273z"></path>
<path fill="none" stroke="#000" style="stroke: var(--color3, #000)" stroke-linejoin="round" stroke-linecap="round" stroke-miterlimit="4" stroke-width="1.0514" d="M12.392 18.421l-1.225 9.465 5.061-3.117 5.061 3.117-1.225-9.475"></path>
</symbol>
<symbol id="icon-check" viewBox="0 0 32 32">
<path d="M29.425 4l-19.262 18.937-7.588-7.46-2.575 2.532 10.163 9.992 21.837-21.468-2.575-2.532z"></path>
</symbol>
<symbol id="icon-crane" viewBox="0 0 32 32">
<path d="M31.855 17.52l-4.8-4.825c-0.097-0.097-0.194-0.145-0.339-0.145h-4.849c-0.824 0-1.455 0.627-1.455 1.448v8.202h-6.206v-3.233c0-1.013-0.824-1.834-1.842-1.834h-1.6v-2.316c0-1.013-0.824-1.833-1.842-1.833h-0.097v-1.254c0-0.483 0.291-0.917 0.727-1.11l14.497-6.755c0.194 0.193 0.436 0.386 0.727 0.434-0.097 1.158-0.485 1.882-0.873 2.509-0.339 0.579-0.679 1.158-0.533 1.882 0.145 0.772 0.776 1.399 1.552 1.544 0.097 0 0.194 0.048 0.339 0.048 0.485 0 0.921-0.145 1.261-0.482 0.436-0.386 0.679-0.917 0.679-1.447 0-0.29-0.194-0.483-0.485-0.483s-0.485 0.193-0.485 0.483c0 0.29-0.145 0.531-0.339 0.724-0.242 0.193-0.485 0.29-0.824 0.193-0.388-0.048-0.727-0.386-0.776-0.772-0.049-0.338 0.097-0.675 0.436-1.255 0.388-0.675 0.921-1.592 0.97-2.992 0.679-0.193 1.164-0.82 1.164-1.544 0-0.917-0.727-1.641-1.648-1.641s-1.648 0.724-1.648 1.641v0.241l-14.497 6.755c-0.776 0.338-1.261 1.158-1.261 1.978v1.303h-0.048c-1.018 0-1.842 0.82-1.842 1.833v2.316h-1.6c-1.018 0-1.842 0.82-1.842 1.834v3.281h-1.018c-0.824 0-1.455 0.627-1.455 1.447v2.413c0 0.82 0.63 1.447 1.455 1.447h1.455v0.434c0 1.64 1.358 2.943 2.958 2.943 1.649 0 2.958-1.351 2.958-2.943 0-0.145 0-0.338-0.049-0.483h3.782c-0.049 0.145-0.049 0.29-0.049 0.483 0 1.64 1.358 2.943 2.958 2.943 1.648 0 2.958-1.351 2.958-2.943 0-0.145 0-0.338-0.049-0.483h4.897c-0.049 0.145-0.049 0.29-0.049 0.483 0 1.64 1.358 2.943 2.958 2.943s2.958-1.351 2.958-2.943c0-0.145 0-0.338-0.049-0.483h1.454c0.824 0 1.455-0.627 1.455-1.448v-8.202c0-0.145-0.049-0.241-0.145-0.338zM25.261 2.128c0.388 0 0.679 0.289 0.679 0.675s-0.291 0.675-0.679 0.675c-0.388 0-0.679-0.289-0.679-0.675 0-0.338 0.339-0.675 0.679-0.675zM6.885 14.866c0-0.482 0.388-0.868 0.873-0.868h1.212c0.485 0 0.873 0.386 0.873 0.868v2.316h-2.909v-2.316h-0.048zM3.442 18.967c0-0.483 0.388-0.869 0.873-0.869h8.049c0.485 0 0.873 0.386 0.873 0.869v3.281h-9.794v-3.281zM5.867 30.017c-1.115 0-1.988-0.917-1.988-1.978 0-0.29 0.048-0.531 0.145-0.772 0.291-0.724 1.018-1.206 1.842-1.206 1.115 0 1.988 0.917 1.988 1.978s-0.873 1.978-1.988 1.978zM15.515 30.017c-1.115 0-1.988-0.917-1.988-1.978s0.921-1.978 1.988-1.978c0.824 0 1.552 0.483 1.842 1.206 0.097 0.241 0.145 0.483 0.145 0.772 0 1.061-0.921 1.978-1.988 1.978zM15.515 25.047c-1.115 0-2.085 0.627-2.618 1.544h-4.461c-0.485-0.917-1.503-1.544-2.618-1.544s-2.085 0.627-2.618 1.544h-1.745c-0.291 0-0.485-0.193-0.485-0.483v-2.413c0-0.29 0.194-0.483 0.485-0.483h19.006v3.378h-2.279c-0.582-0.917-1.552-1.544-2.667-1.544zM26.182 30.017c-1.115 0-1.988-0.917-1.988-1.978 0-0.29 0.049-0.531 0.145-0.772 0.291-0.724 1.018-1.206 1.842-1.206s1.552 0.483 1.842 1.206c0.097 0.241 0.145 0.483 0.145 0.772 0.049 1.061-0.873 1.978-1.988 1.978zM31.030 26.108c0 0.29-0.194 0.483-0.485 0.483h-1.745c-0.485-0.917-1.503-1.544-2.618-1.544s-2.085 0.627-2.618 1.544h-2.23v-12.545c0-0.29 0.194-0.482 0.485-0.482h4.655l4.558 4.487v8.058z"></path>
<path d="M25.794 14.722h-2.715c-0.291 0-0.485 0.193-0.485 0.483v5.211c0 0.29 0.194 0.483 0.485 0.483h6.303c0.291 0 0.485-0.193 0.485-0.483v-1.689c0-0.145-0.049-0.241-0.145-0.338l-3.539-3.522c-0.145-0.048-0.242-0.145-0.388-0.145zM28.849 19.933h-5.333v-4.246h2.036l3.248 3.233v1.013h0.049zM26.91 22.249h-1.454c-0.291 0-0.485 0.193-0.485 0.483s0.194 0.483 0.485 0.483h1.454c0.291 0 0.485-0.193 0.485-0.483s-0.194-0.483-0.485-0.483z"></path>
</symbol>
<symbol id="icon-eye" viewBox="0 0 32 32">
<path fill="#efefef" style="fill: var(--color1, #efefef)" d="M32 16c0 8.837-7.163 16-16 16s-16-7.163-16-16c0-8.837 7.163-16 16-16s16 7.163 16 16z"></path>
<path fill="#ffcc24" style="fill: var(--color2, #ffcc24)" d="M21.943 16c0 3.282-2.661 5.943-5.943 5.943s-5.943-2.661-5.943-5.943c0-3.282 2.661-5.943 5.943-5.943s5.943 2.661 5.943 5.943z"></path>
<path fill="none" stroke="#000" style="stroke: var(--color3, #000)" stroke-linejoin="round" stroke-linecap="round" stroke-miterlimit="4" stroke-width="1.0514" d="M5.029 16c0 0 3.99-7.771 10.971-7.771s10.971 7.771 10.971 7.771-3.99 7.771-10.971 7.771c-6.982 0-10.971-7.771-10.971-7.771z"></path>
<path fill="none" stroke="#000" style="stroke: var(--color3, #000)" stroke-linejoin="round" stroke-linecap="round" stroke-miterlimit="4" stroke-width="1.0514" d="M16 18.914c1.653 0 2.992-1.305 2.992-2.914s-1.34-2.914-2.992-2.914c-1.653 0-2.992 1.305-2.992 2.914s1.34 2.914 2.992 2.914z"></path>
</symbol>
<symbol id="icon-letter" viewBox="0 0 32 32">
<path d="M32 7.341c0 0 0 0 0 0-0.188-2.071-1.882-3.576-3.953-3.576h-24.094c-2.071 0-3.765 1.506-3.953 3.576 0 0 0 0 0 0s0 0.188 0 0.188v16.941c0 2.071 1.694 3.765 3.953 3.765h24.094c2.259 0 3.953-1.694 3.953-3.765v-17.129c0 0.188 0 0 0 0zM3.953 5.647h24.094c0.941 0 1.694 0.565 1.882 1.506l-13.929 9.224-13.929-9.224c0.188-0.941 0.941-1.506 1.882-1.506zM28.047 26.353h-24.094c-1.129 0-2.071-0.753-2.071-1.882v-15.247l13.553 8.847c0.188 0.188 0.376 0.188 0.565 0.188s0.376 0 0.565-0.188l13.553-8.847v15.247c0 1.129-0.941 1.882-2.071 1.882z"></path>
</symbol>
<symbol id="icon-more" viewBox="0 0 32 32">
<path d="M32 16.711c0-0.356 0-1.067 0-1.422s-0.356-0.356-0.356-0.711l-14.222-14.222c-0.711-0.356-2.133-0.356-2.844 0s-0.356 2.133 0 2.844l11.378 11.022h-24.178c-1.067 0-1.778 0.711-1.778 1.778s0.711 1.778 1.778 1.778h24.178l-11.378 11.022c-0.356 0.711-0.356 2.133 0 2.844 0.356 0.356 1.067 0.356 1.422 0.356s1.067 0 1.422-0.356l14.222-14.222c0-0.356 0-0.356 0.356-0.711z"></path>
</symbol>
<symbol id="icon-ok" viewBox="0 0 32 32">
<path fill="#ff6b00" style="fill: var(--color4, #ff6b00)" d="M23.273 0h-14.545c-4.8 0-8.727 3.927-8.727 8.727v14.545c0 4.8 3.927 8.727 8.727 8.727h14.545c4.8 0 8.727-3.927 8.727-8.727v-14.545c0-4.8-3.927-8.727-8.727-8.727zM16 4.364c3.345 0 6.109 2.618 6.109 5.964 0 3.2-2.764 5.818-6.109 5.818s-6.109-2.618-6.109-5.964c0-3.2 2.764-5.818 6.109-5.818zM22.836 18.473c-0.727 0.727-1.6 1.309-2.618 1.6s-2.036 0.582-3.055 0.582c0.145 0.145 0.291 0.291 0.291 0.291 1.455 1.309 2.764 2.618 4.218 4.073 0.436 0.436 0.582 1.018 0.291 1.6-0.145 0.727-0.873 1.018-1.455 1.018-0.436 0-0.727-0.145-1.018-0.436-1.018-1.018-2.182-2.036-3.2-3.055-0.291-0.291-0.436-0.291-0.727 0-1.018 1.018-2.036 2.036-3.2 3.055-0.436 0.436-1.018 0.582-1.6 0.291s-1.018-0.873-1.018-1.455c0-0.436 0.291-0.727 0.582-1.018 1.309-1.309 2.764-2.618 4.073-3.927 0.145-0.145 0.145-0.145 0.291-0.291-1.891-0.145-3.636-0.582-5.091-1.745-0.145-0.145-0.436-0.291-0.582-0.436-0.582-0.582-0.727-1.309-0.145-1.891 0.436-0.582 1.164-0.727 1.891-0.436 0.145 0 0.291 0.145 0.436 0.291 2.764 1.745 6.4 1.891 9.164 0.145 0.291-0.145 0.582-0.291 0.873-0.436 0.582-0.145 1.309 0 1.6 0.582 0.582 0.436 0.582 1.164 0 1.6z"></path>
<path fill="#ff6b00" style="fill: var(--color4, #ff6b00)" d="M16 13.091c0 0 0 0 0 0 1.6 0 3.055-1.309 3.055-2.909 0 0 0 0 0 0v0c0-1.6-1.309-2.909-2.909-2.909 0 0 0 0 0 0-1.6 0-3.055 1.309-3.055 2.909 0 0 0 0 0 0-0.145 1.745 1.309 2.909 2.909 2.909z"></path>
</symbol>
<symbol id="icon-percent" viewBox="0 0 32 32">
<path d="M2.954 30.031c-0.246 0-0.738 0-0.985-0.246-0.492-0.492-0.492-1.231 0-1.723l26.092-25.846c0.492-0.492 1.231-0.492 1.723 0s0.492 1.231 0 1.723l-25.846 25.846c-0.246 0.246-0.492 0.246-0.985 0.246z"></path>
<path d="M5.908 11.815c-3.2 0-5.908-2.708-5.908-5.908s2.708-5.908 5.908-5.908 5.908 2.708 5.908 5.908-2.708 5.908-5.908 5.908zM5.908 2.462c-1.969 0-3.446 1.477-3.446 3.446s1.477 3.446 3.446 3.446 3.446-1.477 3.446-3.446-1.723-3.446-3.446-3.446z"></path>
<path d="M26.092 32c-3.2 0-5.908-2.708-5.908-5.908s2.708-5.908 5.908-5.908 5.908 2.708 5.908 5.908-2.708 5.908-5.908 5.908zM26.092 22.646c-1.969 0-3.446 1.477-3.446 3.446s1.723 3.446 3.446 3.446 3.446-1.477 3.446-3.446-1.477-3.446-3.446-3.446z"></path>
</symbol>
<symbol id="icon-percent-cirle" viewBox="0 0 32 32">
<path fill="#efefef" style="fill: var(--color1, #efefef)" d="M32 16c0 8.837-7.163 16-16 16s-16-7.163-16-16c0-8.837 7.163-16 16-16s16 7.163 16 16z"></path>
<path fill="#ffcc24" style="fill: var(--color2, #ffcc24)" d="M26.971 20.571c0 3.030-2.456 5.486-5.486 5.486s-5.486-2.456-5.486-5.486c0-3.030 2.456-5.486 5.486-5.486s5.486 2.456 5.486 5.486z"></path>
<path fill="none" stroke="#000" style="stroke: var(--color3, #000)" stroke-linejoin="round" stroke-linecap="round" stroke-miterlimit="4" stroke-width="1.0514" d="M22.8 8.286l-13.6 13.6"></path>
<path fill="none" stroke="#000" style="stroke: var(--color3, #000)" stroke-linejoin="round" stroke-linecap="round" stroke-miterlimit="4" stroke-width="1.0514" d="M10.657 12.171c1.341 0 2.429-1.087 2.429-2.429s-1.087-2.429-2.429-2.429c-1.341 0-2.429 1.087-2.429 2.429s1.087 2.429 2.429 2.429z"></path>
<path fill="none" stroke="#000" style="stroke: var(--color3, #000)" stroke-linejoin="round" stroke-linecap="round" stroke-miterlimit="4" stroke-width="1.0514" d="M21.343 22.857c1.341 0 2.429-1.087 2.429-2.429s-1.087-2.429-2.429-2.429c-1.341 0-2.429 1.087-2.429 2.429s1.087 2.429 2.429 2.429z"></path>
</symbol>
<symbol id="icon-play" viewBox="0 0 32 32">
<path fill="#ffcc24" style="fill: var(--color2, #ffcc24)" d="M0 3.255l0.386-0.276 18.428 29.021h-18.814z"></path>
<path fill="#ffcc24" style="fill: var(--color2, #ffcc24)" d="M0.386 2.979l0.331-0.221 18.538 29.241h-0.441z"></path>
<path fill="#ffcc25" style="fill: var(--color5, #ffcc25)" d="M0.717 2.759l0.331-0.166 18.648 29.407h-0.441z"></path>
<path fill="#ffcc26" style="fill: var(--color6, #ffcc26)" d="M1.048 2.593l0.331-0.221 18.814 29.628h-0.497z"></path>
<path fill="#ffcd27" style="fill: var(--color7, #ffcd27)" d="M1.379 2.372l0.331-0.221 18.924 29.848h-0.441z"></path>
<path fill="#ffcd28" style="fill: var(--color8, #ffcd28)" d="M1.71 2.152l0.331-0.221 19.090 30.069h-0.497z"></path>
<path fill="#ffcd29" style="fill: var(--color9, #ffcd29)" d="M2.041 1.931l0.331-0.221 19.2 30.29h-0.441z"></path>
<path fill="#ffcd2a" style="fill: var(--color10, #ffcd2a)" d="M2.372 1.71l0.331-0.221 19.366 30.51h-0.497z"></path>
<path fill="#ffce2b" style="fill: var(--color11, #ffce2b)" d="M2.703 1.49l0.331-0.166 19.476 30.676h-0.441z"></path>
<path fill="#ffce2c" style="fill: var(--color12, #ffce2c)" d="M3.034 1.324l0.331-0.221 19.641 30.897h-0.497z"></path>
<path fill="#ffce2d" style="fill: var(--color13, #ffce2d)" d="M3.366 1.103l0.386-0.221 19.697 31.117h-0.441z"></path>
<path fill="#ffce2e" style="fill: var(--color14, #ffce2e)" d="M3.752 0.883l0.331-0.221 19.862 31.338h-0.497z"></path>
<path fill="#ffcf2f" style="fill: var(--color15, #ffcf2f)" d="M4.083 0.662l0.331-0.221 19.972 31.559h-0.441z"></path>
<path fill="#ffcf30" style="fill: var(--color16, #ffcf30)" d="M4.414 0.441l0.331-0.221 20.138 31.779h-0.497z"></path>
<path fill="#ffcf31" style="fill: var(--color17, #ffcf31)" d="M4.745 0.221l0.331-0.166 20.248 31.945h-0.441z"></path>
<path fill="#ffcf32" style="fill: var(--color18, #ffcf32)" d="M5.076 0.055v-0.055h0.441l20.303 32h-0.497z"></path>
<path fill="#ffcf33" style="fill: var(--color19, #ffcf33)" d="M5.959 0l20.303 32h-0.441l-20.303-32z"></path>
<path fill="#ffd034" style="fill: var(--color20, #ffd034)" d="M6.455 0l20.303 32h-0.497l-20.303-32z"></path>
<path fill="#ffd035" style="fill: var(--color21, #ffd035)" d="M6.897 0l20.193 31.834-0.166 0.166h-0.166l-20.303-32z"></path>
<path fill="#ffd036" style="fill: var(--color22, #ffd036)" d="M7.393 0l20.083 31.669-0.386 0.166-20.193-31.834z"></path>
<path fill="#ffd037" style="fill: var(--color23, #ffd037)" d="M7.834 0l19.972 31.448-0.331 0.221-20.083-31.669z"></path>
<path fill="#ffd138" style="fill: var(--color24, #ffd138)" d="M8.331 0l19.807 31.228-0.331 0.221-19.972-31.448z"></path>
<path fill="#ffd139" style="fill: var(--color25, #ffd139)" d="M8.772 0l19.697 31.007-0.331 0.221-19.807-31.228z"></path>
<path fill="#ffd13a" style="fill: var(--color26, #ffd13a)" d="M9.269 0l19.531 30.786-0.331 0.221-19.697-31.007z"></path>
<path fill="#ffd13b" style="fill: var(--color27, #ffd13b)" d="M9.71 0l19.421 30.566-0.331 0.221-19.531-30.786z"></path>
<path fill="#ffd23c" style="fill: var(--color28, #ffd23c)" d="M10.207 0l19.255 30.4-0.331 0.166-19.421-30.566z"></path>
<path fill="#ffd23d" style="fill: var(--color29, #ffd23d)" d="M10.648 0l19.145 30.179-0.331 0.221-19.255-30.4z"></path>
<path fill="#ffd23e" style="fill: var(--color30, #ffd23e)" d="M11.145 0l18.979 29.959-0.331 0.221-19.145-30.179z"></path>
<path fill="#ffd23f" style="fill: var(--color31, #ffd23f)" d="M11.586 0l18.869 29.738-0.331 0.221-18.979-29.959z"></path>
<path fill="#ffd240" style="fill: var(--color32, #ffd240)" d="M12.083 0l18.703 29.517-0.331 0.221-18.869-29.738z"></path>
<path fill="#ffd341" style="fill: var(--color33, #ffd341)" d="M12.524 0l18.593 29.297-0.331 0.221-18.703-29.517z"></path>
<path fill="#ffd342" style="fill: var(--color34, #ffd342)" d="M12.966 0l18.483 29.131-0.331 0.166-18.593-29.297z"></path>
<path fill="#ffd343" style="fill: var(--color35, #ffd343)" d="M13.462 0l18.317 28.91-0.331 0.221-18.483-29.131z"></path>
<path fill="#ffd344" style="fill: var(--color36, #ffd344)" d="M13.903 0l18.097 28.524v0.221l-0.221 0.166-18.317-28.91z"></path>
<path fill="#ffd445" style="fill: var(--color37, #ffd445)" d="M14.4 0l17.6 27.752v0.772l-18.097-28.524z"></path>
<path fill="#ffd446" style="fill: var(--color38, #ffd446)" d="M14.841 0l17.159 27.034v0.717l-17.6-27.752z"></path>
<path fill="#ffd447" style="fill: var(--color39, #ffd447)" d="M15.338 0l16.662 26.262v0.772l-17.159-27.034z"></path>
<path fill="#ffd448" style="fill: var(--color40, #ffd448)" d="M15.779 0l16.221 25.545v0.717l-16.662-26.262z"></path>
<path fill="#ffd549" style="fill: var(--color41, #ffd549)" d="M16.276 0l15.724 24.828v0.717l-16.221-25.545z"></path>
<path fill="#ffd54a" style="fill: var(--color42, #ffd54a)" d="M16.717 0l15.283 24.055v0.772l-15.724-24.828z"></path>
<path fill="#ffd54b" style="fill: var(--color43, #ffd54b)" d="M17.214 0l14.786 23.338v0.717l-15.283-24.055z"></path>
<path fill="#ffd54c" style="fill: var(--color44, #ffd54c)" d="M17.655 0l14.345 22.621v0.717l-14.786-23.338z"></path>
<path fill="#ffd54d" style="fill: var(--color45, #ffd54d)" d="M18.152 0l13.848 21.848v0.772l-14.345-22.621z"></path>
<path fill="#ffd64e" style="fill: var(--color46, #ffd64e)" d="M18.593 0l13.407 21.131v0.717l-13.848-21.848z"></path>
<path fill="#ffd64f" style="fill: var(--color47, #ffd64f)" d="M19.090 0l12.91 20.359v0.772l-13.407-21.131z"></path>
<path fill="#ffd650" style="fill: var(--color48, #ffd650)" d="M19.531 0l12.469 19.641v0.717l-12.91-20.359z"></path>
<path fill="#ffd651" style="fill: var(--color49, #ffd651)" d="M20.028 0l11.972 18.924v0.717l-12.469-19.641z"></path>
<path fill="#ffd752" style="fill: var(--color50, #ffd752)" d="M20.469 0l11.531 18.152v0.772l-11.972-18.924z"></path>
<path fill="#ffd753" style="fill: var(--color51, #ffd753)" d="M20.966 0l11.034 17.434v0.717l-11.531-18.152z"></path>
<path fill="#ffd754" style="fill: var(--color52, #ffd754)" d="M21.407 0l10.593 16.717v0.717l-11.034-17.434z"></path>
<path fill="#ffd755" style="fill: var(--color53, #ffd755)" d="M21.903 0l10.097 15.945v0.772l-10.593-16.717z"></path>
<path fill="#ffd856" style="fill: var(--color54, #ffd856)" d="M22.345 0l9.655 15.228v0.717l-10.097-15.945z"></path>
<path fill="#ffd857" style="fill: var(--color55, #ffd857)" d="M22.841 0l9.159 14.51v0.717l-9.655-15.228z"></path>
<path fill="#ffd858" style="fill: var(--color56, #ffd858)" d="M23.283 0l8.717 13.738v0.772l-9.159-14.51z"></path>
<path fill="#ffd859" style="fill: var(--color57, #ffd859)" d="M23.724 0l8.276 13.021v0.717l-8.717-13.738z"></path>
<path fill="#ffd85a" style="fill: var(--color58, #ffd85a)" d="M24.221 0l7.779 12.248v0.772l-8.276-13.021z"></path>
<path fill="#ffd95b" style="fill: var(--color59, #ffd95b)" d="M24.662 0l7.338 11.531v0.717l-7.779-12.248z"></path>
<path fill="#ffd95c" style="fill: var(--color60, #ffd95c)" d="M25.159 0l6.841 10.814v0.717l-7.338-11.531z"></path>
<path fill="#ffd95d" style="fill: var(--color61, #ffd95d)" d="M25.6 0l6.4 10.041v0.772l-6.841-10.814z"></path>
<path fill="#ffd95e" style="fill: var(--color62, #ffd95e)" d="M26.097 0l5.903 9.324v0.717l-6.4-10.041z"></path>
<path fill="#ffda60" style="fill: var(--color63, #ffda60)" d="M26.538 0l5.462 8.607v0.717l-5.903-9.324z"></path>
<path fill="#ffda61" style="fill: var(--color64, #ffda61)" d="M27.034 0l4.966 7.834v0.772l-5.462-8.607z"></path>
<path fill="#ffda62" style="fill: var(--color65, #ffda62)" d="M27.476 0l4.524 7.117v0.717l-4.966-7.834z"></path>
<path fill="#ffda63" style="fill: var(--color66, #ffda63)" d="M27.972 0l4.028 6.4v0.717l-4.524-7.117z"></path>
<path fill="#ffdb64" style="fill: var(--color67, #ffdb64)" d="M28.414 0l3.586 5.628v0.772l-4.028-6.4z"></path>
<path fill="#ffdb65" style="fill: var(--color68, #ffdb65)" d="M28.91 0l3.090 4.91v0.717l-3.586-5.628z"></path>
<path fill="#ffdb66" style="fill: var(--color69, #ffdb66)" d="M29.352 0l2.648 4.138v0.772l-3.090-4.91z"></path>
<path fill="#ffdb67" style="fill: var(--color70, #ffdb67)" d="M29.848 0l2.152 3.421v0.717l-2.648-4.138z"></path>
<path fill="#ffdb68" style="fill: var(--color71, #ffdb68)" d="M30.29 0l1.71 2.703v0.717l-2.152-3.421z"></path>
<path fill="#ffdc69" style="fill: var(--color72, #ffdc69)" d="M30.786 0l1.214 1.931v0.772l-1.71-2.703z"></path>
<path fill="#ffdc6a" style="fill: var(--color73, #ffdc6a)" d="M31.228 0l0.772 1.214v0.717l-1.214-1.931z"></path>
<path fill="#ffdc6b" style="fill: var(--color74, #ffdc6b)" d="M31.724 0l0.276 0.497v0.717l-0.772-1.214z"></path>
<path fill="#ffdc6c" style="fill: var(--color75, #ffdc6c)" d="M32 0.497l-0.276-0.497h0.276z"></path>
<path fill="#fff" style="fill: var(--color76, #fff)" d="M12.138 9.379l9.931 6.345-9.931 6.345v-12.69z"></path>
<path fill="#000" style="fill: var(--color3, #000)" d="M12.138 22.51c-0.055 0-0.11 0-0.221-0.055s-0.221-0.221-0.221-0.386v-12.69c0-0.166 0.055-0.276 0.221-0.386 0.11-0.055 0.276-0.055 0.441 0l9.931 6.345c0.11 0.055 0.166 0.221 0.166 0.331s-0.055 0.276-0.166 0.331l-9.931 6.345c-0.055 0.11-0.166 0.166-0.221 0.166zM12.579 10.152v11.2l8.772-5.572-8.772-5.628z"></path>
</symbol>
<symbol id="icon-point" viewBox="0 0 32 32">
<path d="M25.095 3.874c-2.526-2.526-5.726-3.874-9.263-3.874s-6.905 1.347-9.432 3.874-3.874 5.895-3.874 9.432c0 9.937 12.295 18.189 12.8 18.695 0.168 0 0.337 0 0.505 0s0.337 0 0.505-0.168c0.505-0.337 12.8-8.589 12.8-18.695-0.168-3.368-1.516-6.737-4.042-9.263zM15.832 30.147c-2.189-1.684-11.621-8.758-11.621-16.842 0-3.2 1.179-6.063 3.368-8.253s5.053-3.368 8.253-3.368 6.063 1.179 8.253 3.368c2.189 2.189 3.368 5.053 3.368 8.253-0.168 7.916-9.432 15.158-11.621 16.842z"></path>
<path d="M15.832 8.253c-2.695 0-5.053 2.189-5.053 5.053s2.189 5.053 5.053 5.053 5.053-2.189 5.053-5.053-2.358-5.053-5.053-5.053zM15.832 16.505c-1.853 0-3.368-1.516-3.368-3.368s1.516-3.368 3.368-3.368 3.368 1.516 3.368 3.368-1.684 3.368-3.368 3.368z"></path>
</symbol>
<symbol id="icon-road" viewBox="0 0 32 32">
<path fill="#efefef" style="fill: var(--color1, #efefef)" d="M32 16c0 8.837-7.163 16-16 16s-16-7.163-16-16c0-8.837 7.163-16 16-16s16 7.163 16 16z"></path>
<path fill="#ffcc24" style="fill: var(--color2, #ffcc24)" d="M26.514 11.429c0 3.787-3.070 6.857-6.857 6.857s-6.857-3.070-6.857-6.857c0-3.787 3.070-6.857 6.857-6.857s6.857 3.070 6.857 6.857z"></path>
<path fill="#000" style="fill: var(--color3, #000)" d="M15.383 14.826c0-0.367 0.277-0.665 0.617-0.665s0.618 0.298 0.618 0.665v2.348c0 0.367-0.277 0.665-0.618 0.665s-0.617-0.298-0.617-0.665v-2.348zM19.893 6.774l4.492 18.783c0.043 0.178 0.148 0.326 0.297 0.416 0.136 0.082 0.295 0.105 0.446 0.066 0.336-0.088 0.54-0.452 0.453-0.812l-4.491-18.784c-0.043-0.178-0.148-0.325-0.297-0.415-0.093-0.056-0.197-0.085-0.301-0.085-0.049 0-0.097 0.006-0.146 0.019-0.335 0.088-0.539 0.452-0.453 0.812zM16 26.057c0.34 0 0.618-0.298 0.618-0.665l-0.007-2.457c-0.035-0.306-0.298-0.556-0.611-0.556-0.34 0-0.617 0.298-0.617 0.665l0.007 2.457c0.035 0.305 0.298 0.556 0.611 0.556zM6.872 26.039c0.151 0.038 0.309 0.016 0.446-0.066 0.149-0.089 0.255-0.237 0.297-0.415l4.491-18.783c0.086-0.36-0.117-0.725-0.453-0.812-0.048-0.012-0.097-0.019-0.145-0.019-0.105 0-0.208 0.029-0.301 0.085-0.149 0.090-0.254 0.237-0.296 0.415l-4.491 18.784c-0.086 0.36 0.117 0.725 0.453 0.812zM16 5.943c-0.34 0-0.617 0.298-0.617 0.665l0.007 2.456c0.035 0.305 0.298 0.556 0.611 0.556 0.34 0 0.618-0.298 0.618-0.665l-0.007-2.457c-0.035-0.305-0.298-0.556-0.611-0.556z"></path>
</symbol>
<symbol id="icon-scrolltop" viewBox="0 0 32 32">
<path d="M31.702 15.181l-14.884-14.884c-0.149-0.149-0.298-0.149-0.298-0.298-0.298-0.149-0.595-0.149-0.893 0-0.149 0-0.298 0.149-0.298 0.298l-14.884 14.884c-0.447 0.447-0.447 1.191 0 1.637s1.191 0.447 1.637 0l12.8-12.949v27.088c0 0.595 0.447 1.191 1.191 1.191s1.191-0.447 1.191-1.191v-27.088l12.949 12.949c0.149 0.149 0.447 0.298 0.744 0.298s0.595-0.149 0.744-0.298c0.447-0.447 0.447-1.191 0-1.637z"></path>
</symbol>
<symbol id="icon-search" viewBox="0 0 32 32">
<path d="M31.634 29.623l-6.217-6.217c2.011-2.56 3.291-5.669 3.291-9.143 0-7.863-6.4-14.446-14.446-14.446s-14.263 6.583-14.263 14.629 6.4 14.446 14.446 14.446c3.474 0 6.583-1.28 9.143-3.291l6.217 6.217c0.183 0.183 0.549 0.366 0.914 0.366s0.731-0.183 0.914-0.366c0.549-0.731 0.549-1.646 0-2.194zM2.743 14.446c0-6.4 5.303-11.703 11.703-11.703s11.703 5.303 11.703 11.703c0 3.109-1.28 6.034-3.474 8.229 0 0 0 0 0 0s0 0 0 0c-2.194 2.011-4.937 3.474-8.229 3.474-6.4-0.183-11.703-5.303-11.703-11.703z"></path>
</symbol>
<symbol id="icon-shield" viewBox="0 0 32 32">
<path fill="#efefef" style="fill: var(--color1, #efefef)" d="M32 16c0 8.837-7.163 16-16 16s-16-7.163-16-16c0-8.837 7.163-16 16-16s16 7.163 16 16z"></path>
<path fill="#ffcc24" style="fill: var(--color2, #ffcc24)" d="M14.629 10.743c0 3.156-2.558 5.714-5.714 5.714s-5.714-2.558-5.714-5.714c0-3.156 2.558-5.714 5.714-5.714s5.714 2.558 5.714 5.714z"></path>
<path fill="none" stroke="#000" style="stroke: var(--color3, #000)" stroke-linejoin="round" stroke-linecap="round" stroke-miterlimit="4" stroke-width="1.0514" d="M16 26.971c0 0 7.771-4.114 7.771-10.286v-7.2l-7.771-3.086-7.771 3.086v7.2c0 6.171 7.771 10.286 7.771 10.286z"></path>
</symbol>
<symbol id="icon-slider-left" viewBox="0 0 32 32">
<path d="M30.222 0h-28.444c-1.007 0-1.778 0.77-1.778 1.778v28.444c0 1.007 0.77 1.778 1.778 1.778h28.444c1.007 0 1.778-0.77 1.778-1.778v-28.444c0-1.007-0.77-1.778-1.778-1.778zM31.111 30.222c0 0.474-0.415 0.889-0.889 0.889h-28.444c-0.474 0-0.889-0.415-0.889-0.889v-28.444c0-0.474 0.415-0.889 0.889-0.889h28.444c0.474 0 0.889 0.415 0.889 0.889v28.444z"></path>
<path d="M21.926 15.526h-10.785l5.156-5.156c0.178-0.178 0.178-0.474 0-0.652s-0.474-0.178-0.652 0l-5.926 5.926c-0.059 0.059-0.059 0.119-0.119 0.119-0.059 0.119-0.059 0.237 0 0.356 0 0.059 0.059 0.119 0.119 0.119l5.926 5.926c0.059 0.059 0.178 0.119 0.296 0.119s0.237-0.059 0.296-0.119c0.178-0.178 0.178-0.474 0-0.652l-5.156-5.156h10.844c0.237 0 0.474-0.178 0.474-0.474s-0.237-0.356-0.474-0.356z"></path>
</symbol>
<symbol id="icon-slider-right" viewBox="0 0 32 32">
<path d="M30.222 0h-28.444c-1.007 0-1.778 0.77-1.778 1.778v28.444c0 1.007 0.77 1.778 1.778 1.778h28.444c1.007 0 1.778-0.77 1.778-1.778v-28.444c0-1.007-0.77-1.778-1.778-1.778zM31.111 30.222c0 0.474-0.415 0.889-0.889 0.889h-28.444c-0.474 0-0.889-0.415-0.889-0.889v-28.444c0-0.474 0.415-0.889 0.889-0.889h28.444c0.474 0 0.889 0.415 0.889 0.889v28.444z"></path>
<path d="M22.341 15.822c0-0.059-0.059-0.119-0.119-0.119l-5.926-5.926c-0.178-0.178-0.474-0.178-0.652 0s-0.178 0.474 0 0.652l5.156 5.156h-10.726c-0.237 0-0.474 0.178-0.474 0.474s0.178 0.474 0.474 0.474h10.785l-5.156 5.156c-0.178 0.178-0.178 0.474 0 0.652 0.059 0.059 0.178 0.119 0.296 0.119s0.237-0.059 0.296-0.119l5.926-5.926c0.059-0.059 0.059-0.119 0.119-0.119 0.059-0.237 0.059-0.356 0-0.474z"></path>
</symbol>
<symbol id="icon-telegram" viewBox="0 0 32 32">
<path fill="#00a3ff" style="fill: var(--color77, #00a3ff)" d="M23.273 0h-14.545c-4.8 0-8.727 3.927-8.727 8.727v14.545c0 4.8 3.927 8.727 8.727 8.727h14.545c4.8 0 8.727-3.927 8.727-8.727v-14.545c0-4.8-3.927-8.727-8.727-8.727zM20.364 24.291c0 0.436-0.436 0.582-0.727 0.291l-4.073-3.345c-0.291-0.145-0.582-0.145-0.873 0l-2.182 2.036c-0.291 0.291-0.582 0.145-0.727-0.291l-1.6-5.818-4.073-1.745c-0.436-0.145-0.436-0.873 0-1.018l16.436-7.273c0.436 0 0.727 0.436 0.727 0.873l-2.909 16.291z"></path>
<path fill="#00a3ff" style="fill: var(--color77, #00a3ff)" d="M19.345 10.909l-7.855 5.527c-0.291 0.145-0.436 0.582-0.291 1.018l0.873 3.491c0 0.291 0.436 0.145 0.436 0l0.291-1.891c0-0.291 0.145-0.727 0.436-0.873l6.545-6.982c-0.145-0.145-0.291-0.436-0.436-0.291z"></path>
</symbol>
<symbol id="icon-time" viewBox="0 0 32 32">
<path d="M16 32c-8.847 0-16-7.153-16-16s7.153-16 16-16c8.847 0 16 7.153 16 16s-7.153 16-16 16zM16 1.882c-7.718 0-14.118 6.4-14.118 14.118s6.4 14.118 14.118 14.118 14.118-6.4 14.118-14.118-6.4-14.118-14.118-14.118z"></path>
<path d="M22.024 19.953c-0.188 0-0.376 0-0.376-0.188l-6.024-3.012c-0.376 0-0.565-0.376-0.565-0.753v-9.035c0-0.565 0.376-0.941 0.941-0.941s0.941 0.376 0.941 0.941v8.471l5.459 2.824c0.376 0.188 0.565 0.753 0.376 1.318 0 0.188-0.376 0.376-0.753 0.376z"></path>
</symbol>
<symbol id="icon-twitter" viewBox="0 0 32 32">
<path fill="#44bcff" style="fill: var(--color78, #44bcff)" d="M26.667 0h-21.333c-2.933 0-5.333 2.4-5.333 5.333v21.333c0 2.933 2.4 5.333 5.333 5.333h21.333c2.933 0 5.333-2.4 5.333-5.333v-21.333c0-2.933-2.4-5.333-5.333-5.333zM24.089 11.822c0 9.689-9.333 13.867-16.978 9.689 2.133 0.089 4.178-0.533 5.956-1.689-7.644-3.378-4.267-10.933-4.267-10.933 0.889 1.244 2.044 2.222 3.378 2.844s2.844 0.978 4.267 0.978v-0.8c0-0.8 0.178-1.511 0.622-2.133s1.067-1.156 1.778-1.422c0.8-0.356 1.6-0.444 2.311-0.267s1.422 0.622 1.956 1.156c0.978-0.267 1.867-0.711 2.667-1.244-0.267 1.156-0.889 2.222-1.778 3.111 0.089 0.178 0.089 0.444 0.089 0.711z"></path>
</symbol>
<symbol id="icon-viber" viewBox="0 0 32 32">
<path fill="#8932e0" style="fill: var(--color79, #8932e0)" d="M21.091 8l-0.291-0.145c-3.2-0.582-6.4-0.582-9.6 0l-0.291 0.145c-1.455 0.291-2.473 1.455-2.909 2.764-0.727 3.055-0.727 6.255 0 9.309 0.291 1.455 1.455 2.473 2.909 2.764h0.145c0.291 0 0.582 0.291 0.582 0.582l0.291 1.891 2.036-1.745c0.145-0.145 0.436-0.145 0.582-0.145 2.036 0.145 4.218 0 6.255-0.436l0.291-0.145c1.455-0.291 2.473-1.455 2.909-2.764 0.727-3.055 0.727-6.255 0-9.309-0.291-1.455-1.455-2.473-2.909-2.764zM16.727 12.509c0.582 0 1.164 0.291 1.6 0.582 0.436 0.436 0.582 1.018 0.582 1.6 0 0.291-0.145 0.582-0.436 0.582s-0.582-0.145-0.582-0.436c0-0.436-0.145-0.727-0.291-0.873s-0.436-0.291-0.873-0.291c-0.291 0-0.582-0.291-0.436-0.582s0.145-0.582 0.436-0.582zM16.145 11.345c0-0.291 0.291-0.582 0.582-0.582v0 0c1.164 0.145 2.182 0.436 2.909 1.164v0c0.727 0.727 1.018 1.745 1.018 2.764 0 0.291-0.291 0.582-0.582 0.436-0.291 0-0.582-0.291-0.582-0.582 0-0.873-0.291-1.455-0.727-2.036s-1.164-0.873-2.182-0.873v0c-0.145 0.145-0.436 0-0.436-0.291zM20.8 19.782v0c-0.291 0.436-0.582 0.727-0.873 1.018s-0.582 0.436-1.018 0.436c-0.145 0-0.291 0-0.436 0v0c-0.436-0.145-1.164-0.436-2.473-1.164-1.018-0.582-2.036-1.309-2.909-2.182v0 0 0 0c-0.873-0.873-1.6-1.891-2.182-2.909-0.436-0.727-0.727-1.455-1.018-2.327v0c0-0.145 0-0.291 0-0.436 0-0.291 0-0.582 0.291-0.873s0.727-0.582 1.018-0.873v0c0.291-0.145 0.436-0.145 0.582-0.145v0c0.145 0 0.291 0.145 0.436 0.291 0.582 0.582 1.018 1.309 1.455 1.891 0.291 0.582 0.145 1.018-0.145 1.164l-0.436 0.436c-0.291 0.145-0.291 0.582-0.291 0.582s0.727 2.909 3.636 3.636v0c0 0 0.436 0 0.582-0.291l0.436-0.582c0.145-0.291 0.727-0.436 1.164-0.145 0.727 0.436 1.309 0.873 2.036 1.455 0.291 0.291 0.291 0.727 0.145 1.018zM21.818 15.273c-0.291 0-0.582-0.291-0.436-0.582 0-0.582-0.145-1.309-0.291-1.891-0.291-0.582-0.582-1.164-1.018-1.6-0.873-0.582-2.036-1.018-3.345-1.018-0.291 0-0.582-0.291-0.582-0.582s0.291-0.582 0.582-0.582c1.6 0 2.909 0.582 4.073 1.6v0c0.582 0.582 1.018 1.164 1.309 1.891s0.436 1.455 0.436 2.327c-0.145 0.291-0.436 0.582-0.727 0.436z"></path>
<path fill="#8932e0" style="fill: var(--color79, #8932e0)" d="M23.273 0h-14.545c-4.8 0-8.727 3.927-8.727 8.727v14.545c0 4.8 3.927 8.727 8.727 8.727h14.545c4.8 0 8.727-3.927 8.727-8.727v-14.545c0-4.8-3.927-8.727-8.727-8.727zM25.6 20.509c-0.436 1.891-2.036 3.491-4.073 3.927l-0.291 0.145c-2.182 0.436-4.218 0.582-6.4 0.582l-2.764 2.473c-0.436 0-0.727 0-1.018 0-0.291-0.145-0.436-0.291-0.582-0.582l-0.291-2.764c-1.745-0.582-3.2-2.036-3.636-3.782-0.873-3.345-0.873-6.836 0-10.036 0.436-1.891 2.036-3.491 4.073-3.927l0.291-0.145c3.345-0.727 6.836-0.727 10.182 0l0.291 0.145c2.036 0.436 3.636 1.891 4.073 3.927 0.873 3.2 0.873 6.691 0.145 10.036z"></path>
</symbol>
<symbol id="icon-vk" viewBox="0 0 32 32">
<path fill="#07f" style="fill: var(--color80, #07f)" d="M23.273 0h-14.545c-4.8 0-8.727 3.927-8.727 8.727v14.545c0 4.8 3.927 8.727 8.727 8.727h14.545c4.8 0 8.727-3.927 8.727-8.727v-14.545c0-4.8-3.927-8.727-8.727-8.727zM22.545 23.273c-0.727-2.473-2.764-4.364-5.236-4.655v4.655h-0.436c-6.982 0-10.909-4.945-11.055-13.091h3.491c0.145 5.964 2.618 8.582 4.655 9.018v-9.018h3.345v5.236c2.036-0.291 4.073-2.618 4.8-5.236h3.345c-0.582 3.2-2.909 5.527-4.509 6.545 1.6 0.727 4.218 2.909 5.236 6.545h-3.636z"></path>
</symbol>
<symbol id="icon-whatsapp" viewBox="0 0 32 32">
<path fill="#1cce79" style="fill: var(--color81, #1cce79)" d="M23.273 0h-14.545c-4.8 0-8.727 3.927-8.727 8.727v14.545c0 4.8 3.927 8.727 8.727 8.727h14.545c4.8 0 8.727-3.927 8.727-8.727v-14.545c0-4.8-3.927-8.727-8.727-8.727zM15.855 24.582c-1.309 0-2.618-0.291-3.782-0.873l-4.364 1.018c-0.291 0-0.436-0.145-0.436-0.436l0.873-4.509c-0.582-1.164-0.873-2.473-0.873-3.782 0-4.655 3.636-8.436 8.291-8.727 5.091-0.291 9.309 3.927 9.164 8.873-0.145 4.8-4.073 8.582-8.873 8.436z"></path>
<path fill="#1cce79" style="fill: var(--color81, #1cce79)" d="M16 9.164c-1.745 0-3.491 0.727-4.8 2.036-1.309 1.164-2.036 2.909-2.036 4.8 0 1.018 0.291 2.182 0.727 3.055l0.291 0.582-0.582 2.764 2.764-0.582 0.582 0.291c1.018 0.436 2.036 0.727 3.055 0.727 1.891 0 3.491-0.727 4.8-2.036s2.036-3.055 2.036-4.8-0.727-3.491-2.036-4.8-2.909-2.036-4.8-2.036zM20.655 18.764c-0.291 0.582-0.873 1.164-1.455 1.309-1.164 0.291-2.909 0-5.091-2.036-1.891-1.745-2.473-3.2-2.327-4.364 0-0.727 0.582-1.309 1.164-1.6 0.145-0.436 0.582-0.291 0.727 0l0.727 1.6c0.145 0.145 0 0.436-0.145 0.582l-0.291 0.436c-0.145 0.145-0.145 0.436 0 0.727 0.436 0.727 2.182 2.182 2.909 2.618 0.291 0.145 0.436 0 0.727-0.145l0.436-0.436c0.145-0.145 0.436-0.291 0.582-0.145l1.745 0.436c0.291 0.145 0.436 0.582 0.291 1.018z"></path>
</symbol>
<symbol id="icon-youtube" viewBox="0 0 32 32">
<path fill="#f00" style="fill: var(--color82, #f00)" d="M13.527 13.091c-0.145-0.145-0.291 0-0.291 0.145v5.527c0 0.145 0.145 0.291 0.291 0.145l5.527-2.618c0.145-0.145 0.145-0.291 0-0.436l-5.527-2.764z"></path>
<path fill="#f00" style="fill: var(--color82, #f00)" d="M23.273 0h-14.545c-4.8 0-8.727 3.927-8.727 8.727v14.545c0 4.8 3.927 8.727 8.727 8.727h14.545c4.8 0 8.727-3.927 8.727-8.727v-14.545c0-4.8-3.927-8.727-8.727-8.727zM26.182 19.055c0 2.327-1.891 4.218-4.218 4.218h-11.927c-2.327 0-4.218-1.891-4.218-4.218v-6.109c0-2.327 1.891-4.218 4.218-4.218h11.927c2.327 0 4.218 1.891 4.218 4.218v6.109z"></path>
</symbol>
</defs>
</svg>
